<svg width="30" height="30" viewBox="0 0 30 30" fill="none" xmlns="http://www.w3.org/2000/svg">
<circle cx="15" cy="15" r="15" fill="#FEDDCF"/>
<path d="M10.4444 22C10.0472 22 9.70706 21.8584 9.42395 21.5753C9.14083 21.2922 8.99952 20.9523 9 20.5556V10.4444C9 10.0472 9.14156 9.70706 9.42467 9.42395C9.70778 9.14083 10.0477 8.99952 10.4444 9H20.5556C20.9528 9 21.2929 9.14156 21.5761 9.42467C21.8592 9.70778 22.0005 10.0477 22 10.4444V20.5556C22 20.9528 21.8584 21.2929 21.5753 21.5761C21.2922 21.8592 20.9523 22.0005 20.5556 22H10.4444ZM12.6111 19.1111C12.8157 19.1111 12.9874 19.0418 13.1261 18.9031C13.2647 18.7644 13.3338 18.593 13.3333 18.3889V16.2222C13.3333 16.0176 13.264 15.8459 13.1253 15.7073C12.9867 15.5686 12.8153 15.4995 12.6111 15.5C12.4065 15.5 12.2348 15.5693 12.0962 15.708C11.9575 15.8467 11.8884 16.0181 11.8889 16.2222V18.3889C11.8889 18.5935 11.9582 18.7652 12.0969 18.9038C12.2356 19.0425 12.407 19.1116 12.6111 19.1111ZM18.3889 19.1111C18.5935 19.1111 18.7652 19.0418 18.9038 18.9031C19.0425 18.7644 19.1116 18.593 19.1111 18.3889V12.6111C19.1111 12.4065 19.0418 12.2348 18.9031 12.0962C18.7644 11.9575 18.593 11.8884 18.3889 11.8889C18.1843 11.8889 18.0126 11.9582 17.8739 12.0969C17.7353 12.2356 17.6662 12.407 17.6667 12.6111V18.3889C17.6667 18.5935 17.736 18.7652 17.8747 18.9038C18.0133 19.0425 18.1847 19.1116 18.3889 19.1111ZM15.5 19.1111C15.7046 19.1111 15.8763 19.0418 16.0149 18.9031C16.1536 18.7644 16.2227 18.593 16.2222 18.3889V17.6667C16.2222 17.462 16.1529 17.2904 16.0142 17.1517C15.8756 17.0131 15.7041 16.944 15.5 16.9444C15.2954 16.9444 15.1237 17.0138 14.9851 17.1524C14.8464 17.2911 14.7773 17.4625 14.7778 17.6667V18.3889C14.7778 18.5935 14.8471 18.7652 14.9858 18.9038C15.1244 19.0425 15.2959 19.1116 15.5 19.1111ZM15.5 15.5C15.7046 15.5 15.8763 15.4307 16.0149 15.292C16.1536 15.1533 16.2227 14.9819 16.2222 14.7778V14.7597C16.2222 14.5551 16.1529 14.3866 16.0142 14.2542C15.8756 14.1218 15.7041 14.0556 15.5 14.0556C15.2954 14.0556 15.1237 14.1249 14.9851 14.2636C14.8464 14.4022 14.7773 14.5736 14.7778 14.7778V14.7958C14.7778 15.0005 14.8471 15.169 14.9858 15.3014C15.1244 15.4338 15.2959 15.5 15.5 15.5Z" fill="#F88C5E"/>
</svg>
