<svg width="45" height="51" viewBox="0 0 45 51" fill="none" xmlns="http://www.w3.org/2000/svg">
<path d="M33.5144 0.0255222C33.3967 -0.0956021 29.1564 0.0733345 25.4663 3.76125C21.7763 7.44598 22.344 11.6726 22.4271 11.781C22.5102 11.8893 27.6887 12.0583 30.9944 7.77111C34.3002 3.48394 33.6321 0.149834 33.5144 0.0255222V0.0255222ZM44.986 37.4243C44.8199 37.1183 36.9379 33.4909 37.6718 26.5167C38.4056 19.5393 43.4698 17.6268 43.5495 17.4196C43.6291 17.2124 41.4829 14.9015 39.2087 13.7317C37.5389 12.9069 35.6908 12.4344 33.7983 12.3483C33.4244 12.3388 32.1264 12.0455 29.4575 12.7181C27.699 13.1611 23.7356 14.5955 22.6452 14.6529C21.5513 14.7103 18.2975 12.989 14.7979 12.5332C12.5582 12.1348 10.1836 12.9508 8.48399 13.5787C6.78784 14.2035 3.56168 15.9821 1.30475 20.7091C-0.952182 25.433 0.228205 32.9172 1.07282 35.244C1.91744 37.5677 3.23629 41.3767 5.47937 44.1562C7.47322 47.2927 10.1178 49.4698 11.2221 50.2093C12.3263 50.9488 15.4417 51.4396 17.6017 50.4228C19.3394 49.4411 22.4756 48.8769 23.7148 48.9183C24.9506 48.9598 27.3875 49.4092 29.8833 50.6364C31.8598 51.2643 33.7291 51.0029 35.6018 50.3017C37.4744 49.5973 40.1848 46.9262 43.3487 41.5106C44.5499 38.9925 45.0968 37.6315 44.986 37.4243V37.4243Z" fill="black"/>
</svg>
