<svg width="49" height="94" viewBox="0 0 49 94" fill="none" xmlns="http://www.w3.org/2000/svg">
<path d="M6.65057 91H5.35795L9.09659 80.8182H10.3693L14.108 91H12.8153L9.77273 82.429H9.69318L6.65057 91ZM7.12784 87.0227H12.3381V88.1165H7.12784V87.0227ZM15.5348 93.8636V83.3636H16.6683V84.5767H16.8075C16.8937 84.4441 17.013 84.2751 17.1655 84.0696C17.3213 83.8608 17.5433 83.6752 17.8317 83.5128C18.1233 83.3471 18.5178 83.2642 19.0149 83.2642C19.6579 83.2642 20.2247 83.425 20.7152 83.7464C21.2057 84.0679 21.5885 84.5237 21.8636 85.1136C22.1387 85.7036 22.2763 86.3996 22.2763 87.2017C22.2763 88.0104 22.1387 88.7114 21.8636 89.3047C21.5885 89.8946 21.2074 90.352 20.7202 90.6768C20.233 90.9983 19.6712 91.1591 19.0348 91.1591C18.5443 91.1591 18.1515 91.0779 17.8565 90.9155C17.5616 90.7498 17.3345 90.5625 17.1754 90.3537C17.0163 90.1416 16.8937 89.9659 16.8075 89.8267H16.7081V93.8636H15.5348ZM16.6882 87.1818C16.6882 87.7585 16.7727 88.2673 16.9418 88.7081C17.1108 89.1456 17.3577 89.4886 17.6825 89.7372C18.0073 89.9825 18.4051 90.1051 18.8757 90.1051C19.3662 90.1051 19.7756 89.9759 20.1037 89.7173C20.4351 89.4555 20.6837 89.1042 20.8494 88.6634C21.0185 88.2192 21.103 87.7254 21.103 87.1818C21.103 86.6449 21.0201 86.161 20.8544 85.7301C20.692 85.2959 20.4451 84.9529 20.1136 84.701C19.7855 84.4458 19.3729 84.3182 18.8757 84.3182C18.3984 84.3182 17.9974 84.4392 17.6726 84.6811C17.3478 84.9197 17.1025 85.2545 16.9368 85.6854C16.7711 86.1129 16.6882 86.6117 16.6882 87.1818ZM24.0661 93.8636V83.3636H25.1996V84.5767H25.3388C25.425 84.4441 25.5443 84.2751 25.6967 84.0696C25.8525 83.8608 26.0746 83.6752 26.3629 83.5128C26.6546 83.3471 27.049 83.2642 27.5462 83.2642C28.1892 83.2642 28.7559 83.425 29.2464 83.7464C29.737 84.0679 30.1198 84.5237 30.3949 85.1136C30.67 85.7036 30.8075 86.3996 30.8075 87.2017C30.8075 88.0104 30.67 88.7114 30.3949 89.3047C30.1198 89.8946 29.7386 90.352 29.2514 90.6768C28.7642 90.9983 28.2024 91.1591 27.5661 91.1591C27.0755 91.1591 26.6828 91.0779 26.3878 90.9155C26.0928 90.7498 25.8658 90.5625 25.7067 90.3537C25.5476 90.1416 25.425 89.9659 25.3388 89.8267H25.2393V93.8636H24.0661ZM25.2195 87.1818C25.2195 87.7585 25.304 88.2673 25.473 88.7081C25.642 89.1456 25.889 89.4886 26.2138 89.7372C26.5386 89.9825 26.9363 90.1051 27.407 90.1051C27.8975 90.1051 28.3068 89.9759 28.6349 89.7173C28.9664 89.4555 29.215 89.1042 29.3807 88.6634C29.5497 88.2192 29.6342 87.7254 29.6342 87.1818C29.6342 86.6449 29.5514 86.161 29.3857 85.7301C29.2232 85.2959 28.9763 84.9529 28.6449 84.701C28.3168 84.4458 27.9041 84.3182 27.407 84.3182C26.9297 84.3182 26.5286 84.4392 26.2038 84.6811C25.879 84.9197 25.6338 85.2545 25.468 85.6854C25.3023 86.1129 25.2195 86.6117 25.2195 87.1818ZM33.7706 80.8182V91H32.5973V80.8182H33.7706ZM39.1213 91.1591C38.3855 91.1591 37.7508 90.9967 37.2172 90.6719C36.6868 90.3438 36.2775 89.8864 35.9892 89.2997C35.7041 88.7098 35.5616 88.0237 35.5616 87.2415C35.5616 86.4593 35.7041 85.7699 35.9892 85.1733C36.2775 84.5734 36.6786 84.1061 37.1923 83.7713C37.7093 83.4332 38.3126 83.2642 39.002 83.2642C39.3997 83.2642 39.7924 83.3305 40.1802 83.4631C40.568 83.5956 40.921 83.8111 41.2392 84.1094C41.5574 84.4044 41.8109 84.7955 41.9998 85.2827C42.1887 85.7699 42.2832 86.3698 42.2832 87.0824V87.5795H36.3968V86.5653H41.09C41.09 86.1345 41.0038 85.75 40.8315 85.4119C40.6625 85.0739 40.4205 84.8071 40.1056 84.6115C39.7941 84.416 39.4262 84.3182 39.002 84.3182C38.5346 84.3182 38.1303 84.4342 37.7889 84.6662C37.4508 84.8949 37.1906 85.1932 37.0083 85.5611C36.8261 85.929 36.7349 86.3234 36.7349 86.7443V87.4205C36.7349 87.9972 36.8343 88.486 37.0332 88.8871C37.2354 89.2848 37.5154 89.5881 37.8734 89.7969C38.2314 90.0024 38.6473 90.1051 39.1213 90.1051C39.4295 90.1051 39.7079 90.062 39.9565 89.9759C40.2084 89.8864 40.4255 89.7538 40.6078 89.5781C40.7901 89.3991 40.9309 89.1771 41.0304 88.9119L42.1639 89.2301C42.0446 89.6146 41.844 89.9527 41.5623 90.2443C41.2806 90.5327 40.9326 90.758 40.5183 90.9205C40.104 91.0795 39.6383 91.1591 39.1213 91.1591Z" fill="#004F22"/>
<path d="M33.5144 0.0255222C33.3967 -0.0956021 29.1564 0.0733345 25.4663 3.76125C21.7763 7.44598 22.344 11.6726 22.4271 11.781C22.5102 11.8893 27.6887 12.0583 30.9944 7.77111C34.3002 3.48394 33.6321 0.149834 33.5144 0.0255222V0.0255222ZM44.986 37.4243C44.8199 37.1183 36.9379 33.4909 37.6718 26.5167C38.4056 19.5393 43.4698 17.6268 43.5495 17.4196C43.6291 17.2124 41.4829 14.9015 39.2087 13.7317C37.5389 12.9069 35.6908 12.4344 33.7983 12.3483C33.4244 12.3388 32.1264 12.0455 29.4575 12.7181C27.699 13.1611 23.7356 14.5955 22.6452 14.6529C21.5513 14.7103 18.2975 12.989 14.7979 12.5332C12.5582 12.1348 10.1836 12.9508 8.48399 13.5787C6.78784 14.2035 3.56168 15.9821 1.30475 20.7091C-0.952182 25.433 0.228205 32.9172 1.07282 35.244C1.91744 37.5677 3.23629 41.3767 5.47937 44.1562C7.47322 47.2927 10.1178 49.4698 11.2221 50.2093C12.3263 50.9488 15.4417 51.4396 17.6017 50.4228C19.3394 49.4411 22.4756 48.8769 23.7148 48.9183C24.9506 48.9598 27.3875 49.4092 29.8833 50.6364C31.8598 51.2643 33.7291 51.0029 35.6018 50.3017C37.4744 49.5973 40.1848 46.9262 43.3487 41.5106C44.5499 38.9925 45.0968 37.6315 44.986 37.4243V37.4243Z" fill="black"/>
</svg>
