<svg width="30" height="30" viewBox="0 0 30 30" fill="none" xmlns="http://www.w3.org/2000/svg">
<circle cx="15" cy="15" r="15" fill="#FFD0CF"/>
<path fill-rule="evenodd" clip-rule="evenodd" d="M19.1086 16.055C20.1673 16.7736 20.9091 17.7473 20.9091 19.0454V21.3636H24V19.0454C24 17.3609 21.2414 16.3641 19.1086 16.055Z" fill="#FA5E5D"/>
<path d="M13.1818 15.1818C14.8889 15.1818 16.2727 13.798 16.2727 12.0909C16.2727 10.3838 14.8889 9 13.1818 9C11.4748 9 10.0909 10.3838 10.0909 12.0909C10.0909 13.798 11.4748 15.1818 13.1818 15.1818Z" fill="#FA5E5D"/>
<path fill-rule="evenodd" clip-rule="evenodd" d="M17.8182 15.1818C19.5259 15.1818 20.9091 13.7986 20.9091 12.0909C20.9091 10.3832 19.5259 9 17.8182 9C17.455 9 17.115 9.07727 16.7905 9.18545C17.4554 10.0078 17.8182 11.0334 17.8182 12.0909C17.8182 13.1485 17.4554 14.174 16.7905 14.9964C17.115 15.1045 17.455 15.1818 17.8182 15.1818ZM13.1818 15.9545C11.1186 15.9545 7 16.99 7 19.0455V21.3636H19.3636V19.0455C19.3636 16.99 15.245 15.9545 13.1818 15.9545Z" fill="#FA5E5D"/>
</svg>
