<svg width="38" height="37" viewBox="0 0 38 37" fill="none" xmlns="http://www.w3.org/2000/svg">
<path d="M6.125 6.125H36.875L33.0312 22.7812H9.96875M33.0312 27.9062H11.25L4.84375 1H1" stroke="white" stroke-width="2" stroke-linecap="round" stroke-linejoin="round"/>
<path d="M30.4688 35.5938C31.884 35.5938 33.0312 34.4465 33.0312 33.0312C33.0312 31.616 31.884 30.4688 30.4688 30.4688C29.0535 30.4688 27.9062 31.616 27.9062 33.0312C27.9062 34.4465 29.0535 35.5938 30.4688 35.5938Z" stroke="white" stroke-width="2" stroke-linecap="round" stroke-linejoin="round"/>
<path d="M13.8125 35.5938C15.2277 35.5938 16.375 34.4465 16.375 33.0312C16.375 31.616 15.2277 30.4688 13.8125 30.4688C12.3973 30.4688 11.25 31.616 11.25 33.0312C11.25 34.4465 12.3973 35.5938 13.8125 35.5938Z" stroke="white" stroke-width="2" stroke-linecap="round" stroke-linejoin="round"/>
</svg>
