<svg width="17" height="17" viewBox="0 0 17 17" fill="none" xmlns="http://www.w3.org/2000/svg">
<path d="M10.0658 2.07812H15.1888C15.6368 2.07812 16 2.38466 16 2.76272V14.0532C16 14.4313 15.6368 14.7416 15.1888 14.7378H10.0526V8.38835L14.2278 12.6209V3.40194H10.0526V2.08312M6.92052 8.36835L2.72803 12.6205H6.92052V8.36835Z" stroke="#262626" stroke-linecap="round" stroke-linejoin="round"/>
<path d="M6.97931 15.9996V14.7381H1.81116C1.59602 14.7381 1.3897 14.666 1.23758 14.5376C1.08546 14.4092 1 14.2351 1 14.0535V2.76188C1 2.3842 1.3632 2.08113 1.81116 2.07728H6.97931V1L8.26349 1.00038V16L6.97931 15.9996Z" stroke="#262626" stroke-linecap="round" stroke-linejoin="round"/>
</svg>
