<svg width="30" height="30" viewBox="0 0 30 30" fill="none" xmlns="http://www.w3.org/2000/svg">
<circle cx="15" cy="15" r="15" fill="#D2E0F8"/>
<path d="M10.625 7C10.194 7 9.7807 7.17911 9.47595 7.49792C9.1712 7.81673 9 8.24913 9 8.7V22.3C9 22.7509 9.1712 23.1833 9.47595 23.5021C9.7807 23.8209 10.194 24 10.625 24H20.375C20.806 24 21.2193 23.8209 21.524 23.5021C21.8288 23.1833 22 22.7509 22 22.3V12.1L17.125 7H10.625ZM10.625 8.7H16.3125V12.95H20.375V22.3H10.625V8.7ZM12.25 15.5V17.2H18.75V15.5H12.25ZM12.25 18.9V20.6H16.3125V18.9H12.25Z" fill="#699AE8"/>
</svg>
