<svg width="540" height="53" viewBox="0 0 540 53" fill="none" xmlns="http://www.w3.org/2000/svg">
<path d="M144.603 47.6354C156.493 47.6354 164.264 40.6458 166.743 28.3021L172.165 1H161.587L156.358 27.0573C154.988 34.1146 151.332 37.7708 145.452 37.7708C139.837 37.7708 137.748 34.375 139.118 27.3229L144.41 1H133.827L128.535 27.4531C126.056 39.7292 132.327 47.6354 144.603 47.6354Z" fill="#01C064"/>
<path d="M179.368 47.0935H189.749L192.952 31.2862L215.874 1.37476H203.139L195.301 11.9529L189.098 20.2498L186.223 11.9529L182.696 1.37476H171.853L182.696 30.6352L179.368 47.0935Z" fill="#01C064"/>
<mask id="mask0_5_336" style="mask-type:luminance" maskUnits="userSpaceOnUse" x="6" y="0" width="94" height="52">
<path d="M6.53644 0H99.8698V51.8229H6.53644V0Z" fill="white"/>
</mask>
<g mask="url(#mask0_5_336)">
<path fill-rule="evenodd" clip-rule="evenodd" d="M83.4114 24.9375C85.2708 25.599 86.4166 26.9063 86.8541 28.849C87.2916 30.7917 86.6302 33.3021 84.8594 36.3698C83.625 38.5208 82.1562 40.5 80.4479 42.3177C78.7396 44.1302 76.7135 45.7031 74.3698 47.0365C72.0208 48.3646 69.2916 49.4167 66.1771 50.1823C63.0573 50.9479 59.4844 51.3333 55.4583 51.3333H6.97394L36.3073 34.1302L34 38.1354H63.1302C64.8594 38.1354 66.2864 37.8281 67.4062 37.2135C68.5208 36.599 69.4166 35.7031 70.0937 34.5313C70.7448 33.401 70.8541 32.5469 70.4271 31.9583C70 31.3698 68.9219 31.0781 67.1875 31.0781H41.5729L60.5104 20.1042H73.7291C74.901 20.1042 76.0729 19.8594 77.2448 19.375C78.4166 18.8906 79.3854 17.9792 80.151 16.651C80.8854 15.3698 80.9271 14.5 80.276 14.0417C79.625 13.5833 78.7344 13.349 77.6146 13.349H36.7708L52.5677 0H84.6041C87.6666 0 90.2604 0.291666 92.3958 0.880208C94.526 1.46875 96.125 2.36458 97.1927 3.56771C98.2604 4.77083 98.7604 6.25521 98.6875 8.01563C98.6146 9.78125 97.901 11.8438 96.5469 14.1927C95.6614 15.7292 94.6823 17.0833 93.5937 18.2604C92.5104 19.4375 91.3958 20.474 90.2396 21.3698C89.0885 22.2656 87.9219 23.0052 86.7448 23.5938C85.5677 24.1823 84.4531 24.6302 83.4114 24.9375Z" fill="#037233"/>
</g>
<mask id="mask1_5_336" style="mask-type:luminance" maskUnits="userSpaceOnUse" x="98" y="0" width="67" height="6">
<path d="M98.5364 0H164.844V5.15625H98.5364V0Z" fill="white"/>
</mask>
<g mask="url(#mask1_5_336)">
<path fill-rule="evenodd" clip-rule="evenodd" d="M99.2916 0H164.781L103.26 5.09375C102.917 3.89583 102.318 2.78646 101.453 1.8125C100.818 1.09896 100.089 0.5 99.2916 0Z" fill="#037233"/>
</g>
<path fill-rule="evenodd" clip-rule="evenodd" d="M103.323 10.1927H150.328L101.828 14.2031C102.464 12.9323 103.01 11.5781 103.323 10.1927Z" fill="#037233"/>
<path fill-rule="evenodd" clip-rule="evenodd" d="M97.5156 20.3802H139.573L93.0989 24.2291C93.4531 23.9791 93.8021 23.7239 94.1458 23.4583C95.3437 22.5208 96.4687 21.4896 97.5156 20.3802Z" fill="#037233"/>
<path fill-rule="evenodd" clip-rule="evenodd" d="M91.8958 30.5729H127.63L91.3125 33.5781C91.625 32.5938 91.8385 31.5834 91.8958 30.5729Z" fill="#037233"/>
<path fill-rule="evenodd" clip-rule="evenodd" d="M87.4375 40.7656H111.604L85.75 42.901C86.3438 42.2135 86.9063 41.5 87.4375 40.7656Z" fill="#037233"/>
<mask id="mask2_5_336" style="mask-type:luminance" maskUnits="userSpaceOnUse" x="0" y="0" width="63" height="53">
<path d="M0 0H62.5365V52.1354H0V0Z" fill="white"/>
</mask>
<g mask="url(#mask2_5_336)">
<path fill-rule="evenodd" clip-rule="evenodd" d="M37.3958 16.2865L56.6667 0H34.0885L15 19.1563H32.8333L-0.03125 52.1406L61.8438 16.2865H37.3958Z" fill="#037233"/>
</g>
<path d="M226.14 47.0935H236.656L239.661 32.0727L242.275 19.5987L250.046 35.7966H257.229L271.338 19.7914L268.791 32.0727L265.786 47.0935H276.302L285.447 1.37476H275.911L254.942 25.0831L243.447 1.37476H235.286L226.14 47.0935Z" fill="#01C064"/>
<path d="M309.731 48.0102C323.643 48.0102 335.138 38.604 337.877 25.0154C340.69 10.7133 332.195 0.45813 317.435 0.45813C303.523 0.45813 292.028 9.86438 289.284 23.4477C286.476 37.755 294.966 48.0102 309.731 48.0102ZM299.799 24.4321C301.435 16.1352 308.424 10.3227 316.586 10.3227C324.554 10.3227 328.997 15.8748 327.362 24.0363C325.664 32.3331 318.742 38.1456 310.58 38.1456C302.544 38.1456 298.169 32.5935 299.799 24.4321Z" fill="#01C064"/>
<path d="M341.719 47.0935H363.469C372.875 47.0935 379.667 42.3904 381.172 35.0102C382.214 29.9164 380.386 25.8643 376.599 23.8435C380.516 21.8175 383.063 18.4841 383.849 14.3695C385.417 6.72892 380.188 1.37476 370.98 1.37476H350.865L341.719 47.0935ZM353.672 38.8643L355.896 27.8904H365.558C369.542 27.8904 371.438 29.9164 370.787 33.182C370.068 36.7081 367.256 38.8643 363.141 38.8643H353.672ZM357.459 19.9893L359.553 9.60392H368.172C372.089 9.60392 373.792 11.432 373.204 14.6352C372.547 18.031 369.87 19.9893 365.886 19.9893H357.459Z" fill="#01C064"/>
<path d="M386.71 47.0935H397.294L406.434 1.37476H395.856L386.71 47.0935Z" fill="#01C064"/>
<path d="M408.259 47.0935H438.629L440.592 37.3643H420.733L427.983 1.37476H417.405L408.259 47.0935Z" fill="#01C064"/>
<path d="M445.936 47.0935H476.702L478.462 38.2758H458.218L460.244 28.281H478.009L479.77 19.5987H461.941L463.832 10.1248H483.426L485.124 1.37476H455.082L445.936 47.0935Z" fill="#01C064"/>
<path d="M478.664 45.4178C478.664 45.4803 478.706 45.5636 478.789 45.6678C478.872 45.7719 478.956 45.8761 479.06 45.9594C479.164 46.0428 479.289 46.1261 479.414 46.1886C479.544 46.2511 479.648 46.2928 479.753 46.2928C479.898 46.2719 480.044 46.2094 480.211 46.1261C480.378 46.0428 480.461 45.8969 480.461 45.6886C480.461 45.5844 480.44 45.5011 480.378 45.4386C480.253 45.3136 480.148 45.2094 480.086 45.1261C480.023 45.0428 479.961 44.9803 479.898 44.9178C479.836 44.8553 479.753 44.8136 479.669 44.7928C479.586 44.7719 479.456 44.7511 479.31 44.7511C479.289 44.7511 479.268 44.7511 479.227 44.7511C479.185 44.7511 479.143 44.7719 479.081 44.8136C479.018 44.8553 478.956 44.9178 478.893 45.0219C478.831 45.1261 478.768 45.2928 478.706 45.5219L478.664 45.4178Z" fill="#01C064"/>
<path d="M491.949 37.3241C491.949 37.2824 491.928 37.2616 491.887 37.2616C491.845 37.2616 491.803 37.2616 491.782 37.2407C491.845 37.1366 491.887 37.0532 491.928 36.9699C491.97 36.8866 492.012 36.8032 492.074 36.7199L492.116 36.7616C492.116 36.7407 492.116 36.7199 492.116 36.6991C492.116 36.6782 492.157 36.6782 492.22 36.6782H492.282L492.199 36.5949C492.178 36.5741 492.157 36.5324 492.157 36.4699C492.157 36.4074 492.178 36.3657 492.241 36.3449C492.303 36.3241 492.324 36.2824 492.324 36.2199C492.324 36.1991 492.324 36.1782 492.303 36.1574C492.282 36.1366 492.282 36.1157 492.282 36.0949C492.282 35.9907 492.303 35.8866 492.366 35.7824C492.428 35.6782 492.449 35.5532 492.449 35.4074C492.47 35.4074 492.491 35.4282 492.512 35.4907C492.512 35.4699 492.512 35.4491 492.512 35.4282C492.512 35.4074 492.512 35.3866 492.512 35.3657C492.512 35.3032 492.532 35.2199 492.595 35.1366C492.595 35.1157 492.574 35.0949 492.553 35.0741C492.532 35.0532 492.512 35.0324 492.512 35.0116C492.512 34.9491 492.532 34.9074 492.574 34.8866C492.574 34.9074 492.574 34.9282 492.574 34.9491L492.595 35.0116C492.595 34.9907 492.595 34.9699 492.595 34.9491C492.595 34.9282 492.595 34.9074 492.595 34.8866C492.595 34.6991 492.532 34.5324 492.407 34.3657C492.282 34.1991 492.116 34.0532 491.928 33.9282C491.741 33.8032 491.532 33.6991 491.303 33.6157C491.074 33.5324 490.866 33.4907 490.678 33.4907C490.595 33.4907 490.512 33.5116 490.428 33.5324C490.345 33.5532 490.262 33.5741 490.178 33.5741C490.137 33.5741 490.095 33.5532 490.053 33.5324C490.012 33.5116 489.949 33.4907 489.887 33.4907C489.907 33.4907 489.887 33.4907 489.824 33.4907C489.762 33.4907 489.678 33.5116 489.574 33.5324C489.47 33.5532 489.366 33.5741 489.262 33.5949C489.157 33.6157 489.095 33.6574 489.074 33.6991C489.053 33.7199 489.032 33.7199 489.012 33.6991C488.991 33.6782 488.97 33.6782 488.949 33.6782C488.715 33.6991 488.465 33.7616 488.194 33.8657C487.923 33.9699 487.694 34.0532 487.486 34.1157C487.423 34.1366 487.319 34.1782 487.194 34.2407C487.069 34.3032 486.944 34.3657 486.819 34.4282C486.694 34.4907 486.569 34.5532 486.444 34.6157C486.319 34.6782 486.215 34.7199 486.152 34.7407C485.944 34.7824 485.777 34.8866 485.673 35.0324C485.569 35.1782 485.444 35.3032 485.298 35.4074C485.194 35.4699 485.069 35.5741 484.902 35.7199C484.736 35.8657 484.569 36.0532 484.381 36.2616C484.194 36.4699 484.006 36.6991 483.84 36.9282C483.673 37.1574 483.527 37.3866 483.423 37.6157C483.23 37.8918 483.084 38.1001 482.98 38.2668C482.876 38.4334 482.772 38.6001 482.689 38.7459C482.605 38.8918 482.501 39.0584 482.397 39.2459C482.293 39.4334 482.147 39.7043 481.98 40.0584C481.939 40.1209 481.876 40.2459 481.793 40.4126C481.709 40.5793 481.626 40.7459 481.543 40.9126C481.459 41.0793 481.376 41.2459 481.314 41.4126C481.251 41.5793 481.209 41.7043 481.209 41.7668C481.23 41.7668 481.251 41.7668 481.251 41.7459C481.251 41.7251 481.251 41.7043 481.272 41.6834V41.7668C481.272 41.7876 481.272 41.8084 481.251 41.8293H481.209C481.189 41.8293 481.168 41.8501 481.168 41.8709C481.168 41.8918 481.147 41.9126 481.126 41.9334L481.168 42.0168C481.126 42.0168 481.084 42.0793 481.022 42.2043C480.959 42.3293 480.918 42.4751 480.876 42.6418C480.834 42.8084 480.793 42.9751 480.751 43.147C480.709 43.3136 480.689 43.4386 480.689 43.522C480.689 43.5428 480.689 43.5636 480.689 43.5636C480.689 43.5636 480.689 43.5845 480.689 43.6053C480.689 43.6261 480.689 43.6261 480.668 43.6261C480.647 43.6261 480.626 43.6261 480.605 43.647C480.605 43.6678 480.605 43.6886 480.605 43.7095C480.605 43.7303 480.605 43.7511 480.605 43.772C480.605 43.7928 480.605 43.8345 480.605 43.8761C480.605 43.9178 480.605 43.9595 480.605 43.9803C480.605 44.0011 480.605 44.0428 480.626 44.0845C480.647 44.1261 480.647 44.1678 480.647 44.1886L480.605 44.3136C480.584 44.3553 480.584 44.397 480.584 44.4386C480.605 44.7928 480.689 45.1261 480.834 45.4178C480.98 45.7095 481.147 45.9595 481.355 46.1886C481.564 46.4178 481.793 46.6053 482.043 46.7511C482.293 46.897 482.543 47.0011 482.793 47.0636C482.793 47.0428 482.793 47.022 482.814 47.0011C482.876 47.0636 482.959 47.1053 483.064 47.1261C483.168 47.147 483.23 47.1678 483.251 47.1678C483.272 47.1678 483.293 47.1678 483.314 47.1678C483.334 47.1678 483.355 47.1678 483.376 47.1678C483.402 47.1678 483.423 47.1678 483.444 47.1678C483.465 47.1678 483.486 47.1678 483.506 47.1678C483.527 47.1678 483.548 47.1678 483.569 47.147C483.59 47.1261 483.611 47.1261 483.631 47.1261C483.652 47.1261 483.652 47.1261 483.652 47.147C483.652 47.1886 483.652 47.2303 483.631 47.2511C483.673 47.2303 483.715 47.2095 483.756 47.2095C483.798 47.2095 483.84 47.2095 483.861 47.1886C483.861 47.2095 483.861 47.2303 483.84 47.2511C483.861 47.2511 483.881 47.2511 483.902 47.272C483.923 47.2928 483.944 47.2928 483.965 47.2928C483.986 47.2928 484.006 47.2928 484.027 47.272C484.048 47.2511 484.069 47.2303 484.09 47.2095C484.09 47.2303 484.111 47.2511 484.173 47.2511C484.236 47.2511 484.298 47.2511 484.361 47.272C484.444 47.272 484.548 47.272 484.673 47.272C484.798 47.272 484.881 47.2511 484.923 47.2095C484.944 47.2095 484.923 47.1886 484.861 47.147C484.798 47.1053 484.756 47.0845 484.736 47.0636C484.798 47.0428 484.881 47.022 484.986 47.022C485.09 47.022 485.173 47.022 485.256 47.022C485.319 47.022 485.361 47.022 485.402 47.0428C485.34 47.1053 485.277 47.147 485.215 47.147C485.152 47.147 485.09 47.1886 485.048 47.2511H485.09C485.131 47.2511 485.173 47.2511 485.215 47.2303C485.256 47.2095 485.298 47.2095 485.361 47.2095H485.402C485.402 47.1886 485.402 47.1678 485.381 47.147H485.548C485.527 47.1678 485.506 47.1678 485.486 47.1678H485.465C485.527 47.1678 485.631 47.147 485.777 47.0845C485.923 47.022 486.09 46.9595 486.277 46.897C486.465 46.8345 486.631 46.772 486.798 46.7095C486.965 46.647 487.111 46.6261 487.215 46.6261L487.173 46.5428C487.194 46.522 487.215 46.522 487.236 46.522C487.256 46.522 487.256 46.5428 487.256 46.6053C487.277 46.5845 487.298 46.5636 487.319 46.5428C487.34 46.522 487.361 46.522 487.381 46.522C487.381 46.5011 487.381 46.4803 487.361 46.4595L487.277 46.5011C487.298 46.4803 487.319 46.4595 487.319 46.4386C487.319 46.4178 487.34 46.4178 487.361 46.4178C487.381 46.4178 487.402 46.4178 487.402 46.4178C487.402 46.4178 487.423 46.4178 487.444 46.4178C487.506 46.4178 487.59 46.3761 487.694 46.2928C487.652 46.3136 487.694 46.2928 487.819 46.2303C487.944 46.1678 488.09 46.0845 488.236 46.0011C488.381 45.9178 488.527 45.8345 488.673 45.7511C488.824 45.6678 488.887 45.6053 488.887 45.5845V45.5428C488.907 45.5428 488.907 45.5428 488.907 45.522C488.907 45.5011 488.907 45.4803 488.928 45.4595C488.887 45.4803 488.887 45.4803 488.949 45.4595C489.012 45.4386 489.095 45.4178 489.199 45.3761C489.303 45.3345 489.387 45.272 489.47 45.1886C489.553 45.1053 489.595 45.0011 489.595 44.8761L489.637 44.9178C489.657 44.9178 489.678 44.897 489.72 44.8553C489.762 44.8136 489.803 44.772 489.866 44.7303C489.928 44.6886 489.97 44.647 490.012 44.5845C490.053 44.522 490.074 44.4803 490.074 44.4595C490.074 44.4386 490.074 44.4386 490.074 44.4386C490.074 44.4386 490.074 44.4386 490.074 44.4178L490.095 44.397C490.116 44.4178 490.137 44.4178 490.157 44.4178C490.157 44.397 490.157 44.3761 490.157 44.3761C490.157 44.3761 490.157 44.3761 490.157 44.3553L490.178 44.3761L490.303 44.1886L490.282 44.1678C490.262 44.1886 490.241 44.1886 490.241 44.1886C490.241 44.1886 490.22 44.1886 490.199 44.2095L490.178 44.1678C490.178 44.1053 490.22 44.0636 490.282 44.0636C490.303 44.0636 490.324 44.0636 490.345 44.0636C490.366 44.0636 490.387 44.0636 490.407 44.0636C490.47 44.0636 490.512 44.0428 490.532 44.0011L490.595 43.8553C490.616 43.7928 490.657 43.7303 490.699 43.6678C490.741 43.6053 490.803 43.5428 490.907 43.4803C490.845 43.4595 490.782 43.4386 490.741 43.4178C490.699 43.397 490.637 43.3761 490.574 43.3553C490.47 43.3553 490.345 43.4178 490.22 43.522C490.095 43.6261 490.032 43.7303 490.032 43.8345L489.803 44.0636C489.657 44.2095 489.47 44.3761 489.241 44.5845C489.012 44.7928 488.762 45.0011 488.486 45.2095C488.215 45.4178 487.965 45.5845 487.736 45.7303C487.631 45.7928 487.486 45.8761 487.319 46.0011C487.152 46.1261 486.944 46.2511 486.694 46.3761C486.444 46.5011 486.173 46.6053 485.881 46.7095C485.59 46.8136 485.277 46.8553 484.944 46.8553C484.673 46.8553 484.402 46.8136 484.152 46.7303C484.111 46.7095 484.027 46.6678 483.881 46.6053C483.736 46.5428 483.59 46.4386 483.444 46.3136C483.293 46.1886 483.168 46.0428 483.043 45.8761C482.918 45.7095 482.855 45.522 482.855 45.2928C482.855 45.272 482.876 45.2511 482.897 45.2095C482.918 45.1678 482.939 45.1261 482.939 45.0636C482.959 45.0636 482.98 45.0845 482.98 45.1261C483.001 45.1053 483.001 45.1053 483.001 45.1053C483.001 45.1053 483.001 45.1053 483.022 45.0845V45.4803C483.043 45.4595 483.064 45.4386 483.064 45.4178C483.064 45.397 483.084 45.3761 483.105 45.3553C483.168 45.4178 483.209 45.4803 483.251 45.5636C483.293 45.647 483.355 45.7095 483.444 45.7303C483.444 45.7095 483.444 45.6886 483.423 45.6886C483.355 45.5845 483.293 45.5011 483.23 45.4386C483.168 45.3761 483.147 45.272 483.147 45.147C483.147 45.0011 483.147 44.8553 483.147 44.7095C483.147 44.5636 483.147 44.4178 483.168 44.272C483.168 44.2095 483.168 44.1678 483.147 44.147C483.168 44.0845 483.189 44.0011 483.23 43.9178C483.272 43.8345 483.293 43.7303 483.293 43.6261C483.293 43.6053 483.293 43.5845 483.293 43.5845C483.293 43.5845 483.293 43.5845 483.293 43.5636C483.293 43.5428 483.293 43.522 483.314 43.5011C483.334 43.4803 483.334 43.4595 483.334 43.4386V43.397L483.402 43.4595C483.402 43.4178 483.402 43.3761 483.402 43.3345C483.402 43.2928 483.402 43.2511 483.402 43.2303C483.465 43.1678 483.527 43.0636 483.59 42.9126C483.652 42.7668 483.715 42.6001 483.798 42.4126C483.881 42.2251 483.965 42.0376 484.069 41.8501C484.173 41.6626 484.298 41.4959 484.444 41.3501C484.506 41.2459 484.548 41.1209 484.59 40.9751C484.631 40.8293 484.756 40.6209 484.986 40.3501C485.006 40.3293 485.048 40.2876 485.111 40.2251C485.173 40.1626 485.236 40.0793 485.319 39.9959C485.402 39.9126 485.465 39.8293 485.527 39.7251C485.59 39.6209 485.611 39.5376 485.611 39.4543V39.4126C485.881 39.1418 486.09 38.8709 486.236 38.6001C486.381 38.3293 486.548 38.0376 486.715 37.7043C486.944 37.4699 487.111 37.2407 487.215 37.0116C487.319 36.7824 487.465 36.5532 487.652 36.3241C487.673 36.3032 487.736 36.1782 487.861 35.9491C487.986 35.7199 488.111 35.5324 488.256 35.3866C488.277 35.3657 488.361 35.3241 488.486 35.2824C488.611 35.2407 488.715 35.1574 488.824 35.0116C488.887 34.9491 488.928 34.9074 488.97 34.8866C489.012 34.8657 489.053 34.8449 489.116 34.8241C489.178 34.8032 489.241 34.7824 489.324 34.7407C489.407 34.6991 489.512 34.6157 489.637 34.4907C489.616 34.5116 489.616 34.5116 489.637 34.4907C489.657 34.4699 489.699 34.4282 489.741 34.3866C489.782 34.3449 489.845 34.3032 489.907 34.2616C489.97 34.2199 490.032 34.1991 490.095 34.1991C490.116 34.1991 490.137 34.1991 490.157 34.1991C490.178 34.1991 490.199 34.1991 490.22 34.1991C490.657 34.3449 490.949 34.5324 491.074 34.7616C491.199 34.9907 491.262 35.3032 491.262 35.7199C491.262 35.9074 491.22 36.0949 491.157 36.2824C491.095 36.4699 491.032 36.6574 490.97 36.8449C490.907 37.0324 490.845 37.2199 490.782 37.3866C490.72 37.5532 490.678 37.7251 490.678 37.8709C490.678 38.0168 490.699 38.1001 490.762 38.1209C490.824 38.1418 490.887 38.1834 490.949 38.2251C490.97 38.2043 490.991 38.1834 491.032 38.1626C491.074 38.1418 491.116 38.1418 491.137 38.1418L491.157 38.1626C491.22 38.1001 491.262 38.0793 491.282 38.0793C491.303 38.0793 491.303 38.0376 491.303 37.9751C491.282 37.9543 491.262 37.9543 491.241 37.9543C491.22 37.9543 491.199 37.9543 491.178 37.9334C491.199 37.9126 491.22 37.8709 491.241 37.8084C491.262 37.7459 491.303 37.7251 491.345 37.7251C491.366 37.7251 491.387 37.7459 491.387 37.7668C491.387 37.7876 491.387 37.8084 491.407 37.8084C491.428 37.8084 491.428 37.8084 491.428 37.8084C491.428 37.8084 491.428 37.8084 491.449 37.8084C491.449 37.7876 491.428 37.7668 491.407 37.7668C491.387 37.7668 491.366 37.7459 491.345 37.7251C491.366 37.7251 491.366 37.7251 491.366 37.7043C491.387 37.7043 491.387 37.7043 491.387 37.7043C491.387 37.7043 491.407 37.7043 491.428 37.7043C491.449 37.7043 491.47 37.7043 491.491 37.6834L491.949 37.3241ZM491.407 37.2199C491.387 37.2824 491.345 37.3032 491.303 37.2824C491.262 37.2616 491.22 37.2824 491.199 37.3449C491.178 37.3449 491.157 37.3449 491.137 37.3241C491.199 37.2616 491.241 37.2407 491.262 37.2616C491.282 37.2824 491.324 37.2824 491.387 37.2616L491.407 37.2199ZM491.47 37.7251V37.8293C491.491 37.8293 491.512 37.8084 491.532 37.7459C491.553 37.6834 491.574 37.6366 491.595 37.5949C491.553 37.5949 491.532 37.5949 491.532 37.5741C491.532 37.5532 491.512 37.5324 491.491 37.5116L491.47 37.7251ZM491.678 37.4907C491.678 37.4699 491.678 37.4491 491.678 37.4282C491.678 37.4074 491.678 37.3866 491.678 37.3657C491.678 37.3449 491.657 37.3241 491.616 37.3032C491.637 37.3241 491.637 37.3449 491.637 37.3657C491.637 37.3866 491.637 37.4074 491.657 37.4282L491.678 37.4907Z" fill="#01C064"/>
<path d="M490.844 45.4595C491.031 45.9803 491.261 46.3345 491.531 46.522C491.802 46.7095 492.136 46.8136 492.552 46.8136C492.656 46.8136 492.761 46.7928 492.886 46.772C493.011 46.7511 493.099 46.7303 493.162 46.7303H493.245C493.391 46.7095 493.474 46.647 493.495 46.5428C493.641 46.4803 493.766 46.4178 493.891 46.3553C493.995 46.2928 494.078 46.2303 494.162 46.1678C494.245 46.1053 494.287 46.0636 494.287 46.022C494.287 46.0011 494.287 45.9803 494.287 45.9803C494.287 45.9803 494.287 45.9595 494.287 45.9386C494.307 45.9595 494.328 45.9803 494.328 46.0011C494.328 46.022 494.328 46.0428 494.349 46.0636C494.37 46.0428 494.37 46.022 494.37 46.0011C494.391 45.9803 494.432 45.9595 494.495 45.9386C494.557 45.9178 494.599 45.897 494.599 45.8761C494.578 45.8761 494.578 45.8761 494.578 45.8553V45.8136C494.599 45.8345 494.62 45.8553 494.641 45.8553C494.682 45.7928 494.745 45.772 494.849 45.7928C494.953 45.8136 495.037 45.772 495.099 45.6678C495.078 45.6678 495.057 45.6678 495.057 45.6678C495.057 45.6678 495.037 45.6678 495.016 45.6678C495.037 45.647 495.057 45.6261 495.078 45.6053C495.099 45.5845 495.12 45.5845 495.141 45.5845H495.162C495.182 45.5845 495.203 45.5845 495.224 45.5636C495.245 45.5428 495.266 45.5428 495.287 45.5428C495.287 45.5636 495.287 45.5636 495.307 45.5636C495.328 45.5845 495.349 45.5845 495.37 45.5845L495.724 45.2303V45.2095L495.682 45.1678C495.828 45.1678 495.995 45.1053 496.182 44.9803C496.37 44.8553 496.474 44.772 496.516 44.7303C496.495 44.7303 496.495 44.7303 496.495 44.7303C496.495 44.7303 496.495 44.7303 496.474 44.7303C496.495 44.7095 496.516 44.6886 496.537 44.6678C496.537 44.6886 496.537 44.7095 496.537 44.7095C496.537 44.7095 496.537 44.7303 496.537 44.7511C496.557 44.772 496.557 44.772 496.557 44.7511C496.557 44.7303 496.557 44.7095 496.557 44.6886C496.537 44.7095 496.557 44.7303 496.62 44.7303C496.682 44.7303 496.724 44.7303 496.745 44.7303C496.766 44.7303 496.807 44.6886 496.87 44.6261C496.891 44.6053 497.016 44.4803 497.245 44.2511C497.474 44.022 497.745 43.7303 498.057 43.3553C498.057 43.3761 498.057 43.397 498.057 43.397C498.057 43.397 498.057 43.4178 498.057 43.4386C498.057 43.5011 498.037 43.5428 497.995 43.5845C497.953 43.6261 497.932 43.6678 497.932 43.6886C497.953 43.6886 497.995 43.647 498.057 43.5636C498.12 43.4803 498.182 43.3761 498.245 43.2511C498.307 43.1261 498.37 43.0168 498.432 42.9126C498.5 42.8084 498.542 42.7251 498.563 42.6834C498.583 42.6834 498.625 42.6834 498.667 42.7043C498.646 42.7251 498.625 42.7459 498.625 42.7668C498.625 42.7876 498.604 42.8084 498.583 42.8293C498.646 42.7876 498.708 42.7043 498.792 42.6001C498.771 42.6418 498.833 42.5376 499 42.2876C499.167 42.0376 499.354 41.7251 499.563 41.3501C499.771 40.9751 499.979 40.5793 500.167 40.1418C500.354 39.7043 500.479 39.3084 500.542 38.9543C500.563 38.7876 500.625 38.6001 500.708 38.3709C500.792 38.1418 500.833 37.9543 500.833 37.7876V37.1782C500.833 37.0949 500.833 37.0116 500.813 36.9491C500.75 36.8241 500.708 36.7199 500.688 36.6574C500.667 36.5949 500.625 36.5116 500.583 36.4074C500.542 36.3032 500.5 36.1782 500.438 36.0324C500.375 35.8866 500.271 35.6782 500.125 35.3866C500 35.0949 499.854 34.8657 499.688 34.6991C499.521 34.5324 499.333 34.4074 499.125 34.3241C498.917 34.2407 498.708 34.1782 498.5 34.1574C498.287 34.1366 498.099 34.1157 497.912 34.0949C497.912 34.1157 497.912 34.1157 497.932 34.1157C497.912 34.1366 497.891 34.1366 497.87 34.1366C497.891 34.1366 497.912 34.1366 497.932 34.1574C497.828 34.1782 497.724 34.1991 497.62 34.2199C497.516 34.2407 497.412 34.2616 497.307 34.2824C497.266 34.2824 497.245 34.2824 497.245 34.2616C497.182 34.1157 497.078 34.0324 496.912 33.9907C496.745 33.9491 496.62 33.8449 496.516 33.6782C496.495 33.6991 496.495 33.7199 496.495 33.7407C496.495 33.7616 496.495 33.7616 496.474 33.7616C496.37 33.7407 496.266 33.7199 496.182 33.6782C496.099 33.6366 496.016 33.6157 495.932 33.6157C495.912 33.6157 495.849 33.6574 495.766 33.7407C495.682 33.8241 495.578 33.9282 495.453 34.0532C495.328 34.1782 495.203 34.3241 495.078 34.4907C494.953 34.6574 494.828 34.8032 494.724 34.9282C494.162 35.6574 493.662 36.3449 493.203 36.9907C492.74 37.6366 492.323 38.3709 491.948 39.1626C491.844 39.3918 491.74 39.6626 491.636 39.9751C491.531 40.2876 491.427 40.6209 491.344 40.9751C491.261 41.3293 491.177 41.6834 491.094 42.0584C491.011 42.4334 490.948 42.7876 490.886 43.1261C490.781 43.4595 490.719 43.7928 490.719 44.147C490.719 44.5011 490.677 44.8553 490.615 45.2095V45.522C490.615 45.647 490.656 45.7095 490.719 45.7095L490.844 45.4595ZM497.412 34.9699C497.391 34.9074 497.37 34.8449 497.328 34.7824C497.287 34.7199 497.266 34.6574 497.266 34.5949C497.266 34.5741 497.307 34.5532 497.391 34.5532C497.474 34.5532 497.537 34.5532 497.599 34.5324C497.682 34.5324 497.807 34.5532 497.953 34.5949C498.099 34.6366 498.245 34.6991 498.391 34.7824C498.542 34.8657 498.667 34.9907 498.771 35.1574C498.875 35.3241 498.917 35.5532 498.917 35.8241C498.917 36.3032 498.813 36.7824 498.604 37.2616C498.391 37.7459 498.162 38.3084 497.912 38.9334C497.912 38.9126 497.891 38.9543 497.87 39.0584C497.849 39.1626 497.807 39.2876 497.745 39.4334C497.682 39.5793 497.599 39.7251 497.516 39.8709C497.432 40.0168 497.349 40.1418 497.266 40.2251C497.057 40.6418 496.828 41.0584 496.599 41.4751C496.37 41.8918 496.162 42.2668 495.974 42.5793C495.912 42.6626 495.828 42.8084 495.724 43.0168C495.62 43.2303 495.495 43.4386 495.37 43.6678C495.245 43.897 495.099 44.1261 494.953 44.3553C494.807 44.5845 494.662 44.772 494.516 44.9178C494.412 45.0845 494.307 45.2303 494.224 45.3553C494.141 45.4803 494.037 45.5845 493.932 45.6886C493.828 45.7928 493.724 45.897 493.599 45.9803C493.474 46.0636 493.328 46.1678 493.162 46.272C493.141 46.2511 493.12 46.2303 493.12 46.1886C493.12 46.147 493.099 46.1261 493.073 46.1053C493.099 46.0845 493.12 46.0636 493.141 46.022C493.162 45.9803 493.162 45.9595 493.162 45.9386V45.897C493.162 45.8345 493.162 45.7928 493.182 45.7511C493.203 45.7095 493.224 45.6678 493.245 45.6053C493.287 45.3345 493.328 45.1261 493.37 44.9803C493.412 44.8345 493.432 44.7095 493.453 44.6053C493.474 44.5011 493.516 44.397 493.557 44.272C493.599 44.147 493.662 43.9803 493.745 43.7511C493.807 43.4803 493.932 43.2095 494.099 42.9126C494.266 42.6209 494.37 42.3293 494.432 42.0584C494.578 41.7459 494.703 41.3918 494.828 40.9751C494.953 40.5584 495.12 40.1834 495.328 39.8293C495.349 39.7876 495.432 39.6418 495.578 39.3918C495.724 39.1418 495.807 38.8293 495.849 38.4543C495.828 38.4751 495.828 38.4751 495.87 38.4334C495.912 38.3918 495.953 38.3501 495.995 38.2876C496.037 38.2251 496.078 38.1418 496.12 38.0584C496.162 37.9751 496.182 37.8918 496.182 37.8084C496.182 37.7876 496.162 37.7668 496.141 37.7668C496.12 37.7668 496.099 37.7459 496.099 37.7251C496.099 37.6157 496.182 37.4907 496.328 37.3449C496.474 37.1991 496.578 37.0324 496.641 36.8449C496.703 36.8032 496.787 36.7407 496.891 36.6574C496.995 36.5741 497.099 36.4907 497.203 36.3866C497.307 36.2824 497.391 36.1782 497.453 36.0532C497.516 35.9282 497.557 35.8032 497.557 35.6991C497.578 35.7616 497.578 35.7616 497.578 35.6991C497.578 35.6366 497.578 35.5532 497.557 35.4491C497.537 35.3449 497.516 35.2616 497.474 35.1782C497.432 35.0949 497.391 35.0532 497.349 35.0532L497.412 34.9699Z" fill="#01C064"/>
<path d="M512.91 45.2928C512.863 45.2928 512.842 45.2928 512.842 45.272C512.842 45.2303 512.842 45.1886 512.863 45.1261C512.884 45.0636 512.91 45.022 512.931 44.9803C512.973 45.0011 512.993 45.022 512.993 45.0428C512.993 45.0636 512.993 45.1053 512.973 45.147C512.952 45.1886 512.931 45.2303 512.91 45.2511C512.91 45.2303 512.931 45.2095 512.952 45.2095C512.973 45.2095 512.993 45.1886 512.993 45.1678V45.1053C513.056 45.0845 513.098 45.0428 513.139 45.0011C513.181 44.9595 513.202 44.897 513.202 44.8345V44.7928C513.202 44.8136 513.243 44.772 513.306 44.6678C513.368 44.5636 513.452 44.4386 513.535 44.272C513.618 44.1053 513.702 43.9386 513.806 43.7511C513.91 43.5636 513.993 43.4178 514.056 43.3136L514.264 42.8918C514.368 42.7043 514.473 42.4751 514.577 42.2043C514.681 41.9334 514.764 41.6418 514.848 41.3293C514.931 41.0168 514.973 40.7043 514.973 40.3918C514.973 40.2459 514.952 40.1001 514.91 39.9751C514.91 39.9959 514.889 39.9751 514.848 39.9126C514.806 39.8501 514.764 39.7876 514.723 39.7251C514.681 39.6626 514.639 39.6001 514.598 39.5376C514.556 39.4751 514.514 39.4543 514.493 39.4543C514.514 39.4543 514.493 39.4334 514.431 39.3918C514.368 39.3501 514.306 39.3084 514.223 39.2459C514.139 39.1834 514.056 39.1418 513.952 39.1001C513.848 39.0584 513.764 39.0376 513.702 39.0376H513.681C513.618 39.0168 513.556 38.9959 513.514 38.9959C513.473 38.9959 513.431 38.9959 513.41 38.9959H513.056C512.993 38.9959 512.91 39.0168 512.822 39.0376C512.738 39.0584 512.655 39.1209 512.572 39.2043C512.572 39.2251 512.572 39.2459 512.592 39.2668C512.592 39.2876 512.551 39.3293 512.467 39.3918C512.384 39.4543 512.301 39.5376 512.197 39.6209L511.884 39.8709C511.78 39.9543 511.697 40.0168 511.634 40.0584C511.572 40.1209 511.467 40.2043 511.342 40.3084C511.217 40.4126 511.072 40.5376 510.926 40.6626C510.78 40.7876 510.634 40.9334 510.488 41.0793C510.342 41.2251 510.238 41.3709 510.176 41.4959C510.176 41.4751 510.176 41.4751 510.176 41.4751C510.176 41.4751 510.176 41.4543 510.176 41.4334C510.134 41.5376 510.092 41.6209 510.051 41.6834C510.03 41.7459 509.988 41.7876 509.947 41.8293C509.905 41.8709 509.863 41.8918 509.842 41.8918C509.78 41.9126 509.697 41.9751 509.592 42.0793C509.488 42.1834 509.363 42.3084 509.238 42.4334C509.113 42.5584 508.988 42.6626 508.884 42.7668C508.78 42.8709 508.697 42.9126 508.634 42.9126C508.613 42.9126 508.592 42.9126 508.572 42.8918C508.717 42.6626 508.842 42.4126 508.967 42.1418C509.092 41.8709 509.197 41.6001 509.301 41.3293C509.322 41.2251 509.384 41.0793 509.509 40.8918C509.634 40.7043 509.759 40.4959 509.884 40.2459C510.009 39.9959 510.113 39.7251 510.217 39.4126C510.322 39.1001 510.363 38.7668 510.363 38.4126C510.342 38.4543 510.322 38.4959 510.322 38.5376C510.322 38.5793 510.301 38.6209 510.28 38.6626C510.259 38.6418 510.238 38.6418 510.197 38.6418C510.217 38.6209 510.217 38.5793 510.217 38.5168C510.217 38.4543 510.217 38.3918 510.217 38.3293V38.2459C510.238 38.1834 510.238 38.1418 510.238 38.1001C510.238 38.0584 510.238 38.0168 510.238 37.9543V37.8709C510.217 37.8918 510.217 37.9126 510.217 37.9334C510.197 37.9126 510.176 37.8501 510.155 37.7251C510.134 37.5949 510.113 37.5116 510.113 37.4907C510.113 37.4491 510.113 37.4074 510.134 37.3866C510.113 37.3866 510.113 37.3866 510.113 37.3657V37.3241C510.092 37.3449 510.072 37.3866 510.051 37.4491L510.009 37.3866C510.009 37.3657 510.009 37.3449 510.009 37.3241C510.009 37.3449 510.009 37.3449 509.988 37.3032C509.967 37.2616 509.926 37.2199 509.863 37.1574C509.801 37.0949 509.717 37.0324 509.613 36.9699C509.509 36.9074 509.363 36.8866 509.176 36.8866C508.78 36.8866 508.426 36.9907 508.113 37.1991C507.801 37.4074 507.462 37.6366 507.108 37.8709C506.795 38.1834 506.525 38.4543 506.295 38.6626C506.066 38.8709 505.795 39.1209 505.483 39.3918C505.504 39.3709 505.504 39.3501 505.504 39.3293C505.504 39.3084 505.504 39.2876 505.525 39.2668C505.629 38.9959 505.733 38.6834 505.858 38.3293C505.983 37.9751 506.129 37.5741 506.275 37.1366C506.295 37.0532 506.358 36.8866 506.441 36.6574C506.525 36.4282 506.566 36.1991 506.566 35.9699C506.566 35.9282 506.566 35.8866 506.566 35.8449C506.566 35.8032 506.566 35.7616 506.566 35.7199C506.566 35.6991 506.566 35.6782 506.566 35.6366C506.566 35.5949 506.566 35.5532 506.566 35.5116V35.1366C506.566 35.1157 506.566 35.0741 506.566 35.0116C506.566 34.9491 506.545 34.8657 506.525 34.7824C506.504 34.6991 506.462 34.6157 506.42 34.5324C506.379 34.4491 506.316 34.3866 506.254 34.3241V34.3032C506.254 34.2407 506.212 34.1574 506.129 34.0532C506.045 33.9491 505.983 33.8657 505.92 33.8032C505.816 33.6991 505.712 33.5949 505.608 33.5116C505.504 33.4491 505.4 33.3866 505.295 33.3241C505.191 33.2616 505.108 33.2407 505.025 33.2407C504.837 33.2407 504.67 33.3032 504.545 33.4074C504.42 33.5116 504.295 33.6782 504.17 33.9074C504.045 34.1366 503.9 34.4282 503.754 34.7824C503.608 35.1366 503.441 35.5532 503.254 36.0324C502.941 36.8241 502.608 37.6366 502.275 38.4751L501.269 40.9751C501.165 41.2043 501.04 41.4751 500.894 41.7876C500.79 42.0584 500.665 42.3918 500.519 42.7876C500.374 43.1886 500.228 43.6261 500.082 44.1053C500.061 44.1678 500.019 44.272 499.978 44.397C499.936 44.522 499.894 44.647 499.853 44.7928C499.811 44.9386 499.769 45.0845 499.728 45.2095C499.686 45.3345 499.665 45.4386 499.665 45.5011C499.665 45.5845 499.707 45.6678 499.811 45.7303C499.915 45.7928 499.999 45.8553 500.061 45.9178C500.082 45.9178 500.103 45.9178 500.124 45.897C500.144 45.897 500.165 45.9178 500.165 45.9386C500.165 45.9595 500.165 45.9803 500.186 46.0011C500.207 46.022 500.207 46.022 500.207 46.0011V45.9803C500.311 46.0845 500.394 46.147 500.457 46.1678C500.519 46.1886 500.603 46.1886 500.707 46.1886C500.832 46.147 500.915 46.1261 500.936 46.1261C500.957 46.1261 500.978 46.1261 500.999 46.1261C501.019 46.1261 501.061 46.1053 501.124 46.0636C501.186 46.022 501.311 45.9386 501.499 45.8136C501.519 45.8345 501.54 45.8553 501.561 45.8761C501.582 45.897 501.603 45.9178 501.624 45.9386C501.707 45.7511 501.769 45.6261 501.811 45.5636C501.853 45.5011 501.894 45.4595 501.936 45.4386L502.144 45.3136C502.254 45.2511 502.4 45.147 502.587 45.0011C502.608 45.022 502.608 45.0428 502.608 45.0428C502.608 45.0428 502.608 45.0636 502.629 45.0845C502.629 45.1053 502.629 45.1053 502.65 45.1053C502.67 45.0845 502.691 45.0845 502.712 45.0845C502.733 45.0845 502.754 45.0845 502.775 45.0636C502.816 45.0636 502.879 45.0428 502.962 44.9803C503.045 44.9178 503.129 44.8553 503.212 44.772C503.295 44.6886 503.379 44.6053 503.441 44.5011C503.504 44.397 503.545 44.2928 503.545 44.1886V44.147L503.608 44.0845C503.795 43.7303 503.962 43.3553 504.108 42.9543C504.254 42.5584 504.462 42.1418 504.754 41.7043C504.733 41.7251 504.775 41.6834 504.858 41.5793C504.941 41.4751 505.045 41.3293 505.17 41.1626C505.295 40.9959 505.42 40.8084 505.566 40.5793C505.712 40.3501 505.837 40.1209 505.941 39.8918C506.087 39.6834 506.275 39.4959 506.525 39.3293C506.775 39.1626 506.941 38.9959 507.045 38.8084V38.8293C507.233 38.7251 507.42 38.6209 507.592 38.5168C507.759 38.4126 507.926 38.3084 508.113 38.2043C508.113 38.2251 508.113 38.2251 508.134 38.2251C508.092 38.3084 508.051 38.3918 508.009 38.4959C507.967 38.6001 507.926 38.6834 507.884 38.7668C507.863 38.8084 507.801 38.8918 507.717 39.0168C507.634 39.1418 507.551 39.2876 507.441 39.4543C507.337 39.6209 507.233 39.8084 507.15 39.9959C507.066 40.1834 507.004 40.3709 506.962 40.5584C506.795 40.8293 506.65 41.1209 506.525 41.4126C506.4 41.7043 506.275 42.0168 506.17 42.3293C506.15 42.4126 506.087 42.5376 506.004 42.7251C505.92 42.9126 505.816 43.1261 505.712 43.3553C505.608 43.5845 505.525 43.8345 505.441 44.1053C505.358 44.3761 505.316 44.647 505.316 44.9178C505.316 44.9803 505.337 45.0636 505.358 45.1678C505.379 45.2095 505.4 45.272 505.42 45.3553C505.441 45.4386 505.462 45.522 505.483 45.6053C505.504 45.6886 505.545 45.7511 505.587 45.8136C505.629 45.8761 505.67 45.897 505.733 45.897L505.691 45.9803C505.67 45.9595 505.67 45.9595 505.67 45.9595C505.67 45.9595 505.67 45.9595 505.65 45.9386C505.629 45.9595 505.629 45.9803 505.629 46.0011C505.629 46.0428 505.67 46.0845 505.754 46.1053C505.837 46.1261 505.92 46.147 506.025 46.147C506.129 46.147 506.233 46.147 506.337 46.147H506.566C506.545 46.147 506.566 46.1261 506.629 46.1053C506.691 46.0845 506.754 46.0636 506.816 46.022C506.879 45.9803 506.941 45.9595 507.004 45.9386L507.087 45.897H507.129C507.15 45.8345 507.191 45.7928 507.254 45.7928C507.316 45.7928 507.358 45.772 507.4 45.7511C507.42 45.8136 507.441 45.8761 507.462 45.9178C507.483 45.9595 507.504 45.9803 507.525 45.9803C507.504 45.9595 507.483 45.9386 507.462 45.897C507.441 45.8553 507.441 45.8345 507.441 45.8136C507.441 45.7928 507.462 45.772 507.483 45.7511C507.551 45.7095 507.592 45.6678 507.613 45.647C507.634 45.6261 507.676 45.5845 507.738 45.5011L507.988 45.1678C508.092 45.022 508.259 44.7928 508.488 44.4803C508.551 44.3761 508.634 44.1886 508.717 43.9386C508.801 43.6886 508.947 43.5011 509.176 43.397C509.155 43.3761 509.134 43.3761 509.134 43.3761C509.134 43.3761 509.134 43.3761 509.134 43.3553H509.155C509.176 43.3553 509.197 43.3553 509.217 43.3345C509.238 43.3136 509.259 43.3136 509.28 43.3136H509.322C509.342 43.3136 509.363 43.2928 509.363 43.2511V43.2095C509.363 43.1886 509.405 43.1678 509.488 43.1678C509.467 43.147 509.467 43.1261 509.467 43.0845C509.467 43.1053 509.467 43.1053 509.488 43.1053C509.676 42.9126 509.842 42.7251 510.009 42.5376C510.176 42.3501 510.405 42.1001 510.697 41.8084C510.717 41.7876 510.738 41.7668 510.78 41.7251C510.822 41.6834 510.863 41.6209 510.905 41.5584C510.947 41.4959 510.988 41.4334 511.051 41.3918C511.113 41.3501 511.155 41.3293 511.176 41.3293C511.155 41.3501 511.155 41.3293 511.197 41.2876C511.238 41.2459 511.28 41.2043 511.322 41.1418C511.363 41.0793 511.405 41.0376 511.447 40.9959C511.488 40.9543 511.509 40.9334 511.53 40.9334L511.551 40.9543C511.509 40.9543 511.551 40.8918 511.697 40.7459C511.842 40.6001 512.051 40.4334 512.322 40.2459C512.342 40.2251 512.363 40.2459 512.405 40.2876C512.447 40.3293 512.467 40.3918 512.467 40.4543V40.4959C512.301 41.0168 512.03 41.6418 511.676 42.3501C511.322 43.0636 510.947 43.9178 510.551 44.9178C510.53 44.9386 510.509 45.0011 510.467 45.0845C510.426 45.1678 510.384 45.2511 510.363 45.3345C510.342 45.4178 510.322 45.5011 510.301 45.5636L510.259 45.6678C510.072 45.9178 509.947 46.2303 509.884 46.6053C509.822 46.9803 509.78 47.3761 509.78 47.772C509.78 48.1678 509.905 48.4438 510.155 48.5897C510.405 48.7355 510.676 48.8188 510.988 48.8188C511.238 48.798 511.447 48.7772 511.634 48.7355C511.822 48.6938 512.03 48.6105 512.259 48.4647C512.363 48.4022 512.488 48.3136 512.634 48.1886C512.78 48.0636 513.035 47.8345 513.368 47.5011C513.327 47.522 513.285 47.5428 513.243 47.5845L513.223 47.5636C513.243 47.5428 513.264 47.522 513.264 47.4803C513.264 47.4386 513.285 47.4178 513.306 47.397C513.306 47.4178 513.306 47.4386 513.327 47.4595C513.389 47.4595 513.431 47.4595 513.452 47.4386C513.452 47.4178 513.431 47.397 513.389 47.3553C513.41 47.3345 513.452 47.3136 513.514 47.272C513.577 47.2303 513.598 47.1678 513.598 47.0636L513.577 47.0428C513.473 47.0636 513.389 47.0845 513.327 47.1053C513.223 47.147 513.118 47.2303 513.035 47.3345C512.952 47.4386 512.842 47.5428 512.738 47.647C512.634 47.7511 512.53 47.8345 512.405 47.9178C512.28 48.0011 512.155 48.0428 512.03 48.0428C511.842 48.0428 511.717 48.022 511.676 48.0011C511.634 47.9803 511.592 47.9178 511.551 47.8345V47.9178C511.488 47.897 511.447 47.8761 511.426 47.8553C511.467 47.8136 511.509 47.7303 511.551 47.6261C511.613 47.7095 511.655 47.772 511.676 47.7928C511.697 47.8136 511.78 47.8345 511.926 47.8553C511.822 47.7928 511.738 47.7303 511.676 47.6678C511.613 47.6053 511.592 47.522 511.592 47.4178C511.592 47.3761 511.592 47.3345 511.613 47.3136H511.572C511.551 47.3136 511.551 47.3136 511.551 47.2928C511.551 47.272 511.572 47.2511 511.592 47.2303C511.613 47.2511 511.634 47.272 511.655 47.2928C511.655 47.272 511.655 47.2511 511.655 47.2511C511.655 47.2511 511.655 47.2511 511.655 47.2303C511.676 47.2928 511.697 47.3345 511.697 47.3553C511.717 47.3345 511.717 47.3136 511.717 47.2928C511.697 47.272 511.676 47.2511 511.676 47.2303C511.676 47.2095 511.697 47.1678 511.738 47.1053C511.78 47.0428 511.801 46.9803 511.822 46.9178C511.801 46.9386 511.78 46.9803 511.759 47.022C511.738 47.0636 511.717 47.1053 511.697 47.1261C511.676 47.147 511.655 47.147 511.655 47.1261C511.655 47.1053 511.655 47.0845 511.655 47.0636C511.655 47.0011 511.655 46.9386 511.676 46.8761C511.697 46.8136 511.717 46.772 511.738 46.7511V46.647C511.738 46.5845 511.759 46.5011 511.801 46.3761C511.842 46.2511 511.863 46.147 511.863 46.0428C511.863 46.022 511.863 46.0011 511.863 45.9803C511.863 45.9595 511.863 45.9386 511.863 45.9178C511.863 45.8761 511.884 45.8553 511.926 45.8345C511.967 45.8136 511.988 45.772 511.988 45.6886C512.051 45.7095 512.113 45.7303 512.176 45.772C512.155 45.8136 512.134 45.8553 512.113 45.9178C512.092 45.9803 512.092 46.0011 512.092 45.9803V46.1261C512.092 46.1678 512.072 46.2095 512.009 46.2303C511.947 46.2511 511.926 46.3553 511.926 46.5428C511.926 46.6053 511.926 46.647 511.947 46.6678C511.947 46.7303 511.926 46.772 511.863 46.772C511.884 46.7928 511.905 46.8136 511.926 46.8345C511.947 46.7511 511.988 46.647 512.051 46.522C512.113 46.397 512.155 46.3136 512.155 46.2928C512.134 46.272 512.113 46.272 512.092 46.272C512.113 46.2511 512.134 46.2303 512.155 46.2095C512.176 46.1886 512.176 46.1678 512.176 46.147C512.155 46.1261 512.134 46.1053 512.134 46.0845C512.134 46.0636 512.155 46.0428 512.217 46.022L512.259 46.0636C512.28 46.0636 512.301 46.0428 512.301 46.022L512.91 45.2928ZM512.801 45.1053C512.78 45.0845 512.759 45.0845 512.759 45.0845C512.759 45.0845 512.738 45.0845 512.717 45.0636C512.738 45.0428 512.78 44.9803 512.842 44.897C512.863 44.897 512.884 44.897 512.91 44.9178C512.842 44.9803 512.822 45.0428 512.842 45.1053C512.863 45.1678 512.842 45.2303 512.78 45.2928L512.738 45.2511V45.1678C512.738 45.147 512.759 45.1261 512.78 45.1261L512.801 45.1053ZM512.155 45.3553C512.155 45.397 512.155 45.4595 512.176 45.522C512.197 45.5845 512.217 45.6261 512.238 45.647C512.217 45.6678 512.197 45.6886 512.176 45.7095C512.155 45.7303 512.134 45.7511 512.113 45.7511C512.092 45.7511 512.092 45.7303 512.092 45.7095C512.072 45.6886 512.072 45.6261 512.072 45.522C512.072 45.5011 512.072 45.4595 512.092 45.4178C512.113 45.3761 512.134 45.3553 512.155 45.3761V45.3553ZM512.28 45.3136C512.238 45.2928 512.217 45.272 512.217 45.2303C512.217 45.1886 512.217 45.147 512.217 45.1053C512.217 45.0636 512.217 45.022 512.238 44.9803C512.259 45.0011 512.301 45.022 512.363 45.0428C512.342 45.0845 512.322 45.1053 512.301 45.1261C512.28 45.147 512.28 45.1678 512.28 45.1886C512.28 45.2095 512.28 45.2303 512.301 45.2511C512.301 45.272 512.301 45.272 512.301 45.272C512.301 45.272 512.301 45.272 512.301 45.2928L512.28 45.3136ZM513.035 44.6886C513.014 44.7303 513.014 44.772 513.014 44.8136C513.014 44.8553 512.993 44.8761 512.931 44.8761C512.91 44.8553 512.91 44.8345 512.91 44.8136C512.91 44.7928 512.91 44.772 512.931 44.7303C512.952 44.6886 512.973 44.6886 512.993 44.7095L513.035 44.6886ZM513.577 43.2303C513.556 43.272 513.535 43.3136 513.535 43.3553C513.535 43.397 513.514 43.4386 513.493 43.5011C513.473 43.4803 513.473 43.4595 513.473 43.4178C513.473 43.3761 513.493 43.3345 513.535 43.2928C513.556 43.272 513.577 43.2511 513.598 43.2303H513.577ZM512.717 44.272C512.655 44.2511 512.613 44.2303 512.613 44.2095L512.655 44.1261C512.676 44.1886 512.697 44.2303 512.717 44.272ZM513.014 43.4178C513.035 43.4386 513.035 43.4595 513.035 43.4803C513.035 43.522 513.014 43.5428 512.973 43.5428C512.973 43.5011 512.993 43.4595 513.014 43.397V43.4178ZM512.363 44.7928C512.384 44.8136 512.405 44.8136 512.426 44.8136C512.447 44.8136 512.467 44.8136 512.488 44.8345L512.447 44.8761L512.363 44.7928ZM513.473 47.0428C513.493 47.0428 513.514 47.0428 513.535 47.0428C513.556 47.0428 513.577 47.0428 513.598 47.0428C513.598 47.022 513.598 47.022 513.598 47.022C513.598 47.022 513.618 47.022 513.681 47.0011C513.66 46.9803 513.618 46.9803 513.556 46.9803C513.493 46.9803 513.452 47.0011 513.452 47.022L513.473 47.0428Z" fill="#01C064"/>
<path d="M517.097 45.4178C517.097 45.4803 517.139 45.5636 517.222 45.6678C517.306 45.7719 517.389 45.8761 517.493 45.9594C517.597 46.0428 517.722 46.1261 517.847 46.1886C517.978 46.2511 518.082 46.2928 518.186 46.2928C518.332 46.2719 518.478 46.2094 518.644 46.1261C518.811 46.0428 518.894 45.8969 518.894 45.6886C518.894 45.5844 518.873 45.5011 518.811 45.4386C518.686 45.3136 518.582 45.2094 518.519 45.1261C518.457 45.0428 518.394 44.9803 518.332 44.9178C518.269 44.8553 518.186 44.8136 518.103 44.7928C518.019 44.7719 517.889 44.7511 517.743 44.7511C517.722 44.7511 517.702 44.7511 517.66 44.7511C517.618 44.7511 517.577 44.7719 517.514 44.8136C517.452 44.8553 517.389 44.9178 517.327 45.0219C517.264 45.1261 517.202 45.2928 517.139 45.5219L517.097 45.4178Z" fill="#01C064"/>
<path d="M521.809 47.5636C521.835 47.397 521.919 47.1886 522.044 46.9595C522.169 46.7303 522.315 46.4803 522.502 46.2095H522.44C522.44 46.1678 522.44 46.147 522.46 46.1261C522.481 46.147 522.502 46.147 522.523 46.147C522.544 46.147 522.565 46.147 522.585 46.1678C522.585 46.1261 522.606 46.0845 522.648 46.022C522.69 45.9595 522.731 45.897 522.794 45.8345C522.856 45.772 522.898 45.7095 522.94 45.647C522.981 45.5845 523.002 45.522 523.002 45.4595C523.002 45.4386 523.002 45.4178 522.981 45.3761C522.96 45.3345 522.96 45.3136 522.96 45.2928C522.96 45.2511 522.981 45.2095 523.023 45.1678V45.2303C523.044 45.2303 523.065 45.2303 523.085 45.2303C523.106 45.2303 523.127 45.2303 523.148 45.2303C523.148 45.2511 523.148 45.272 523.148 45.272C523.148 45.272 523.148 45.2928 523.148 45.3136C523.19 45.2511 523.231 45.1678 523.252 45.0845C523.273 45.0011 523.294 44.9178 523.315 44.8553C523.315 44.8345 523.294 44.8136 523.273 44.7928C523.294 44.7928 523.315 44.7928 523.335 44.8136C523.377 44.7095 523.419 44.6053 523.46 44.522C523.502 44.4386 523.544 44.3553 523.585 44.2511C523.544 44.2303 523.523 44.2095 523.523 44.1886C523.523 44.1261 523.523 44.0845 523.544 44.0428C523.565 44.0428 523.585 44.0636 523.606 44.0845C523.585 44.0845 523.585 44.1261 523.585 44.2303C523.648 44.1261 523.69 44.022 523.731 43.9178C523.773 43.8136 523.815 43.7095 523.877 43.6053C523.898 43.5428 523.94 43.5011 524.002 43.4803C524.065 43.4595 524.148 43.4386 524.231 43.4178C524.315 43.397 524.398 43.3761 524.481 43.3553C524.565 43.3345 524.648 43.272 524.731 43.1886C524.794 43.1886 524.877 43.1678 524.981 43.1261C525.085 43.0845 525.19 43.0428 525.294 42.9959L525.627 42.8709C525.731 42.8293 525.815 42.8084 525.877 42.8084C525.919 42.8084 525.96 42.8293 526.023 42.8501C526.169 42.7876 526.315 42.6834 526.481 42.5584C526.648 42.4334 526.815 42.3084 526.981 42.2043C527.002 42.2043 527.023 42.1834 527.065 42.1418C527.106 42.1001 527.169 42.0584 527.236 41.9959C527.299 41.9334 527.361 41.8918 527.445 41.8501C527.528 41.8084 527.591 41.7876 527.632 41.7876H527.653C527.799 41.7251 527.924 41.6834 528.049 41.6834C528.174 41.6834 528.299 41.6418 528.445 41.5584C528.736 41.4126 528.966 41.2668 529.132 41.1001C529.299 40.9334 529.445 40.7668 529.57 40.5793C529.695 40.3918 529.82 40.2043 529.945 40.0168C530.07 39.8293 530.216 39.6418 530.403 39.4543C530.424 39.4334 530.466 39.3709 530.528 39.2876C530.591 39.2043 530.653 39.1001 530.716 38.9751C530.778 38.8501 530.82 38.7043 530.861 38.5584C530.903 38.4126 530.924 38.2668 530.924 38.1209V37.9543C530.945 37.8084 530.945 37.6834 530.945 37.5532V37.1782C530.632 36.5741 530.299 36.1782 529.966 35.9699C529.632 35.7616 529.174 35.6574 528.611 35.6574C528.445 35.6574 528.278 35.6782 528.111 35.7199C527.945 35.7616 527.778 35.8032 527.632 35.8657L527.341 36.0116C527.236 36.0741 527.127 36.0949 527.023 36.0949V35.7407C527.023 35.6991 527.002 35.6574 526.981 35.6157C526.96 35.5741 526.94 35.5324 526.94 35.4907V35.4491C526.94 35.3866 526.919 35.3032 526.898 35.1991C526.877 35.0949 526.856 35.0116 526.835 34.9491C526.794 34.8866 526.731 34.8032 526.648 34.6991C526.565 34.5949 526.44 34.4907 526.294 34.3866C526.148 34.2824 526.002 34.1991 525.856 34.1157C525.71 34.0324 525.544 33.9907 525.377 33.9907V34.0532C525.377 34.1782 525.335 34.2407 525.252 34.2407C525.231 34.2407 525.21 34.2407 525.19 34.2407C525.169 34.2407 525.148 34.2407 525.127 34.2407C525.023 34.3032 524.898 34.4491 524.773 34.6574C524.648 34.8657 524.523 35.0949 524.398 35.3241C524.398 35.3032 524.377 35.3032 524.356 35.3241C524.335 35.3449 524.273 35.4491 524.19 35.6157C524.106 35.7824 523.981 36.0532 523.835 36.4074C523.69 36.7616 523.481 37.2616 523.231 37.9126C522.981 38.4126 522.773 38.8709 522.606 39.3084C522.44 39.7459 522.231 40.2043 521.981 40.6834C521.96 40.7876 521.877 40.9334 521.747 41.1001C521.622 41.2668 521.476 41.4543 521.309 41.6418C521.143 41.8293 520.955 42.0376 520.768 42.2459C520.58 42.4543 520.393 42.6626 520.226 42.8501C520.247 42.8293 520.226 42.8501 520.163 42.9126C520.101 42.9751 520.018 43.0636 519.934 43.1678C519.851 43.272 519.768 43.397 519.684 43.522C519.601 43.647 519.559 43.7511 519.559 43.8553C519.559 43.8761 519.559 43.8761 519.559 43.8761C519.559 43.8761 519.559 43.8761 519.559 43.897C519.518 43.9178 519.476 43.9595 519.413 44.0428C519.351 44.1261 519.309 44.2095 519.268 44.3136C519.226 44.4178 519.184 44.5011 519.143 44.5845L519.08 44.7095C519.08 44.7511 519.08 44.772 519.101 44.7928C518.997 44.897 518.913 45.022 518.872 45.147C518.83 45.272 518.768 45.397 518.684 45.522L518.663 45.5011C518.684 45.4178 518.705 45.3553 518.726 45.2928C518.663 45.3553 518.58 45.4803 518.497 45.6678C518.413 45.8553 518.351 46.0845 518.288 46.3553C518.226 46.6261 518.163 46.9178 518.122 47.2303C518.08 47.5428 518.059 47.8345 518.059 48.1261C518.059 48.1886 518.059 48.272 518.059 48.3761C518.059 48.4855 518.08 48.5897 518.101 48.6938C518.122 48.798 518.163 48.9022 518.226 48.9855C518.288 49.0688 518.351 49.1105 518.434 49.1105C518.497 49.1105 518.559 49.1105 518.643 49.1105C518.726 49.1105 518.788 49.1105 518.851 49.1105H519.018C519.059 49.1105 519.101 49.1105 519.143 49.1105C519.184 49.1105 519.226 49.1105 519.288 49.1105H519.372C519.518 49.0272 519.663 48.9855 519.83 48.9855L519.913 49.0272C519.997 48.9438 520.059 48.9022 520.101 48.9022C520.143 48.9022 520.205 48.9022 520.268 48.9022C520.33 48.9022 520.413 48.8813 520.518 48.8397C520.622 48.798 520.768 48.673 520.955 48.4855C520.976 48.4647 521.018 48.423 521.08 48.3345C521.143 48.2511 521.205 48.1678 521.268 48.0845C521.33 48.0011 521.393 47.9178 521.455 47.8553C521.518 47.7928 521.559 47.7511 521.58 47.7511C521.601 47.7511 521.622 47.772 521.643 47.7928L521.809 47.5636ZM524.21 42.6001C524.398 42.3293 524.565 42.0168 524.71 41.6626C524.856 41.3084 525.002 40.9751 525.148 40.6626C525.127 40.7251 525.127 40.6834 525.169 40.5584C525.21 40.4334 525.252 40.2876 525.315 40.1209C525.377 39.9543 525.44 39.7876 525.502 39.6209C525.565 39.4543 525.627 39.3709 525.69 39.3501C525.71 39.3501 525.752 39.2876 525.815 39.1626C525.877 39.0376 525.94 38.8918 526.002 38.7251C526.065 38.5584 526.127 38.3918 526.19 38.2251C526.252 38.0584 526.315 37.9334 526.377 37.8501C526.398 37.7876 526.46 37.6834 526.565 37.5116C526.669 37.3449 526.731 37.1157 526.731 36.8449V36.6782C526.752 36.6157 526.835 36.5532 526.981 36.4699C527.127 36.3866 527.236 36.3449 527.278 36.3449C527.361 36.3449 527.445 36.3657 527.528 36.3866C527.611 36.4074 527.674 36.4282 527.736 36.4282C527.778 36.4282 527.82 36.4282 527.861 36.4282C527.903 36.4282 527.945 36.4282 527.986 36.4282C528.049 36.4282 528.091 36.4282 528.132 36.4491C528.174 36.4699 528.216 36.4699 528.278 36.4699H528.424C528.507 36.4699 528.611 36.4699 528.736 36.4907C528.861 36.5116 528.986 36.5324 529.091 36.5741C529.195 36.6157 529.278 36.6782 529.361 36.7616C529.445 36.8449 529.486 36.9491 529.486 37.0741C529.486 37.2199 529.445 37.3449 529.361 37.4282C529.278 37.5116 529.195 37.6157 529.132 37.7251C529.111 37.7876 529.049 37.9126 528.945 38.0793C528.841 38.2459 528.695 38.4543 528.528 38.7043C528.361 38.9543 528.174 39.2251 527.966 39.5168C527.757 39.8084 527.528 40.1209 527.299 40.4334C527.236 40.5168 527.127 40.6626 526.981 40.8709C526.835 41.0793 526.648 41.2876 526.398 41.5168C526.148 41.7459 525.835 41.9751 525.46 42.2043C525.085 42.4334 524.648 42.6209 524.127 42.7668L524.21 42.6001ZM518.726 48.673C518.663 48.4438 518.622 48.2095 518.622 48.0011C518.622 47.7303 518.643 47.4595 518.684 47.2095C518.726 46.9595 518.788 46.6886 518.893 46.3761C518.893 46.3553 518.893 46.3345 518.893 46.3345C518.893 46.3345 518.893 46.3136 518.893 46.2928C518.893 46.2511 518.893 46.2303 518.913 46.2095V46.272C518.934 46.272 518.955 46.2511 518.955 46.2095C518.955 46.1678 518.976 46.1261 518.997 46.1053C518.976 46.0845 518.976 46.0636 518.976 46.0428C518.976 46.022 518.976 46.022 518.976 46.022C518.976 46.022 518.976 46.022 518.976 46.0011C518.997 45.9803 519.018 45.9386 519.018 45.897C519.018 45.8761 519.018 45.8553 519.018 45.8345C519.018 45.8136 519.018 45.7928 519.018 45.772C519.038 45.7511 519.059 45.7511 519.101 45.7511V45.772C519.101 45.7928 519.101 45.7928 519.101 45.7928C519.101 45.7928 519.101 45.7928 519.101 45.8136C519.122 45.7511 519.163 45.6678 519.226 45.5636L519.205 45.522V45.5011C519.226 45.4803 519.247 45.4595 519.268 45.4386C519.247 45.4386 519.226 45.4178 519.205 45.3761H519.247C519.268 45.3761 519.288 45.3345 519.309 45.2511C519.33 45.1678 519.372 45.0845 519.434 45.022C519.434 44.9595 519.372 44.9386 519.268 44.9386C519.268 44.897 519.288 44.8761 519.33 44.8761H519.372C519.455 44.8761 519.518 44.8136 519.538 44.7095V44.6886C519.559 44.6886 519.58 44.6886 519.601 44.7095C519.601 44.647 519.622 44.6053 519.663 44.5636C519.705 44.522 519.726 44.5011 519.726 44.4803V44.4595L519.684 44.4386C519.663 44.4386 519.663 44.4386 519.684 44.4178L519.705 44.397C519.726 44.397 519.747 44.397 519.768 44.4178C519.872 44.3136 519.955 44.2095 520.018 44.1053C520.018 44.0845 520.018 44.0845 520.018 44.0845C520.018 44.0845 520.018 44.0845 520.018 44.0636C520.038 44.0636 520.059 44.022 520.101 43.9595L520.205 43.7303C520.247 43.647 520.288 43.5636 520.309 43.5011L520.351 43.397L520.393 43.4803C520.538 43.2928 520.684 43.1053 520.83 42.9126C520.976 42.7251 521.122 42.5376 521.268 42.3501C521.268 42.3709 521.268 42.3709 521.288 42.3709C521.268 42.4334 521.247 42.4959 521.226 42.5584C521.205 42.6209 521.184 42.6834 521.163 42.7459C521.101 42.8501 520.997 43.0845 520.851 43.4178C520.705 43.7511 520.538 44.147 520.372 44.5845C520.205 45.022 520.018 45.5011 519.83 46.022C519.643 46.5428 519.476 47.0428 519.33 47.522L519.247 47.8136C519.205 47.9595 519.163 48.1053 519.122 48.272C519.08 48.4438 519.038 48.5897 518.976 48.7147C518.913 48.8397 518.851 48.9022 518.788 48.923L518.726 48.673ZM523.502 44.4803C523.481 44.522 523.46 44.5428 523.44 44.5428C523.419 44.5428 523.398 44.522 523.377 44.5011C523.398 44.4595 523.419 44.4386 523.46 44.4386C523.481 44.4386 523.502 44.4595 523.523 44.4803H523.502Z" fill="#01C064"/>
<path d="M539.246 36.0741C539.225 36.1157 539.204 36.1366 539.183 36.1366C539.163 36.1366 539.142 36.1157 539.121 36.0949C539.1 36.0741 539.079 36.0532 539.058 36.0532L538.892 36.2616C538.829 36.3241 538.746 36.3866 538.642 36.4282L538.558 36.3032C538.538 36.3657 538.454 36.4491 538.329 36.5532C538.204 36.6574 538.142 36.7407 538.142 36.7824C538.142 36.8866 538.079 37.0116 537.975 37.1574C537.871 37.3032 537.746 37.4491 537.6 37.5949C537.454 37.7459 537.267 37.9126 537.058 38.1001C536.803 38.3918 536.532 38.6626 536.262 38.9126C535.991 39.1626 535.72 39.3918 535.449 39.6209C535.47 39.6209 535.491 39.6209 535.512 39.6418C535.491 39.6626 535.47 39.6626 535.449 39.6626C535.428 39.6626 535.428 39.6626 535.428 39.6834C535.407 39.6834 535.407 39.6834 535.407 39.6834C535.407 39.6834 535.407 39.6834 535.387 39.6834C535.366 39.6834 535.324 39.7043 535.262 39.7668C535.199 39.8293 535.116 39.8918 535.032 39.9751C534.949 40.0584 534.866 40.1418 534.782 40.2043C534.699 40.2668 534.637 40.3084 534.616 40.3293C534.47 40.4543 534.324 40.5793 534.157 40.7043C533.991 40.8293 533.824 40.9334 533.678 41.0376C533.762 40.7668 533.866 40.4959 533.991 40.2459C534.116 39.9959 534.22 39.7668 534.324 39.5793C534.428 39.3918 534.512 39.2251 534.595 39.1001C534.678 38.9751 534.72 38.8918 534.741 38.8501C534.845 38.7459 534.928 38.6209 534.991 38.4751C535.053 38.3293 535.116 38.1834 535.157 38.0168C535.199 37.8501 535.22 37.7043 535.241 37.5741C535.262 37.4491 535.262 37.3657 535.262 37.3241C535.282 37.1991 535.303 37.0741 535.324 36.9491C535.345 36.8241 535.345 36.6991 535.345 36.5741C535.345 36.3866 535.324 36.2407 535.282 36.1366C535.241 36.0324 535.199 35.9491 535.157 35.8866C535.116 35.8241 535.074 35.7824 535.053 35.7616C535.032 35.7407 535.032 35.7407 535.053 35.7407H535.032C534.928 35.6574 534.824 35.5324 534.741 35.3449C534.657 35.1574 534.532 35.0116 534.387 34.9074L534.22 34.8241C534.116 34.7616 533.991 34.6991 533.866 34.6157C533.741 34.5324 533.616 34.4491 533.491 34.3866C533.366 34.3241 533.303 34.2824 533.303 34.2616C533.241 34.1991 533.157 34.1574 533.053 34.1574C532.949 34.1574 532.866 34.1366 532.782 34.1157C532.616 34.2199 532.47 34.3657 532.366 34.5532C532.262 34.7407 532.178 34.8449 532.137 34.8657C532.095 34.8866 532.053 34.9699 532.012 35.0949C531.97 35.2199 531.928 35.3657 531.887 35.5116C531.845 35.6574 531.803 35.8032 531.762 35.9282C531.72 36.0532 531.699 36.1366 531.699 36.1574C531.152 37.3657 530.673 38.5168 530.256 39.6001C529.84 40.6834 529.465 41.6418 529.152 42.4751C528.84 43.3136 528.59 44.0011 528.423 44.522C528.256 45.0428 528.152 45.3553 528.111 45.4595C528.006 45.7303 527.902 46.0011 527.798 46.2511C527.694 46.5011 527.59 46.772 527.506 47.0428C527.402 47.3345 527.34 47.5428 527.298 47.6678C527.256 47.7928 527.236 47.8761 527.215 47.9178C527.194 47.9595 527.194 48.0011 527.194 48.022C527.194 48.0428 527.194 48.1053 527.194 48.2095C527.194 48.2303 527.194 48.2511 527.215 48.272L527.256 48.3553H527.236C527.298 48.4022 527.34 48.4438 527.361 48.4647C527.381 48.4855 527.402 48.5272 527.423 48.5688C527.444 48.6105 527.486 48.6522 527.548 48.673C527.611 48.6938 527.694 48.7355 527.819 48.7772C527.902 48.798 527.965 48.8605 528.006 48.9438C528.173 48.9438 528.298 48.923 528.381 48.8605C528.465 48.798 528.527 48.7355 528.569 48.6522C528.611 48.5688 528.652 48.5063 528.673 48.4438C528.694 48.3761 528.736 48.3553 528.798 48.3553C528.819 48.3553 528.84 48.3553 528.861 48.3553C528.881 48.3553 528.902 48.3553 528.923 48.3553C529.027 48.147 529.111 47.9386 529.152 47.7095C529.194 47.4803 529.277 47.272 529.402 47.0636C529.402 47.022 529.444 46.9803 529.506 46.9386C529.569 46.897 529.652 46.8553 529.736 46.8136C529.819 46.772 529.902 46.7303 529.986 46.6886C530.069 46.647 530.111 46.6053 530.131 46.5636C530.256 46.5428 530.34 46.4803 530.381 46.3761C530.423 46.272 530.486 46.1886 530.569 46.1053L530.59 46.147C530.756 45.9803 530.902 45.8136 531.027 45.647C531.152 45.4803 531.215 45.397 531.236 45.3761C531.574 45.1053 531.845 44.7303 532.053 44.2511C532.262 43.772 532.512 43.2095 532.824 42.5793C532.845 42.5168 532.866 42.4751 532.887 42.4334C532.907 42.3918 532.928 42.3293 532.949 42.2668C532.97 42.2876 532.991 42.3084 533.012 42.3293H532.97C532.97 42.3918 532.991 42.4751 533.053 42.5793C533.074 42.6418 533.095 42.6834 533.116 42.7251V42.7668C533.116 42.7876 533.137 42.8501 533.178 42.9334C533.22 43.0168 533.282 43.1261 533.345 43.2511C533.407 43.3761 533.47 43.5011 533.532 43.6261C533.595 43.7511 533.637 43.8553 533.657 43.9386C533.928 44.6053 534.137 45.2095 534.303 45.7511C534.47 46.2928 534.616 46.772 534.72 47.1886C534.824 47.6053 534.907 47.9595 534.97 48.2511L535.116 48.9855C535.137 49.048 535.157 49.1105 535.178 49.173C535.199 49.2355 535.241 49.2772 535.303 49.2772C535.366 49.2772 535.407 49.2355 535.428 49.173C535.449 49.1105 535.47 49.0272 535.47 48.9438C535.47 48.673 535.449 48.4647 535.407 48.2928C535.366 48.1261 535.324 47.9803 535.282 47.8553C535.241 47.7303 535.199 47.6261 535.157 47.5428C535.116 47.4595 535.095 47.3553 535.074 47.2511C534.97 46.897 534.866 46.522 534.762 46.147C534.657 45.772 534.574 45.397 534.512 45.0428C534.345 44.3761 534.22 43.8761 534.137 43.5428C534.053 43.2095 533.991 42.9543 533.949 42.7668C533.907 42.5793 533.866 42.4334 533.824 42.3293C533.782 42.2251 533.72 42.0793 533.637 41.8918C533.699 41.8293 533.782 41.7668 533.866 41.7043C533.949 41.6418 534.032 41.5793 534.116 41.5376C534.199 41.4959 534.262 41.4543 534.303 41.4334L534.366 41.4126C534.47 41.3501 534.616 41.2668 534.782 41.1626C534.949 41.0584 535.032 40.9751 535.032 40.9126H535.074C535.116 40.9126 535.199 40.8501 535.345 40.7459C535.491 40.6418 535.574 40.5376 535.595 40.4334C535.595 40.4543 535.595 40.4751 535.595 40.4751C535.595 40.4751 535.595 40.4959 535.595 40.5168C535.616 40.4543 535.637 40.4126 535.657 40.3918C535.657 40.4126 535.657 40.4126 535.678 40.4126H535.72C535.72 40.3501 535.762 40.3084 535.845 40.2876C535.928 40.2668 535.97 40.2251 535.97 40.1418C535.97 40.1209 535.97 40.1001 535.949 40.0793L536.012 40.1418C536.012 40.1209 536.053 40.0584 536.137 39.9543C536.22 39.8501 536.324 39.7459 536.428 39.6418C536.532 39.5376 536.637 39.4543 536.72 39.3918C536.803 39.3293 536.85 39.3084 536.829 39.3293C536.975 39.1209 537.079 38.9959 537.142 38.9543C537.204 38.9126 537.246 38.8709 537.288 38.8501C537.329 38.8293 537.371 38.7876 537.433 38.7251C537.496 38.6626 537.6 38.5376 537.767 38.3293C537.767 38.2459 537.808 38.1626 537.871 38.0584C537.933 37.9543 537.996 37.8709 538.079 37.7876C538.163 37.7043 538.225 37.6366 538.288 37.5949C538.35 37.5532 538.371 37.5324 538.35 37.5532C538.621 37.1574 538.788 36.8657 538.871 36.6782C538.954 36.4907 538.996 36.3866 538.996 36.3449C538.996 36.2824 538.954 36.2407 538.871 36.2199L539.246 36.0741Z" fill="#01C064"/>
</svg>
