<svg width="122" height="144" viewBox="0 0 122 144" fill="none" xmlns="http://www.w3.org/2000/svg">
<path d="M39.647 81.5978V26.0978C39.647 23.5003 40.6788 21.0091 42.5156 19.1723C44.3524 17.3356 46.8435 16.3037 49.4411 16.3037C52.0387 16.3037 54.5298 17.3356 56.3666 19.1723C58.2033 21.0091 59.2352 23.5003 59.2352 26.0978V75.0684M59.2352 71.8037V58.7449C59.2352 56.1473 60.2671 53.6562 62.1038 51.8194C63.9406 49.9826 66.4318 48.9508 69.0293 48.9508C71.6269 48.9508 74.1181 49.9826 75.9548 51.8194C77.7916 53.6562 78.8234 56.1473 78.8234 58.7449V75.0684M78.8234 65.2743C78.8234 62.6767 79.8553 60.1856 81.6921 58.3488C83.5288 56.5121 86.02 55.4802 88.6176 55.4802C91.2151 55.4802 93.7063 56.5121 95.543 58.3488C97.3798 60.1856 98.4117 62.6767 98.4117 65.2743V75.0684" stroke="black" stroke-width="7" stroke-linecap="round" stroke-linejoin="round"/>
<path d="M98.4118 71.8038C98.4118 69.2063 99.4436 66.7151 101.28 64.8783C103.117 63.0416 105.608 62.0097 108.206 62.0097C110.803 62.0097 113.295 63.0416 115.131 64.8783C116.968 66.7151 118 69.2063 118 71.8038V101.186C118 111.576 113.872 121.541 106.525 128.888C99.1785 136.235 89.2138 140.363 78.8235 140.363H65.7647H67.1228C60.6348 140.364 54.248 138.753 48.5361 135.676C42.8241 132.599 37.9658 128.152 34.3974 122.733L33.1176 120.774C31.0805 117.647 23.9308 105.182 11.662 83.374C10.4113 81.1509 10.0772 78.5276 10.7308 76.062C11.3844 73.5964 12.9741 71.4831 15.1618 70.1715C17.492 68.7733 20.2225 68.1938 22.9197 68.5251C25.617 68.8563 28.1262 70.0793 30.0488 71.9997L39.6471 81.5979M20.0588 16.3038L13.5294 9.77441M13.5294 42.4215H7M78.8235 16.3038L85.3529 9.77441M85.3529 35.8921H91.8824" stroke="black" stroke-width="7" stroke-linecap="round" stroke-linejoin="round"/>
<rect y="47.7744" width="10" height="20" rx="5" transform="rotate(-90 0 47.7744)" fill="#8624E1"/>
<rect x="4.18701" y="7.14648" width="10" height="22.5365" rx="5" transform="rotate(-45.6172 4.18701 7.14648)" fill="#8624E1"/>
<rect x="78" y="40.7744" width="10" height="20" rx="5" transform="rotate(-90 78 40.7744)" fill="#8624E1"/>
<rect x="79.2363" y="23.1484" width="10" height="21.1051" rx="5" transform="rotate(-136.355 79.2363 23.1484)" fill="#8624E1"/>
</svg>
