<svg width="51" height="51" viewBox="0 0 51 51" fill="none" xmlns="http://www.w3.org/2000/svg">
<path d="M5.74779 45.8702H1.82156V42.4866H0.0830078V50.8743H1.82156V47.4678H5.74779V50.8743H7.48635V42.4866H5.74779V45.8702Z" fill="black"/>
<path d="M15.5426 47.2882C15.5426 48.6518 14.8509 49.3799 13.5948 49.3799C12.3312 49.3799 11.6354 48.6306 11.6354 47.2305V42.4922H9.8968V47.2882C9.8968 49.6473 11.236 51.0002 13.5715 51.0002C15.9294 51.0002 17.281 49.622 17.281 47.2183V42.4873H15.5425V47.2882H15.5426Z" fill="black"/>
<path d="M35.6382 48.2546L33.6921 42.4851H32.2732L30.328 48.2546L28.435 42.4908H26.5843L29.5708 50.8753H31.0104L32.959 45.3666L34.9076 50.8753H36.3596L39.3386 42.4908H37.5353L35.6382 48.2546Z" fill="black"/>
<path d="M42.4556 47.2651H45.6189V45.7374H42.4556V44.0203H47.046V42.4926H40.7404V50.8698H47.2121V49.342H42.4556V47.2651Z" fill="black"/>
<path d="M51 42.4858H49.2847V50.863H51V42.4858Z" fill="black"/>
<path d="M24.6397 49.1239L25.4093 50.8694H27.2317L23.4715 42.4873H21.9381L18.1621 50.8694H19.9372L20.7185 49.1239H24.6397ZM22.6746 44.6091L23.993 47.6117H21.3645L22.6746 44.6091Z" fill="black"/>
<path d="M47.3134 14.8918C47.5966 10.5971 43.1797 6.62273 43.1797 6.62273C43.1797 6.62273 34.991 16.331 29.0223 29.0824C28.9916 29.149 28.98 29.2604 29.0505 29.3196C29.0987 29.3587 29.1883 29.3863 29.2797 29.3415C31.5163 28.2551 40.8168 23.5672 44.7339 19.9096C44.7339 19.9096 47.1839 17.983 47.3134 14.8918ZM36.874 5.2023C36.874 5.2023 35.8494 1.46027 31.6958 0.472148C31.6958 0.472148 30.4993 0.174715 29.2283 0C29.2283 0 24.5848 5.85076 26.8422 27.9277C26.853 28.043 26.9177 28.0845 26.9708 28.0991C27.0563 28.121 27.1369 28.0909 27.1925 28.0129C28.6811 25.9075 35.47 16.057 36.849 10.0665C36.849 10.0665 37.5962 7.16719 36.874 5.2023ZM30.5085 32.4612C30.4836 32.5091 30.462 32.6285 30.5558 32.6952C32.0552 33.7476 36.6024 36.8598 38.7935 37.4636C38.7935 37.4636 42.8443 38.815 46.3628 32.8992C46.3628 32.8992 34.5891 32.4978 30.6738 32.3645C30.6197 32.3621 30.54 32.3994 30.5085 32.4612ZM50.534 19.3376C50.534 19.3376 37.2136 26.339 30.3275 30.8806C30.2769 30.9139 30.213 30.9797 30.247 31.1C30.2653 31.1642 30.3267 31.2212 30.4098 31.2212C32.8748 31.2253 42.2092 31.2366 42.4441 31.1936C42.4441 31.1936 43.6504 31.1473 45.1424 30.5866C45.1424 30.5866 48.4617 29.5537 50.1861 25.8637C50.1861 25.8637 51.7237 22.8538 50.534 19.3376ZM20.6577 30.8807C13.7724 26.339 0.452035 19.3376 0.452035 19.3376C-0.738483 22.8537 0.799074 25.8636 0.799074 25.8636C2.52348 29.5536 5.84285 30.5865 5.84285 30.5865C7.33481 31.1472 8.54111 31.1935 8.54111 31.1935C8.7761 31.2365 18.1104 31.2252 20.5754 31.2211C20.6585 31.2211 20.72 31.1642 20.7382 31.0999C20.7723 30.9798 20.7083 30.914 20.6577 30.8807ZM20.3114 32.3645C16.3968 32.4978 4.62241 32.8992 4.62241 32.8992C8.14094 38.815 12.1917 37.4636 12.1917 37.4636C14.3828 36.8599 18.93 33.7476 20.4294 32.6952C20.524 32.6285 20.5017 32.5091 20.4767 32.4612C20.4452 32.3994 20.3655 32.3621 20.3114 32.3645ZM19.2895 0.472148C15.1358 1.46027 14.1112 5.2023 14.1112 5.2023C13.389 7.16719 14.1362 10.0665 14.1362 10.0665C15.5152 16.057 22.3041 25.9075 23.7927 28.0129C23.8484 28.0909 23.9297 28.121 24.0144 28.0991C24.0683 28.0845 24.1322 28.043 24.1439 27.9277C26.4005 5.85076 21.7569 0 21.7569 0C20.4858 0.174715 19.2895 0.472148 19.2895 0.472148ZM7.80551 6.62273C7.80551 6.62273 3.38945 10.5972 3.67177 14.8918C3.80122 17.983 6.25044 19.9096 6.25044 19.9096C10.1691 23.5672 19.4687 28.2551 21.7054 29.3415C21.7976 29.3863 21.8855 29.3586 21.9346 29.3196C22.006 29.2603 21.9935 29.149 21.9628 29.0824C15.9942 16.331 7.80551 6.62273 7.80551 6.62273Z" fill="black"/>
</svg>
