<svg width="51" height="95" viewBox="0 0 51 95" fill="none" xmlns="http://www.w3.org/2000/svg">
<path d="M5.74779 45.8702H1.82156V42.4866H0.0830078V50.8743H1.82156V47.4678H5.74779V50.8743H7.48635V42.4866H5.74779V45.8702Z" fill="black"/>
<path d="M15.5425 47.2882C15.5425 48.6518 14.8509 49.3799 13.5947 49.3799C12.3312 49.3799 11.6353 48.6306 11.6353 47.2305V42.4922H9.89679V47.2882C9.89679 49.6473 11.236 51.0002 13.5714 51.0002C15.9294 51.0002 17.281 49.622 17.281 47.2183V42.4873H15.5424V47.2882H15.5425Z" fill="black"/>
<path d="M35.6382 48.2546L33.6921 42.4851H32.2732L30.328 48.2546L28.435 42.4908H26.5843L29.5708 50.8753H31.0104L32.959 45.3666L34.9076 50.8753H36.3596L39.3386 42.4908H37.5353L35.6382 48.2546Z" fill="black"/>
<path d="M42.4556 47.2651H45.6189V45.7374H42.4556V44.0203H47.046V42.4926H40.7404V50.8698H47.2121V49.342H42.4556V47.2651Z" fill="black"/>
<path d="M51 42.4858H49.2847V50.863H51V42.4858Z" fill="black"/>
<path d="M24.6397 49.1239L25.4093 50.8694H27.2317L23.4715 42.4873H21.9381L18.1621 50.8694H19.9372L20.7185 49.1239H24.6397ZM22.6746 44.6091L23.993 47.6117H21.3645L22.6746 44.6091Z" fill="black"/>
<path d="M47.3134 14.8918C47.5966 10.5971 43.1797 6.62273 43.1797 6.62273C43.1797 6.62273 34.991 16.331 29.0223 29.0824C28.9916 29.149 28.98 29.2604 29.0505 29.3196C29.0987 29.3587 29.1883 29.3863 29.2797 29.3415C31.5163 28.2551 40.8168 23.5672 44.7339 19.9096C44.7339 19.9096 47.1839 17.983 47.3134 14.8918ZM36.874 5.2023C36.874 5.2023 35.8494 1.46027 31.6958 0.472148C31.6958 0.472148 30.4993 0.174715 29.2283 0C29.2283 0 24.5848 5.85076 26.8422 27.9277C26.853 28.043 26.9177 28.0845 26.9708 28.0991C27.0563 28.121 27.1369 28.0909 27.1925 28.0129C28.6811 25.9075 35.47 16.057 36.849 10.0665C36.849 10.0665 37.5962 7.16719 36.874 5.2023ZM30.5085 32.4612C30.4836 32.5091 30.462 32.6285 30.5558 32.6952C32.0552 33.7476 36.6024 36.8598 38.7935 37.4636C38.7935 37.4636 42.8443 38.815 46.3628 32.8992C46.3628 32.8992 34.5891 32.4978 30.6738 32.3645C30.6197 32.3621 30.54 32.3994 30.5085 32.4612ZM50.534 19.3376C50.534 19.3376 37.2136 26.339 30.3275 30.8806C30.2769 30.9139 30.213 30.9797 30.247 31.1C30.2653 31.1642 30.3267 31.2212 30.4098 31.2212C32.8748 31.2253 42.2092 31.2366 42.4441 31.1936C42.4441 31.1936 43.6504 31.1473 45.1424 30.5866C45.1424 30.5866 48.4617 29.5537 50.1861 25.8637C50.1861 25.8637 51.7237 22.8538 50.534 19.3376ZM20.6577 30.8807C13.7724 26.339 0.452035 19.3376 0.452035 19.3376C-0.738483 22.8537 0.799074 25.8636 0.799074 25.8636C2.52348 29.5536 5.84285 30.5865 5.84285 30.5865C7.33481 31.1472 8.54111 31.1935 8.54111 31.1935C8.7761 31.2365 18.1104 31.2252 20.5754 31.2211C20.6585 31.2211 20.72 31.1642 20.7382 31.0999C20.7723 30.9798 20.7083 30.914 20.6577 30.8807ZM20.3114 32.3645C16.3968 32.4978 4.62241 32.8992 4.62241 32.8992C8.14094 38.815 12.1917 37.4636 12.1917 37.4636C14.3828 36.8599 18.93 33.7476 20.4294 32.6952C20.524 32.6285 20.5017 32.5091 20.4767 32.4612C20.4452 32.3994 20.3655 32.3621 20.3114 32.3645ZM19.2895 0.472148C15.1358 1.46027 14.1112 5.2023 14.1112 5.2023C13.389 7.16719 14.1362 10.0665 14.1362 10.0665C15.5152 16.057 22.3041 25.9075 23.7927 28.0129C23.8484 28.0909 23.9297 28.121 24.0144 28.0991C24.0683 28.0845 24.1322 28.043 24.1439 27.9277C26.4005 5.85076 21.7569 0 21.7569 0C20.4858 0.174715 19.2895 0.472148 19.2895 0.472148ZM7.80551 6.62273C7.80551 6.62273 3.38945 10.5972 3.67177 14.8918C3.80122 17.983 6.25044 19.9096 6.25044 19.9096C10.1691 23.5672 19.4687 28.2551 21.7054 29.3415C21.7976 29.3863 21.8855 29.3586 21.9346 29.3196C22.006 29.2603 21.9935 29.149 21.9628 29.0824C15.9942 16.331 7.80551 6.62273 7.80551 6.62273Z" fill="black"/>
<path d="M3.23295 91V80.8182H4.46591V85.3523H9.89489V80.8182H11.1278V91H9.89489V86.446H4.46591V91H3.23295ZM18.2496 87.8778V83.3636H19.4229V91H18.2496V89.7074H18.1701C17.9911 90.0952 17.7127 90.425 17.3349 90.6967C16.957 90.9652 16.4798 91.0994 15.9031 91.0994C15.4258 91.0994 15.0015 90.995 14.6303 90.7862C14.2591 90.5741 13.9674 90.2559 13.7553 89.8317C13.5432 89.4041 13.4371 88.8655 13.4371 88.2159V83.3636H14.6104V88.1364C14.6104 88.6932 14.7662 89.1373 15.0778 89.4688C15.3926 89.8002 15.7937 89.9659 16.2809 89.9659C16.5726 89.9659 16.8692 89.8913 17.1708 89.7422C17.4757 89.593 17.7309 89.3643 17.9364 89.0561C18.1452 88.7479 18.2496 88.3551 18.2496 87.8778ZM23.8191 91.179C23.3352 91.179 22.896 91.0878 22.5016 90.9055C22.1072 90.7199 21.794 90.4531 21.562 90.1051C21.33 89.7538 21.214 89.3295 21.214 88.8324C21.214 88.3949 21.3001 88.0402 21.4725 87.7685C21.6448 87.4934 21.8752 87.2779 22.1635 87.1222C22.4519 86.9664 22.7701 86.8504 23.1181 86.7741C23.4694 86.6946 23.8224 86.6316 24.177 86.5852C24.641 86.5256 25.0172 86.4808 25.3056 86.451C25.5972 86.4179 25.8094 86.3632 25.9419 86.2869C26.0778 86.2107 26.1458 86.0781 26.1458 85.8892V85.8494C26.1458 85.3589 26.0115 84.9777 25.7431 84.706C25.4779 84.4342 25.0752 84.2983 24.535 84.2983C23.9748 84.2983 23.5357 84.4209 23.2175 84.6662C22.8993 84.9115 22.6756 85.1733 22.5463 85.4517L21.4327 85.054C21.6316 84.59 21.8967 84.2287 22.2282 83.9702C22.5629 83.7083 22.9275 83.526 23.3219 83.4233C23.7196 83.3172 24.1107 83.2642 24.4952 83.2642C24.7405 83.2642 25.0222 83.294 25.3404 83.3537C25.6619 83.41 25.9718 83.5277 26.2701 83.7067C26.5717 83.8857 26.8219 84.1558 27.0208 84.517C27.2196 84.8783 27.3191 85.3622 27.3191 85.9688V91H26.1458V89.9659H26.0861C26.0066 90.1316 25.874 90.3089 25.6884 90.4979C25.5028 90.6868 25.2559 90.8475 24.9476 90.9801C24.6394 91.1127 24.2632 91.179 23.8191 91.179ZM23.998 90.125C24.4621 90.125 24.8532 90.0339 25.1713 89.8516C25.4928 89.6693 25.7348 89.4339 25.8972 89.1456C26.0629 88.8572 26.1458 88.554 26.1458 88.2358V87.1619C26.0961 87.2216 25.9867 87.2763 25.8176 87.326C25.6519 87.3724 25.4597 87.4138 25.2409 87.4503C25.0255 87.4834 24.815 87.5133 24.6096 87.5398C24.4074 87.563 24.2433 87.5829 24.1174 87.5994C23.8124 87.6392 23.5274 87.7038 23.2623 87.7933C23.0004 87.8795 22.7883 88.0104 22.6259 88.1861C22.4668 88.3584 22.3873 88.5937 22.3873 88.892C22.3873 89.2997 22.5381 89.608 22.8397 89.8168C23.1446 90.0223 23.5307 90.125 23.998 90.125ZM31.1907 91L28.864 83.3636H30.0969L31.7475 89.2102H31.8271L33.4577 83.3636H34.7106L36.3214 89.1903H36.4009L38.0515 83.3636H39.2844L36.9577 91H35.8043L34.1339 85.1335H34.0146L32.3441 91H31.1907ZM43.7775 91.1591C43.0417 91.1591 42.407 90.9967 41.8734 90.6719C41.3431 90.3438 40.9338 89.8864 40.6454 89.2997C40.3604 88.7098 40.2179 88.0237 40.2179 87.2415C40.2179 86.4593 40.3604 85.7699 40.6454 85.1733C40.9338 84.5734 41.3348 84.1061 41.8485 83.7713C42.3656 83.4332 42.9688 83.2642 43.6582 83.2642C44.0559 83.2642 44.4487 83.3305 44.8365 83.4631C45.2243 83.5956 45.5772 83.8111 45.8954 84.1094C46.2136 84.4044 46.4672 84.7955 46.6561 85.2827C46.845 85.7699 46.9395 86.3698 46.9395 87.0824V87.5795H41.0531V86.5653H45.7463C45.7463 86.1345 45.6601 85.75 45.4877 85.4119C45.3187 85.0739 45.0768 84.8071 44.7619 84.6115C44.4503 84.416 44.0824 84.3182 43.6582 84.3182C43.1909 84.3182 42.7865 84.4342 42.4451 84.6662C42.1071 84.8949 41.8469 85.1932 41.6646 85.5611C41.4823 85.929 41.3912 86.3234 41.3912 86.7443V87.4205C41.3912 87.9972 41.4906 88.486 41.6895 88.8871C41.8916 89.2848 42.1717 89.5881 42.5297 89.7969C42.8876 90.0024 43.3036 90.1051 43.7775 90.1051C44.0858 90.1051 44.3642 90.062 44.6127 89.9759C44.8646 89.8864 45.0817 89.7538 45.264 89.5781C45.4463 89.3991 45.5872 89.1771 45.6866 88.9119L46.8201 89.2301C46.7008 89.6146 46.5003 89.9527 46.2186 90.2443C45.9368 90.5327 45.5888 90.758 45.1745 90.9205C44.7602 91.0795 44.2946 91.1591 43.7775 91.1591ZM48.7243 91V83.3636H49.8975V91H48.7243ZM49.3208 82.0909C49.0922 82.0909 48.8949 82.013 48.7292 81.8572C48.5668 81.7015 48.4856 81.5142 48.4856 81.2955C48.4856 81.0767 48.5668 80.8894 48.7292 80.7337C48.8949 80.5779 49.0922 80.5 49.3208 80.5C49.5495 80.5 49.7451 80.5779 49.9075 80.7337C50.0732 80.8894 50.1561 81.0767 50.1561 81.2955C50.1561 81.5142 50.0732 81.7015 49.9075 81.8572C49.7451 82.013 49.5495 82.0909 49.3208 82.0909Z" fill="#004F22"/>
</svg>
