<svg width="54" height="54" viewBox="0 0 54 54" fill="none" xmlns="http://www.w3.org/2000/svg">
<path d="M24.1678 1.07335C20.804 1.25773 18.5705 1.8525 15.9211 3.24623C13.6254 4.46394 11.6841 6.0157 9.7976 8.14972C8.14807 10.0093 6.82257 12.0392 5.75996 14.3137C5.26728 15.3794 4.53427 17.1831 4.52528 17.3681C4.52378 17.3989 4.77804 17.4267 5.0848 17.4262C5.78156 17.4214 6.24171 17.5519 6.79862 17.9267C7.29966 18.2679 7.84759 18.9591 8.07527 19.5343C8.15441 19.7468 8.63266 21.3466 9.13567 23.0943C10.9283 29.3405 12.2918 34.0281 12.339 34.1076C12.3807 34.1715 12.5513 34.7362 13.2378 37.0493C13.2644 37.1588 13.291 37.2682 13.2832 37.2988C13.2749 37.337 13.2933 37.3534 13.3195 37.3392C13.3518 37.333 13.4729 37.4703 13.5922 37.6461C13.7118 37.8142 13.8206 37.9431 13.8405 37.9286C13.8544 37.9061 13.5888 36.9272 13.2437 35.7435C12.8982 34.5676 12.6218 33.5495 12.6248 33.4878C12.6341 33.2951 13.0109 32.6411 13.4137 32.1119C14.0556 31.2621 15.2286 30.3995 16.1766 30.09C16.4106 30.0087 17.4692 29.7896 18.5331 29.594C20.7321 29.183 20.5937 29.269 20.4414 28.4579C20.0847 26.5936 18.9048 25.6244 17.3013 25.8788C15.9937 26.0935 13.6833 27.3492 12.3521 28.5751C12.225 28.6926 12.0998 28.7715 12.075 28.7548C11.9891 28.6811 11.8874 27.6174 11.9136 27.0777C12.0177 24.9344 13.3039 23.3199 15.6375 22.3746C16.4393 22.0503 17.1285 21.9369 18.2022 21.935C21.4415 21.9455 23.575 23.9347 24.2545 27.5767C24.3816 28.2474 24.6391 30.8411 24.6849 31.8711C24.6973 32.1422 24.7326 32.3371 24.7599 32.2998C24.929 32.1071 30.6591 20.8321 30.6167 20.7837C30.5927 20.7516 29.3327 21.0382 25.1571 22.0177C23.7999 22.3305 22.6498 22.5915 22.5924 22.5887C22.5223 22.5853 22.463 22.3583 22.3715 21.7433C22.2274 20.7626 22.2259 20.5307 22.3901 19.9127C22.6165 19.0659 23.2083 18.3296 23.8859 18.0611C24.0291 18.0063 25.2385 17.7095 26.569 17.4186C27.8999 17.1201 29.6313 16.7328 30.4132 16.5543C31.3953 16.3316 31.9683 16.2435 32.2807 16.2586L32.7333 16.2806L32.8229 15.7518C32.9432 15.1162 33.1446 14.6546 33.4982 14.2158C33.995 13.5908 34.1964 13.5233 38.0143 12.6732C39.9332 12.2408 41.5161 11.885 41.5296 11.8702C41.6368 11.7672 39.6701 8.97461 38.7561 7.92559C35.7291 4.46329 31.8971 2.1829 27.7626 1.39477C26.9586 1.23981 24.7382 1.03923 24.1678 1.07335ZM21.4018 1.97456C21.5942 2.22347 21.5443 2.72336 21.31 2.94382C21.049 3.18616 20.782 3.15774 20.5596 2.86873C20.3195 2.54795 20.3417 2.22446 20.612 1.92074C20.7939 1.72865 20.8527 1.70059 21.0485 1.74874C21.1745 1.78577 21.3358 1.88634 21.4018 1.97456ZM31.9722 3.13709C32.2081 3.4113 32.1842 3.90472 31.9228 4.15477C31.6618 4.39712 31.3948 4.3687 31.1724 4.07969C31.0524 3.9193 31.0021 3.77003 31.0104 3.60042C31.0186 3.4308 31.0831 3.2871 31.2181 3.1391C31.4674 2.873 31.7359 2.87059 31.9722 3.13709ZM23.3722 3.63902C23.5841 3.88115 23.5751 4.32894 23.3516 4.58856C22.9995 4.9965 22.3957 4.66578 22.4246 4.07213C22.4527 3.4939 23.0212 3.23558 23.3722 3.63902ZM29.6311 4.23667C29.837 4.3394 30.0005 4.65647 29.9867 4.94173C29.974 5.20386 29.6188 5.54209 29.3702 5.53002C28.8156 5.50308 28.6483 4.60624 29.1432 4.28253C29.3941 4.11697 29.375 4.11604 29.6311 4.23667ZM31.7597 5.14376C31.9578 5.27702 32.0088 5.41087 31.9927 5.74239C31.9769 6.0662 31.8794 6.23148 31.6507 6.33629C31.2525 6.51015 30.8845 6.19089 30.9085 5.69747C30.9362 5.12695 31.3521 4.85348 31.7597 5.14376ZM22.0909 5.67879C22.5421 5.99437 22.3097 6.96453 21.7869 6.93914C21.5956 6.92985 21.299 6.72224 21.2555 6.56557C21.1688 6.24452 21.2483 5.9238 21.4557 5.73295C21.69 5.51249 21.8374 5.5042 22.0909 5.67879ZM37.5208 7.04643C37.7312 7.3194 37.7027 7.77396 37.4739 8.01014C37.0971 8.40142 36.5439 8.08089 36.5728 7.48724C36.5922 7.08634 36.8288 6.81962 37.1476 6.8351C37.307 6.84284 37.4251 6.91041 37.5208 7.04643ZM30.7563 6.85699C30.9806 7.10745 30.9589 7.55462 30.7159 7.82102C30.3443 8.23574 29.7791 7.89917 29.8091 7.28239C29.8368 6.71187 30.4053 6.45355 30.7563 6.85699ZM15.1395 6.8404C15.3495 7.12108 15.3529 7.44581 15.1542 7.72209C14.7845 8.22964 14.1248 7.8653 14.1581 7.17913C14.1701 6.93242 14.5256 6.58647 14.7615 6.59793C14.9017 6.60474 15.0195 6.68001 15.1395 6.8404ZM11.5841 7.41733C11.9659 7.84545 11.7049 8.6133 11.1822 8.58791C10.5574 8.55756 10.4819 7.47972 11.0876 7.24638C11.2829 7.17086 11.4022 7.21529 11.5841 7.41733ZM39.1162 8.80088C39.3026 9.04177 39.2733 9.51175 39.051 9.74824C38.6996 10.1408 38.1206 9.82671 38.1479 9.26389C38.1798 8.60857 38.7422 8.34222 39.1162 8.80088ZM37.2772 9.43026C37.4876 9.70322 37.4591 10.1578 37.2304 10.394C36.8535 10.7853 36.3003 10.4647 36.3292 9.87108C36.3487 9.47017 36.5853 9.20345 36.904 9.21894C37.0634 9.22668 37.1815 9.29424 37.2772 9.43026ZM9.84229 9.07152C10.0422 9.16623 10.2117 9.49131 10.1982 9.76886C10.1941 9.85367 10.1094 10.0196 10.0138 10.1463C9.87726 10.3251 9.78539 10.3748 9.60051 10.3658C9.00124 10.3367 8.84892 9.39421 9.39979 9.10412C9.52466 9.03291 9.62966 8.97618 9.63603 8.97649C9.64241 8.9768 9.72979 9.01969 9.84229 9.07152ZM7.82904 16.4466C8.1362 16.9639 7.75262 17.6253 7.2291 17.484C6.97071 17.4096 6.83569 17.1635 6.85329 16.8011C6.88287 16.192 7.53987 15.9535 7.82904 16.4466Z" fill="black"/>
<path d="M38.2903 16.8596C36.8165 17.2054 35.4913 17.5197 35.3424 17.5588L35.0769 17.6309L35.2232 18.0399C35.3526 18.4017 35.3646 18.5491 35.3271 19.1887C35.2826 20.1061 35.0186 20.9357 34.3594 22.2715C30.8109 29.4175 29.1439 32.8218 29.1679 32.8539C29.1795 32.8777 29.4949 32.8311 29.8627 32.7563C30.2306 32.6814 31.4242 32.4457 32.5148 32.2282C33.6049 32.0184 34.5154 31.8231 34.5353 31.8086C34.5491 31.7861 34.5244 31.638 34.4752 31.4656C34.3545 31.0579 34.3998 30.125 34.5749 29.5462C34.8054 28.746 35.0338 28.2547 36.4935 25.4354C38.0379 22.4501 41.0199 16.5749 41.1009 16.3547C41.1305 16.2712 41.1137 16.224 41.0623 16.2292C41.0109 16.2344 39.764 16.5139 38.2903 16.8596Z" fill="black"/>
<path d="M45.1484 17.355C45.0101 17.441 44.826 17.8108 44.8158 18.0189C44.8117 18.1037 44.8796 18.2848 44.9625 18.4202C45.099 18.6355 45.1549 18.6691 45.3792 18.6568C45.5967 18.6519 45.6694 18.6013 45.801 18.3913C46.0159 18.0463 46.0147 17.8067 45.8047 17.526C45.6183 17.2851 45.3659 17.2188 45.1484 17.355Z" fill="black"/>
<path d="M47.5377 18.8158C47.3705 18.9699 47.3206 19.0757 47.3109 19.2761C47.2936 19.6308 47.5153 19.9352 47.8022 19.9492C48.4783 19.9743 48.596 18.8672 47.9408 18.6731C47.7893 18.6348 47.705 18.6616 47.5377 18.8158Z" fill="black"/>
<path d="M44.244 19.0035C44.1878 19.109 43.7424 19.9915 43.2669 20.9653C42.7915 21.9391 41.778 23.9919 41.0202 25.5162C40.262 27.0481 39.6512 28.309 39.6632 28.325C39.6749 28.3488 40.894 28.1143 44.617 27.3755L45.1653 27.2708L45.1836 26.4989C45.2288 24.3836 44.9297 21.332 44.4758 19.3625C44.3487 18.8231 44.3487 18.8231 44.244 19.0035ZM44.53 22.4564C45 22.7806 44.7454 23.6801 44.1908 23.6532C43.6234 23.6256 43.4759 22.7143 43.9957 22.4072C44.1734 22.2999 44.3264 22.3074 44.53 22.4564Z" fill="black"/>
<path d="M2.80966 17.8258C2.65478 17.8569 2.37992 18.1218 2.37355 18.2528C2.37056 18.3145 2.49956 18.2899 2.79281 18.1727C3.02156 18.0679 3.19893 17.9683 3.18767 17.9369C3.14717 17.8499 2.95816 17.7944 2.80966 17.8258Z" fill="black"/>
<path d="M45.6958 19.9009C45.5852 19.9419 45.4067 20.3274 45.397 20.5278C45.3854 20.7668 45.7049 21.161 45.9089 21.1709C46.1511 21.1827 46.4695 20.8117 46.4845 20.5034C46.5062 20.0562 46.0873 19.7345 45.6958 19.9009Z" fill="black"/>
<path d="M48.0119 21.2885C47.6692 21.5037 47.5893 21.9635 47.8414 22.3003C48.0998 22.6375 48.492 22.587 48.6907 22.1793C48.825 21.9154 48.8036 21.6979 48.6176 21.4493C48.4312 21.2084 48.2294 21.1523 48.0119 21.2885Z" fill="black"/>
<path d="M46.2309 25.066C46.0206 25.1872 45.9295 25.3528 45.9145 25.6612C45.9036 25.8847 45.937 25.9868 46.0585 26.1164C46.3683 26.4483 46.8104 26.292 46.9555 25.8045C47.0237 25.5837 46.882 25.2136 46.6772 25.0877C46.4788 24.9621 46.4023 24.9584 46.2309 25.066Z" fill="black"/>
<path d="M1.59015 23.0679C1.20204 23.4277 1.40798 24.1873 1.89887 24.2112C2.26225 24.2288 2.52922 23.7317 2.41106 23.2701C2.36717 23.1211 2.07728 22.9061 1.89877 22.8974C1.82864 22.894 1.69065 22.9723 1.59015 23.0679Z" fill="black"/>
<path d="M3.05137 24.6922C2.92283 25.8915 2.93649 28.1101 3.08924 29.8331C3.43565 33.6211 4.47469 37.2265 6.17596 40.4853L6.52064 41.1512L6.65713 40.9723C6.72575 40.8752 6.87199 40.6273 6.9781 40.416C7.1412 40.0839 7.16669 39.9538 7.1899 39.3444C7.21948 38.7353 7.19134 38.5253 6.9959 37.6812C6.86873 37.1418 6.58028 36.1077 6.35409 35.3703C5.65266 33.1029 4.4362 28.8089 3.35476 24.761L3.13869 23.9468L3.05137 24.6922ZM6.64793 38.2671C7.12762 38.9163 6.36304 39.7911 5.86311 39.1641C5.61633 38.8507 5.71041 38.2293 6.03028 38.0903C6.29128 37.9793 6.46754 38.0342 6.64793 38.2671Z" fill="black"/>
<path d="M48.1387 26.5729C47.8826 26.8464 47.8699 27.2399 48.0994 27.5138C48.5821 28.1014 49.3024 27.2167 48.84 26.6069C48.7503 26.4789 48.6198 26.403 48.4987 26.3972C48.3776 26.3913 48.2403 26.4542 48.1387 26.5729Z" fill="black"/>
<path d="M1.41258 25.6713C1.15722 25.9294 1.13174 26.3222 1.36015 26.6193C1.66581 27.036 2.24105 26.7703 2.26876 26.1997C2.29572 25.6446 1.77481 25.3179 1.41258 25.6713Z" fill="black"/>
<path d="M48.0046 29.0702C47.8392 29.1858 47.7901 29.2761 47.7598 29.5065C47.7148 29.9062 47.7876 30.1184 48.0291 30.2769C48.271 30.4278 48.4847 30.3686 48.6973 30.0698C48.8893 29.8009 48.8949 29.5539 48.6976 29.2739C48.4767 28.954 48.2686 28.8975 48.0046 29.0702Z" fill="black"/>
<path d="M49.6869 29.1674C49.6145 29.2102 49.5178 29.3601 49.4597 29.5041C49.3431 29.7998 49.3873 30.0724 49.6015 30.2683C50.1149 30.7492 50.7449 29.8833 50.3064 29.3056C50.1508 29.0894 49.8913 29.0382 49.6869 29.1674Z" fill="black"/>
<path d="M51.3989 29.8378C51.0081 29.9888 50.8451 30.5837 51.1102 30.9134C51.3874 31.2592 51.9127 31.0992 52.0376 30.6339C52.1017 30.3665 51.9408 29.9955 51.7098 29.8838C51.5973 29.832 51.5099 29.7891 51.5031 29.7965C51.4968 29.7962 51.451 29.8172 51.3989 29.8378Z" fill="black"/>
<path d="M1.4053 28.3216C1.18969 28.5507 1.17321 28.8899 1.35736 29.1771C1.64803 29.6394 2.28065 29.3765 2.30948 28.7828C2.33569 28.2431 1.74991 27.9365 1.4053 28.3216Z" fill="black"/>
<path d="M47.6508 31.6187C47.5784 31.6615 47.4821 31.8037 47.4311 31.9326C47.1765 32.5694 47.8568 33.1666 48.2891 32.6852C48.7477 32.1897 48.1915 31.274 47.6508 31.6187Z" fill="black"/>
<path d="M44.2086 31.8379C43.9498 31.9026 38.4313 33.0334 37.8508 33.1443C37.6382 33.1803 37.4188 33.2237 37.3667 33.2444C37.2954 33.2641 37.2632 33.4017 37.2362 33.8254C37.1714 34.8964 36.6221 35.6812 35.7663 35.9333C35.5721 35.9857 33.4091 36.4448 30.9562 36.9516L26.5026 37.8636L25.9217 37.7194C25.5745 37.633 25.1796 37.4747 24.9377 37.3239L24.5345 37.0725L24.3741 37.6133C24.0621 38.6415 23.701 39.2344 23.0613 39.7752C21.8216 40.8279 19.4655 41.4476 17.1896 41.337C15.6663 41.2553 14.7602 40.964 13.9243 40.282L13.4941 39.9288L13.4158 40.6205C13.3045 41.5966 13.0548 42.5272 12.6892 43.3441C12.2595 44.297 11.8459 44.9183 11.0907 45.7317L10.457 46.4119L10.8422 46.7706C11.539 47.4227 12.8077 48.4039 13.8173 49.0635C19.5034 52.7708 26.3204 53.0633 32.297 49.8683C37.047 47.3246 40.8887 42.8281 43.1184 37.1791C43.6865 35.7461 44.2818 33.7503 44.6039 32.2512C44.713 31.7156 44.707 31.7076 44.2086 31.8379ZM42.9908 35.2022C43.5567 35.5234 43.3494 36.5025 42.7119 36.4715C42.5079 36.4616 42.4336 36.4117 42.3091 36.2124C42.2262 36.077 42.158 35.9037 42.1617 35.8266C42.1748 35.5567 42.342 35.2712 42.5445 35.1806C42.7864 35.0687 42.7418 35.0665 42.9908 35.2022ZM41.094 35.7052C41.4338 35.9458 41.3851 36.6853 41.0173 36.8915C40.7544 37.0411 40.6085 37.0185 40.3966 36.7764C40.2511 36.6148 40.2117 36.5047 40.2222 36.2888C40.2552 35.7417 40.7111 35.4316 41.094 35.7052ZM40.1196 38.1385C40.306 38.3794 40.2768 38.8494 40.0544 39.0859C39.6828 39.5006 39.124 39.1643 39.1536 38.5553C39.1835 37.9385 39.7517 37.6879 40.1196 38.1385ZM38.0627 43.7805C38.4088 44.0214 38.4246 44.6172 38.0976 44.9027C37.711 45.2317 37.1901 44.905 37.2103 44.3573C37.2238 44.0798 37.3843 43.8016 37.5864 43.7187C37.7889 43.6281 37.8714 43.6398 38.0627 43.7805ZM25.7662 44.6052C25.8862 44.7656 25.9365 44.9149 25.9283 45.0845C25.9125 45.4083 25.5949 45.7638 25.3336 45.7511C24.9319 45.7316 24.6712 45.178 24.8711 44.7472C25.0646 44.3161 25.4958 44.252 25.7662 44.6052ZM33.8672 45.4314C34.2036 45.8728 33.9149 46.5543 33.4049 46.5295C33.2009 46.5196 33.1266 46.4696 33.0021 46.2704C32.7887 45.9277 32.839 45.5515 33.1322 45.303C33.3189 45.142 33.7056 45.2072 33.8672 45.4314ZM29.993 45.4674C30.3099 45.9155 30.034 46.5976 29.5495 46.5741C29.2179 46.558 29.0015 46.277 29.0203 45.8915C29.0491 45.2979 29.6821 45.0272 29.993 45.4674ZM25.6122 46.4601C25.6737 46.5095 25.769 46.6532 25.8136 46.7868C25.9832 47.2432 25.657 47.7761 25.2234 47.755C25.0067 47.7445 24.7333 47.3216 24.7479 47.0209C24.7793 46.5047 25.2477 46.2029 25.6122 46.4601ZM23.4226 46.547C23.7687 46.7879 23.7455 47.5287 23.384 47.7352C22.8579 48.042 22.3276 47.3825 22.6189 46.7784C22.7963 46.4161 23.1075 46.323 23.4226 46.547ZM23.4126 48.5944C23.6132 48.8051 23.6508 49.0851 23.5203 49.4034C23.3163 49.9189 22.678 49.9034 22.486 49.384C22.2369 48.7228 22.9502 48.116 23.4126 48.5944ZM16.0047 48.6288C16.0876 48.7642 16.1551 48.9529 16.1502 49.0531C16.1453 49.1534 16.0599 49.3347 15.9642 49.4614C15.6028 49.9307 14.972 49.6296 15.0027 48.9974C15.0334 48.3652 15.6904 48.1266 16.0047 48.6288Z" fill="black"/>
<path d="M50.9191 32.4806C50.4061 32.7803 50.5475 33.6836 51.1085 33.7109C51.4082 33.7254 51.701 33.3532 51.6665 33.0115C51.6185 32.5533 51.2416 32.2877 50.9191 32.4806Z" fill="black"/>
<path d="M45.2681 32.9172C44.88 33.277 45.0859 34.0366 45.5768 34.0605C45.8509 34.0738 46.095 33.7843 46.1122 33.4296C46.14 32.8591 45.6434 32.5568 45.2681 32.9172Z" fill="black"/>
<path d="M17.0663 32.1657C16.625 32.3065 16.3733 32.4875 16.226 32.7586C16.1487 32.9016 16.0347 33.012 15.971 33.0089C15.6841 32.995 15.1648 33.9512 15.0302 34.7484C14.7521 36.3964 15.8146 38.2022 17.1737 38.3764C17.5929 38.4277 17.5929 38.4277 17.4403 38.2812C16.7142 37.5736 16.2987 36.9197 15.8973 35.8415L15.6648 35.2351L15.856 35.2444C15.958 35.2494 16.1159 35.288 16.2029 35.3386C16.3589 35.4157 16.3657 35.4083 16.3777 35.1616C16.4009 34.6836 16.8801 34.2895 17.2694 34.4321C17.4955 34.5126 17.7318 34.9105 17.7183 35.1881C17.7041 35.481 17.5335 35.836 17.3557 35.9432L17.2177 36.0215L17.3614 36.2217C17.4686 36.3815 17.4251 36.3562 17.187 36.1282C17.016 35.9654 16.8562 35.834 16.8307 35.8327C16.7478 35.8287 17.1649 36.5831 17.5235 37.0951C17.9664 37.7117 18.3755 38.1025 18.5375 38.0563C18.6088 38.0365 18.6654 38.0547 18.6763 38.0939C18.7074 38.2423 19.3475 37.6938 19.6434 37.2599C20.0364 36.6685 20.0686 36.5309 19.8908 36.1127C19.7183 35.718 18.823 34.5462 18.364 34.1298C18.1071 33.8932 18.0362 33.7738 17.9683 33.4614C17.9207 33.2582 17.8888 32.9939 17.8937 32.8936C17.9019 32.724 17.9218 32.7095 18.047 32.762C18.122 32.7965 18.2357 32.8252 18.2927 32.8357C18.3497 32.8462 18.3797 32.8863 18.3587 32.924C18.3313 32.9613 18.3624 32.9782 18.4213 32.9502C18.4798 32.9298 18.5428 32.9484 18.5661 32.9959C18.5953 33.0514 18.5758 33.0582 18.5199 33.0245C18.4704 32.9912 18.5001 33.039 18.5852 33.1282C18.6703 33.2173 18.7825 33.2768 18.8346 33.2562C18.8867 33.2355 18.9055 33.2442 18.8848 33.2741C18.8582 33.296 18.9655 33.4557 19.1234 33.6257C19.4275 33.9419 19.9485 34.6627 20.112 34.9797C20.2631 35.2885 20.3096 35.1207 20.2091 34.5594C20.0301 33.5075 19.4012 32.6423 18.575 32.2853C18.1182 32.0854 17.4623 32.0381 17.0663 32.1657ZM16.2638 37.5053C16.313 37.5464 16.3302 37.5858 16.292 37.584C16.2601 37.5824 16.1855 37.5402 16.1363 37.4992C16.0872 37.4581 16.0763 37.419 16.1082 37.4205C16.1464 37.4224 16.2147 37.4643 16.2638 37.5053ZM16.637 37.7167C16.7232 37.7827 16.7656 37.8311 16.7274 37.8292C16.6955 37.8277 16.5957 37.7765 16.5095 37.7105C16.4232 37.6445 16.3872 37.5963 16.4191 37.5979C16.4573 37.5997 16.5507 37.6507 16.637 37.7167Z" fill="black"/>
<path d="M47.3243 34.1299C47.0854 34.1801 46.8938 34.4412 46.8792 34.7419C46.8571 35.1968 47.1868 35.5142 47.5576 35.3777C47.8048 35.2892 47.99 34.8963 47.9139 34.6222C47.8276 34.2934 47.5696 34.0799 47.3243 34.1299Z" fill="black"/>
<path d="M50.2469 35.1374C49.9432 35.4704 49.9946 35.9906 50.3494 36.1856C50.8654 36.4811 51.3337 35.7852 51.0033 35.2205C50.8499 34.958 50.4561 34.9079 50.2469 35.1374Z" fill="black"/>
<path d="M44.5846 35.411C44.4578 35.5208 44.4076 35.6342 44.3982 35.827C44.3806 36.1893 44.4553 36.363 44.6856 36.4901C44.9346 36.6258 45.2278 36.5087 45.377 36.1991C45.668 35.6027 45.0646 35.0016 44.5846 35.411Z" fill="black"/>
<path d="M49.5435 37.6457C49.2934 37.9272 49.2642 38.2658 49.4746 38.5388C49.7802 38.9555 50.393 38.707 50.4196 38.1596C50.4345 37.8512 50.1536 37.4512 49.9114 37.4394C49.8094 37.4345 49.6646 37.5202 49.5435 37.6457Z" fill="black"/>
<path d="M43.7402 37.7966C43.573 37.9508 43.5231 38.0565 43.5134 38.257C43.4962 38.6116 43.7178 38.9161 44.0047 38.93C44.6808 38.9551 44.7985 37.848 44.1434 37.6539C43.9919 37.6156 43.9075 37.6424 43.7402 37.7966Z" fill="black"/>
<path d="M1.05073 36.9365C0.543363 37.2519 0.679181 38.1395 1.2402 38.1667C1.40595 38.1748 1.49782 38.1251 1.63431 37.9463C1.83867 37.6857 1.85667 37.5784 1.73814 37.2558C1.60761 36.9172 1.3076 36.779 1.05073 36.9365Z" fill="black"/>
<path d="M48.8316 39.9372C48.649 40.0133 48.5395 40.1626 48.4814 40.438C48.4079 40.7667 48.6697 41.1658 48.9693 41.1804C49.5367 41.2079 49.7523 40.3219 49.2643 39.9737C49.1102 39.858 49.0146 39.8534 48.8316 39.9372Z" fill="black"/>
<path d="M3.64523 38.2526C3.2305 38.6343 3.40643 39.3539 3.91644 39.3786C4.09494 39.3873 4.18682 39.3377 4.32331 39.1588C4.41893 39.0321 4.50292 38.8816 4.50591 38.8199C4.5164 38.6041 4.35362 38.2716 4.18598 38.1707C3.95647 38.0282 3.87284 38.0396 3.64523 38.2526Z" fill="black"/>
<path d="M42.5974 40.1445C42.2824 40.5774 42.4884 41.2056 42.9537 41.2282C43.3618 41.2481 43.6216 40.7661 43.4521 40.3096C43.3564 40.0422 43.251 39.9753 42.9514 39.9607C42.7984 39.9533 42.7001 40.0026 42.5974 40.1445Z" fill="black"/>
<path d="M1.95284 39.2832C1.59397 39.4358 1.47101 39.994 1.71741 40.3151C2.02307 40.7318 2.63582 40.4833 2.66203 39.9436C2.68337 39.5042 2.27946 39.1368 1.95284 39.2832Z" fill="black"/>
<path d="M44.33 41.4419C44.1606 41.6424 44.1145 42.0652 44.2379 42.2875C44.3733 42.5259 44.6688 42.6253 44.8923 42.4971C45.1023 42.3836 45.2672 42.0129 45.2143 41.7863C45.0973 41.3015 44.6147 41.108 44.33 41.4419Z" fill="black"/>
<path d="M47.6501 42.4223C47.3801 42.7183 47.3858 43.1281 47.6659 43.4122C47.9581 43.7124 48.5033 43.4065 48.5261 42.9362C48.5411 42.6279 48.2602 42.2278 48.018 42.216C47.916 42.2111 47.7712 42.2968 47.6501 42.4223Z" fill="black"/>
<path d="M4.64625 40.5346C4.41714 40.7785 4.39692 41.1949 4.60132 41.4598C4.90698 41.8765 5.48222 41.6108 5.50993 41.0403C5.53764 40.4697 4.99086 40.1495 4.64625 40.5346Z" fill="black"/>
<path d="M40.0877 44.1879C39.7259 44.4022 39.673 44.9638 39.9911 45.2574C40.3087 45.5588 40.8063 45.3125 40.8292 44.8422C40.8468 44.4798 40.8021 44.3463 40.5977 44.2127C40.3877 44.0634 40.3049 44.0594 40.0877 44.1879Z" fill="black"/>
<path d="M46.5417 44.5864C46.3096 44.7606 46.2391 45.0277 46.3261 45.341C46.4251 45.6704 46.61 45.8108 46.8939 45.755C47.3192 45.6829 47.5047 45.0196 47.1961 44.6646C47.0082 44.4545 46.7539 44.4267 46.5417 44.5864Z" fill="black"/>
<path d="M41.9498 45.453C41.3768 45.6725 41.417 46.6868 41.9964 46.7304C42.6073 46.7832 42.8386 45.8362 42.2914 45.5237C42.1733 45.4561 42.0735 45.4049 42.0668 45.4123C42.054 45.4117 42.0019 45.4323 41.9498 45.453Z" fill="black"/>
<path d="M1.50981 47.0901C1.36284 47.4849 1.79826 47.9929 2.18076 47.8801C2.29101 47.8468 2.33751 47.8104 2.29288 47.8082C2.24863 47.7984 2.05961 47.6114 1.88522 47.3866C1.62644 47.0572 1.54618 46.9992 1.50981 47.0901Z" fill="black"/>
</svg>
