<svg width="80" height="17" viewBox="0 0 80 17" fill="none" xmlns="http://www.w3.org/2000/svg">
<path d="M33.5299 3.54175C36.561 3.54175 38.6257 5.63565 38.6257 8.52127V15.9503C38.6257 16.1428 38.4696 16.2989 38.2771 16.2989H35.5288C35.3363 16.2989 35.1803 16.1428 35.1803 15.9503V9.15955C35.1803 7.50034 33.7051 6.50877 32.2796 6.50877C30.4351 6.50877 29.4387 7.87455 29.4387 9.15955V15.9503C29.4387 16.1428 29.2826 16.2989 29.0901 16.2989H26.3426C26.1501 16.2989 25.994 16.1428 25.994 15.9503V4.10081C25.994 3.90831 26.1501 3.75222 26.3426 3.75222H29.0907C29.2832 3.75222 29.4393 3.90831 29.4393 4.10096L29.4387 5.55002L29.4393 5.5494L29.4387 5.55206C30.4426 4.21143 32.0854 3.54175 33.5299 3.54175Z" fill="black"/>
<path d="M36.951 15.9503V9.15953C36.951 7.50032 35.4759 6.50876 34.0504 6.50876C33.7215 6.50876 33.4209 6.55392 33.1467 6.63251C34.2462 6.94438 35.1804 7.83954 35.1804 9.15953V15.9503C35.1804 16.1428 35.3365 16.2989 35.529 16.2989H37.2998C37.1071 16.2989 36.951 16.1428 36.951 15.9503Z" fill="#020202"/>
<path d="M27.7648 15.9503V4.10079C27.7648 3.90829 27.9209 3.7522 28.1134 3.7522H26.3426C26.1501 3.7522 25.994 3.90829 25.994 4.10079V15.9503C25.994 16.1428 26.1501 16.2989 26.3426 16.2989H28.1134C27.9209 16.2989 27.7648 16.1428 27.7648 15.9503Z" fill="#020202"/>
<path d="M63.3566 3.75269H66.5272C66.7753 3.75269 66.9439 4.00456 66.8496 4.23393L61.9743 16.0794C61.9205 16.21 61.7932 16.2953 61.6519 16.2953H58.3435C58.2022 16.2953 58.0749 16.21 58.0211 16.0794L53.1458 4.23393C53.0515 4.00456 53.2201 3.75269 53.4682 3.75269H56.6396C56.7861 3.75269 56.9169 3.84425 56.9671 3.9819L59.6707 11.4005C59.7821 11.7061 60.2143 11.7061 60.3257 11.4005L63.0293 3.9819C63.0793 3.84425 63.21 3.75269 63.3566 3.75269Z" fill="black"/>
<path d="M59.7918 16.0794L54.9165 4.23393C54.8221 4.00456 54.9907 3.75269 55.2388 3.75269H53.468C53.2199 3.75269 53.0513 4.00456 53.1457 4.23393L58.021 16.0794C58.0747 16.21 58.2021 16.2953 58.3433 16.2953H60.1141C59.9729 16.2953 59.8455 16.21 59.7918 16.0794Z" fill="#020202"/>
<path d="M24.7132 8.82757C24.4935 7.57585 23.9938 6.45914 23.2518 5.59617C22.0945 4.25211 20.3817 3.54102 18.296 3.54102C14.5078 3.54102 11.6512 6.3357 11.6512 10.0269C11.6512 13.814 14.5145 16.5122 18.6757 16.5122C20.8276 16.5122 23.024 15.571 24.2263 14.411C24.381 14.2618 24.3699 14.0115 24.1995 13.8804L22.534 12.6001C22.4129 12.5069 22.2443 12.5035 22.1199 12.5924C20.7956 13.5388 19.9845 13.7705 18.7267 13.7705C17.8004 13.7705 17.0306 13.5466 16.4251 13.1419C16.194 12.9874 16.23 12.6363 16.4868 12.5297L24.5023 9.2046C24.6512 9.14273 24.7412 8.98632 24.7132 8.82757ZM20.6731 8.18538L15.4526 10.3512C15.2268 10.4448 14.9773 10.2824 14.9696 10.0382C14.9364 8.99163 15.2446 8.15538 15.7086 7.53241C16.2953 6.7446 17.2298 6.2821 18.3585 6.2821C19.4501 6.2821 20.3101 6.83023 20.8329 7.67382C20.9474 7.85866 20.874 8.1021 20.6731 8.18538Z" fill="black"/>
<path d="M13.422 10.0269C13.422 6.61867 15.8581 3.97679 19.2135 3.59133C18.9162 3.55914 18.611 3.54102 18.296 3.54102C14.5078 3.54102 11.6512 6.3357 11.6512 10.0269C11.6512 13.814 14.5145 16.5122 18.6757 16.5122C18.9581 16.5122 19.241 16.4952 19.5224 16.4644C15.8679 16.0941 13.422 13.5263 13.422 10.0269Z" fill="#020202"/>
<path d="M11.3229 13.484V15.9504C11.3229 16.1429 11.1669 16.299 10.9744 16.299H0.348593C0.156093 16.299 0 16.1429 0 15.9504V0.348593C0 0.156094 0.156093 0 0.348593 0H3.14359C3.33609 0 3.49218 0.156094 3.49218 0.348593V12.787C3.49218 12.9795 3.64827 13.1356 3.84077 13.1356H10.9744C11.1669 13.1354 11.3229 13.2915 11.3229 13.484Z" fill="black"/>
<path d="M1.77078 15.9504V0.348593C1.77078 0.156094 1.92687 0 2.11937 0H0.348593C0.156093 0 0 0.156094 0 0.348593V15.9504C0 16.1429 0.156093 16.299 0.348593 16.299H2.11937C1.92687 16.2989 1.77078 16.1429 1.77078 15.9504Z" fill="#020202"/>
<path d="M73.2803 3.54102C69.4866 3.54102 66.5139 6.38945 66.5139 10.0255C66.5139 13.7032 69.4663 16.5101 73.2342 16.5101C77.028 16.5101 80 13.661 80 10.0255C79.9999 6.34804 77.0483 3.54102 73.2803 3.54102ZM73.2803 13.5579C71.393 13.5579 69.9132 12.006 69.9132 10.0255C69.9132 7.95132 71.3102 6.4932 73.2342 6.4932C75.1224 6.4932 76.6016 8.04507 76.6016 10.0255C76.6014 12.0598 75.205 13.5579 73.2803 13.5579Z" fill="black"/>
<path d="M74.1772 13.438C74.4555 13.5138 74.7471 13.5579 75.051 13.5579C76.9756 13.5579 78.372 12.0596 78.372 10.0255C78.372 8.04507 76.8928 6.49319 75.0049 6.49319C74.688 6.49319 74.3872 6.53632 74.1027 6.61163C75.5558 7.0046 76.6013 8.36179 76.6013 10.0254C76.6014 11.7268 75.6228 13.0494 74.1772 13.438Z" fill="#020202"/>
<path d="M68.2846 10.0257C68.2846 6.67788 70.8052 3.99976 74.1658 3.5957C73.8764 3.56086 73.5813 3.54102 73.2803 3.54102C69.4866 3.54102 66.5139 6.38945 66.5139 10.0255C66.5139 13.7032 69.4663 16.5101 73.2342 16.5101C73.535 16.5101 73.83 16.4902 74.1194 16.4554C70.7847 16.0543 68.2846 13.4094 68.2846 10.0257Z" fill="#020202"/>
<path d="M46.7552 3.54102C42.9607 3.54102 39.9888 6.38945 39.9888 10.0255C39.9888 13.7032 42.9404 16.5101 46.7083 16.5101C50.5021 16.5101 53.4747 13.661 53.4747 10.0255C53.4747 6.34804 50.5224 3.54102 46.7552 3.54102ZM46.7552 13.5579C44.8671 13.5579 43.388 12.006 43.388 10.0255C43.388 7.95132 44.7844 6.4932 46.7085 6.4932C48.5966 6.4932 50.0757 8.04507 50.0757 10.0255C50.0755 12.0598 48.6791 13.5579 46.7552 13.5579Z" fill="black"/>
<path d="M41.7594 10.0257C41.7594 6.67788 44.2796 3.99976 47.6405 3.5957C47.3512 3.56086 47.0562 3.54102 46.7552 3.54102C42.9609 3.54102 39.9888 6.38945 39.9888 10.0255C39.9888 13.7032 42.9404 16.5101 46.7083 16.5101C47.0091 16.5101 47.3041 16.4902 47.5935 16.4554C44.259 16.0543 41.7594 13.4094 41.7594 10.0257Z" fill="#020202"/>
<path d="M47.6519 13.438C47.9302 13.5138 48.2219 13.5579 48.526 13.5579C50.4501 13.5579 51.8465 12.0596 51.8465 10.0255C51.8465 8.04507 50.3673 6.49319 48.4793 6.49319C48.1624 6.49319 47.8616 6.53632 47.5773 6.61163C50.8955 7.50929 50.891 12.5669 47.6519 13.438Z" fill="#020202"/>
</svg>
