<svg width="80" height="107" viewBox="0 0 80 107" fill="none" xmlns="http://www.w3.org/2000/svg">
<path d="M14.233 104V93.8182H15.4659V102.906H20.1989V104H14.233ZM25.1506 104.159C24.4148 104.159 23.7801 103.997 23.2464 103.672C22.7161 103.344 22.3068 102.886 22.0185 102.3C21.7334 101.71 21.5909 101.024 21.5909 100.241C21.5909 99.4593 21.7334 98.7699 22.0185 98.1733C22.3068 97.5734 22.7079 97.1061 23.2216 96.7713C23.7386 96.4332 24.3419 96.2642 25.0312 96.2642C25.429 96.2642 25.8217 96.3305 26.2095 96.4631C26.5973 96.5956 26.9503 96.8111 27.2685 97.1094C27.5866 97.4044 27.8402 97.7955 28.0291 98.2827C28.218 98.7699 28.3125 99.3698 28.3125 100.082V100.58H22.4261V99.5653H27.1193C27.1193 99.1345 27.0331 98.75 26.8608 98.4119C26.6918 98.0739 26.4498 97.8071 26.1349 97.6115C25.8234 97.416 25.4555 97.3182 25.0312 97.3182C24.5639 97.3182 24.1596 97.4342 23.8182 97.6662C23.4801 97.8949 23.2199 98.1932 23.0376 98.5611C22.8554 98.929 22.7642 99.3234 22.7642 99.7443V100.42C22.7642 100.997 22.8636 101.486 23.0625 101.887C23.2647 102.285 23.5447 102.588 23.9027 102.797C24.2607 103.002 24.6766 103.105 25.1506 103.105C25.4588 103.105 25.7372 103.062 25.9858 102.976C26.2377 102.886 26.4548 102.754 26.6371 102.578C26.8194 102.399 26.9602 102.177 27.0597 101.912L28.1932 102.23C28.0739 102.615 27.8733 102.953 27.5916 103.244C27.3099 103.533 26.9619 103.758 26.5476 103.92C26.1333 104.08 25.6676 104.159 25.1506 104.159ZM31.2706 99.4062V104H30.0973V96.3636H31.2308V97.5568H31.3303C31.5092 97.169 31.781 96.8575 32.1456 96.6222C32.5102 96.3835 32.9808 96.2642 33.5575 96.2642C34.0746 96.2642 34.527 96.3703 34.9148 96.5824C35.3026 96.7912 35.6042 97.1094 35.8196 97.5369C36.035 97.9612 36.1428 98.4981 36.1428 99.1477V104H34.9695V99.2273C34.9695 98.6274 34.8137 98.16 34.5021 97.8253C34.1906 97.4872 33.763 97.3182 33.2195 97.3182C32.8449 97.3182 32.5102 97.3994 32.2152 97.5618C31.9235 97.7242 31.6932 97.9612 31.5241 98.2727C31.3551 98.5843 31.2706 98.9621 31.2706 99.4062ZM41.389 104.159C40.6996 104.159 40.0948 103.995 39.5744 103.667C39.0574 103.339 38.653 102.88 38.3613 102.29C38.073 101.7 37.9288 101.01 37.9288 100.222C37.9288 99.4261 38.073 98.7318 38.3613 98.1385C38.653 97.5452 39.0574 97.0845 39.5744 96.7564C40.0948 96.4283 40.6996 96.2642 41.389 96.2642C42.0784 96.2642 42.6816 96.4283 43.1987 96.7564C43.719 97.0845 44.1234 97.5452 44.4118 98.1385C44.7034 98.7318 44.8493 99.4261 44.8493 100.222C44.8493 101.01 44.7034 101.7 44.4118 102.29C44.1234 102.88 43.719 103.339 43.1987 103.667C42.6816 103.995 42.0784 104.159 41.389 104.159ZM41.389 103.105C41.9127 103.105 42.3436 102.971 42.6816 102.702C43.0197 102.434 43.2699 102.081 43.4324 101.643C43.5948 101.206 43.676 100.732 43.676 100.222C43.676 99.7112 43.5948 99.2356 43.4324 98.7947C43.2699 98.3539 43.0197 97.9976 42.6816 97.7259C42.3436 97.4541 41.9127 97.3182 41.389 97.3182C40.8654 97.3182 40.4345 97.4541 40.0964 97.7259C39.7583 97.9976 39.5081 98.3539 39.3457 98.7947C39.1833 99.2356 39.1021 99.7112 39.1021 100.222C39.1021 100.732 39.1833 101.206 39.3457 101.643C39.5081 102.081 39.7583 102.434 40.0964 102.702C40.4345 102.971 40.8654 103.105 41.389 103.105ZM52.6112 96.3636L49.7873 104H48.5941L45.7702 96.3636H47.043L49.1509 102.449H49.2305L51.3384 96.3636H52.6112ZM56.9886 104.159C56.2992 104.159 55.6944 103.995 55.174 103.667C54.657 103.339 54.2526 102.88 53.9609 102.29C53.6726 101.7 53.5284 101.01 53.5284 100.222C53.5284 99.4261 53.6726 98.7318 53.9609 98.1385C54.2526 97.5452 54.657 97.0845 55.174 96.7564C55.6944 96.4283 56.2992 96.2642 56.9886 96.2642C57.678 96.2642 58.2813 96.4283 58.7983 96.7564C59.3187 97.0845 59.723 97.5452 60.0114 98.1385C60.303 98.7318 60.4489 99.4261 60.4489 100.222C60.4489 101.01 60.303 101.7 60.0114 102.29C59.723 102.88 59.3187 103.339 58.7983 103.667C58.2813 103.995 57.678 104.159 56.9886 104.159ZM56.9886 103.105C57.5123 103.105 57.9432 102.971 58.2812 102.702C58.6193 102.434 58.8696 102.081 59.032 101.643C59.1944 101.206 59.2756 100.732 59.2756 100.222C59.2756 99.7112 59.1944 99.2356 59.032 98.7947C58.8696 98.3539 58.6193 97.9976 58.2812 97.7259C57.9432 97.4541 57.5123 97.3182 56.9886 97.3182C56.465 97.3182 56.0341 97.4541 55.696 97.7259C55.358 97.9976 55.1077 98.3539 54.9453 98.7947C54.7829 99.2356 54.7017 99.7112 54.7017 100.222C54.7017 100.732 54.7829 101.206 54.9453 101.643C55.1077 102.081 55.358 102.434 55.696 102.702C56.0341 102.971 56.465 103.105 56.9886 103.105Z" fill="#004F22"/>
<g clip-path="url(#clip0_2_136)">
<path d="M33.5299 35.2856C36.561 35.2856 38.6257 37.3795 38.6257 40.2651V47.6941C38.6257 47.8866 38.4696 48.0427 38.2771 48.0427H35.5288C35.3363 48.0427 35.1803 47.8866 35.1803 47.6941V40.9034C35.1803 39.2441 33.7051 38.2526 32.2796 38.2526C30.4351 38.2526 29.4387 39.6184 29.4387 40.9034V47.6941C29.4387 47.8866 29.2826 48.0427 29.0901 48.0427H26.3426C26.1501 48.0427 25.994 47.8866 25.994 47.6941V35.8446C25.994 35.6521 26.1501 35.496 26.3426 35.496H29.0907C29.2832 35.496 29.4393 35.6521 29.4393 35.8448L29.4387 37.2938L29.4393 37.2932L29.4387 37.2959C30.4426 35.9552 32.0854 35.2856 33.5299 35.2856Z" fill="black"/>
<path d="M36.951 47.6943V40.9035C36.951 39.2443 35.4759 38.2527 34.0504 38.2527C33.7215 38.2527 33.4209 38.2979 33.1467 38.3765C34.2462 38.6884 35.1804 39.5835 35.1804 40.9035V47.6943C35.1804 47.8868 35.3365 48.0429 35.529 48.0429H37.2998C37.1071 48.0429 36.951 47.8868 36.951 47.6943Z" fill="#020202"/>
<path d="M27.7648 47.6943V35.8448C27.7648 35.6523 27.9209 35.4962 28.1134 35.4962H26.3426C26.1501 35.4962 25.994 35.6523 25.994 35.8448V47.6943C25.994 47.8868 26.1501 48.0429 26.3426 48.0429H28.1134C27.9209 48.0429 27.7648 47.8868 27.7648 47.6943Z" fill="#020202"/>
<path d="M63.3566 35.4966H66.5272C66.7753 35.4966 66.9439 35.7485 66.8496 35.9779L61.9743 47.8233C61.9205 47.954 61.7932 48.0393 61.6519 48.0393H58.3435C58.2022 48.0393 58.0749 47.954 58.0211 47.8233L53.1458 35.9779C53.0515 35.7485 53.2201 35.4966 53.4682 35.4966H56.6396C56.7861 35.4966 56.9169 35.5882 56.9671 35.7259L59.6707 43.1444C59.7821 43.4501 60.2143 43.4501 60.3257 43.1444L63.0293 35.7259C63.0793 35.5882 63.21 35.4966 63.3566 35.4966Z" fill="black"/>
<path d="M59.7918 47.8233L54.9165 35.9779C54.8221 35.7485 54.9907 35.4966 55.2388 35.4966H53.468C53.2199 35.4966 53.0513 35.7485 53.1457 35.9779L58.021 47.8233C58.0747 47.954 58.2021 48.0393 58.3433 48.0393H60.1141C59.9729 48.0393 59.8455 47.954 59.7918 47.8233Z" fill="#020202"/>
<path d="M24.7132 40.5715C24.4935 39.3198 23.9939 38.2031 23.2518 37.3401C22.0945 35.996 20.3817 35.2849 18.2961 35.2849C14.5078 35.2849 11.6512 38.0796 11.6512 41.7709C11.6512 45.5579 14.5145 48.2562 18.6757 48.2562C20.8276 48.2562 23.024 47.3149 24.2264 46.1549C24.381 46.0057 24.37 45.7554 24.1995 45.6243L22.534 44.344C22.4129 44.2509 22.2443 44.2474 22.12 44.3363C20.7956 45.2827 19.9845 45.5145 18.7267 45.5145C17.8004 45.5145 17.0306 45.2905 16.4251 44.8859C16.194 44.7313 16.23 44.3802 16.4868 44.2737L24.5023 40.9485C24.6512 40.8867 24.7412 40.7302 24.7132 40.5715ZM20.6731 39.9293L15.4526 42.0951C15.2268 42.1887 14.9773 42.0263 14.9697 41.7821C14.9364 40.7356 15.2447 39.8993 15.7086 39.2763C16.2953 38.4885 17.2298 38.026 18.3586 38.026C19.4501 38.026 20.3101 38.5742 20.8329 39.4177C20.9475 39.6026 20.874 39.846 20.6731 39.9293Z" fill="black"/>
<path d="M13.422 41.7709C13.422 38.3626 15.8581 35.7207 19.2136 35.3353C18.9162 35.3031 18.6111 35.2849 18.2961 35.2849C14.5078 35.2849 11.6512 38.0796 11.6512 41.7709C11.6512 45.5579 14.5145 48.2562 18.6757 48.2562C18.9581 48.2562 19.2411 48.2391 19.5225 48.2084C15.8679 47.838 13.422 45.2702 13.422 41.7709Z" fill="#020202"/>
<path d="M11.3229 45.2279V47.6943C11.3229 47.8868 11.1669 48.0429 10.9744 48.0429H0.348593C0.156093 48.0429 0 47.8868 0 47.6943V32.0924C0 31.8999 0.156093 31.7439 0.348593 31.7439H3.14359C3.33609 31.7439 3.49218 31.8999 3.49218 32.0924V44.5309C3.49218 44.7234 3.64827 44.8795 3.84077 44.8795H10.9744C11.1669 44.8793 11.3229 45.0354 11.3229 45.2279Z" fill="black"/>
<path d="M1.77078 47.6943V32.0924C1.77078 31.8999 1.92687 31.7439 2.11937 31.7439H0.348593C0.156093 31.7439 0 31.8999 0 32.0924V47.6943C0 47.8868 0.156093 48.0429 0.348593 48.0429H2.11937C1.92687 48.0427 1.77078 47.8868 1.77078 47.6943Z" fill="#020202"/>
<path d="M73.2803 35.2849C69.4866 35.2849 66.5139 38.1334 66.5139 41.7695C66.5139 45.4471 69.4663 48.254 73.2342 48.254C77.028 48.254 80 45.4049 80 41.7695C79.9998 38.092 77.0483 35.2849 73.2803 35.2849ZM73.2803 45.3018C71.393 45.3018 69.9132 43.7499 69.9132 41.7695C69.9132 39.6952 71.3102 38.2371 73.2342 38.2371C75.1224 38.2371 76.6016 39.789 76.6016 41.7695C76.6014 43.8037 75.205 45.3018 73.2803 45.3018Z" fill="black"/>
<path d="M74.1772 45.182C74.4555 45.2577 74.747 45.3018 75.0509 45.3018C76.9756 45.3018 78.372 43.8035 78.372 41.7695C78.372 39.789 76.8928 38.2371 75.0049 38.2371C74.688 38.2371 74.3872 38.2802 74.1027 38.3556C75.5558 38.7485 76.6013 40.1057 76.6013 41.7693C76.6014 43.4707 75.6228 44.7934 74.1772 45.182Z" fill="#020202"/>
<path d="M68.2846 41.7696C68.2846 38.4218 70.8052 35.7437 74.1658 35.3396C73.8764 35.3048 73.5813 35.2849 73.2803 35.2849C69.4866 35.2849 66.5139 38.1334 66.5139 41.7695C66.5139 45.4471 69.4663 48.254 73.2342 48.254C73.535 48.254 73.83 48.2341 74.1194 48.1993C70.7847 47.7982 68.2846 45.1534 68.2846 41.7696Z" fill="#020202"/>
<path d="M46.7552 35.2849C42.9607 35.2849 39.9888 38.1334 39.9888 41.7695C39.9888 45.4471 42.9404 48.254 46.7083 48.254C50.5021 48.254 53.4747 45.4049 53.4747 41.7695C53.4747 38.092 50.5224 35.2849 46.7552 35.2849ZM46.7552 45.3018C44.8671 45.3018 43.388 43.7499 43.388 41.7695C43.388 39.6952 44.7844 38.2371 46.7085 38.2371C48.5966 38.2371 50.0757 39.789 50.0757 41.7695C50.0755 43.8037 48.6791 45.3018 46.7552 45.3018Z" fill="black"/>
<path d="M41.7594 41.7696C41.7594 38.4218 44.2796 35.7437 47.6405 35.3396C47.3512 35.3048 47.0562 35.2849 46.7552 35.2849C42.9609 35.2849 39.9888 38.1334 39.9888 41.7695C39.9888 45.4471 42.9404 48.254 46.7083 48.254C47.0091 48.254 47.3041 48.2341 47.5935 48.1993C44.259 47.7982 41.7594 45.1534 41.7594 41.7696Z" fill="#020202"/>
<path d="M47.6519 45.182C47.9302 45.2577 48.2219 45.3018 48.526 45.3018C50.4501 45.3018 51.8465 43.8035 51.8465 41.7695C51.8465 39.789 50.3673 38.2371 48.4793 38.2371C48.1624 38.2371 47.8616 38.2802 47.5773 38.3556C50.8955 39.2532 50.891 44.3109 47.6519 45.182Z" fill="#020202"/>
</g>
<defs>
<clipPath id="clip0_2_136">
<rect width="80" height="80" fill="white"/>
</clipPath>
</defs>
</svg>
