<svg width="163" height="207" viewBox="0 0 163 207" fill="none" xmlns="http://www.w3.org/2000/svg">
<ellipse cx="81.5" cy="188.5" rx="81.5" ry="18.5" fill="#8624E1"/>
<path fill-rule="evenodd" clip-rule="evenodd" d="M134 71.9938C134.025 83.565 130.308 94.8341 123.404 104.119L80 161.998L36.596 104.119C31.5141 97.2532 28.1335 89.2792 26.7319 80.8525C25.3303 72.4258 25.9477 63.7867 28.5334 55.645C31.1191 47.5032 35.5993 40.0911 41.606 34.0174C47.6127 27.9436 54.9745 23.3816 63.0868 20.706C71.1991 18.0305 79.8303 17.3176 88.2716 18.6262C96.7128 19.9347 104.723 23.2272 111.645 28.2332C118.567 33.2393 124.202 39.8161 128.088 47.4233C131.974 55.0306 134 63.4513 134 71.9938ZM152 71.9938C152 88.0747 146.732 102.907 137.84 114.884L91.244 176.999L80 192L68.744 176.999L22.16 114.884C15.3762 105.733 10.8605 95.1022 8.98383 83.8661C7.10717 72.6301 7.92313 61.109 11.3647 50.2496C14.8062 39.3903 20.7751 29.5024 28.781 21.3986C36.7868 13.2948 46.6011 7.20631 57.4175 3.63333C68.2338 0.0603497 79.7435 -0.895116 91.0009 0.845437C102.258 2.58599 112.942 6.97289 122.175 13.6457C131.407 20.3185 138.924 29.0867 144.109 39.23C149.294 49.3733 151.998 60.6021 152 71.9938ZM80 95.9951C86.3652 95.9951 92.4697 93.4664 96.9706 88.9653C101.471 84.4642 104 78.3594 104 71.9938C104 65.6283 101.471 59.5235 96.9706 55.0224C92.4697 50.5213 86.3652 47.9926 80 47.9926C73.6348 47.9926 67.5303 50.5213 63.0294 55.0224C58.5286 59.5235 56 65.6283 56 71.9938C56 78.3594 58.5286 84.4642 63.0294 88.9653C67.5303 93.4664 73.6348 95.9951 80 95.9951Z" fill="black"/>
<circle cx="80" cy="76" r="29" fill="#8624E1"/>
</svg>
