<svg width="35" height="35" viewBox="0 0 35 35" fill="none" xmlns="http://www.w3.org/2000/svg">
<path d="M27.6206 25.1844L35 32.562L32.562 35L25.1844 27.6206C22.4392 29.8212 19.0248 31.0181 15.5065 31.0131C6.94693 31.0131 0 24.0662 0 15.5065C0 6.94693 6.94693 0 15.5065 0C24.0662 0 31.0131 6.94693 31.0131 15.5065C31.0181 19.0248 29.8212 22.4392 27.6206 25.1844ZM24.1644 23.9059C26.351 21.6573 27.5721 18.6431 27.5672 15.5065C27.5672 8.8439 22.1692 3.4459 15.5065 3.4459C8.8439 3.4459 3.4459 8.8439 3.4459 15.5065C3.4459 22.1692 8.8439 27.5672 15.5065 27.5672C18.6431 27.5721 21.6573 26.351 23.9059 24.1644L24.1644 23.9059Z" fill="black"/>
</svg>
