<svg width="53" height="100" viewBox="0 0 53 100" fill="none" xmlns="http://www.w3.org/2000/svg">
<path d="M5.82955 85.8182L8.45455 90.054H8.53409L11.1591 85.8182H12.6108L9.40909 90.9091L12.6108 96H11.1591L8.53409 91.8438H8.45455L5.82955 96H4.37784L7.65909 90.9091L4.37784 85.8182H5.82955ZM14.0563 96V88.3636H15.2296V96H14.0563ZM14.6529 87.0909C14.4242 87.0909 14.227 87.013 14.0613 86.8572C13.8989 86.7015 13.8176 86.5142 13.8176 86.2955C13.8176 86.0767 13.8989 85.8894 14.0613 85.7337C14.227 85.5779 14.4242 85.5 14.6529 85.5C14.8816 85.5 15.0771 85.5779 15.2395 85.7337C15.4052 85.8894 15.4881 86.0767 15.4881 86.2955C15.4881 86.5142 15.4052 86.7015 15.2395 86.8572C15.0771 87.013 14.8816 87.0909 14.6529 87.0909ZM19.6257 96.179C19.1418 96.179 18.7027 96.0878 18.3082 95.9055C17.9138 95.7199 17.6006 95.4531 17.3686 95.1051C17.1366 94.7538 17.0206 94.3295 17.0206 93.8324C17.0206 93.3949 17.1068 93.0402 17.2791 92.7685C17.4515 92.4934 17.6818 92.2779 17.9702 92.1222C18.2585 91.9664 18.5767 91.8504 18.9247 91.7741C19.276 91.6946 19.629 91.6316 19.9837 91.5852C20.4477 91.5256 20.8239 91.4808 21.1122 91.451C21.4039 91.4179 21.616 91.3632 21.7486 91.2869C21.8845 91.2107 21.9524 91.0781 21.9524 90.8892V90.8494C21.9524 90.3589 21.8182 89.9777 21.5497 89.706C21.2846 89.4342 20.8819 89.2983 20.3416 89.2983C19.7815 89.2983 19.3423 89.4209 19.0241 89.6662C18.706 89.9115 18.4822 90.1733 18.353 90.4517L17.2393 90.054C17.4382 89.59 17.7034 89.2287 18.0348 88.9702C18.3696 88.7083 18.7341 88.526 19.1286 88.4233C19.5263 88.3172 19.9174 88.2642 20.3018 88.2642C20.5471 88.2642 20.8288 88.294 21.147 88.3537C21.4685 88.41 21.7784 88.5277 22.0767 88.7067C22.3783 88.8857 22.6286 89.1558 22.8274 89.517C23.0263 89.8783 23.1257 90.3622 23.1257 90.9688V96H21.9524V94.9659H21.8928C21.8132 95.1316 21.6806 95.3089 21.495 95.4979C21.3094 95.6868 21.0625 95.8475 20.7543 95.9801C20.446 96.1127 20.0698 96.179 19.6257 96.179ZM19.8047 95.125C20.2687 95.125 20.6598 95.0339 20.978 94.8516C21.2995 94.6693 21.5414 94.4339 21.7038 94.1456C21.8696 93.8572 21.9524 93.554 21.9524 93.2358V92.1619C21.9027 92.2216 21.7933 92.2763 21.6243 92.326C21.4586 92.3724 21.2663 92.4138 21.0476 92.4503C20.8321 92.4834 20.6217 92.5133 20.4162 92.5398C20.214 92.563 20.05 92.5829 19.924 92.5994C19.6191 92.6392 19.334 92.7038 19.0689 92.7933C18.8071 92.8795 18.5949 93.0104 18.4325 93.1861C18.2734 93.3584 18.1939 93.5937 18.1939 93.892C18.1939 94.2997 18.3447 94.608 18.6463 94.8168C18.9512 95.0223 19.3374 95.125 19.8047 95.125ZM28.3695 96.1591C27.6801 96.1591 27.0752 95.995 26.5549 95.6669C26.0378 95.3388 25.6335 94.8797 25.3418 94.2898C25.0534 93.6998 24.9093 93.0104 24.9093 92.2216C24.9093 91.4261 25.0534 90.7318 25.3418 90.1385C25.6335 89.5452 26.0378 89.0845 26.5549 88.7564C27.0752 88.4283 27.6801 88.2642 28.3695 88.2642C29.0589 88.2642 29.6621 88.4283 30.1792 88.7564C30.6995 89.0845 31.1039 89.5452 31.3922 90.1385C31.6839 90.7318 31.8297 91.4261 31.8297 92.2216C31.8297 93.0104 31.6839 93.6998 31.3922 94.2898C31.1039 94.8797 30.6995 95.3388 30.1792 95.6669C29.6621 95.995 29.0589 96.1591 28.3695 96.1591ZM28.3695 95.1051C28.8932 95.1051 29.324 94.9709 29.6621 94.7024C30.0002 94.4339 30.2504 94.081 30.4128 93.6435C30.5752 93.206 30.6564 92.732 30.6564 92.2216C30.6564 91.7112 30.5752 91.2356 30.4128 90.7947C30.2504 90.3539 30.0002 89.9976 29.6621 89.7259C29.324 89.4541 28.8932 89.3182 28.3695 89.3182C27.8458 89.3182 27.415 89.4541 27.0769 89.7259C26.7388 89.9976 26.4886 90.3539 26.3262 90.7947C26.1638 91.2356 26.0826 91.7112 26.0826 92.2216C26.0826 92.732 26.1638 93.206 26.3262 93.6435C26.4886 94.081 26.7388 94.4339 27.0769 94.7024C27.415 94.9709 27.8458 95.1051 28.3695 95.1051ZM33.6207 96V88.3636H34.7543V89.5568H34.8537C35.0128 89.1491 35.2696 88.8326 35.6243 88.6072C35.9789 88.3786 36.4048 88.2642 36.902 88.2642C37.4058 88.2642 37.825 88.3786 38.1598 88.6072C38.4979 88.8326 38.7614 89.1491 38.9503 89.5568H39.0298C39.2254 89.1624 39.5187 88.8492 39.9098 88.6172C40.3009 88.3819 40.7699 88.2642 41.3168 88.2642C41.9995 88.2642 42.558 88.478 42.9922 88.9055C43.4264 89.3298 43.6435 89.991 43.6435 90.8892V96H42.4702V90.8892C42.4702 90.3258 42.3161 89.9231 42.0078 89.6811C41.6996 89.4392 41.3366 89.3182 40.919 89.3182C40.3821 89.3182 39.9661 89.4806 39.6712 89.8054C39.3762 90.1269 39.2287 90.5346 39.2287 91.0284V96H38.0355V90.7699C38.0355 90.3357 37.8946 89.986 37.6129 89.7209C37.3312 89.4524 36.9683 89.3182 36.5241 89.3182C36.2192 89.3182 35.9342 89.3994 35.669 89.5618C35.4072 89.7242 35.1951 89.9496 35.0327 90.2379C34.8736 90.523 34.794 90.8527 34.794 91.2273V96H33.6207ZM45.7887 96V88.3636H46.962V96H45.7887ZM46.3853 87.0909C46.1566 87.0909 45.9594 87.013 45.7937 86.8572C45.6313 86.7015 45.5501 86.5142 45.5501 86.2955C45.5501 86.0767 45.6313 85.8894 45.7937 85.7337C45.9594 85.5779 46.1566 85.5 46.3853 85.5C46.614 85.5 46.8095 85.5779 46.9719 85.7337C47.1377 85.8894 47.2205 86.0767 47.2205 86.2955C47.2205 86.5142 47.1377 86.7015 46.9719 86.8572C46.8095 87.013 46.614 87.0909 46.3853 87.0909Z" fill="#004F22"/>
<path d="M51 0H0V51H51V0ZM46.75 46.75H4.25V4.25H46.75V46.75Z" fill="black"/>
<path d="M36.125 12.75H40.375V38.25H36.125V12.75Z" fill="black"/>
<path d="M14.875 17H25.5C26.672 17 27.625 17.953 27.625 19.125V38.25H31.875V19.125C31.875 15.6091 29.0159 12.75 25.5 12.75H10.625V38.25H14.875V17Z" fill="black"/>
<path d="M19.125 21.25H23.375V38.25H19.125V21.25Z" fill="black"/>
</svg>
