<svg width="65" height="94" viewBox="0 0 65 94" fill="none" xmlns="http://www.w3.org/2000/svg">
<path d="M1.23295 80.8182H2.70455L6.16477 89.2699H6.28409L9.74432 80.8182H11.2159V91H10.0625V83.2642H9.96307L6.78125 91H5.66761L2.4858 83.2642H2.38636V91H1.23295V80.8182ZM13.5289 91V83.3636H14.7022V91H13.5289ZM14.1255 82.0909C13.8968 82.0909 13.6996 82.013 13.5339 81.8572C13.3715 81.7015 13.2903 81.5142 13.2903 81.2955C13.2903 81.0767 13.3715 80.8894 13.5339 80.7337C13.6996 80.5779 13.8968 80.5 14.1255 80.5C14.3542 80.5 14.5498 80.5779 14.7122 80.7337C14.8779 80.8894 14.9608 81.0767 14.9608 81.2955C14.9608 81.5142 14.8779 81.7015 14.7122 81.8572C14.5498 82.013 14.3542 82.0909 14.1255 82.0909ZM19.9535 91.1591C19.2376 91.1591 18.6211 90.9901 18.104 90.652C17.587 90.3139 17.1893 89.8482 16.9109 89.255C16.6325 88.6617 16.4933 87.9839 16.4933 87.2216C16.4933 86.446 16.6358 85.7616 16.9208 85.1683C17.2092 84.5717 17.6102 84.1061 18.1239 83.7713C18.641 83.4332 19.2442 83.2642 19.9336 83.2642C20.4705 83.2642 20.9544 83.3636 21.3853 83.5625C21.8162 83.7614 22.1692 84.0398 22.4442 84.3977C22.7193 84.7557 22.89 85.1733 22.9563 85.6506H21.783C21.6935 85.3026 21.4947 84.9943 21.1864 84.7259C20.8815 84.4541 20.4705 84.3182 19.9535 84.3182C19.4961 84.3182 19.0951 84.4375 18.7504 84.6761C18.409 84.9115 18.1422 85.2446 17.9499 85.6754C17.761 86.103 17.6665 86.6051 17.6665 87.1818C17.6665 87.7718 17.7594 88.2855 17.945 88.723C18.1339 89.1605 18.399 89.5002 18.7404 89.7422C19.0851 89.9841 19.4895 90.1051 19.9535 90.1051C20.2584 90.1051 20.5352 90.0521 20.7837 89.946C21.0323 89.84 21.2428 89.6875 21.4151 89.4886C21.5875 89.2898 21.7101 89.0511 21.783 88.7727H22.9563C22.89 89.2235 22.726 89.6295 22.4641 89.9908C22.2056 90.3487 21.8626 90.6338 21.435 90.8459C21.0108 91.0547 20.5169 91.1591 19.9535 91.1591ZM24.6715 91V83.3636H25.805V84.517H25.8846C26.0238 84.1392 26.2757 83.8326 26.6403 83.5973C27.0049 83.362 27.4158 83.2443 27.8732 83.2443C27.9594 83.2443 28.0671 83.246 28.1964 83.2493C28.3256 83.2526 28.4234 83.2576 28.4897 83.2642V84.4574C28.4499 84.4474 28.3588 84.4325 28.2163 84.4126C28.0771 84.3894 27.9296 84.3778 27.7738 84.3778C27.4026 84.3778 27.0711 84.4557 26.7795 84.6115C26.4911 84.764 26.2624 84.9761 26.0934 85.2479C25.9277 85.5163 25.8448 85.8229 25.8448 86.1676V91H24.6715ZM32.7504 91.1591C32.061 91.1591 31.4561 90.995 30.9357 90.6669C30.4187 90.3388 30.0143 89.8797 29.7227 89.2898C29.4343 88.6998 29.2901 88.0104 29.2901 87.2216C29.2901 86.4261 29.4343 85.7318 29.7227 85.1385C30.0143 84.5452 30.4187 84.0845 30.9357 83.7564C31.4561 83.4283 32.061 83.2642 32.7504 83.2642C33.4397 83.2642 34.043 83.4283 34.56 83.7564C35.0804 84.0845 35.4847 84.5452 35.7731 85.1385C36.0647 85.7318 36.2106 86.4261 36.2106 87.2216C36.2106 88.0104 36.0647 88.6998 35.7731 89.2898C35.4847 89.8797 35.0804 90.3388 34.56 90.6669C34.043 90.995 33.4397 91.1591 32.7504 91.1591ZM32.7504 90.1051C33.274 90.1051 33.7049 89.9709 34.043 89.7024C34.381 89.4339 34.6313 89.081 34.7937 88.6435C34.9561 88.206 35.0373 87.732 35.0373 87.2216C35.0373 86.7112 34.9561 86.2356 34.7937 85.7947C34.6313 85.3539 34.381 84.9976 34.043 84.7259C33.7049 84.4541 33.274 84.3182 32.7504 84.3182C32.2267 84.3182 31.7958 84.4541 31.4577 84.7259C31.1197 84.9976 30.8694 85.3539 30.707 85.7947C30.5446 86.2356 30.4634 86.7112 30.4634 87.2216C30.4634 87.732 30.5446 88.206 30.707 88.6435C30.8694 89.081 31.1197 89.4339 31.4577 89.7024C31.7958 89.9709 32.2267 90.1051 32.7504 90.1051ZM43.4107 85.0739L42.3567 85.3722C42.2904 85.1965 42.1926 85.0258 42.0634 84.8601C41.9374 84.6911 41.7651 84.5518 41.5463 84.4425C41.3276 84.3331 41.0475 84.2784 40.7061 84.2784C40.2388 84.2784 39.8494 84.3861 39.5378 84.6016C39.2296 84.8137 39.0755 85.0838 39.0755 85.4119C39.0755 85.7036 39.1815 85.9339 39.3936 86.103C39.6058 86.272 39.9372 86.4129 40.388 86.5256L41.5215 86.804C42.2042 86.9697 42.713 87.2232 43.0478 87.5646C43.3825 87.9027 43.5499 88.3385 43.5499 88.8722C43.5499 89.3097 43.4239 89.7008 43.1721 90.0455C42.9235 90.3902 42.5755 90.6619 42.128 90.8608C41.6806 91.0597 41.1602 91.1591 40.5669 91.1591C39.7881 91.1591 39.1434 90.9901 38.633 90.652C38.1226 90.3139 37.7994 89.8201 37.6635 89.1705L38.7772 88.892C38.8832 89.303 39.0837 89.6113 39.3787 89.8168C39.677 90.0223 40.0665 90.125 40.5471 90.125C41.0939 90.125 41.5281 90.009 41.8496 89.777C42.1744 89.5417 42.3368 89.2599 42.3368 88.9318C42.3368 88.6667 42.244 88.4446 42.0584 88.2656C41.8728 88.0833 41.5878 87.9474 41.2033 87.858L39.9306 87.5597C39.2312 87.3939 38.7175 87.1371 38.3894 86.7891C38.0646 86.4377 37.9022 85.9986 37.9022 85.4716C37.9022 85.0407 38.0231 84.6596 38.2651 84.3281C38.5104 83.9967 38.8435 83.7365 39.2644 83.5476C39.6886 83.3587 40.1692 83.2642 40.7061 83.2642C41.4618 83.2642 42.0551 83.4299 42.486 83.7614C42.9202 84.0928 43.2284 84.5303 43.4107 85.0739ZM48.4183 91.1591C47.7289 91.1591 47.1241 90.995 46.6037 90.6669C46.0866 90.3388 45.6823 89.8797 45.3906 89.2898C45.1023 88.6998 44.9581 88.0104 44.9581 87.2216C44.9581 86.4261 45.1023 85.7318 45.3906 85.1385C45.6823 84.5452 46.0866 84.0845 46.6037 83.7564C47.1241 83.4283 47.7289 83.2642 48.4183 83.2642C49.1077 83.2642 49.7109 83.4283 50.228 83.7564C50.7483 84.0845 51.1527 84.5452 51.4411 85.1385C51.7327 85.7318 51.8786 86.4261 51.8786 87.2216C51.8786 88.0104 51.7327 88.6998 51.4411 89.2898C51.1527 89.8797 50.7483 90.3388 50.228 90.6669C49.7109 90.995 49.1077 91.1591 48.4183 91.1591ZM48.4183 90.1051C48.942 90.1051 49.3729 89.9709 49.7109 89.7024C50.049 89.4339 50.2992 89.081 50.4616 88.6435C50.6241 88.206 50.7053 87.732 50.7053 87.2216C50.7053 86.7112 50.6241 86.2356 50.4616 85.7947C50.2992 85.3539 50.049 84.9976 49.7109 84.7259C49.3729 84.4541 48.942 84.3182 48.4183 84.3182C47.8946 84.3182 47.4638 84.4541 47.1257 84.7259C46.7876 84.9976 46.5374 85.3539 46.375 85.7947C46.2126 86.2356 46.1314 86.7112 46.1314 87.2216C46.1314 87.732 46.2126 88.206 46.375 88.6435C46.5374 89.081 46.7876 89.4339 47.1257 89.7024C47.4638 89.9709 47.8946 90.1051 48.4183 90.1051ZM57.0701 83.3636V84.358H52.9537V83.3636H57.0701ZM54.1866 91V82.3097C54.1866 81.8722 54.2894 81.5076 54.4949 81.2159C54.7003 80.9242 54.9672 80.7055 55.2953 80.5597C55.6234 80.4138 55.9698 80.3409 56.3343 80.3409C56.6227 80.3409 56.858 80.3641 57.0403 80.4105C57.2226 80.4569 57.3585 80.5 57.448 80.5398L57.1099 81.554C57.0502 81.5341 56.9674 81.5092 56.8613 81.4794C56.7586 81.4496 56.6227 81.4347 56.4537 81.4347C56.0659 81.4347 55.7858 81.5324 55.6135 81.728C55.4444 81.9235 55.3599 82.2102 55.3599 82.5881V91H54.1866ZM62.0355 83.3636V84.358H58.0781V83.3636H62.0355ZM59.2315 81.5341H60.4048V88.8125C60.4048 89.1439 60.4529 89.3925 60.549 89.5582C60.6484 89.7206 60.7744 89.83 60.9268 89.8864C61.0826 89.9394 61.2467 89.9659 61.419 89.9659C61.5483 89.9659 61.6544 89.9593 61.7372 89.946C61.8201 89.9295 61.8864 89.9162 61.9361 89.9062L62.1747 90.9602C62.0952 90.9901 61.9841 91.0199 61.8416 91.0497C61.6991 91.0829 61.5185 91.0994 61.2997 91.0994C60.9683 91.0994 60.6435 91.0282 60.3253 90.8857C60.0104 90.7431 59.7486 90.526 59.5398 90.2344C59.3343 89.9427 59.2315 89.5748 59.2315 89.1307V81.5341Z" fill="#004F22"/>
<path d="M4 28.0213V43.2422L25.2081 46.3626V28.0213H4Z" fill="#030104"/>
<path d="M25.2081 4.64084L4 7.76121V22.9821H25.2081V4.64084Z" fill="#030104"/>
<path d="M55 22.9819V0L30.1303 3.65737V22.9819H55Z" fill="#030104"/>
<path d="M30.1303 47.3459L55 50.9996V28.0213H30.1303V47.3459Z" fill="#030104"/>
</svg>
