<svg width="30" height="57" viewBox="0 0 30 57" fill="none" xmlns="http://www.w3.org/2000/svg">
<path d="M24.2308 0H5.76923C4.23914 0 2.77171 0.673446 1.68977 1.87219C0.607828 3.07093 0 4.69677 0 6.39205V49.858C0 51.5532 0.607828 53.1791 1.68977 54.3778C2.77171 55.5766 4.23914 56.25 5.76923 56.25H24.2308C25.7609 56.25 27.2283 55.5766 28.3102 54.3778C29.3922 53.1791 30 51.5532 30 49.858V6.39205C30 4.69677 29.3922 3.07093 28.3102 1.87219C27.2283 0.673446 25.7609 0 24.2308 0ZM15 53.6932C13.0846 53.6932 11.5385 51.9801 11.5385 49.858C11.5385 47.7358 13.0846 46.0227 15 46.0227C16.9154 46.0227 18.4615 47.7358 18.4615 49.858C18.4615 51.9801 16.9154 53.6932 15 53.6932ZM25.3846 43.4659H4.61538V7.67045H25.3846V43.4659Z" fill="white"/>
</svg>
