<svg width="30" height="30" viewBox="0 0 30 30" fill="none" xmlns="http://www.w3.org/2000/svg">
<circle cx="15" cy="15" r="15" fill="#FED2E9"/>
<path d="M10.8 22V20.5556L11.5 19.8333H9.4C9.015 19.8333 8.6853 19.6918 8.4109 19.4087C8.1365 19.1256 7.99953 18.7856 8 18.3889V10.4444C8 10.0472 8.1372 9.70706 8.4116 9.42395C8.686 9.14083 9.01547 8.99952 9.4 9H20.6C20.985 9 21.3147 9.14156 21.5891 9.42467C21.8635 9.70778 22.0005 10.0477 22 10.4444V18.3889C22 18.7861 21.8628 19.1263 21.5884 19.4094C21.314 19.6925 20.9845 19.8338 20.6 19.8333H18.5L19.2 20.5556V22H10.8ZM9.4 18.3889H20.6V10.4444H9.4V18.3889Z" fill="#F767B3"/>
</svg>
