<svg width="75" height="98" viewBox="0 0 75 98" fill="none" xmlns="http://www.w3.org/2000/svg">
<path d="M6.23295 84.8182H7.70455L11.1648 93.2699H11.2841L14.7443 84.8182H16.2159V95H15.0625V87.2642H14.9631L11.7812 95H10.6676L7.4858 87.2642H7.38636V95H6.23295V84.8182ZM21.6312 95.1591C20.9418 95.1591 20.3369 94.995 19.8166 94.6669C19.2995 94.3388 18.8952 93.8797 18.6035 93.2898C18.3152 92.6998 18.171 92.0104 18.171 91.2216C18.171 90.4261 18.3152 89.7318 18.6035 89.1385C18.8952 88.5452 19.2995 88.0845 19.8166 87.7564C20.3369 87.4283 20.9418 87.2642 21.6312 87.2642C22.3206 87.2642 22.9238 87.4283 23.4409 87.7564C23.9612 88.0845 24.3656 88.5452 24.6539 89.1385C24.9456 89.7318 25.0914 90.4261 25.0914 91.2216C25.0914 92.0104 24.9456 92.6998 24.6539 93.2898C24.3656 93.8797 23.9612 94.3388 23.4409 94.6669C22.9238 94.995 22.3206 95.1591 21.6312 95.1591ZM21.6312 94.1051C22.1549 94.1051 22.5858 93.9709 22.9238 93.7024C23.2619 93.4339 23.5121 93.081 23.6745 92.6435C23.8369 92.206 23.9181 91.732 23.9181 91.2216C23.9181 90.7112 23.8369 90.2356 23.6745 89.7947C23.5121 89.3539 23.2619 88.9976 22.9238 88.7259C22.5858 88.4541 22.1549 88.3182 21.6312 88.3182C21.1075 88.3182 20.6767 88.4541 20.3386 88.7259C20.0005 88.9976 19.7503 89.3539 19.5879 89.7947C19.4255 90.2356 19.3443 90.7112 19.3443 91.2216C19.3443 91.732 19.4255 92.206 19.5879 92.6435C19.7503 93.081 20.0005 93.4339 20.3386 93.7024C20.6767 93.9709 21.1075 94.1051 21.6312 94.1051ZM30.2035 87.3636V88.358H26.2461V87.3636H30.2035ZM27.3995 85.5341H28.5728V92.8125C28.5728 93.1439 28.6209 93.3925 28.717 93.5582C28.8164 93.7206 28.9424 93.83 29.0948 93.8864C29.2506 93.9394 29.4147 93.9659 29.587 93.9659C29.7163 93.9659 29.8223 93.9593 29.9052 93.946C29.988 93.9295 30.0543 93.9162 30.104 93.9062L30.3427 94.9602C30.2631 94.9901 30.1521 95.0199 30.0096 95.0497C29.8671 95.0829 29.6864 95.0994 29.4677 95.0994C29.1362 95.0994 28.8114 95.0282 28.4933 94.8857C28.1784 94.7431 27.9165 94.526 27.7077 94.2344C27.5022 93.9427 27.3995 93.5748 27.3995 93.1307V85.5341ZM34.9886 95.1591C34.2992 95.1591 33.6944 94.995 33.174 94.6669C32.657 94.3388 32.2526 93.8797 31.9609 93.2898C31.6726 92.6998 31.5284 92.0104 31.5284 91.2216C31.5284 90.4261 31.6726 89.7318 31.9609 89.1385C32.2526 88.5452 32.657 88.0845 33.174 87.7564C33.6944 87.4283 34.2992 87.2642 34.9886 87.2642C35.678 87.2642 36.2813 87.4283 36.7983 87.7564C37.3187 88.0845 37.723 88.5452 38.0114 89.1385C38.303 89.7318 38.4489 90.4261 38.4489 91.2216C38.4489 92.0104 38.303 92.6998 38.0114 93.2898C37.723 93.8797 37.3187 94.3388 36.7983 94.6669C36.2813 94.995 35.678 95.1591 34.9886 95.1591ZM34.9886 94.1051C35.5123 94.1051 35.9432 93.9709 36.2812 93.7024C36.6193 93.4339 36.8696 93.081 37.032 92.6435C37.1944 92.206 37.2756 91.732 37.2756 91.2216C37.2756 90.7112 37.1944 90.2356 37.032 89.7947C36.8696 89.3539 36.6193 88.9976 36.2812 88.7259C35.9432 88.4541 35.5123 88.3182 34.9886 88.3182C34.465 88.3182 34.0341 88.4541 33.696 88.7259C33.358 88.9976 33.1077 89.3539 32.9453 89.7947C32.7829 90.2356 32.7017 90.7112 32.7017 91.2216C32.7017 91.732 32.7829 92.206 32.9453 92.6435C33.1077 93.081 33.358 93.4339 33.696 93.7024C34.0341 93.9709 34.465 94.1051 34.9886 94.1051ZM40.2399 95V87.3636H41.3734V88.517H41.4529C41.5922 88.1392 41.844 87.8326 42.2086 87.5973C42.5732 87.362 42.9842 87.2443 43.4416 87.2443C43.5278 87.2443 43.6355 87.246 43.7647 87.2493C43.894 87.2526 43.9918 87.2576 44.0581 87.2642V88.4574C44.0183 88.4474 43.9271 88.4325 43.7846 88.4126C43.6454 88.3894 43.4979 88.3778 43.3422 88.3778C42.9709 88.3778 42.6395 88.4557 42.3478 88.6115C42.0595 88.764 41.8308 88.9761 41.6618 89.2479C41.496 89.5163 41.4132 89.8229 41.4132 90.1676V95H40.2399ZM48.3187 95.1591C47.6293 95.1591 47.0244 94.995 46.5041 94.6669C45.987 94.3388 45.5827 93.8797 45.291 93.2898C45.0027 92.6998 44.8585 92.0104 44.8585 91.2216C44.8585 90.4261 45.0027 89.7318 45.291 89.1385C45.5827 88.5452 45.987 88.0845 46.5041 87.7564C47.0244 87.4283 47.6293 87.2642 48.3187 87.2642C49.0081 87.2642 49.6113 87.4283 50.1284 87.7564C50.6487 88.0845 51.0531 88.5452 51.3414 89.1385C51.6331 89.7318 51.7789 90.4261 51.7789 91.2216C51.7789 92.0104 51.6331 92.6998 51.3414 93.2898C51.0531 93.8797 50.6487 94.3388 50.1284 94.6669C49.6113 94.995 49.0081 95.1591 48.3187 95.1591ZM48.3187 94.1051C48.8424 94.1051 49.2733 93.9709 49.6113 93.7024C49.9494 93.4339 50.1996 93.081 50.362 92.6435C50.5244 92.206 50.6056 91.732 50.6056 91.2216C50.6056 90.7112 50.5244 90.2356 50.362 89.7947C50.1996 89.3539 49.9494 88.9976 49.6113 88.7259C49.2733 88.4541 48.8424 88.3182 48.3187 88.3182C47.795 88.3182 47.3642 88.4541 47.0261 88.7259C46.688 88.9976 46.4378 89.3539 46.2754 89.7947C46.113 90.2356 46.0318 90.7112 46.0318 91.2216C46.0318 91.732 46.113 92.206 46.2754 92.6435C46.4378 93.081 46.688 93.4339 47.0261 93.7024C47.3642 93.9709 47.795 94.1051 48.3187 94.1051ZM54.7433 84.8182V95H53.57V84.8182H54.7433ZM59.1394 95.179C58.6555 95.179 58.2163 95.0878 57.8219 94.9055C57.4275 94.7199 57.1143 94.4531 56.8823 94.1051C56.6503 93.7538 56.5343 93.3295 56.5343 92.8324C56.5343 92.3949 56.6204 92.0402 56.7928 91.7685C56.9651 91.4934 57.1955 91.2779 57.4838 91.1222C57.7722 90.9664 58.0904 90.8504 58.4384 90.7741C58.7897 90.6946 59.1427 90.6316 59.4973 90.5852C59.9614 90.5256 60.3375 90.4808 60.6259 90.451C60.9176 90.4179 61.1297 90.3632 61.2623 90.2869C61.3981 90.2107 61.4661 90.0781 61.4661 89.8892V89.8494C61.4661 89.3589 61.3319 88.9777 61.0634 88.706C60.7982 88.4342 60.3955 88.2983 59.8553 88.2983C59.2952 88.2983 58.856 88.4209 58.5378 88.6662C58.2196 88.9115 57.9959 89.1733 57.8667 89.4517L56.753 89.054C56.9519 88.59 57.217 88.2287 57.5485 87.9702C57.8832 87.7083 58.2478 87.526 58.6422 87.4233C59.04 87.3172 59.431 87.2642 59.8155 87.2642C60.0608 87.2642 60.3425 87.294 60.6607 87.3537C60.9822 87.41 61.2921 87.5277 61.5904 87.7067C61.892 87.8857 62.1422 88.1558 62.3411 88.517C62.54 88.8783 62.6394 89.3622 62.6394 89.9688V95H61.4661V93.9659H61.4064C61.3269 94.1316 61.1943 94.3089 61.0087 94.4979C60.8231 94.6868 60.5762 94.8475 60.2679 94.9801C59.9597 95.1127 59.5835 95.179 59.1394 95.179ZM59.3184 94.125C59.7824 94.125 60.1735 94.0339 60.4917 93.8516C60.8132 93.6693 61.0551 93.4339 61.2175 93.1456C61.3832 92.8572 61.4661 92.554 61.4661 92.2358V91.1619C61.4164 91.2216 61.307 91.2763 61.138 91.326C60.9722 91.3724 60.78 91.4138 60.5613 91.4503C60.3458 91.4834 60.1354 91.5133 59.9299 91.5398C59.7277 91.563 59.5636 91.5829 59.4377 91.5994C59.1328 91.6392 58.8477 91.7038 58.5826 91.7933C58.3207 91.8795 58.1086 92.0104 57.9462 92.1861C57.7871 92.3584 57.7076 92.5937 57.7076 92.892C57.7076 93.2997 57.8584 93.608 58.16 93.8168C58.4649 94.0223 58.851 94.125 59.3184 94.125Z" fill="#004F22"/>
<g clip-path="url(#clip0_2_232)">
<path d="M11.1243 56.6872H8.11348C8.05679 56.6872 8.00274 56.7121 7.96567 56.7553L5.96191 59.0973C5.86186 59.2142 5.67216 59.1741 5.62807 59.0267C4.92289 56.6684 4.98046 56.6996 4.78724 56.6996C1.72835 56.6996 1.78562 56.6473 1.72922 56.8391L0.00802613 62.6948C-0.0284486 62.8192 0.0644228 62.9437 0.194062 62.944C1.84421 62.9471 1.89182 62.9937 1.94675 62.8078L2.72884 60.164C2.78465 59.9755 3.05301 59.9794 3.10311 60.1696C3.8389 62.9642 3.77811 62.9471 3.98436 62.9471C4.98895 62.9471 5.04931 62.9824 5.13925 62.8837L7.46455 60.3351C7.60312 60.1833 7.85171 60.3222 7.79487 60.5197L7.16938 62.6984C7.13364 62.8229 7.22739 62.9468 7.35688 62.9464L9.48707 62.9392C9.57393 62.9389 9.65025 62.8809 9.67354 62.7972L11.3114 56.934C11.346 56.8099 11.2528 56.6872 11.1243 56.6872Z" fill="black"/>
<path d="M29.8022 56.6993C21.9266 56.6859 22.2862 56.6205 22.2298 56.8404L21.8103 58.4791C21.7772 58.6085 21.8749 58.7342 22.0083 58.7342H24.1174C24.2499 58.7342 24.3473 58.8582 24.3161 58.9868L23.414 62.6942C23.3827 62.823 23.4804 62.9471 23.6129 62.9469C25.8087 62.9437 25.8049 62.9931 25.8575 62.7911C26.9506 58.5853 26.8568 58.7163 27.0747 58.7163C29.5809 58.7163 29.579 58.7692 29.6279 58.5581L30.0011 56.9498C30.0307 56.8218 29.9336 56.6995 29.8022 56.6993Z" fill="black"/>
<path d="M47.1947 56.6982C47.1888 56.6976 47.1837 56.6974 47.1778 56.6974L43.1622 56.6995V56.6974C41.18 56.6974 41.1874 56.6542 41.1388 56.8255L39.4642 62.7193C39.4323 62.8318 39.5168 62.9435 39.6337 62.9435C41.7438 62.9435 41.7198 62.9863 41.7684 62.8157C42.2537 61.1112 42.2171 61.0823 42.3962 61.0841L44.1207 61.1016C44.7087 61.0518 44.8176 61.4068 44.8362 61.5048C44.8468 61.56 44.7859 62.3438 44.7812 62.3999C44.7413 62.869 45.195 62.9384 45.195 62.9384H47.404C47.5273 62.9384 47.6098 62.8158 47.568 62.6998C47.3577 62.1156 47.8018 61.8975 47.7027 61.1563C47.6281 60.5988 47.0375 60.488 46.9629 60.4328C46.8878 60.3761 46.9839 60.2816 46.9839 60.2816C49.0128 59.6728 49.5645 56.9235 47.1947 56.6982ZM45.5148 59.3573H43.0885C42.9738 59.3573 42.8898 59.2495 42.9177 59.1383L43.1641 58.1571H43.1621V58.1494H43.1662L43.1643 58.1571L45.7623 58.1664C45.7623 58.1664 46.2494 58.1296 46.2185 58.6533C46.187 59.1606 45.6656 59.3573 45.5148 59.3573Z" fill="black"/>
<path d="M65.8079 61.2279C62.0531 61.2279 62.0337 61.2877 62.09 61.0671C63.2242 56.6223 63.2673 56.6975 63.0392 56.6975C60.8693 56.6975 60.8334 56.643 60.794 56.7938C59.156 63.0767 59.1197 62.9493 59.3561 62.9493C65.7898 62.9493 65.5051 63.0026 65.5447 62.8535L65.9326 61.39C65.9543 61.3081 65.8926 61.2279 65.8079 61.2279Z" fill="black"/>
<path d="M73.4931 56.6923C70.6097 56.6923 70.704 56.656 70.6384 56.7527L66.5814 62.7315C66.5192 62.823 66.585 62.9468 66.6956 62.9466C68.506 62.9436 68.5113 62.9819 68.5775 62.8822C68.5898 62.8634 69.2573 61.8565 69.274 61.8414H72.2809L72.2902 61.8628C72.53 62.853 72.5102 62.9469 72.6611 62.9469H74.8623C74.9509 62.9469 75.0164 62.8646 74.9966 62.7783C73.5291 56.3696 73.65 56.6923 73.4931 56.6923ZM70.3076 60.3723L70.2719 60.3584L71.3261 58.7978C71.3935 58.6981 71.5472 58.7266 71.5746 58.8436L71.9308 60.3691C71.8857 60.3739 70.3532 60.3723 70.3076 60.3723Z" fill="black"/>
<path d="M54.7671 56.445C51.0039 56.5202 49.1277 58.986 49.4773 60.8074C49.8268 62.6242 52.2957 63.5997 55.0562 63.0653C59.9755 62.1216 60.8082 56.445 54.7671 56.445ZM52.2185 60.6371C52.0111 59.4361 53.0787 57.9575 54.7574 58.0652C55.513 58.1078 56.2548 58.4566 56.3693 59.0002C56.9352 61.7121 52.546 62.5209 52.2185 60.6371Z" fill="black"/>
<path d="M39.2864 58.8024C38.8553 56.6923 35.8906 56.1607 33.5946 56.6003C31.7291 56.9589 29.3723 58.6572 29.7851 60.8074C30.1346 62.6242 32.6035 63.5996 35.364 63.0653C37.9559 62.5681 39.6546 60.5724 39.2864 58.8024ZM32.5263 60.6373C32.3188 59.4363 33.3864 57.9576 35.0651 58.0653C35.8208 58.1078 36.5626 58.4566 36.6772 59.0003C37.2428 61.7122 32.8536 62.5209 32.5263 60.6373Z" fill="black"/>
<path d="M16.9574 56.445C13.1942 56.5202 11.318 58.986 11.6677 60.8074C12.0172 62.6242 14.486 63.5997 17.2466 63.0653C22.1657 62.1216 22.9984 56.445 16.9574 56.445ZM14.4088 60.6371C14.2014 59.4361 15.269 57.9575 16.9477 58.0652C17.7033 58.1078 18.4451 58.4566 18.5596 59.0002C19.1254 61.7121 14.7362 62.5209 14.4088 60.6371Z" fill="black"/>
<path d="M50.5984 39.6724L44.2037 18.7076C43.7861 17.3383 41.8446 17.3404 41.4311 18.7121L37.5097 31.7206L33.5886 18.7124C33.1752 17.3415 31.2337 17.3377 30.8159 18.708L24.4255 39.6725C24.2922 40.1096 24.3751 40.59 24.647 40.957C25.1387 41.6212 25.7877 41.5436 26.4118 41.5436C27.0842 41.5436 27.6634 41.0868 27.8204 40.4331C28.248 38.654 29.0168 36.2339 29.8898 34.7805C30.3715 33.9844 31.1984 33.0373 32.4066 33.0634C34.1093 33.0936 35.4872 36.0666 36.1938 37.6121C36.7097 38.7403 38.3124 38.7393 38.8282 37.6126C39.5342 36.07 40.909 33.0937 42.618 33.0634C43.8274 33.0382 44.6508 33.9844 45.13 34.7814C46.0064 36.2355 46.7741 38.6539 47.2004 40.4322C47.3571 41.0865 47.9366 41.5436 48.6091 41.5436H49.2124C50.1833 41.5436 50.882 40.6024 50.5984 39.6724ZM29.0735 32.1882L32.1973 21.9404L35.2201 31.9684C33.2418 30.1878 30.7556 30.572 29.0735 32.1882ZM42.6649 30.7993C42.6356 30.7993 42.6059 30.7996 42.5764 30.8001C41.5588 30.8182 40.6733 31.1812 39.7988 31.9698L42.8225 21.9392L45.9478 32.1858C45.0075 31.281 43.8816 30.7993 42.6649 30.7993Z" fill="black"/>
<path d="M57.2843 28.7691C56.0576 19.9817 49.1776 13.0271 40.3119 11.8C39.6913 11.7138 39.1211 12.1467 39.0354 12.766C38.9498 13.3852 39.3823 13.9568 40.0015 14.0425C47.7712 15.1177 53.9564 21.3024 55.0422 29.0821C55.1213 29.648 55.606 30.0575 56.1617 30.0575C56.8521 30.0575 57.3789 29.4483 57.2843 28.7691Z" fill="black"/>
<path d="M56.3194 33.0865C55.6994 32.9992 55.1279 33.4309 55.041 34.05C53.8227 42.7225 46.2873 49.2626 37.5129 49.2626C27.7545 49.2626 19.8156 41.3237 19.8156 31.5654C19.8156 22.7926 26.357 15.2601 35.0314 14.0441C35.6505 13.9574 36.082 13.3852 35.9952 12.7662C35.9086 12.1471 35.3366 11.715 34.7174 11.8023C24.9678 13.169 17.552 21.5429 17.552 31.5654C17.552 42.5719 26.5065 51.5262 37.5129 51.5262C47.508 51.5262 55.9096 44.1384 57.2826 34.3649C57.3698 33.746 56.9384 33.1736 56.3194 33.0865Z" fill="black"/>
<g clip-path="url(#clip1_2_232)">
<path d="M50.9415 26.8574C50.5461 26.8599 50.1718 26.8631 50.0674 26.8538C49.8562 26.8354 49.7151 26.6973 49.6987 26.494C49.6877 26.3606 49.6877 26.2501 49.6982 26.1449C49.7173 25.947 49.8829 25.7585 50.0674 25.7494C50.1513 25.7449 50.2933 25.747 51.5418 25.7494C51.5532 25.7494 51.5627 25.7401 51.5627 25.7286V25.3836C51.5627 25.3721 51.5533 25.3628 51.5418 25.3628C50.3462 25.3615 50.1998 25.3576 50.0512 25.3628C49.6105 25.3798 49.3337 25.6939 49.3098 26.136C49.2917 26.4518 49.3028 26.79 49.5282 27.0184C49.6601 27.1526 49.8608 27.2376 50.0514 27.2402C50.1965 27.242 51.3712 27.2405 51.542 27.2403C51.5535 27.2402 51.5627 27.2309 51.5627 27.2195V26.8747C51.5627 26.8632 51.5535 26.8538 51.542 26.8539C51.4559 26.8542 51.1231 26.8557 50.9415 26.8574Z" fill="#72BE4F"/>
<path d="M46.7337 25.4043V25.749C46.7337 25.7605 46.743 25.7698 46.7545 25.7698H47.6326C47.6441 25.7698 47.6534 25.7791 47.6534 25.7905V27.2127C47.6534 27.2242 47.6627 27.2335 47.6742 27.2335H48.0208C48.0323 27.2335 48.0416 27.2242 48.0416 27.2127V25.7905C48.0416 25.7791 48.0509 25.7698 48.0623 25.7698H48.9404C48.9519 25.7698 48.9612 25.7605 48.9612 25.749V25.4043C48.9612 25.3928 48.9519 25.3835 48.9404 25.3835H46.7545C46.743 25.3835 46.7337 25.3928 46.7337 25.4043Z" fill="#72BE4F"/>
<path d="M46.3305 26.1139C46.3248 25.685 46.0045 25.3837 45.5891 25.3616C45.4602 25.3543 44.9524 25.3567 44.8332 25.3616C44.6897 25.3677 44.5794 25.4052 44.5121 25.4446C44.4983 25.4526 44.481 25.4429 44.4809 25.4269C44.48 25.2982 44.4803 24.8798 44.4804 24.7818C44.4804 24.7703 44.4711 24.7611 44.4596 24.7611H44.1128C44.1013 24.7611 44.092 24.7704 44.092 24.7819V27.2194C44.092 27.2309 44.1013 27.2402 44.1128 27.2402H44.4588C44.4704 27.2402 44.4797 27.2309 44.4796 27.2194C44.4786 27.074 44.4728 26.216 44.4807 26.1149C44.4961 25.9186 44.6451 25.7642 44.8352 25.7477C44.9875 25.7346 45.4448 25.7382 45.5883 25.7479C45.7852 25.7615 45.9307 25.9154 45.9421 26.1228C45.9456 26.1928 45.9426 27.0725 45.942 27.2195C45.942 27.231 45.9513 27.2402 45.9628 27.2402H46.3098C46.3213 27.2402 46.3306 27.231 46.3306 27.2195C46.3307 27.0728 46.3315 26.1956 46.3306 26.114" fill="#72BE4F"/>
<path d="M50.302 27.2402C50.1113 27.2376 49.9106 27.1526 49.7787 27.0184C49.5533 26.79 49.5423 26.4518 49.5603 26.136C49.5842 25.6939 49.861 25.3798 50.3017 25.3628C50.3393 25.3615 50.3767 25.3608 50.4308 25.3604C50.2056 25.3598 50.1287 25.3601 50.0512 25.3628C49.6105 25.3798 49.3337 25.6939 49.3098 26.136C49.2917 26.4518 49.3028 26.79 49.5282 27.0184C49.6601 27.1526 49.8608 27.2376 50.0514 27.2402C50.1136 27.241 50.3654 27.2412 50.6461 27.2411C50.4767 27.241 50.3447 27.2408 50.302 27.2402Z" fill="#66AF3F"/>
<path d="M47.9039 27.2127V25.7905C47.9039 25.7791 47.8946 25.7698 47.8831 25.7698H47.6326C47.6441 25.7698 47.6534 25.7791 47.6534 25.7905V27.2127C47.6534 27.2242 47.6627 27.2335 47.6742 27.2335H47.9247C47.9132 27.2335 47.9039 27.2242 47.9039 27.2127Z" fill="#66AF3F"/>
<path d="M46.9843 25.749V25.4043C46.9843 25.3928 46.9936 25.3835 47.005 25.3835H46.7545C46.743 25.3835 46.7337 25.3928 46.7337 25.4043V25.749C46.7337 25.7605 46.743 25.7698 46.7545 25.7698H47.005C46.9936 25.7698 46.9843 25.7605 46.9843 25.749Z" fill="#66AF3F"/>
<path d="M44.3425 27.2194V24.7819C44.3425 24.7704 44.3518 24.7611 44.3633 24.7611H44.1128C44.1013 24.7611 44.092 24.7704 44.092 24.7819V27.2194C44.092 27.2309 44.1013 27.2402 44.1128 27.2402H44.3633C44.3518 27.2402 44.3425 27.2309 44.3425 27.2194Z" fill="#66AF3F"/>
<path d="M46.1926 27.2195C46.1931 27.0725 46.1961 26.1928 46.1927 26.1228C46.1812 25.9154 46.0358 25.7615 45.8388 25.7479C45.7416 25.7413 45.5003 25.7376 45.3074 25.7399C45.4247 25.7411 45.5313 25.744 45.5883 25.7479C45.7853 25.7615 45.9307 25.9154 45.9421 26.1228C45.9456 26.1928 45.9426 27.0725 45.942 27.2195C45.942 27.231 45.9513 27.2402 45.9628 27.2402H46.2134C46.2019 27.2402 46.1925 27.231 46.1926 27.2195Z" fill="#66AF3F"/>
<g clip-path="url(#clip2_2_232)">
<path d="M44.8443 29.1309C44.8453 29.1302 44.8462 29.1294 44.847 29.1285C44.8501 29.1249 44.8515 29.1201 44.8509 29.1154C44.8478 29.0931 44.8408 29.077 44.8223 29.0628C44.7686 29.0219 44.6436 29.0324 44.6436 29.1552C44.6436 29.1711 44.6456 29.1858 44.6495 29.1991C44.647 29.1958 44.643 29.1936 44.6384 29.1936H44.5664V29.0606C44.5664 29.0529 44.5601 29.0466 44.5524 29.0466H44.5024C44.4937 29.0466 44.4866 29.0537 44.4866 29.0624V29.2505C44.4866 29.2583 44.4929 29.2646 44.5006 29.2646H44.6384C44.6462 29.2646 44.6525 29.2583 44.6525 29.2505V29.2079C44.6566 29.2189 44.6621 29.2288 44.669 29.2373C44.7 29.2752 44.7532 29.2765 44.7828 29.2576C44.7854 29.2618 44.79 29.2646 44.7952 29.2646H44.8372C44.8452 29.2646 44.8517 29.258 44.8517 29.25V29.1446C44.8517 29.1388 44.8488 29.1338 44.8443 29.1309ZM44.6306 29.2427H44.5084V29.0685H44.5445V29.2015C44.5445 29.2092 44.5508 29.2155 44.5586 29.2155H44.6306V29.2427ZM44.8299 29.2427H44.8025V29.2341C44.8025 29.2233 44.7884 29.2191 44.7824 29.2281C44.7598 29.2625 44.6655 29.2601 44.6655 29.1552C44.6655 29.053 44.7682 29.0492 44.809 29.0801C44.8203 29.0891 44.8254 29.0975 44.8283 29.1123H44.7889C44.7751 29.0745 44.7043 29.0726 44.7043 29.156C44.7043 29.2072 44.7297 29.2254 44.7534 29.2254C44.7757 29.2254 44.7903 29.2134 44.7967 29.1898C44.7995 29.1796 44.7918 29.1697 44.7813 29.1697H44.7612V29.1502H44.8299V29.2427ZM44.7585 29.1915H44.773C44.7684 29.2013 44.7618 29.2036 44.7534 29.2036C44.7288 29.2036 44.7262 29.1703 44.7262 29.156C44.7262 29.142 44.7287 29.1093 44.7524 29.1093C44.7604 29.1093 44.7664 29.1134 44.7686 29.1204C44.7695 29.1235 44.7712 29.1262 44.7733 29.1284H44.7567C44.7471 29.1284 44.7393 29.1362 44.7393 29.1458V29.1723C44.7393 29.1829 44.7479 29.1915 44.7585 29.1915Z" fill="black"/>
<path d="M44.7194 28.8436H44.6804V28.6669C44.6804 28.6637 44.6777 28.661 44.6745 28.661H44.664C44.6605 28.661 44.6577 28.6638 44.6577 28.6673V28.8588C44.6577 28.8627 44.6609 28.8659 44.6648 28.8659H44.7193C44.7229 28.8659 44.7259 28.8629 44.7259 28.8593V28.85C44.7259 28.8465 44.723 28.8436 44.7194 28.8436Z" fill="black"/>
<path d="M44.8529 28.7527H44.7283C44.7246 28.7527 44.7216 28.7557 44.7216 28.7594V28.7685C44.7216 28.7719 44.7245 28.7747 44.7279 28.7747H44.84L44.84 28.7755C44.8298 28.9205 44.6524 28.9891 44.5478 28.8846C44.4809 28.8179 44.4809 28.7091 44.5478 28.6424C44.5803 28.61 44.6234 28.5922 44.669 28.5922C44.6748 28.5922 44.6765 28.5926 44.6787 28.5905C44.6798 28.5894 44.6804 28.5879 44.6804 28.5864V28.5759C44.6804 28.5726 44.6778 28.57 44.6745 28.5699C44.6725 28.5699 44.6703 28.5699 44.6689 28.5699C44.5623 28.5699 44.4755 28.6567 44.4755 28.7635C44.4755 28.8152 44.4956 28.8638 44.5322 28.9004C44.608 28.9764 44.7308 28.9758 44.806 28.9004C44.8425 28.8638 44.8626 28.8152 44.8626 28.7635C44.8626 28.7562 44.8579 28.7527 44.8529 28.7527Z" fill="black"/>
<path d="M44.596 28.6522C44.5749 28.6522 44.5577 28.6694 44.5577 28.6906C44.5577 28.7117 44.5749 28.7288 44.596 28.7288C44.6172 28.7288 44.6344 28.7117 44.6344 28.6906C44.6344 28.6694 44.6172 28.6522 44.596 28.6522ZM44.596 28.707C44.5869 28.707 44.5795 28.6996 44.5795 28.6906C44.5795 28.6815 44.5869 28.674 44.596 28.674C44.6051 28.674 44.6126 28.6815 44.6126 28.6906C44.6126 28.6996 44.6051 28.707 44.596 28.707Z" fill="black"/>
<path d="M44.9071 28.7371C44.8948 28.6261 44.8066 28.538 44.6958 28.5256C44.6898 28.525 44.6844 28.5293 44.6837 28.5353C44.683 28.5413 44.6873 28.5467 44.6933 28.5473C44.7935 28.5585 44.8743 28.6393 44.8854 28.7395C44.8861 28.7454 44.8915 28.7498 44.8975 28.7491C44.9035 28.7484 44.9078 28.7431 44.9071 28.7371Z" fill="black"/>
<path d="M44.8975 28.7782C44.8915 28.7776 44.8861 28.7819 44.8854 28.7879C44.8732 28.8982 44.7801 28.9814 44.6689 28.9814C44.5489 28.9814 44.4513 28.8837 44.4513 28.7636C44.4513 28.6524 44.5345 28.5594 44.6448 28.5472C44.6508 28.5465 44.6551 28.5411 44.6544 28.5351C44.6538 28.5291 44.6484 28.5248 44.6424 28.5255C44.5222 28.5388 44.4295 28.6407 44.4295 28.7636C44.4295 28.8957 44.5369 29.0032 44.6689 29.0032C44.7913 29.0032 44.8937 28.9117 44.9071 28.7903C44.9078 28.7843 44.9035 28.7789 44.8975 28.7782Z" fill="black"/>
</g>
</g>
</g>
<defs>
<clipPath id="clip0_2_232">
<rect width="75" height="75" fill="white"/>
</clipPath>
<clipPath id="clip1_2_232">
<rect width="7.47073" height="7.47073" fill="white" transform="translate(44.092 22.2657)"/>
</clipPath>
<clipPath id="clip2_2_232">
<rect width="0.744155" height="0.744155" fill="white" transform="translate(44.2963 28.5254)"/>
</clipPath>
</defs>
</svg>
