<svg width="75" height="52" viewBox="0 0 75 52" fill="none" xmlns="http://www.w3.org/2000/svg">
<path d="M11.1243 44.8982H8.11345C8.05676 44.8982 8.0027 44.9231 7.96564 44.9663L5.96188 47.3083C5.86183 47.4252 5.67213 47.3851 5.62804 47.2377C4.92286 44.8794 4.98043 44.9106 4.78721 44.9106C1.72831 44.9106 1.78559 44.8583 1.72919 45.0501L0.00799561 50.9058C-0.0284791 51.0302 0.0643923 51.1547 0.194031 51.155C1.84418 51.1581 1.89179 51.2047 1.94672 51.0188L2.72881 48.375C2.78462 48.1865 3.05298 48.1904 3.10308 48.3806C3.83887 51.1752 3.77808 51.1581 3.98433 51.1581C4.98892 51.1581 5.04927 51.1934 5.13922 51.0947L7.46452 48.5461C7.60309 48.3943 7.85168 48.5332 7.79484 48.7307L7.16935 50.9094C7.13361 51.0339 7.22736 51.1578 7.35685 51.1573L9.48704 51.1502C9.5739 51.1499 9.65022 51.0919 9.67351 51.0082L11.3114 45.145C11.3459 45.0209 11.2528 44.8982 11.1243 44.8982Z" fill="black"/>
<path d="M29.8022 44.9104C21.9266 44.8969 22.2862 44.8316 22.2298 45.0514L21.8103 46.6902C21.7772 46.8195 21.8749 46.9452 22.0083 46.9452H24.1174C24.2498 46.9452 24.3472 47.0693 24.316 47.1979L23.414 50.9053C23.3826 51.034 23.4803 51.1581 23.6129 51.158C25.8087 51.1547 25.8049 51.2041 25.8575 51.0021C26.9506 46.7964 26.8568 46.9273 27.0746 46.9273C29.5808 46.9273 29.5789 46.9802 29.6279 46.7691L30.0011 45.1609C30.0307 45.0328 29.9336 44.9105 29.8022 44.9104Z" fill="black"/>
<path d="M47.1946 44.9092C47.1887 44.9086 47.1836 44.9084 47.1777 44.9084L43.1622 44.9105V44.9084C41.1799 44.9084 41.1874 44.8652 41.1388 45.0365L39.4641 50.9303C39.4322 51.0428 39.5167 51.1545 39.6336 51.1545C41.7437 51.1545 41.7197 51.1973 41.7683 51.0267C42.2537 49.3222 42.217 49.2933 42.3962 49.2951L44.1206 49.3126C44.7086 49.2628 44.8176 49.6178 44.8362 49.7158C44.8467 49.771 44.7858 50.5548 44.7811 50.6109C44.7413 51.08 45.1949 51.1494 45.1949 51.1494H47.4039C47.5273 51.1494 47.6097 51.0268 47.568 50.9108C47.3576 50.3266 47.8018 50.1085 47.7026 49.3673C47.628 48.8098 47.0374 48.699 46.9629 48.6438C46.8877 48.5871 46.9838 48.4926 46.9838 48.4926C49.0128 47.8838 49.5644 45.1345 47.1946 44.9092ZM45.5147 47.5683H43.0885C42.9738 47.5683 42.8897 47.4605 42.9177 47.3493L43.1641 46.3681H43.162V46.3604H43.1661L43.1642 46.3681L45.7623 46.3774C45.7623 46.3774 46.2493 46.3406 46.2184 46.8643C46.1869 47.3716 45.6656 47.5683 45.5147 47.5683Z" fill="black"/>
<path d="M65.8079 49.4388C62.053 49.4388 62.0337 49.4985 62.0899 49.2779C63.2242 44.8331 63.2672 44.9083 63.0391 44.9083C60.8693 44.9083 60.8334 44.8538 60.794 45.0047C59.156 51.2875 59.1196 51.1601 59.3561 51.1601C65.7897 51.1601 65.5051 51.2134 65.5446 51.0643L65.9325 49.6008C65.9542 49.5189 65.8925 49.4388 65.8079 49.4388Z" fill="black"/>
<path d="M73.493 44.9032C70.6096 44.9032 70.704 44.8668 70.6383 44.9635L66.5813 50.9423C66.5192 51.0339 66.585 51.1576 66.6956 51.1575C68.506 51.1544 68.5112 51.1928 68.5774 51.093C68.5897 51.0743 69.2573 50.0674 69.274 50.0523H72.2809L72.2901 50.0737C72.5299 51.0639 72.5101 51.1578 72.661 51.1578H74.8622C74.9509 51.1578 75.0163 51.0755 74.9966 50.9892C73.5291 44.5805 73.6499 44.9032 73.493 44.9032ZM70.3076 48.5832L70.2718 48.5693L71.3261 47.0086C71.3935 46.909 71.5471 46.9374 71.5745 47.0545L71.9308 48.5799C71.8857 48.5848 70.3531 48.5832 70.3076 48.5832Z" fill="black"/>
<path d="M54.767 44.656C51.0038 44.7312 49.1276 47.1969 49.4773 49.0183C49.8268 50.8352 52.2956 51.8106 55.0562 51.2762C59.9754 50.3326 60.8082 44.656 54.767 44.656ZM52.2184 48.8481C52.011 47.6471 53.0786 46.1685 54.7573 46.2761C55.5129 46.3188 56.2547 46.6675 56.3692 47.2111C56.9351 49.923 52.546 50.7319 52.2184 48.8481Z" fill="black"/>
<path d="M39.2863 47.0134C38.8552 44.9033 35.8905 44.3717 33.5945 44.8113C31.729 45.1699 29.3722 46.8682 29.785 49.0184C30.1345 50.8352 32.6034 51.8106 35.3639 51.2763C37.9558 50.7791 39.6546 48.7834 39.2863 47.0134ZM32.5262 48.8483C32.3188 47.6473 33.3864 46.1686 35.0651 46.2763C35.8208 46.3188 36.5626 46.6676 36.6771 47.2113C37.2427 49.9232 32.8536 50.7319 32.5262 48.8483Z" fill="black"/>
<path d="M16.9574 44.656C13.1942 44.7312 11.318 47.1969 11.6676 49.0183C12.0172 50.8352 14.486 51.8106 17.2465 51.2762C22.1656 50.3326 22.9984 44.656 16.9574 44.656ZM14.4088 48.8481C14.2014 47.6471 15.269 46.1685 16.9477 46.2761C17.7033 46.3188 18.4451 46.6675 18.5596 47.2111C19.1253 49.923 14.7362 50.7319 14.4088 48.8481Z" fill="black"/>
<path d="M50.5983 27.8832L44.2037 6.91844C43.7861 5.5491 41.8445 5.55129 41.431 6.92298L37.5096 19.9314L33.5885 6.92327C33.1751 5.55232 31.2336 5.54851 30.8158 6.91888L24.4254 27.8834C24.2921 28.3205 24.375 28.8008 24.6469 29.1679C25.1387 29.8321 25.7876 29.7544 26.4118 29.7544C27.0841 29.7544 27.6633 29.2977 27.8204 28.6439C28.248 26.8649 29.0167 24.4448 29.8898 22.9914C30.3714 22.1952 31.1983 21.2482 32.4065 21.2743C34.1093 21.3044 35.4871 24.2775 36.1937 25.8229C36.7097 26.9511 38.3124 26.9501 38.8281 25.8235C39.5342 24.2809 40.9089 21.3046 42.618 21.2743C43.8274 21.2491 44.6508 22.1952 45.1299 22.9922C46.0063 24.4464 46.7741 26.8647 47.2003 28.643C47.3571 29.2974 47.9366 29.7544 48.6091 29.7544H49.2123C50.1832 29.7544 50.8819 28.8133 50.5983 27.8832ZM29.0734 20.399L32.1972 10.1512L35.2201 20.1793C33.2418 18.3986 30.7555 18.7828 29.0734 20.399ZM42.6649 19.0102C42.6356 19.0102 42.6058 19.0105 42.5764 19.0109C41.5588 19.0291 40.6733 19.3921 39.7987 20.1806L42.8225 10.15L45.9477 20.3967C45.0074 19.4918 43.8816 19.0102 42.6649 19.0102Z" fill="black"/>
<path d="M57.2842 16.98C56.0576 8.19269 49.1776 1.23802 40.3119 0.0109191C39.6912 -0.0752141 39.1211 0.357649 39.0354 0.976988C38.9497 1.59618 39.3823 2.16776 40.0015 2.25346C47.7712 3.32866 53.9564 9.5134 55.0421 17.2931C55.1212 17.8589 55.6059 18.2685 56.1617 18.2685C56.8521 18.2685 57.3789 17.6593 57.2842 16.98Z" fill="black"/>
<path d="M56.3193 21.2974C55.6994 21.2101 55.1278 21.6418 55.041 22.2609C53.8226 30.9334 46.2873 37.4735 37.5129 37.4735C27.7545 37.4735 19.8156 29.5346 19.8156 19.7763C19.8156 11.0035 26.357 3.47094 35.0314 2.25497C35.6505 2.16825 36.082 1.59608 35.9951 0.977036C35.9086 0.35799 35.3365 -0.0741407 34.7173 0.0131644C24.9677 1.37987 17.5519 9.75383 17.5519 19.7763C17.5519 30.7828 26.5064 39.7371 37.5129 39.7371C47.508 39.7371 55.9096 32.3493 57.2826 22.5758C57.3698 21.9569 56.9384 21.3844 56.3193 21.2974Z" fill="black"/>
<g clip-path="url(#clip0_2_612)">
<path d="M50.9414 15.0682C50.5461 15.0707 50.1717 15.0739 50.0673 15.0646C49.8561 15.0463 49.715 14.9081 49.6987 14.7049C49.6876 14.5714 49.6876 14.4609 49.6981 14.3557C49.7172 14.1578 49.8828 13.9693 50.0673 13.9602C50.1513 13.9557 50.2932 13.9578 51.5417 13.9602C51.5532 13.9602 51.5627 13.9509 51.5627 13.9394V13.5944C51.5627 13.5829 51.5532 13.5736 51.5418 13.5736C50.3461 13.5723 50.1998 13.5684 50.0511 13.5736C49.6104 13.5906 49.3336 13.9047 49.3097 14.3469C49.2917 14.6626 49.3027 15.0008 49.5281 15.2292C49.66 15.3634 49.8607 15.4485 50.0513 15.4511C50.1964 15.4529 51.3712 15.4513 51.542 15.4511C51.5534 15.4511 51.5627 15.4418 51.5627 15.4303V15.0855C51.5627 15.074 51.5534 15.0647 51.5419 15.0647C51.4558 15.0651 51.123 15.0665 50.9414 15.0682Z" fill="#72BE4F"/>
<path d="M46.7336 13.6151V13.9598C46.7336 13.9713 46.743 13.9806 46.7544 13.9806H47.6325C47.644 13.9806 47.6533 13.9899 47.6533 14.0014V15.4236C47.6533 15.435 47.6626 15.4443 47.6741 15.4443H48.0207C48.0322 15.4443 48.0415 15.435 48.0415 15.4236V14.0014C48.0415 13.9899 48.0508 13.9806 48.0623 13.9806H48.9404C48.9518 13.9806 48.9611 13.9713 48.9611 13.9598V13.6151C48.9611 13.6037 48.9518 13.5944 48.9404 13.5944H46.7544C46.743 13.5944 46.7336 13.6037 46.7336 13.6151Z" fill="#72BE4F"/>
<path d="M46.3305 14.3248C46.3248 13.8958 46.0045 13.5946 45.589 13.5725C45.4602 13.5652 44.9524 13.5676 44.8332 13.5725C44.6896 13.5786 44.5794 13.6161 44.5121 13.6554C44.4982 13.6635 44.481 13.6537 44.4808 13.6377C44.4799 13.5091 44.4802 13.0907 44.4803 12.9926C44.4803 12.9811 44.471 12.9719 44.4595 12.9719H44.1127C44.1012 12.9719 44.0919 12.9812 44.0919 12.9927V15.4303C44.0919 15.4418 44.1012 15.4511 44.1127 15.4511H44.4588C44.4703 15.4511 44.4796 15.4417 44.4796 15.4302C44.4785 15.2849 44.4728 14.4269 44.4807 14.3258C44.4961 14.1294 44.6451 13.9751 44.8351 13.9585C44.9875 13.9455 45.4448 13.949 45.5882 13.9587C45.7852 13.9723 45.9306 14.1263 45.9421 14.3337C45.9455 14.4036 45.9425 15.2833 45.942 15.4303C45.9419 15.4418 45.9513 15.4511 45.9628 15.4511H46.3097C46.3212 15.4511 46.3305 15.4418 46.3305 15.4303C46.3306 15.2837 46.3314 14.4065 46.3305 14.3248" fill="#72BE4F"/>
<path d="M50.3019 15.4511C50.1113 15.4485 49.9105 15.3635 49.7787 15.2292C49.5532 15.0009 49.5422 14.6626 49.5602 14.3469C49.5842 13.9048 49.8609 13.5906 50.3017 13.5737C50.3392 13.5723 50.3766 13.5716 50.4307 13.5713C50.2056 13.5707 50.1286 13.5709 50.0511 13.5737C49.6104 13.5906 49.3336 13.9048 49.3097 14.3469C49.2917 14.6626 49.3027 15.0009 49.5281 15.2292C49.66 15.3635 49.8607 15.4485 50.0513 15.4511C50.1136 15.4518 50.3653 15.452 50.646 15.4519C50.4767 15.4518 50.3446 15.4516 50.3019 15.4511Z" fill="#66AF3F"/>
<path d="M47.9039 15.4236V14.0014C47.9039 13.9899 47.8946 13.9806 47.8831 13.9806H47.6326C47.6441 13.9806 47.6533 13.9899 47.6533 14.0014V15.4236C47.6533 15.435 47.6627 15.4443 47.6741 15.4443H47.9247C47.9132 15.4443 47.9039 15.435 47.9039 15.4236Z" fill="#66AF3F"/>
<path d="M46.9842 13.9598V13.6151C46.9842 13.6037 46.9935 13.5944 47.005 13.5944H46.7544C46.7429 13.5944 46.7336 13.6037 46.7336 13.6151V13.9598C46.7336 13.9713 46.743 13.9806 46.7544 13.9806H47.005C46.9935 13.9806 46.9842 13.9713 46.9842 13.9598Z" fill="#66AF3F"/>
<path d="M44.3425 15.4303V12.9927C44.3425 12.9812 44.3518 12.9719 44.3632 12.9719H44.1127C44.1012 12.9719 44.0919 12.9812 44.0919 12.9927V15.4303C44.0919 15.4418 44.1012 15.4511 44.1127 15.4511H44.3632C44.3518 15.4511 44.3425 15.4418 44.3425 15.4303Z" fill="#66AF3F"/>
<path d="M46.1925 15.4303C46.193 15.2833 46.1961 14.4036 46.1926 14.3337C46.1812 14.1262 46.0357 13.9723 45.8388 13.9587C45.7415 13.9521 45.5002 13.9484 45.3073 13.9507C45.4246 13.952 45.5312 13.9549 45.5882 13.9587C45.7852 13.9723 45.9306 14.1263 45.9421 14.3337C45.9455 14.4036 45.9425 15.2833 45.942 15.4303C45.9419 15.4418 45.9512 15.4511 45.9628 15.4511H46.2133C46.2018 15.4511 46.1925 15.4418 46.1925 15.4303Z" fill="#66AF3F"/>
<g clip-path="url(#clip1_2_612)">
<path d="M44.8442 17.3418C44.8452 17.3411 44.8461 17.3402 44.8469 17.3393C44.85 17.3357 44.8514 17.3309 44.8508 17.3262C44.8477 17.3039 44.8407 17.2878 44.8222 17.2737C44.7685 17.2328 44.6435 17.2433 44.6435 17.3661C44.6435 17.3819 44.6455 17.3967 44.6494 17.4099C44.6469 17.4066 44.6429 17.4045 44.6384 17.4045H44.5663V17.2715C44.5663 17.2638 44.56 17.2575 44.5523 17.2575H44.5023C44.4936 17.2575 44.4865 17.2646 44.4865 17.2733V17.4614C44.4865 17.4691 44.4928 17.4754 44.5005 17.4754H44.6384C44.6461 17.4754 44.6524 17.4691 44.6524 17.4614V17.4188C44.6565 17.4298 44.662 17.4397 44.6689 17.4481C44.6999 17.486 44.7531 17.4873 44.7827 17.4684C44.7853 17.4726 44.7899 17.4754 44.7951 17.4754H44.8371C44.8451 17.4754 44.8516 17.4689 44.8516 17.4609V17.3554C44.8517 17.3497 44.8487 17.3447 44.8442 17.3418ZM44.6305 17.4536H44.5084V17.2793H44.5445V17.4123C44.5445 17.42 44.5507 17.4263 44.5585 17.4263H44.6305V17.4536ZM44.8298 17.4536H44.8024V17.4449C44.8024 17.4342 44.7883 17.4299 44.7824 17.4389C44.7597 17.4733 44.6654 17.471 44.6654 17.3661C44.6654 17.2638 44.7682 17.26 44.8089 17.291C44.8202 17.3 44.8253 17.3083 44.8282 17.3231H44.7888C44.7751 17.2853 44.7042 17.2834 44.7042 17.3669C44.7042 17.418 44.7296 17.4362 44.7533 17.4362C44.7756 17.4362 44.7902 17.4243 44.7966 17.4006C44.7994 17.3905 44.7917 17.3805 44.7812 17.3805H44.7611V17.3611H44.8298V17.4536ZM44.7584 17.4023H44.7729C44.7683 17.4122 44.7617 17.4144 44.7533 17.4144C44.7287 17.4144 44.7261 17.3812 44.7261 17.3669C44.7261 17.3528 44.7286 17.3202 44.7523 17.3202C44.7604 17.3202 44.7663 17.3242 44.7685 17.3313C44.7694 17.3344 44.7711 17.3371 44.7732 17.3392H44.7567C44.7471 17.3392 44.7392 17.347 44.7392 17.3566V17.3831C44.7392 17.3937 44.7479 17.4023 44.7584 17.4023Z" fill="black"/>
<path d="M44.7194 17.0544H44.6803V16.8778C44.6803 16.8745 44.6777 16.8719 44.6744 16.8719H44.664C44.6605 16.8719 44.6577 16.8747 44.6577 16.8781V17.0696C44.6577 17.0735 44.6609 17.0767 44.6648 17.0767H44.7193C44.7229 17.0767 44.7258 17.0738 44.7258 17.0702V17.0609C44.7258 17.0573 44.7229 17.0544 44.7194 17.0544Z" fill="black"/>
<path d="M44.8529 16.9635H44.7282C44.7245 16.9635 44.7215 16.9665 44.7215 16.9702V16.9793C44.7215 16.9827 44.7244 16.9856 44.7278 16.9856H44.8399L44.8399 16.9863C44.8297 17.1313 44.6523 17.1999 44.5477 17.0954C44.4808 17.0287 44.4808 16.92 44.5477 16.8532C44.5803 16.8208 44.6233 16.803 44.6689 16.803C44.6747 16.803 44.6764 16.8034 44.6786 16.8013C44.6797 16.8002 44.6803 16.7987 44.6803 16.7972V16.7867C44.6803 16.7835 44.6777 16.7808 44.6744 16.7807C44.6724 16.7807 44.6702 16.7807 44.6688 16.7807C44.5622 16.7807 44.4754 16.8676 44.4754 16.9743C44.4754 17.026 44.4955 17.0746 44.5321 17.1113C44.6079 17.1872 44.7307 17.1866 44.8059 17.1113C44.8424 17.0746 44.8626 17.026 44.8626 16.9743C44.8626 16.967 44.8578 16.9635 44.8529 16.9635Z" fill="black"/>
<path d="M44.5959 16.863C44.5748 16.863 44.5576 16.8802 44.5576 16.9014C44.5576 16.9225 44.5748 16.9396 44.5959 16.9396C44.6171 16.9396 44.6343 16.9225 44.6343 16.9014C44.6343 16.8802 44.6171 16.863 44.5959 16.863ZM44.5959 16.9178C44.5868 16.9178 44.5795 16.9104 44.5795 16.9014C44.5795 16.8923 44.5868 16.8848 44.5959 16.8848C44.6051 16.8848 44.6125 16.8923 44.6125 16.9014C44.6125 16.9104 44.6051 16.9178 44.5959 16.9178Z" fill="black"/>
<path d="M44.907 16.9479C44.8947 16.8369 44.8066 16.7488 44.6957 16.7365C44.6897 16.7358 44.6843 16.7401 44.6836 16.7461C44.6829 16.7521 44.6873 16.7575 44.6932 16.7582C44.7934 16.7693 44.8742 16.8501 44.8853 16.9503C44.886 16.9563 44.8914 16.9606 44.8974 16.9599C44.9034 16.9593 44.9077 16.9539 44.907 16.9479Z" fill="black"/>
<path d="M44.8974 16.9891C44.8914 16.9884 44.886 16.9927 44.8854 16.9987C44.8731 17.109 44.7801 17.1922 44.6688 17.1922C44.5489 17.1922 44.4513 17.0945 44.4513 16.9744C44.4513 16.8632 44.5344 16.7702 44.6447 16.758C44.6507 16.7573 44.655 16.752 44.6544 16.746C44.6537 16.74 44.6483 16.7356 44.6423 16.7363C44.5221 16.7496 44.4294 16.8515 44.4294 16.9744C44.4294 17.1065 44.5368 17.214 44.6688 17.214C44.7912 17.214 44.8936 17.1225 44.9071 17.0011C44.9077 16.9951 44.9034 16.9897 44.8974 16.9891Z" fill="black"/>
</g>
</g>
<defs>
<clipPath id="clip0_2_612">
<rect width="7.47073" height="7.47073" fill="white" transform="translate(44.0919 10.4766)"/>
</clipPath>
<clipPath id="clip1_2_612">
<rect width="0.744155" height="0.744155" fill="white" transform="translate(44.2962 16.7362)"/>
</clipPath>
</defs>
</svg>
