<svg xmlns="http://www.w3.org/2000/svg" xmlns:xlink="http://www.w3.org/1999/xlink" width="550" zoomAndPan="magnify" viewBox="0 0 412.5 74.999997" height="100" preserveAspectRatio="xMidYMid meet" version="1.0"><defs><g/><clipPath id="0c44f10af4"><path d="M 9 18.132812 L 79 18.132812 L 79 57 L 9 57 Z M 9 18.132812 " clip-rule="nonzero"/></clipPath><clipPath id="25c677787a"><path d="M 78 18.132812 L 127.730469 18.132812 L 127.730469 22 L 78 22 Z M 78 18.132812 " clip-rule="nonzero"/></clipPath><clipPath id="d5d06fe962"><path d="M 4.097656 18.132812 L 51 18.132812 L 51 57.234375 L 4.097656 57.234375 Z M 4.097656 18.132812 " clip-rule="nonzero"/></clipPath></defs><g fill="#ffffff" fill-opacity="1"><g transform="translate(92.648365, 53.452951)"><g><path d="M 16.164062 0.6875 C 25.082031 0.6875 30.910156 -4.554688 32.769531 -13.8125 L 36.835938 -34.289062 L 28.902344 -34.289062 L 24.980469 -14.746094 C 23.953125 -9.453125 21.210938 -6.710938 16.800781 -6.710938 C 12.589844 -6.710938 11.023438 -9.257812 12.050781 -14.546875 L 16.019531 -34.289062 L 8.082031 -34.289062 L 4.113281 -14.449219 C 2.253906 -5.242188 6.957031 0.6875 16.164062 0.6875 Z M 16.164062 0.6875 "/></g></g></g><g fill="#ffffff" fill-opacity="1"><g transform="translate(128.987233, 53.452951)"><g><path d="M 10.386719 0 L 18.171875 0 L 20.574219 -11.855469 L 37.765625 -34.289062 L 28.214844 -34.289062 L 22.335938 -26.355469 L 17.683594 -20.132812 L 15.527344 -26.355469 L 12.882812 -34.289062 L 4.75 -34.289062 L 12.882812 -12.34375 Z M 10.386719 0 "/></g></g></g><g fill="#ffffff" fill-opacity="1"><g transform="translate(162.877388, 53.452951)"><g/></g></g><g fill="#ffffff" fill-opacity="1"><g transform="translate(174.386328, 53.452951)"><g><path d="M 1.566406 0 L 9.453125 0 L 11.707031 -11.265625 L 13.667969 -20.621094 L 19.496094 -8.472656 L 24.882812 -8.472656 L 35.464844 -20.476562 L 33.554688 -11.265625 L 31.300781 0 L 39.1875 0 L 46.046875 -34.289062 L 38.894531 -34.289062 L 23.167969 -16.507812 L 14.546875 -34.289062 L 8.425781 -34.289062 Z M 1.566406 0 "/></g></g></g><g fill="#ffffff" fill-opacity="1"><g transform="translate(220.275172, 53.452951)"><g><path d="M 18.371094 0.6875 C 28.804688 0.6875 37.425781 -6.367188 39.480469 -16.558594 C 41.589844 -27.285156 35.21875 -34.976562 24.148438 -34.976562 C 13.714844 -34.976562 5.09375 -27.921875 3.035156 -17.734375 C 0.929688 -7.003906 7.296875 0.6875 18.371094 0.6875 Z M 10.921875 -16.996094 C 12.148438 -23.21875 17.390625 -27.578125 23.511719 -27.578125 C 29.488281 -27.578125 32.820312 -23.414062 31.59375 -17.292969 C 30.320312 -11.070312 25.128906 -6.710938 19.007812 -6.710938 C 12.980469 -6.710938 9.699219 -10.875 10.921875 -16.996094 Z M 10.921875 -16.996094 "/></g></g></g><g fill="#ffffff" fill-opacity="1"><g transform="translate(261.07069, 53.452951)"><g><path d="M 1.566406 0 L 17.878906 0 C 24.933594 0 30.027344 -3.527344 31.15625 -9.0625 C 31.9375 -12.882812 30.566406 -15.921875 27.726562 -17.4375 C 30.664062 -18.957031 32.574219 -21.457031 33.164062 -24.542969 C 34.339844 -30.273438 30.417969 -34.289062 23.511719 -34.289062 L 8.425781 -34.289062 Z M 10.53125 -6.171875 L 12.199219 -14.402344 L 19.445312 -14.402344 C 22.433594 -14.402344 23.855469 -12.882812 23.367188 -10.433594 C 22.828125 -7.789062 20.71875 -6.171875 17.632812 -6.171875 Z M 13.371094 -20.328125 L 14.941406 -28.117188 L 21.40625 -28.117188 C 24.34375 -28.117188 25.621094 -26.746094 25.179688 -24.34375 C 24.6875 -21.796875 22.679688 -20.328125 19.691406 -20.328125 Z M 13.371094 -20.328125 "/></g></g></g><g fill="#ffffff" fill-opacity="1"><g transform="translate(294.813931, 53.452951)"><g><path d="M 1.566406 0 L 9.503906 0 L 16.359375 -34.289062 L 8.425781 -34.289062 Z M 1.566406 0 "/></g></g></g><g fill="#ffffff" fill-opacity="1"><g transform="translate(310.975406, 53.452951)"><g><path d="M 1.566406 0 L 24.34375 0 L 25.816406 -7.296875 L 10.921875 -7.296875 L 16.359375 -34.289062 L 8.425781 -34.289062 Z M 1.566406 0 "/></g></g></g><g fill="#ffffff" fill-opacity="1"><g transform="translate(339.233513, 53.452951)"><g><path d="M 1.566406 0 L 24.640625 0 L 25.960938 -6.613281 L 10.777344 -6.613281 L 12.296875 -14.109375 L 25.621094 -14.109375 L 26.941406 -20.621094 L 13.570312 -20.621094 L 14.988281 -27.726562 L 29.683594 -27.726562 L 30.957031 -34.289062 L 8.425781 -34.289062 Z M 1.566406 0 "/></g></g></g><g clip-path="url(#0c44f10af4)"><path fill="#ffffff" d="M 66.65625 36.835938 C 68.050781 37.332031 68.910156 38.3125 69.238281 39.769531 C 69.566406 41.226562 69.070312 43.109375 67.742188 45.410156 C 66.816406 47.023438 65.714844 48.507812 64.433594 49.871094 C 63.152344 51.230469 61.632812 52.410156 59.875 53.410156 C 58.113281 54.40625 56.066406 55.195312 53.730469 55.769531 C 51.390625 56.34375 48.710938 56.632812 45.691406 56.632812 L 9.328125 56.632812 L 31.328125 43.730469 L 29.597656 46.734375 L 51.445312 46.734375 C 52.742188 46.734375 53.8125 46.503906 54.652344 46.042969 C 55.488281 45.582031 56.160156 44.910156 56.667969 44.03125 C 57.15625 43.183594 57.238281 42.542969 56.917969 42.101562 C 56.597656 41.660156 55.789062 41.441406 54.488281 41.441406 L 35.277344 41.441406 L 49.480469 33.210938 L 59.394531 33.210938 C 60.273438 33.210938 61.152344 33.027344 62.03125 32.664062 C 62.910156 32.300781 63.636719 31.617188 64.210938 30.621094 C 64.761719 29.660156 64.792969 29.007812 64.304688 28.664062 C 63.816406 28.320312 63.148438 28.144531 62.308594 28.144531 L 31.675781 28.144531 L 43.523438 18.132812 L 67.550781 18.132812 C 69.847656 18.132812 71.792969 18.351562 73.394531 18.792969 C 74.992188 19.234375 76.191406 19.90625 76.992188 20.808594 C 77.792969 21.710938 78.167969 22.824219 78.113281 24.144531 C 78.058594 25.46875 77.523438 27.015625 76.507812 28.777344 C 75.84375 29.929688 75.109375 30.945312 74.292969 31.828125 C 73.480469 32.710938 72.644531 33.488281 71.777344 34.160156 C 70.914062 34.832031 70.039062 35.386719 69.15625 35.828125 C 68.273438 36.269531 67.4375 36.605469 66.65625 36.835938 " fill-opacity="1" fill-rule="evenodd"/></g><g clip-path="url(#25c677787a)"><path fill="#ffffff" d="M 78.566406 18.132812 L 127.683594 18.132812 L 81.542969 21.953125 C 81.285156 21.054688 80.835938 20.222656 80.1875 19.492188 C 79.710938 18.957031 79.164062 18.507812 78.566406 18.132812 " fill-opacity="1" fill-rule="evenodd"/></g><path fill="#ffffff" d="M 81.589844 25.777344 L 116.84375 25.777344 L 80.46875 28.785156 C 80.945312 27.832031 81.355469 26.816406 81.589844 25.777344 " fill-opacity="1" fill-rule="evenodd"/><path fill="#ffffff" d="M 77.234375 33.417969 L 108.777344 33.417969 L 73.921875 36.304688 C 74.1875 36.117188 74.449219 35.925781 74.707031 35.726562 C 75.605469 35.023438 76.449219 34.25 77.234375 33.417969 " fill-opacity="1" fill-rule="evenodd"/><path fill="#ffffff" d="M 73.019531 41.0625 L 99.820312 41.0625 L 72.582031 43.316406 C 72.816406 42.578125 72.976562 41.820312 73.019531 41.0625 " fill-opacity="1" fill-rule="evenodd"/><path fill="#ffffff" d="M 69.675781 48.707031 L 87.800781 48.707031 L 68.410156 50.308594 C 68.855469 49.792969 69.277344 49.257812 69.675781 48.707031 " fill-opacity="1" fill-rule="evenodd"/><g clip-path="url(#d5d06fe962)"><path fill="#ffffff" d="M 32.144531 30.347656 L 46.597656 18.132812 L 29.664062 18.132812 L 15.347656 32.5 L 28.722656 32.5 L 4.074219 57.238281 L 50.480469 30.347656 Z M 32.144531 30.347656 " fill-opacity="1" fill-rule="evenodd"/></g><g fill="#ffffff" fill-opacity="1"><g transform="translate(363.986367, 52.414903)"><g><path d="M 1.359375 -0.21875 C 1.359375 -0.171875 1.390625 -0.109375 1.453125 -0.03125 C 1.515625 0.046875 1.578125 0.125 1.65625 0.1875 C 1.734375 0.25 1.828125 0.3125 1.921875 0.359375 C 2.019531 0.40625 2.097656 0.4375 2.175781 0.4375 C 2.285156 0.421875 2.394531 0.375 2.519531 0.3125 C 2.644531 0.25 2.707031 0.140625 2.707031 -0.015625 C 2.707031 -0.09375 2.691406 -0.15625 2.644531 -0.203125 C 2.550781 -0.296875 2.472656 -0.375 2.425781 -0.4375 C 2.378906 -0.5 2.332031 -0.546875 2.285156 -0.59375 C 2.238281 -0.640625 2.175781 -0.671875 2.113281 -0.6875 C 2.050781 -0.703125 1.953125 -0.71875 1.84375 -0.71875 C 1.828125 -0.71875 1.8125 -0.71875 1.78125 -0.71875 C 1.75 -0.71875 1.71875 -0.703125 1.671875 -0.671875 C 1.625 -0.640625 1.578125 -0.59375 1.53125 -0.515625 C 1.484375 -0.4375 1.4375 -0.3125 1.390625 -0.140625 Z M 1.359375 -0.21875 "/></g></g></g><g fill="#ffffff" fill-opacity="1"><g transform="translate(366.879811, 52.414903)"><g><path d="M 8.429688 -6.289062 C 8.429688 -6.320312 8.414062 -6.335938 8.382812 -6.335938 C 8.351562 -6.335938 8.320312 -6.335938 8.304688 -6.351562 C 8.351562 -6.429688 8.382812 -6.492188 8.414062 -6.554688 C 8.445312 -6.617188 8.476562 -6.679688 8.523438 -6.742188 L 8.554688 -6.710938 C 8.554688 -6.726562 8.554688 -6.742188 8.554688 -6.757812 C 8.554688 -6.773438 8.585938 -6.773438 8.632812 -6.773438 L 8.679688 -6.773438 L 8.617188 -6.835938 C 8.601562 -6.851562 8.585938 -6.882812 8.585938 -6.929688 C 8.585938 -6.976562 8.601562 -7.007812 8.648438 -7.023438 C 8.695312 -7.039062 8.710938 -7.070312 8.710938 -7.117188 C 8.710938 -7.132812 8.710938 -7.148438 8.695312 -7.164062 C 8.679688 -7.179688 8.679688 -7.195312 8.679688 -7.210938 C 8.679688 -7.289062 8.695312 -7.367188 8.742188 -7.445312 C 8.789062 -7.523438 8.804688 -7.617188 8.804688 -7.726562 C 8.820312 -7.726562 8.835938 -7.710938 8.851562 -7.664062 C 8.851562 -7.679688 8.851562 -7.695312 8.851562 -7.710938 C 8.851562 -7.726562 8.851562 -7.742188 8.851562 -7.757812 C 8.851562 -7.804688 8.867188 -7.867188 8.914062 -7.929688 C 8.914062 -7.945312 8.898438 -7.960938 8.882812 -7.976562 C 8.867188 -7.992188 8.851562 -8.007812 8.851562 -8.023438 C 8.851562 -8.070312 8.867188 -8.101562 8.898438 -8.117188 C 8.898438 -8.101562 8.898438 -8.085938 8.898438 -8.070312 L 8.914062 -8.023438 C 8.914062 -8.039062 8.914062 -8.054688 8.914062 -8.070312 C 8.914062 -8.085938 8.914062 -8.101562 8.914062 -8.117188 C 8.914062 -8.257812 8.867188 -8.382812 8.773438 -8.507812 C 8.679688 -8.632812 8.554688 -8.742188 8.414062 -8.835938 C 8.273438 -8.929688 8.117188 -9.007812 7.945312 -9.070312 C 7.773438 -9.132812 7.617188 -9.164062 7.476562 -9.164062 C 7.414062 -9.164062 7.351562 -9.148438 7.289062 -9.132812 C 7.226562 -9.117188 7.164062 -9.101562 7.101562 -9.101562 C 7.070312 -9.101562 7.039062 -9.117188 7.007812 -9.132812 C 6.976562 -9.148438 6.929688 -9.164062 6.882812 -9.164062 C 6.898438 -9.164062 6.882812 -9.164062 6.835938 -9.164062 C 6.789062 -9.164062 6.726562 -9.148438 6.648438 -9.132812 C 6.570312 -9.117188 6.492188 -9.101562 6.414062 -9.085938 C 6.335938 -9.070312 6.289062 -9.039062 6.273438 -9.007812 C 6.257812 -8.992188 6.242188 -8.992188 6.226562 -9.007812 C 6.210938 -9.023438 6.195312 -9.023438 6.179688 -9.023438 C 6.003906 -9.007812 5.816406 -8.960938 5.613281 -8.882812 C 5.410156 -8.804688 5.238281 -8.742188 5.082031 -8.695312 C 5.035156 -8.679688 4.957031 -8.648438 4.863281 -8.601562 C 4.769531 -8.554688 4.675781 -8.507812 4.582031 -8.460938 C 4.488281 -8.414062 4.394531 -8.367188 4.300781 -8.320312 C 4.207031 -8.273438 4.128906 -8.242188 4.082031 -8.226562 C 3.925781 -8.195312 3.800781 -8.117188 3.722656 -8.007812 C 3.644531 -7.898438 3.550781 -7.804688 3.441406 -7.726562 C 3.363281 -7.679688 3.269531 -7.601562 3.144531 -7.492188 C 3.019531 -7.382812 2.894531 -7.242188 2.753906 -7.085938 C 2.613281 -6.929688 2.472656 -6.757812 2.347656 -6.585938 C 2.222656 -6.414062 2.113281 -6.242188 2.035156 -6.070312 C 1.890625 -5.863281 1.78125 -5.707031 1.703125 -5.582031 C 1.625 -5.457031 1.546875 -5.332031 1.484375 -5.222656 C 1.421875 -5.113281 1.34375 -4.988281 1.265625 -4.847656 C 1.1875 -4.707031 1.078125 -4.503906 0.953125 -4.238281 C 0.921875 -4.191406 0.875 -4.097656 0.8125 -3.972656 C 0.75 -3.847656 0.6875 -3.722656 0.625 -3.597656 C 0.5625 -3.472656 0.5 -3.347656 0.453125 -3.222656 C 0.40625 -3.097656 0.375 -3.003906 0.375 -2.957031 C 0.390625 -2.957031 0.40625 -2.957031 0.40625 -2.972656 C 0.40625 -2.988281 0.40625 -3.003906 0.421875 -3.019531 L 0.421875 -2.957031 C 0.421875 -2.941406 0.421875 -2.925781 0.40625 -2.910156 L 0.375 -2.910156 C 0.359375 -2.910156 0.34375 -2.894531 0.34375 -2.878906 C 0.34375 -2.863281 0.328125 -2.847656 0.3125 -2.832031 L 0.34375 -2.769531 C 0.3125 -2.769531 0.28125 -2.722656 0.234375 -2.628906 C 0.1875 -2.535156 0.15625 -2.425781 0.125 -2.300781 C 0.09375 -2.175781 0.0625 -2.050781 0.03125 -1.921875 C 0 -1.796875 -0.015625 -1.703125 -0.015625 -1.640625 C -0.015625 -1.625 -0.015625 -1.609375 -0.015625 -1.609375 C -0.015625 -1.609375 -0.015625 -1.59375 -0.015625 -1.578125 C -0.015625 -1.5625 -0.015625 -1.5625 -0.03125 -1.5625 C -0.046875 -1.5625 -0.0625 -1.5625 -0.078125 -1.546875 C -0.078125 -1.53125 -0.078125 -1.515625 -0.078125 -1.5 C -0.078125 -1.484375 -0.078125 -1.46875 -0.078125 -1.453125 C -0.078125 -1.4375 -0.078125 -1.40625 -0.078125 -1.375 C -0.078125 -1.34375 -0.078125 -1.3125 -0.078125 -1.296875 C -0.078125 -1.28125 -0.078125 -1.25 -0.0625 -1.21875 C -0.046875 -1.1875 -0.046875 -1.15625 -0.046875 -1.140625 L -0.078125 -1.046875 C -0.09375 -1.015625 -0.09375 -0.984375 -0.09375 -0.953125 C -0.078125 -0.6875 -0.015625 -0.4375 0.09375 -0.21875 C 0.203125 0 0.328125 0.1875 0.484375 0.359375 C 0.640625 0.53125 0.8125 0.671875 1 0.78125 C 1.1875 0.890625 1.375 0.96875 1.5625 1.015625 C 1.5625 1 1.5625 0.984375 1.578125 0.96875 C 1.625 1.015625 1.6875 1.046875 1.765625 1.0625 C 1.84375 1.078125 1.890625 1.09375 1.90625 1.09375 C 1.921875 1.09375 1.9375 1.09375 1.953125 1.09375 C 1.96875 1.09375 1.984375 1.09375 2 1.09375 C 2.019531 1.09375 2.035156 1.09375 2.050781 1.09375 C 2.066406 1.09375 2.082031 1.09375 2.097656 1.09375 C 2.113281 1.09375 2.128906 1.09375 2.144531 1.078125 C 2.160156 1.0625 2.175781 1.0625 2.191406 1.0625 C 2.207031 1.0625 2.207031 1.0625 2.207031 1.078125 C 2.207031 1.109375 2.207031 1.140625 2.191406 1.15625 C 2.222656 1.140625 2.253906 1.125 2.285156 1.125 C 2.316406 1.125 2.347656 1.125 2.363281 1.109375 C 2.363281 1.125 2.363281 1.140625 2.347656 1.15625 C 2.363281 1.15625 2.378906 1.15625 2.394531 1.171875 C 2.410156 1.1875 2.425781 1.1875 2.441406 1.1875 C 2.457031 1.1875 2.472656 1.1875 2.488281 1.171875 C 2.503906 1.15625 2.519531 1.140625 2.535156 1.125 C 2.535156 1.140625 2.550781 1.15625 2.597656 1.15625 C 2.644531 1.15625 2.691406 1.15625 2.738281 1.171875 C 2.800781 1.171875 2.878906 1.171875 2.972656 1.171875 C 3.066406 1.171875 3.128906 1.15625 3.160156 1.125 C 3.175781 1.125 3.160156 1.109375 3.113281 1.078125 C 3.066406 1.046875 3.035156 1.03125 3.019531 1.015625 C 3.066406 1 3.128906 0.984375 3.207031 0.984375 C 3.285156 0.984375 3.347656 0.984375 3.410156 0.984375 C 3.457031 0.984375 3.488281 0.984375 3.519531 1 C 3.472656 1.046875 3.425781 1.078125 3.378906 1.078125 C 3.332031 1.078125 3.285156 1.109375 3.253906 1.15625 L 3.285156 1.15625 C 3.316406 1.15625 3.347656 1.15625 3.378906 1.140625 C 3.410156 1.125 3.441406 1.125 3.488281 1.125 L 3.519531 1.125 C 3.519531 1.109375 3.519531 1.09375 3.503906 1.078125 L 3.628906 1.078125 C 3.613281 1.09375 3.597656 1.09375 3.582031 1.09375 L 3.566406 1.09375 C 3.613281 1.09375 3.691406 1.078125 3.800781 1.03125 C 3.910156 0.984375 4.035156 0.9375 4.175781 0.890625 C 4.316406 0.84375 4.441406 0.796875 4.566406 0.75 C 4.691406 0.703125 4.800781 0.6875 4.878906 0.6875 L 4.847656 0.625 C 4.863281 0.609375 4.878906 0.609375 4.894531 0.609375 C 4.910156 0.609375 4.910156 0.625 4.910156 0.671875 C 4.925781 0.65625 4.941406 0.640625 4.957031 0.625 C 4.972656 0.609375 4.988281 0.609375 5.003906 0.609375 C 5.003906 0.59375 5.003906 0.578125 4.988281 0.5625 L 4.925781 0.59375 C 4.941406 0.578125 4.957031 0.5625 4.957031 0.546875 C 4.957031 0.53125 4.972656 0.53125 4.988281 0.53125 C 5.003906 0.53125 5.019531 0.53125 5.019531 0.53125 C 5.019531 0.53125 5.035156 0.53125 5.050781 0.53125 C 5.097656 0.53125 5.160156 0.5 5.238281 0.4375 C 5.207031 0.453125 5.238281 0.4375 5.332031 0.390625 C 5.425781 0.34375 5.535156 0.28125 5.644531 0.21875 C 5.753906 0.15625 5.863281 0.09375 5.972656 0.03125 C 6.085938 -0.03125 6.132812 -0.078125 6.132812 -0.09375 L 6.132812 -0.125 C 6.148438 -0.125 6.148438 -0.125 6.148438 -0.140625 C 6.148438 -0.15625 6.148438 -0.171875 6.164062 -0.1875 C 6.132812 -0.171875 6.132812 -0.171875 6.179688 -0.1875 C 6.226562 -0.203125 6.289062 -0.21875 6.367188 -0.25 C 6.445312 -0.28125 6.507812 -0.328125 6.570312 -0.390625 C 6.632812 -0.453125 6.664062 -0.53125 6.664062 -0.625 L 6.695312 -0.59375 C 6.710938 -0.59375 6.726562 -0.609375 6.757812 -0.640625 C 6.789062 -0.671875 6.820312 -0.703125 6.867188 -0.734375 C 6.914062 -0.765625 6.945312 -0.796875 6.976562 -0.84375 C 7.007812 -0.890625 7.023438 -0.921875 7.023438 -0.9375 C 7.023438 -0.953125 7.023438 -0.953125 7.023438 -0.953125 C 7.023438 -0.953125 7.023438 -0.953125 7.023438 -0.96875 L 7.039062 -0.984375 C 7.054688 -0.96875 7.070312 -0.96875 7.085938 -0.96875 C 7.085938 -0.984375 7.085938 -1 7.085938 -1 C 7.085938 -1 7.085938 -1 7.085938 -1.015625 L 7.101562 -1 L 7.195312 -1.140625 L 7.179688 -1.15625 C 7.164062 -1.140625 7.148438 -1.140625 7.148438 -1.140625 C 7.148438 -1.140625 7.132812 -1.140625 7.117188 -1.125 L 7.101562 -1.15625 C 7.101562 -1.203125 7.132812 -1.234375 7.179688 -1.234375 C 7.195312 -1.234375 7.210938 -1.234375 7.226562 -1.234375 C 7.242188 -1.234375 7.257812 -1.234375 7.273438 -1.234375 C 7.320312 -1.234375 7.351562 -1.25 7.367188 -1.28125 L 7.414062 -1.390625 C 7.429688 -1.4375 7.460938 -1.484375 7.492188 -1.53125 C 7.523438 -1.578125 7.570312 -1.625 7.648438 -1.671875 C 7.601562 -1.6875 7.554688 -1.703125 7.523438 -1.71875 C 7.492188 -1.734375 7.445312 -1.75 7.398438 -1.765625 C 7.320312 -1.765625 7.226562 -1.71875 7.132812 -1.640625 C 7.039062 -1.5625 6.992188 -1.484375 6.992188 -1.40625 L 6.820312 -1.234375 C 6.710938 -1.125 6.570312 -1 6.398438 -0.84375 C 6.226562 -0.6875 6.039062 -0.53125 5.832031 -0.375 C 5.628906 -0.21875 5.441406 -0.09375 5.269531 0.015625 C 5.191406 0.0625 5.082031 0.125 4.957031 0.21875 C 4.832031 0.3125 4.675781 0.40625 4.488281 0.5 C 4.300781 0.59375 4.097656 0.671875 3.878906 0.75 C 3.660156 0.828125 3.425781 0.859375 3.175781 0.859375 C 2.972656 0.859375 2.769531 0.828125 2.582031 0.765625 C 2.550781 0.75 2.488281 0.71875 2.378906 0.671875 C 2.269531 0.625 2.160156 0.546875 2.050781 0.453125 C 1.9375 0.359375 1.84375 0.25 1.75 0.125 C 1.65625 0 1.609375 -0.140625 1.609375 -0.3125 C 1.609375 -0.328125 1.625 -0.34375 1.640625 -0.375 C 1.65625 -0.40625 1.671875 -0.4375 1.671875 -0.484375 C 1.6875 -0.484375 1.703125 -0.46875 1.703125 -0.4375 C 1.71875 -0.453125 1.71875 -0.453125 1.71875 -0.453125 C 1.71875 -0.453125 1.71875 -0.453125 1.734375 -0.46875 L 1.734375 -0.171875 C 1.75 -0.1875 1.765625 -0.203125 1.765625 -0.21875 C 1.765625 -0.234375 1.78125 -0.25 1.796875 -0.265625 C 1.84375 -0.21875 1.875 -0.171875 1.90625 -0.109375 C 1.9375 -0.046875 1.984375 0 2.050781 0.015625 C 2.050781 0 2.050781 -0.015625 2.035156 -0.015625 C 1.984375 -0.09375 1.9375 -0.15625 1.890625 -0.203125 C 1.84375 -0.25 1.828125 -0.328125 1.828125 -0.421875 C 1.828125 -0.53125 1.828125 -0.640625 1.828125 -0.75 C 1.828125 -0.859375 1.828125 -0.96875 1.84375 -1.078125 C 1.84375 -1.125 1.84375 -1.15625 1.828125 -1.171875 C 1.84375 -1.21875 1.859375 -1.28125 1.890625 -1.34375 C 1.921875 -1.40625 1.9375 -1.484375 1.9375 -1.5625 C 1.9375 -1.578125 1.9375 -1.59375 1.9375 -1.59375 C 1.9375 -1.59375 1.9375 -1.59375 1.9375 -1.609375 C 1.9375 -1.625 1.9375 -1.640625 1.953125 -1.65625 C 1.96875 -1.671875 1.96875 -1.6875 1.96875 -1.703125 L 1.96875 -1.734375 L 2.019531 -1.6875 C 2.019531 -1.71875 2.019531 -1.75 2.019531 -1.78125 C 2.019531 -1.8125 2.019531 -1.84375 2.019531 -1.859375 C 2.066406 -1.90625 2.113281 -1.984375 2.160156 -2.097656 C 2.207031 -2.207031 2.253906 -2.332031 2.316406 -2.472656 C 2.378906 -2.613281 2.441406 -2.753906 2.519531 -2.894531 C 2.597656 -3.035156 2.691406 -3.160156 2.800781 -3.269531 C 2.847656 -3.347656 2.878906 -3.441406 2.910156 -3.550781 C 2.941406 -3.660156 3.035156 -3.816406 3.207031 -4.019531 C 3.222656 -4.035156 3.253906 -4.066406 3.300781 -4.113281 C 3.347656 -4.160156 3.394531 -4.222656 3.457031 -4.285156 C 3.519531 -4.347656 3.566406 -4.410156 3.613281 -4.488281 C 3.660156 -4.566406 3.675781 -4.628906 3.675781 -4.691406 L 3.675781 -4.722656 C 3.878906 -4.925781 4.035156 -5.128906 4.144531 -5.332031 C 4.253906 -5.535156 4.378906 -5.753906 4.503906 -6.003906 C 4.675781 -6.179688 4.800781 -6.351562 4.878906 -6.523438 C 4.957031 -6.695312 5.066406 -6.867188 5.207031 -7.039062 C 5.222656 -7.054688 5.269531 -7.148438 5.363281 -7.320312 C 5.457031 -7.492188 5.550781 -7.632812 5.660156 -7.742188 C 5.675781 -7.757812 5.738281 -7.789062 5.832031 -7.820312 C 5.925781 -7.851562 6.003906 -7.914062 6.085938 -8.023438 C 6.132812 -8.070312 6.164062 -8.101562 6.195312 -8.117188 C 6.226562 -8.132812 6.257812 -8.148438 6.304688 -8.164062 C 6.351562 -8.179688 6.398438 -8.195312 6.460938 -8.226562 C 6.523438 -8.257812 6.601562 -8.320312 6.695312 -8.414062 C 6.679688 -8.398438 6.679688 -8.398438 6.695312 -8.414062 C 6.710938 -8.429688 6.742188 -8.460938 6.773438 -8.492188 C 6.804688 -8.523438 6.851562 -8.554688 6.898438 -8.585938 C 6.945312 -8.617188 6.992188 -8.632812 7.039062 -8.632812 C 7.054688 -8.632812 7.070312 -8.632812 7.085938 -8.632812 C 7.101562 -8.632812 7.117188 -8.632812 7.132812 -8.632812 C 7.460938 -8.523438 7.679688 -8.382812 7.773438 -8.210938 C 7.867188 -8.039062 7.914062 -7.804688 7.914062 -7.492188 C 7.914062 -7.351562 7.882812 -7.210938 7.835938 -7.070312 C 7.789062 -6.929688 7.742188 -6.789062 7.695312 -6.648438 C 7.648438 -6.507812 7.601562 -6.367188 7.554688 -6.242188 C 7.507812 -6.117188 7.476562 -5.988281 7.476562 -5.878906 C 7.476562 -5.769531 7.492188 -5.707031 7.539062 -5.691406 C 7.585938 -5.675781 7.632812 -5.644531 7.679688 -5.613281 C 7.695312 -5.628906 7.710938 -5.644531 7.742188 -5.660156 C 7.773438 -5.675781 7.804688 -5.675781 7.820312 -5.675781 L 7.835938 -5.660156 C 7.882812 -5.707031 7.914062 -5.722656 7.929688 -5.722656 C 7.945312 -5.722656 7.945312 -5.753906 7.945312 -5.800781 C 7.929688 -5.816406 7.914062 -5.816406 7.898438 -5.816406 C 7.882812 -5.816406 7.867188 -5.816406 7.851562 -5.832031 C 7.867188 -5.847656 7.882812 -5.878906 7.898438 -5.925781 C 7.914062 -5.972656 7.945312 -5.988281 7.976562 -5.988281 C 7.992188 -5.988281 8.007812 -5.972656 8.007812 -5.957031 C 8.007812 -5.941406 8.007812 -5.925781 8.023438 -5.925781 C 8.039062 -5.925781 8.039062 -5.925781 8.039062 -5.925781 C 8.039062 -5.925781 8.039062 -5.925781 8.054688 -5.925781 C 8.054688 -5.941406 8.039062 -5.957031 8.023438 -5.957031 C 8.007812 -5.957031 7.992188 -5.972656 7.976562 -5.988281 C 7.992188 -5.988281 7.992188 -5.988281 7.992188 -6.003906 C 8.007812 -6.003906 8.007812 -6.003906 8.007812 -6.003906 C 8.007812 -6.003906 8.023438 -6.003906 8.039062 -6.003906 C 8.054688 -6.003906 8.070312 -6.003906 8.085938 -6.019531 Z M 8.023438 -6.367188 C 8.007812 -6.320312 7.976562 -6.304688 7.945312 -6.320312 C 7.914062 -6.335938 7.882812 -6.320312 7.867188 -6.273438 C 7.851562 -6.273438 7.835938 -6.273438 7.820312 -6.289062 C 7.867188 -6.335938 7.898438 -6.351562 7.914062 -6.335938 C 7.929688 -6.320312 7.960938 -6.320312 8.007812 -6.335938 Z M 8.070312 -5.988281 L 8.070312 -5.910156 C 8.085938 -5.910156 8.101562 -5.925781 8.117188 -5.972656 C 8.132812 -6.019531 8.148438 -6.054688 8.164062 -6.085938 C 8.132812 -6.085938 8.117188 -6.085938 8.117188 -6.101562 C 8.117188 -6.117188 8.101562 -6.132812 8.085938 -6.148438 Z M 8.226562 -6.164062 C 8.226562 -6.179688 8.226562 -6.195312 8.226562 -6.210938 C 8.226562 -6.226562 8.226562 -6.242188 8.226562 -6.257812 C 8.226562 -6.273438 8.210938 -6.289062 8.179688 -6.304688 C 8.195312 -6.289062 8.195312 -6.273438 8.195312 -6.257812 C 8.195312 -6.242188 8.195312 -6.226562 8.210938 -6.210938 Z M 8.226562 -6.164062 "/></g></g></g><g fill="#ffffff" fill-opacity="1"><g transform="translate(374.152524, 52.414903)"><g><path d="M 0.328125 -0.1875 C 0.46875 0.203125 0.640625 0.46875 0.84375 0.609375 C 1.046875 0.75 1.296875 0.828125 1.609375 0.828125 C 1.6875 0.828125 1.765625 0.8125 1.859375 0.796875 C 1.953125 0.78125 2.019531 0.765625 2.066406 0.765625 L 2.128906 0.765625 C 2.238281 0.75 2.300781 0.703125 2.316406 0.625 C 2.425781 0.578125 2.519531 0.53125 2.613281 0.484375 C 2.691406 0.4375 2.753906 0.390625 2.816406 0.34375 C 2.878906 0.296875 2.910156 0.265625 2.910156 0.234375 C 2.910156 0.21875 2.910156 0.203125 2.910156 0.203125 C 2.910156 0.203125 2.910156 0.1875 2.910156 0.171875 C 2.925781 0.1875 2.941406 0.203125 2.941406 0.21875 C 2.941406 0.234375 2.941406 0.25 2.957031 0.265625 C 2.972656 0.25 2.972656 0.234375 2.972656 0.21875 C 2.988281 0.203125 3.019531 0.1875 3.066406 0.171875 C 3.113281 0.15625 3.144531 0.140625 3.144531 0.125 C 3.128906 0.125 3.128906 0.125 3.128906 0.109375 L 3.128906 0.078125 C 3.144531 0.09375 3.160156 0.109375 3.175781 0.109375 C 3.207031 0.0625 3.253906 0.046875 3.332031 0.0625 C 3.410156 0.078125 3.472656 0.046875 3.519531 -0.03125 C 3.503906 -0.03125 3.488281 -0.03125 3.488281 -0.03125 C 3.488281 -0.03125 3.472656 -0.03125 3.457031 -0.03125 C 3.472656 -0.046875 3.488281 -0.0625 3.503906 -0.078125 C 3.519531 -0.09375 3.535156 -0.09375 3.550781 -0.09375 L 3.566406 -0.09375 C 3.582031 -0.09375 3.597656 -0.09375 3.613281 -0.109375 C 3.628906 -0.125 3.644531 -0.125 3.660156 -0.125 C 3.660156 -0.109375 3.660156 -0.109375 3.675781 -0.109375 C 3.691406 -0.09375 3.707031 -0.09375 3.722656 -0.09375 L 3.988281 -0.359375 L 3.988281 -0.375 L 3.957031 -0.40625 C 4.066406 -0.40625 4.191406 -0.453125 4.332031 -0.546875 C 4.472656 -0.640625 4.550781 -0.703125 4.582031 -0.734375 C 4.566406 -0.734375 4.566406 -0.734375 4.566406 -0.734375 C 4.566406 -0.734375 4.566406 -0.734375 4.550781 -0.734375 C 4.566406 -0.75 4.582031 -0.765625 4.597656 -0.78125 C 4.597656 -0.765625 4.597656 -0.75 4.597656 -0.75 C 4.597656 -0.75 4.597656 -0.734375 4.597656 -0.71875 C 4.613281 -0.703125 4.613281 -0.703125 4.613281 -0.71875 C 4.613281 -0.734375 4.613281 -0.75 4.613281 -0.765625 C 4.597656 -0.75 4.613281 -0.734375 4.660156 -0.734375 C 4.707031 -0.734375 4.738281 -0.734375 4.753906 -0.734375 C 4.769531 -0.734375 4.800781 -0.765625 4.847656 -0.8125 C 4.863281 -0.828125 4.957031 -0.921875 5.128906 -1.09375 C 5.300781 -1.265625 5.503906 -1.484375 5.738281 -1.765625 C 5.738281 -1.75 5.738281 -1.734375 5.738281 -1.734375 C 5.738281 -1.734375 5.738281 -1.71875 5.738281 -1.703125 C 5.738281 -1.65625 5.722656 -1.625 5.691406 -1.59375 C 5.660156 -1.5625 5.644531 -1.53125 5.644531 -1.515625 C 5.660156 -1.515625 5.691406 -1.546875 5.738281 -1.609375 C 5.785156 -1.671875 5.832031 -1.75 5.878906 -1.84375 C 5.925781 -1.9375 5.972656 -2.019531 6.019531 -2.097656 C 6.070312 -2.175781 6.101562 -2.238281 6.117188 -2.269531 C 6.132812 -2.269531 6.164062 -2.269531 6.195312 -2.253906 C 6.179688 -2.238281 6.164062 -2.222656 6.164062 -2.207031 C 6.164062 -2.191406 6.148438 -2.175781 6.132812 -2.160156 C 6.179688 -2.191406 6.226562 -2.253906 6.289062 -2.332031 C 6.273438 -2.300781 6.320312 -2.378906 6.445312 -2.566406 C 6.570312 -2.753906 6.710938 -2.988281 6.867188 -3.269531 C 7.023438 -3.550781 7.179688 -3.847656 7.320312 -4.175781 C 7.460938 -4.503906 7.554688 -4.800781 7.601562 -5.066406 C 7.617188 -5.191406 7.664062 -5.332031 7.726562 -5.503906 C 7.789062 -5.675781 7.820312 -5.816406 7.820312 -5.941406 L 7.820312 -6.398438 C 7.820312 -6.460938 7.820312 -6.523438 7.804688 -6.570312 C 7.757812 -6.664062 7.726562 -6.742188 7.710938 -6.789062 C 7.695312 -6.835938 7.664062 -6.898438 7.632812 -6.976562 C 7.601562 -7.054688 7.570312 -7.148438 7.523438 -7.257812 C 7.476562 -7.367188 7.398438 -7.523438 7.289062 -7.742188 C 7.195312 -7.960938 7.085938 -8.132812 6.960938 -8.257812 C 6.835938 -8.382812 6.695312 -8.476562 6.539062 -8.539062 C 6.382812 -8.601562 6.226562 -8.648438 6.070312 -8.664062 C 5.910156 -8.679688 5.769531 -8.695312 5.628906 -8.710938 C 5.628906 -8.695312 5.628906 -8.695312 5.644531 -8.695312 C 5.628906 -8.679688 5.613281 -8.679688 5.597656 -8.679688 C 5.613281 -8.679688 5.628906 -8.679688 5.644531 -8.664062 C 5.566406 -8.648438 5.488281 -8.632812 5.410156 -8.617188 C 5.332031 -8.601562 5.253906 -8.585938 5.175781 -8.570312 C 5.144531 -8.570312 5.128906 -8.570312 5.128906 -8.585938 C 5.082031 -8.695312 5.003906 -8.757812 4.878906 -8.789062 C 4.753906 -8.820312 4.660156 -8.898438 4.582031 -9.023438 C 4.566406 -9.007812 4.566406 -8.992188 4.566406 -8.976562 C 4.566406 -8.960938 4.566406 -8.960938 4.550781 -8.960938 C 4.472656 -8.976562 4.394531 -8.992188 4.332031 -9.023438 C 4.269531 -9.054688 4.207031 -9.070312 4.144531 -9.070312 C 4.128906 -9.070312 4.082031 -9.039062 4.019531 -8.976562 C 3.957031 -8.914062 3.878906 -8.835938 3.785156 -8.742188 C 3.691406 -8.648438 3.597656 -8.539062 3.503906 -8.414062 C 3.410156 -8.289062 3.316406 -8.179688 3.238281 -8.085938 C 2.816406 -7.539062 2.441406 -7.023438 2.097656 -6.539062 C 1.75 -6.054688 1.4375 -5.503906 1.15625 -4.910156 C 1.078125 -4.738281 1 -4.535156 0.921875 -4.300781 C 0.84375 -4.066406 0.765625 -3.816406 0.703125 -3.550781 C 0.640625 -3.285156 0.578125 -3.019531 0.515625 -2.738281 C 0.453125 -2.457031 0.40625 -2.191406 0.359375 -1.9375 C 0.28125 -1.6875 0.234375 -1.4375 0.234375 -1.171875 C 0.234375 -0.90625 0.203125 -0.640625 0.15625 -0.375 L 0.15625 -0.140625 C 0.15625 -0.046875 0.1875 0 0.234375 0 Z M 5.253906 -8.054688 C 5.238281 -8.101562 5.222656 -8.148438 5.191406 -8.195312 C 5.160156 -8.242188 5.144531 -8.289062 5.144531 -8.335938 C 5.144531 -8.351562 5.175781 -8.367188 5.238281 -8.367188 C 5.300781 -8.367188 5.347656 -8.367188 5.394531 -8.382812 C 5.457031 -8.382812 5.550781 -8.367188 5.660156 -8.335938 C 5.769531 -8.304688 5.878906 -8.257812 5.988281 -8.195312 C 6.101562 -8.132812 6.195312 -8.039062 6.273438 -7.914062 C 6.351562 -7.789062 6.382812 -7.617188 6.382812 -7.414062 C 6.382812 -7.054688 6.304688 -6.695312 6.148438 -6.335938 C 5.988281 -5.972656 5.816406 -5.550781 5.628906 -5.082031 C 5.628906 -5.097656 5.613281 -5.066406 5.597656 -4.988281 C 5.582031 -4.910156 5.550781 -4.816406 5.503906 -4.707031 C 5.457031 -4.597656 5.394531 -4.488281 5.332031 -4.378906 C 5.269531 -4.269531 5.207031 -4.175781 5.144531 -4.113281 C 4.988281 -3.800781 4.816406 -3.488281 4.644531 -3.175781 C 4.472656 -2.863281 4.316406 -2.582031 4.175781 -2.347656 C 4.128906 -2.285156 4.066406 -2.175781 3.988281 -2.019531 C 3.910156 -1.859375 3.816406 -1.703125 3.722656 -1.53125 C 3.628906 -1.359375 3.519531 -1.1875 3.410156 -1.015625 C 3.300781 -0.84375 3.191406 -0.703125 3.082031 -0.59375 C 3.003906 -0.46875 2.925781 -0.359375 2.863281 -0.265625 C 2.800781 -0.171875 2.722656 -0.09375 2.644531 -0.015625 C 2.566406 0.0625 2.488281 0.140625 2.394531 0.203125 C 2.300781 0.265625 2.191406 0.34375 2.066406 0.421875 C 2.050781 0.40625 2.035156 0.390625 2.035156 0.359375 C 2.035156 0.328125 2.019531 0.3125 2 0.296875 C 2.019531 0.28125 2.035156 0.265625 2.050781 0.234375 C 2.066406 0.203125 2.066406 0.1875 2.066406 0.171875 L 2.066406 0.140625 C 2.066406 0.09375 2.066406 0.0625 2.082031 0.03125 C 2.097656 0 2.113281 -0.03125 2.128906 -0.078125 C 2.160156 -0.28125 2.191406 -0.4375 2.222656 -0.546875 C 2.253906 -0.65625 2.269531 -0.75 2.285156 -0.828125 C 2.300781 -0.90625 2.332031 -0.984375 2.363281 -1.078125 C 2.394531 -1.171875 2.441406 -1.296875 2.503906 -1.46875 C 2.550781 -1.671875 2.644531 -1.875 2.769531 -2.097656 C 2.894531 -2.316406 2.972656 -2.535156 3.019531 -2.738281 C 3.128906 -2.972656 3.222656 -3.238281 3.316406 -3.550781 C 3.410156 -3.863281 3.535156 -4.144531 3.691406 -4.410156 C 3.707031 -4.441406 3.769531 -4.550781 3.878906 -4.738281 C 3.988281 -4.925781 4.050781 -5.160156 4.082031 -5.441406 C 4.066406 -5.425781 4.066406 -5.425781 4.097656 -5.457031 C 4.128906 -5.488281 4.160156 -5.519531 4.191406 -5.566406 C 4.222656 -5.613281 4.253906 -5.675781 4.285156 -5.738281 C 4.316406 -5.800781 4.332031 -5.863281 4.332031 -5.925781 C 4.332031 -5.941406 4.316406 -5.957031 4.300781 -5.957031 C 4.285156 -5.957031 4.269531 -5.972656 4.269531 -5.988281 C 4.269531 -6.070312 4.332031 -6.164062 4.441406 -6.273438 C 4.550781 -6.382812 4.628906 -6.507812 4.675781 -6.648438 C 4.722656 -6.679688 4.785156 -6.726562 4.863281 -6.789062 C 4.941406 -6.851562 5.019531 -6.914062 5.097656 -6.992188 C 5.175781 -7.070312 5.238281 -7.148438 5.285156 -7.242188 C 5.332031 -7.335938 5.363281 -7.429688 5.363281 -7.507812 C 5.378906 -7.460938 5.378906 -7.460938 5.378906 -7.507812 C 5.378906 -7.554688 5.378906 -7.617188 5.363281 -7.695312 C 5.347656 -7.773438 5.332031 -7.835938 5.300781 -7.898438 C 5.269531 -7.960938 5.238281 -7.992188 5.207031 -7.992188 Z M 5.253906 -8.054688 "/></g></g></g><g fill="#ffffff" fill-opacity="1"><g transform="translate(380.971666, 52.414903)"><g><path d="M 10.058594 -0.3125 C 10.023438 -0.3125 10.007812 -0.3125 10.007812 -0.328125 C 10.007812 -0.359375 10.007812 -0.390625 10.023438 -0.4375 C 10.039062 -0.484375 10.058594 -0.515625 10.074219 -0.546875 C 10.105469 -0.53125 10.121094 -0.515625 10.121094 -0.5 C 10.121094 -0.484375 10.121094 -0.453125 10.105469 -0.421875 C 10.089844 -0.390625 10.074219 -0.359375 10.058594 -0.34375 C 10.058594 -0.359375 10.074219 -0.375 10.089844 -0.375 C 10.105469 -0.375 10.121094 -0.390625 10.121094 -0.40625 L 10.121094 -0.453125 C 10.167969 -0.46875 10.199219 -0.5 10.230469 -0.53125 C 10.261719 -0.5625 10.277344 -0.609375 10.277344 -0.65625 L 10.277344 -0.6875 C 10.277344 -0.671875 10.308594 -0.703125 10.355469 -0.78125 C 10.402344 -0.859375 10.464844 -0.953125 10.527344 -1.078125 C 10.589844 -1.203125 10.652344 -1.328125 10.730469 -1.46875 C 10.808594 -1.609375 10.871094 -1.71875 10.917969 -1.796875 L 11.074219 -2.113281 C 11.152344 -2.253906 11.230469 -2.425781 11.308594 -2.628906 C 11.386719 -2.832031 11.449219 -3.050781 11.511719 -3.285156 C 11.574219 -3.519531 11.605469 -3.753906 11.605469 -3.988281 C 11.605469 -4.097656 11.589844 -4.207031 11.558594 -4.300781 C 11.558594 -4.285156 11.542969 -4.300781 11.511719 -4.347656 C 11.480469 -4.394531 11.449219 -4.441406 11.417969 -4.488281 C 11.386719 -4.535156 11.355469 -4.582031 11.324219 -4.628906 C 11.292969 -4.675781 11.261719 -4.691406 11.246094 -4.691406 C 11.261719 -4.691406 11.246094 -4.707031 11.199219 -4.738281 C 11.152344 -4.769531 11.105469 -4.800781 11.042969 -4.847656 C 10.980469 -4.894531 10.917969 -4.925781 10.839844 -4.957031 C 10.761719 -4.988281 10.699219 -5.003906 10.652344 -5.003906 L 10.636719 -5.003906 C 10.589844 -5.019531 10.542969 -5.035156 10.511719 -5.035156 C 10.480469 -5.035156 10.449219 -5.035156 10.433594 -5.035156 L 10.167969 -5.035156 C 10.121094 -5.035156 10.058594 -5.019531 9.992188 -5.003906 C 9.929688 -4.988281 9.867188 -4.941406 9.804688 -4.878906 C 9.804688 -4.863281 9.804688 -4.847656 9.820312 -4.832031 C 9.820312 -4.816406 9.789062 -4.785156 9.726562 -4.738281 C 9.664062 -4.691406 9.601562 -4.628906 9.523438 -4.566406 L 9.289062 -4.378906 C 9.210938 -4.316406 9.148438 -4.269531 9.101562 -4.238281 C 9.054688 -4.191406 8.976562 -4.128906 8.882812 -4.050781 C 8.789062 -3.972656 8.679688 -3.878906 8.570312 -3.785156 C 8.460938 -3.691406 8.351562 -3.582031 8.242188 -3.472656 C 8.132812 -3.363281 8.054688 -3.253906 8.007812 -3.160156 C 8.007812 -3.175781 8.007812 -3.175781 8.007812 -3.175781 C 8.007812 -3.175781 8.007812 -3.191406 8.007812 -3.207031 C 7.976562 -3.128906 7.945312 -3.066406 7.914062 -3.019531 C 7.898438 -2.972656 7.867188 -2.941406 7.835938 -2.910156 C 7.804688 -2.878906 7.773438 -2.863281 7.757812 -2.863281 C 7.710938 -2.847656 7.648438 -2.800781 7.570312 -2.722656 C 7.492188 -2.644531 7.398438 -2.550781 7.304688 -2.457031 C 7.210938 -2.363281 7.117188 -2.285156 7.039062 -2.207031 C 6.960938 -2.128906 6.898438 -2.097656 6.851562 -2.097656 C 6.835938 -2.097656 6.820312 -2.097656 6.804688 -2.113281 C 6.914062 -2.285156 7.007812 -2.472656 7.101562 -2.675781 C 7.195312 -2.878906 7.273438 -3.082031 7.351562 -3.285156 C 7.367188 -3.363281 7.414062 -3.472656 7.507812 -3.613281 C 7.601562 -3.753906 7.695312 -3.910156 7.789062 -4.097656 C 7.882812 -4.285156 7.960938 -4.488281 8.039062 -4.722656 C 8.117188 -4.957031 8.148438 -5.207031 8.148438 -5.472656 C 8.132812 -5.441406 8.117188 -5.410156 8.117188 -5.378906 C 8.117188 -5.347656 8.101562 -5.316406 8.085938 -5.285156 C 8.070312 -5.300781 8.054688 -5.300781 8.023438 -5.300781 C 8.039062 -5.316406 8.039062 -5.347656 8.039062 -5.394531 C 8.039062 -5.441406 8.039062 -5.488281 8.039062 -5.535156 L 8.039062 -5.597656 C 8.054688 -5.644531 8.054688 -5.675781 8.054688 -5.707031 C 8.054688 -5.738281 8.054688 -5.769531 8.054688 -5.816406 L 8.054688 -5.878906 C 8.039062 -5.863281 8.039062 -5.847656 8.039062 -5.832031 C 8.023438 -5.847656 8.007812 -5.894531 7.992188 -5.988281 C 7.976562 -6.085938 7.960938 -6.148438 7.960938 -6.164062 C 7.960938 -6.195312 7.960938 -6.226562 7.976562 -6.242188 C 7.960938 -6.242188 7.960938 -6.242188 7.960938 -6.257812 L 7.960938 -6.289062 C 7.945312 -6.273438 7.929688 -6.242188 7.914062 -6.195312 L 7.882812 -6.242188 C 7.882812 -6.257812 7.882812 -6.273438 7.882812 -6.289062 C 7.882812 -6.273438 7.882812 -6.273438 7.867188 -6.304688 C 7.851562 -6.335938 7.820312 -6.367188 7.773438 -6.414062 C 7.726562 -6.460938 7.664062 -6.507812 7.585938 -6.554688 C 7.507812 -6.601562 7.398438 -6.617188 7.257812 -6.617188 C 6.960938 -6.617188 6.695312 -6.539062 6.460938 -6.382812 C 6.226562 -6.226562 5.972656 -6.054688 5.707031 -5.878906 C 5.472656 -5.644531 5.269531 -5.441406 5.097656 -5.285156 C 4.925781 -5.128906 4.722656 -4.941406 4.488281 -4.738281 C 4.503906 -4.753906 4.503906 -4.769531 4.503906 -4.785156 C 4.503906 -4.800781 4.503906 -4.816406 4.519531 -4.832031 C 4.597656 -5.035156 4.675781 -5.269531 4.769531 -5.535156 C 4.863281 -5.800781 4.972656 -6.101562 5.082031 -6.429688 C 5.097656 -6.492188 5.144531 -6.617188 5.207031 -6.789062 C 5.269531 -6.960938 5.300781 -7.132812 5.300781 -7.304688 C 5.300781 -7.335938 5.300781 -7.367188 5.300781 -7.398438 C 5.300781 -7.429688 5.300781 -7.460938 5.300781 -7.492188 C 5.300781 -7.507812 5.300781 -7.523438 5.300781 -7.554688 C 5.300781 -7.585938 5.300781 -7.617188 5.300781 -7.648438 L 5.300781 -7.929688 C 5.300781 -7.945312 5.300781 -7.976562 5.300781 -8.023438 C 5.300781 -8.070312 5.285156 -8.132812 5.269531 -8.195312 C 5.253906 -8.257812 5.222656 -8.320312 5.191406 -8.382812 C 5.160156 -8.445312 5.113281 -8.492188 5.066406 -8.539062 L 5.066406 -8.554688 C 5.066406 -8.601562 5.035156 -8.664062 4.972656 -8.742188 C 4.910156 -8.820312 4.863281 -8.882812 4.816406 -8.929688 C 4.738281 -9.007812 4.660156 -9.085938 4.582031 -9.148438 C 4.503906 -9.195312 4.425781 -9.242188 4.347656 -9.289062 C 4.269531 -9.335938 4.207031 -9.351562 4.144531 -9.351562 C 4.003906 -9.351562 3.878906 -9.304688 3.785156 -9.226562 C 3.691406 -9.148438 3.597656 -9.023438 3.503906 -8.851562 C 3.410156 -8.679688 3.300781 -8.460938 3.191406 -8.195312 C 3.082031 -7.929688 2.957031 -7.617188 2.816406 -7.257812 C 2.582031 -6.664062 2.332031 -6.054688 2.082031 -5.425781 L 1.328125 -3.550781 C 1.25 -3.378906 1.15625 -3.175781 1.046875 -2.941406 C 0.96875 -2.738281 0.875 -2.488281 0.765625 -2.191406 C 0.65625 -1.890625 0.546875 -1.5625 0.4375 -1.203125 C 0.421875 -1.15625 0.390625 -1.078125 0.359375 -0.984375 C 0.328125 -0.890625 0.296875 -0.796875 0.265625 -0.6875 C 0.234375 -0.578125 0.203125 -0.46875 0.171875 -0.375 C 0.140625 -0.28125 0.125 -0.203125 0.125 -0.15625 C 0.125 -0.09375 0.15625 -0.03125 0.234375 0.015625 C 0.3125 0.0625 0.375 0.109375 0.421875 0.15625 C 0.4375 0.15625 0.453125 0.15625 0.46875 0.140625 C 0.484375 0.140625 0.5 0.15625 0.5 0.171875 C 0.5 0.1875 0.5 0.203125 0.515625 0.21875 C 0.53125 0.234375 0.53125 0.234375 0.53125 0.21875 L 0.53125 0.203125 C 0.609375 0.28125 0.671875 0.328125 0.71875 0.34375 C 0.765625 0.359375 0.828125 0.359375 0.90625 0.359375 C 1 0.328125 1.0625 0.3125 1.078125 0.3125 C 1.09375 0.3125 1.109375 0.3125 1.125 0.3125 C 1.140625 0.3125 1.171875 0.296875 1.21875 0.265625 C 1.265625 0.234375 1.359375 0.171875 1.5 0.078125 C 1.515625 0.09375 1.53125 0.109375 1.546875 0.125 C 1.5625 0.140625 1.578125 0.15625 1.59375 0.171875 C 1.65625 0.03125 1.703125 -0.0625 1.734375 -0.109375 C 1.765625 -0.15625 1.796875 -0.1875 1.828125 -0.203125 L 1.984375 -0.296875 C 2.066406 -0.34375 2.175781 -0.421875 2.316406 -0.53125 C 2.332031 -0.515625 2.332031 -0.5 2.332031 -0.5 C 2.332031 -0.5 2.332031 -0.484375 2.347656 -0.46875 C 2.347656 -0.453125 2.347656 -0.453125 2.363281 -0.453125 C 2.378906 -0.46875 2.394531 -0.46875 2.410156 -0.46875 C 2.425781 -0.46875 2.441406 -0.46875 2.457031 -0.484375 C 2.488281 -0.484375 2.535156 -0.5 2.597656 -0.546875 C 2.660156 -0.59375 2.722656 -0.640625 2.785156 -0.703125 C 2.847656 -0.765625 2.910156 -0.828125 2.957031 -0.90625 C 3.003906 -0.984375 3.035156 -1.0625 3.035156 -1.140625 L 3.035156 -1.171875 L 3.082031 -1.21875 C 3.222656 -1.484375 3.347656 -1.765625 3.457031 -2.066406 C 3.566406 -2.363281 3.722656 -2.675781 3.941406 -3.003906 C 3.925781 -2.988281 3.957031 -3.019531 4.019531 -3.097656 C 4.082031 -3.175781 4.160156 -3.285156 4.253906 -3.410156 C 4.347656 -3.535156 4.441406 -3.675781 4.550781 -3.847656 C 4.660156 -4.019531 4.753906 -4.191406 4.832031 -4.363281 C 4.941406 -4.519531 5.082031 -4.660156 5.269531 -4.785156 C 5.457031 -4.910156 5.582031 -5.035156 5.660156 -5.175781 L 5.660156 -5.160156 C 5.800781 -5.238281 5.941406 -5.316406 6.070312 -5.394531 C 6.195312 -5.472656 6.320312 -5.550781 6.460938 -5.628906 C 6.460938 -5.613281 6.460938 -5.613281 6.476562 -5.613281 C 6.445312 -5.550781 6.414062 -5.488281 6.382812 -5.410156 C 6.351562 -5.332031 6.320312 -5.269531 6.289062 -5.207031 C 6.273438 -5.175781 6.226562 -5.113281 6.164062 -5.019531 C 6.101562 -4.925781 6.039062 -4.816406 5.957031 -4.691406 C 5.878906 -4.566406 5.800781 -4.425781 5.738281 -4.285156 C 5.675781 -4.144531 5.628906 -4.003906 5.597656 -3.863281 C 5.472656 -3.660156 5.363281 -3.441406 5.269531 -3.222656 C 5.175781 -3.003906 5.082031 -2.769531 5.003906 -2.535156 C 4.988281 -2.472656 4.941406 -2.378906 4.878906 -2.238281 C 4.816406 -2.097656 4.738281 -1.9375 4.660156 -1.765625 C 4.582031 -1.59375 4.519531 -1.40625 4.457031 -1.203125 C 4.394531 -1 4.363281 -0.796875 4.363281 -0.59375 C 4.363281 -0.546875 4.378906 -0.484375 4.394531 -0.40625 C 4.410156 -0.375 4.425781 -0.328125 4.441406 -0.265625 C 4.457031 -0.203125 4.472656 -0.140625 4.488281 -0.078125 C 4.503906 -0.015625 4.535156 0.03125 4.566406 0.078125 C 4.597656 0.125 4.628906 0.140625 4.675781 0.140625 L 4.644531 0.203125 C 4.628906 0.1875 4.628906 0.1875 4.628906 0.1875 C 4.628906 0.1875 4.628906 0.1875 4.613281 0.171875 C 4.597656 0.1875 4.597656 0.203125 4.597656 0.21875 C 4.597656 0.25 4.628906 0.28125 4.691406 0.296875 C 4.753906 0.3125 4.816406 0.328125 4.894531 0.328125 C 4.972656 0.328125 5.050781 0.328125 5.128906 0.328125 L 5.300781 0.328125 C 5.285156 0.328125 5.300781 0.3125 5.347656 0.296875 C 5.394531 0.28125 5.441406 0.265625 5.488281 0.234375 C 5.535156 0.203125 5.582031 0.1875 5.628906 0.171875 L 5.691406 0.140625 L 5.722656 0.140625 C 5.738281 0.09375 5.769531 0.0625 5.816406 0.0625 C 5.863281 0.0625 5.894531 0.046875 5.925781 0.03125 C 5.941406 0.078125 5.957031 0.125 5.972656 0.15625 C 5.988281 0.1875 6.003906 0.203125 6.019531 0.203125 C 6.003906 0.1875 5.988281 0.171875 5.972656 0.140625 C 5.957031 0.109375 5.957031 0.09375 5.957031 0.078125 C 5.957031 0.0625 5.972656 0.046875 5.988281 0.03125 C 6.039062 0 6.070312 -0.03125 6.085938 -0.046875 C 6.101562 -0.0625 6.132812 -0.09375 6.179688 -0.15625 L 6.367188 -0.40625 C 6.445312 -0.515625 6.570312 -0.6875 6.742188 -0.921875 C 6.789062 -1 6.851562 -1.140625 6.914062 -1.328125 C 6.976562 -1.515625 7.085938 -1.65625 7.257812 -1.734375 C 7.242188 -1.75 7.226562 -1.75 7.226562 -1.75 C 7.226562 -1.75 7.226562 -1.75 7.226562 -1.765625 L 7.242188 -1.765625 C 7.257812 -1.765625 7.273438 -1.765625 7.289062 -1.78125 C 7.304688 -1.796875 7.320312 -1.796875 7.335938 -1.796875 L 7.367188 -1.796875 C 7.382812 -1.796875 7.398438 -1.8125 7.398438 -1.84375 L 7.398438 -1.875 C 7.398438 -1.890625 7.429688 -1.90625 7.492188 -1.90625 C 7.476562 -1.921875 7.476562 -1.9375 7.476562 -1.96875 C 7.476562 -1.953125 7.476562 -1.953125 7.492188 -1.953125 C 7.632812 -2.097656 7.757812 -2.238281 7.882812 -2.378906 C 8.007812 -2.519531 8.179688 -2.707031 8.398438 -2.925781 C 8.414062 -2.941406 8.429688 -2.957031 8.460938 -2.988281 C 8.492188 -3.019531 8.523438 -3.066406 8.554688 -3.113281 C 8.585938 -3.160156 8.617188 -3.207031 8.664062 -3.238281 C 8.710938 -3.269531 8.742188 -3.285156 8.757812 -3.285156 C 8.742188 -3.269531 8.742188 -3.285156 8.773438 -3.316406 C 8.804688 -3.347656 8.835938 -3.378906 8.867188 -3.425781 C 8.898438 -3.472656 8.929688 -3.503906 8.960938 -3.535156 C 8.992188 -3.566406 9.007812 -3.582031 9.023438 -3.582031 L 9.039062 -3.566406 C 9.007812 -3.566406 9.039062 -3.613281 9.148438 -3.722656 C 9.257812 -3.832031 9.414062 -3.957031 9.617188 -4.097656 C 9.632812 -4.113281 9.648438 -4.097656 9.679688 -4.066406 C 9.710938 -4.035156 9.726562 -3.988281 9.726562 -3.941406 L 9.726562 -3.910156 C 9.601562 -3.519531 9.398438 -3.050781 9.132812 -2.519531 C 8.867188 -1.984375 8.585938 -1.34375 8.289062 -0.59375 C 8.273438 -0.578125 8.257812 -0.53125 8.226562 -0.46875 C 8.195312 -0.40625 8.164062 -0.34375 8.148438 -0.28125 C 8.132812 -0.21875 8.117188 -0.15625 8.101562 -0.109375 L 8.070312 -0.03125 C 7.929688 0.15625 7.835938 0.390625 7.789062 0.671875 C 7.742188 0.953125 7.710938 1.25 7.710938 1.546875 C 7.710938 1.84375 7.804688 2.050781 7.992188 2.160156 C 8.179688 2.269531 8.382812 2.332031 8.617188 2.332031 C 8.804688 2.316406 8.960938 2.300781 9.101562 2.269531 C 9.242188 2.238281 9.398438 2.175781 9.570312 2.066406 C 9.648438 2.019531 9.742188 1.953125 9.851562 1.859375 C 9.960938 1.765625 10.152344 1.59375 10.402344 1.34375 C 10.371094 1.359375 10.339844 1.375 10.308594 1.40625 L 10.292969 1.390625 C 10.308594 1.375 10.324219 1.359375 10.324219 1.328125 C 10.324219 1.296875 10.339844 1.28125 10.355469 1.265625 C 10.355469 1.28125 10.355469 1.296875 10.371094 1.3125 C 10.417969 1.3125 10.449219 1.3125 10.464844 1.296875 C 10.464844 1.28125 10.449219 1.265625 10.417969 1.234375 C 10.433594 1.21875 10.464844 1.203125 10.511719 1.171875 C 10.558594 1.140625 10.574219 1.09375 10.574219 1.015625 L 10.558594 1 C 10.480469 1.015625 10.417969 1.03125 10.371094 1.046875 C 10.292969 1.078125 10.214844 1.140625 10.152344 1.21875 C 10.089844 1.296875 10.007812 1.375 9.929688 1.453125 C 9.851562 1.53125 9.773438 1.59375 9.679688 1.65625 C 9.585938 1.71875 9.492188 1.75 9.398438 1.75 C 9.257812 1.75 9.164062 1.734375 9.132812 1.71875 C 9.101562 1.703125 9.070312 1.65625 9.039062 1.59375 L 9.039062 1.65625 C 8.992188 1.640625 8.960938 1.625 8.945312 1.609375 C 8.976562 1.578125 9.007812 1.515625 9.039062 1.4375 C 9.085938 1.5 9.117188 1.546875 9.132812 1.5625 C 9.148438 1.578125 9.210938 1.59375 9.320312 1.609375 C 9.242188 1.5625 9.179688 1.515625 9.132812 1.46875 C 9.085938 1.421875 9.070312 1.359375 9.070312 1.28125 C 9.070312 1.25 9.070312 1.21875 9.085938 1.203125 L 9.054688 1.203125 C 9.039062 1.203125 9.039062 1.203125 9.039062 1.1875 C 9.039062 1.171875 9.054688 1.15625 9.070312 1.140625 C 9.085938 1.15625 9.101562 1.171875 9.117188 1.1875 C 9.117188 1.171875 9.117188 1.15625 9.117188 1.15625 C 9.117188 1.15625 9.117188 1.15625 9.117188 1.140625 C 9.132812 1.1875 9.148438 1.21875 9.148438 1.234375 C 9.164062 1.21875 9.164062 1.203125 9.164062 1.1875 C 9.148438 1.171875 9.132812 1.15625 9.132812 1.140625 C 9.132812 1.125 9.148438 1.09375 9.179688 1.046875 C 9.210938 1 9.226562 0.953125 9.242188 0.90625 C 9.226562 0.921875 9.210938 0.953125 9.195312 0.984375 C 9.179688 1.015625 9.164062 1.046875 9.148438 1.0625 C 9.132812 1.078125 9.117188 1.078125 9.117188 1.0625 C 9.117188 1.046875 9.117188 1.03125 9.117188 1.015625 C 9.117188 0.96875 9.117188 0.921875 9.132812 0.875 C 9.148438 0.828125 9.164062 0.796875 9.179688 0.78125 L 9.179688 0.703125 C 9.179688 0.65625 9.195312 0.59375 9.226562 0.5 C 9.257812 0.40625 9.273438 0.328125 9.273438 0.25 C 9.273438 0.234375 9.273438 0.21875 9.273438 0.203125 C 9.273438 0.1875 9.273438 0.171875 9.273438 0.15625 C 9.273438 0.125 9.289062 0.109375 9.320312 0.09375 C 9.351562 0.078125 9.367188 0.046875 9.367188 -0.015625 C 9.414062 0 9.460938 0.015625 9.507812 0.046875 C 9.492188 0.078125 9.476562 0.109375 9.460938 0.15625 C 9.445312 0.203125 9.445312 0.21875 9.445312 0.203125 L 9.445312 0.3125 C 9.445312 0.34375 9.429688 0.375 9.382812 0.390625 C 9.335938 0.40625 9.320312 0.484375 9.320312 0.625 C 9.320312 0.671875 9.320312 0.703125 9.335938 0.71875 C 9.335938 0.765625 9.320312 0.796875 9.273438 0.796875 C 9.289062 0.8125 9.304688 0.828125 9.320312 0.84375 C 9.335938 0.78125 9.367188 0.703125 9.414062 0.609375 C 9.460938 0.515625 9.492188 0.453125 9.492188 0.4375 C 9.476562 0.421875 9.460938 0.421875 9.445312 0.421875 C 9.460938 0.40625 9.476562 0.390625 9.492188 0.375 C 9.507812 0.359375 9.507812 0.34375 9.507812 0.328125 C 9.492188 0.3125 9.476562 0.296875 9.476562 0.28125 C 9.476562 0.265625 9.492188 0.25 9.539062 0.234375 L 9.570312 0.265625 C 9.585938 0.265625 9.601562 0.25 9.601562 0.234375 Z M 9.976562 -0.453125 C 9.960938 -0.46875 9.945312 -0.46875 9.945312 -0.46875 C 9.945312 -0.46875 9.929688 -0.46875 9.914062 -0.484375 C 9.929688 -0.5 9.960938 -0.546875 10.007812 -0.609375 C 10.023438 -0.609375 10.039062 -0.609375 10.058594 -0.59375 C 10.007812 -0.546875 9.992188 -0.5 10.007812 -0.453125 C 10.023438 -0.40625 10.007812 -0.359375 9.960938 -0.3125 L 9.929688 -0.34375 L 9.929688 -0.40625 C 9.929688 -0.421875 9.945312 -0.4375 9.960938 -0.4375 Z M 9.492188 -0.265625 C 9.492188 -0.234375 9.492188 -0.1875 9.507812 -0.140625 C 9.523438 -0.09375 9.539062 -0.0625 9.554688 -0.046875 C 9.539062 -0.03125 9.523438 -0.015625 9.507812 0 C 9.492188 0.015625 9.476562 0.03125 9.460938 0.03125 C 9.445312 0.03125 9.445312 0.015625 9.445312 0 C 9.429688 -0.015625 9.429688 -0.0625 9.429688 -0.140625 C 9.429688 -0.15625 9.429688 -0.1875 9.445312 -0.21875 C 9.460938 -0.25 9.476562 -0.265625 9.492188 -0.25 Z M 9.585938 -0.296875 C 9.554688 -0.3125 9.539062 -0.328125 9.539062 -0.359375 C 9.539062 -0.390625 9.539062 -0.421875 9.539062 -0.453125 C 9.539062 -0.484375 9.539062 -0.515625 9.554688 -0.546875 C 9.570312 -0.53125 9.601562 -0.515625 9.648438 -0.5 C 9.632812 -0.46875 9.617188 -0.453125 9.601562 -0.4375 C 9.585938 -0.421875 9.585938 -0.40625 9.585938 -0.390625 C 9.585938 -0.375 9.585938 -0.359375 9.601562 -0.34375 C 9.601562 -0.328125 9.601562 -0.328125 9.601562 -0.328125 C 9.601562 -0.328125 9.601562 -0.328125 9.601562 -0.3125 Z M 10.152344 -0.765625 C 10.136719 -0.734375 10.136719 -0.703125 10.136719 -0.671875 C 10.136719 -0.640625 10.121094 -0.625 10.074219 -0.625 C 10.058594 -0.640625 10.058594 -0.65625 10.058594 -0.671875 C 10.058594 -0.6875 10.058594 -0.703125 10.074219 -0.734375 C 10.089844 -0.765625 10.105469 -0.765625 10.121094 -0.75 Z M 10.558594 -1.859375 C 10.542969 -1.828125 10.527344 -1.796875 10.527344 -1.765625 C 10.527344 -1.734375 10.511719 -1.703125 10.496094 -1.65625 C 10.480469 -1.671875 10.480469 -1.6875 10.480469 -1.71875 C 10.480469 -1.75 10.496094 -1.78125 10.527344 -1.8125 C 10.542969 -1.828125 10.558594 -1.84375 10.574219 -1.859375 Z M 9.914062 -1.078125 C 9.867188 -1.09375 9.835938 -1.109375 9.835938 -1.125 L 9.867188 -1.1875 C 9.882812 -1.140625 9.898438 -1.109375 9.914062 -1.078125 Z M 10.136719 -1.71875 C 10.152344 -1.703125 10.152344 -1.6875 10.152344 -1.671875 C 10.152344 -1.640625 10.136719 -1.625 10.105469 -1.625 C 10.105469 -1.65625 10.121094 -1.6875 10.136719 -1.734375 Z M 9.648438 -0.6875 C 9.664062 -0.671875 9.679688 -0.671875 9.695312 -0.671875 C 9.710938 -0.671875 9.726562 -0.671875 9.742188 -0.65625 L 9.710938 -0.625 Z M 10.480469 1 C 10.496094 1 10.511719 1 10.527344 1 C 10.542969 1 10.558594 1 10.574219 1 C 10.574219 0.984375 10.574219 0.984375 10.574219 0.984375 C 10.574219 0.984375 10.589844 0.984375 10.636719 0.96875 C 10.621094 0.953125 10.589844 0.953125 10.542969 0.953125 C 10.496094 0.953125 10.464844 0.96875 10.464844 0.984375 Z M 10.480469 1 "/></g></g></g><g fill="#ffffff" fill-opacity="1"><g transform="translate(392.81133, 52.414903)"><g><path d="M 1.359375 -0.21875 C 1.359375 -0.171875 1.390625 -0.109375 1.453125 -0.03125 C 1.515625 0.046875 1.578125 0.125 1.65625 0.1875 C 1.734375 0.25 1.828125 0.3125 1.921875 0.359375 C 2.019531 0.40625 2.097656 0.4375 2.175781 0.4375 C 2.285156 0.421875 2.394531 0.375 2.519531 0.3125 C 2.644531 0.25 2.707031 0.140625 2.707031 -0.015625 C 2.707031 -0.09375 2.691406 -0.15625 2.644531 -0.203125 C 2.550781 -0.296875 2.472656 -0.375 2.425781 -0.4375 C 2.378906 -0.5 2.332031 -0.546875 2.285156 -0.59375 C 2.238281 -0.640625 2.175781 -0.671875 2.113281 -0.6875 C 2.050781 -0.703125 1.953125 -0.71875 1.84375 -0.71875 C 1.828125 -0.71875 1.8125 -0.71875 1.78125 -0.71875 C 1.75 -0.71875 1.71875 -0.703125 1.671875 -0.671875 C 1.625 -0.640625 1.578125 -0.59375 1.53125 -0.515625 C 1.484375 -0.4375 1.4375 -0.3125 1.390625 -0.140625 Z M 1.359375 -0.21875 "/></g></g></g><g fill="#ffffff" fill-opacity="1"><g transform="translate(395.704775, 52.414903)"><g><path d="M 2 1.390625 C 2.019531 1.265625 2.082031 1.109375 2.175781 0.9375 C 2.269531 0.765625 2.378906 0.578125 2.519531 0.375 L 2.472656 0.375 C 2.472656 0.34375 2.472656 0.328125 2.488281 0.3125 C 2.503906 0.328125 2.519531 0.328125 2.535156 0.328125 C 2.550781 0.328125 2.566406 0.328125 2.582031 0.34375 C 2.582031 0.3125 2.597656 0.28125 2.628906 0.234375 C 2.660156 0.1875 2.691406 0.140625 2.738281 0.09375 C 2.785156 0.046875 2.816406 0 2.847656 -0.046875 C 2.878906 -0.09375 2.894531 -0.140625 2.894531 -0.1875 C 2.894531 -0.203125 2.894531 -0.21875 2.878906 -0.25 C 2.863281 -0.28125 2.863281 -0.296875 2.863281 -0.3125 C 2.863281 -0.34375 2.878906 -0.375 2.910156 -0.40625 L 2.910156 -0.359375 C 2.925781 -0.359375 2.941406 -0.359375 2.957031 -0.359375 C 2.972656 -0.359375 2.988281 -0.359375 3.003906 -0.359375 C 3.003906 -0.34375 3.003906 -0.328125 3.003906 -0.328125 C 3.003906 -0.328125 3.003906 -0.3125 3.003906 -0.296875 C 3.035156 -0.34375 3.066406 -0.40625 3.082031 -0.46875 C 3.097656 -0.53125 3.113281 -0.59375 3.128906 -0.640625 C 3.128906 -0.65625 3.113281 -0.671875 3.097656 -0.6875 C 3.113281 -0.6875 3.128906 -0.6875 3.144531 -0.671875 C 3.175781 -0.75 3.207031 -0.828125 3.238281 -0.890625 C 3.269531 -0.953125 3.300781 -1.015625 3.332031 -1.09375 C 3.300781 -1.109375 3.285156 -1.125 3.285156 -1.140625 C 3.285156 -1.1875 3.285156 -1.21875 3.300781 -1.25 C 3.316406 -1.25 3.332031 -1.234375 3.347656 -1.21875 C 3.332031 -1.21875 3.332031 -1.1875 3.332031 -1.109375 C 3.378906 -1.1875 3.410156 -1.265625 3.441406 -1.34375 C 3.472656 -1.421875 3.503906 -1.5 3.550781 -1.578125 C 3.566406 -1.625 3.597656 -1.65625 3.644531 -1.671875 C 3.691406 -1.6875 3.753906 -1.703125 3.816406 -1.71875 C 3.878906 -1.734375 3.941406 -1.75 4.003906 -1.765625 C 4.066406 -1.78125 4.128906 -1.828125 4.191406 -1.890625 C 4.238281 -1.890625 4.300781 -1.90625 4.378906 -1.9375 C 4.457031 -1.96875 4.535156 -2 4.613281 -2.035156 L 4.863281 -2.128906 C 4.941406 -2.160156 5.003906 -2.175781 5.050781 -2.175781 C 5.082031 -2.175781 5.113281 -2.160156 5.160156 -2.144531 C 5.269531 -2.191406 5.378906 -2.269531 5.503906 -2.363281 C 5.628906 -2.457031 5.753906 -2.550781 5.878906 -2.628906 C 5.894531 -2.628906 5.910156 -2.644531 5.941406 -2.675781 C 5.972656 -2.707031 6.019531 -2.738281 6.070312 -2.785156 C 6.117188 -2.832031 6.164062 -2.863281 6.226562 -2.894531 C 6.289062 -2.925781 6.335938 -2.941406 6.367188 -2.941406 L 6.382812 -2.941406 C 6.492188 -2.988281 6.585938 -3.019531 6.679688 -3.019531 C 6.773438 -3.019531 6.867188 -3.050781 6.976562 -3.113281 C 7.195312 -3.222656 7.367188 -3.332031 7.492188 -3.457031 C 7.617188 -3.582031 7.726562 -3.707031 7.820312 -3.847656 C 7.914062 -3.988281 8.007812 -4.128906 8.101562 -4.269531 C 8.195312 -4.410156 8.304688 -4.550781 8.445312 -4.691406 C 8.460938 -4.707031 8.492188 -4.753906 8.539062 -4.816406 C 8.585938 -4.878906 8.632812 -4.957031 8.679688 -5.050781 C 8.726562 -5.144531 8.757812 -5.253906 8.789062 -5.363281 C 8.820312 -5.472656 8.835938 -5.582031 8.835938 -5.691406 L 8.835938 -5.816406 C 8.851562 -5.925781 8.851562 -6.019531 8.851562 -6.117188 L 8.851562 -6.398438 C 8.617188 -6.851562 8.367188 -7.148438 8.117188 -7.304688 C 7.867188 -7.460938 7.523438 -7.539062 7.101562 -7.539062 C 6.976562 -7.539062 6.851562 -7.523438 6.726562 -7.492188 C 6.601562 -7.460938 6.476562 -7.429688 6.367188 -7.382812 L 6.148438 -7.273438 C 6.070312 -7.226562 5.988281 -7.210938 5.910156 -7.210938 L 5.910156 -7.476562 C 5.910156 -7.507812 5.894531 -7.539062 5.878906 -7.570312 C 5.863281 -7.601562 5.847656 -7.632812 5.847656 -7.664062 L 5.847656 -7.695312 C 5.847656 -7.742188 5.832031 -7.804688 5.816406 -7.882812 C 5.800781 -7.960938 5.785156 -8.023438 5.769531 -8.070312 C 5.738281 -8.117188 5.691406 -8.179688 5.628906 -8.257812 C 5.566406 -8.335938 5.472656 -8.414062 5.363281 -8.492188 C 5.253906 -8.570312 5.144531 -8.632812 5.035156 -8.695312 C 4.925781 -8.757812 4.800781 -8.789062 4.675781 -8.789062 L 4.675781 -8.742188 C 4.675781 -8.648438 4.644531 -8.601562 4.582031 -8.601562 C 4.566406 -8.601562 4.550781 -8.601562 4.535156 -8.601562 C 4.519531 -8.601562 4.503906 -8.601562 4.488281 -8.601562 C 4.410156 -8.554688 4.316406 -8.445312 4.222656 -8.289062 C 4.128906 -8.132812 4.035156 -7.960938 3.941406 -7.789062 C 3.941406 -7.804688 3.925781 -7.804688 3.910156 -7.789062 C 3.894531 -7.773438 3.847656 -7.695312 3.785156 -7.570312 C 3.722656 -7.445312 3.628906 -7.242188 3.519531 -6.976562 C 3.410156 -6.710938 3.253906 -6.335938 3.066406 -5.847656 C 2.878906 -5.472656 2.722656 -5.128906 2.597656 -4.800781 C 2.472656 -4.472656 2.316406 -4.128906 2.128906 -3.769531 C 2.113281 -3.691406 2.050781 -3.582031 1.953125 -3.457031 C 1.859375 -3.332031 1.75 -3.191406 1.625 -3.050781 C 1.5 -2.910156 1.359375 -2.753906 1.21875 -2.597656 C 1.078125 -2.441406 0.9375 -2.285156 0.8125 -2.144531 C 0.828125 -2.160156 0.8125 -2.144531 0.765625 -2.097656 C 0.71875 -2.050781 0.65625 -1.984375 0.59375 -1.90625 C 0.53125 -1.828125 0.46875 -1.734375 0.40625 -1.640625 C 0.34375 -1.546875 0.3125 -1.46875 0.3125 -1.390625 C 0.3125 -1.375 0.3125 -1.375 0.3125 -1.375 C 0.3125 -1.375 0.3125 -1.375 0.3125 -1.359375 C 0.28125 -1.34375 0.25 -1.3125 0.203125 -1.25 C 0.15625 -1.1875 0.125 -1.125 0.09375 -1.046875 C 0.0625 -0.96875 0.03125 -0.90625 0 -0.84375 L -0.046875 -0.75 C -0.046875 -0.71875 -0.046875 -0.703125 -0.03125 -0.6875 C -0.109375 -0.609375 -0.171875 -0.515625 -0.203125 -0.421875 C -0.234375 -0.328125 -0.28125 -0.234375 -0.34375 -0.140625 L -0.359375 -0.15625 C -0.34375 -0.21875 -0.328125 -0.265625 -0.3125 -0.3125 C -0.359375 -0.265625 -0.421875 -0.171875 -0.484375 -0.03125 C -0.546875 0.109375 -0.59375 0.28125 -0.640625 0.484375 C -0.6875 0.6875 -0.734375 0.90625 -0.765625 1.140625 C -0.796875 1.375 -0.8125 1.59375 -0.8125 1.8125 C -0.8125 1.859375 -0.8125 1.921875 -0.8125 2 C -0.8125 2.082031 -0.796875 2.160156 -0.78125 2.238281 C -0.765625 2.316406 -0.734375 2.394531 -0.6875 2.457031 C -0.640625 2.519531 -0.59375 2.550781 -0.53125 2.550781 C -0.484375 2.550781 -0.4375 2.550781 -0.375 2.550781 C -0.3125 2.550781 -0.265625 2.550781 -0.21875 2.550781 L -0.09375 2.550781 C -0.0625 2.550781 -0.03125 2.550781 0 2.550781 C 0.03125 2.550781 0.0625 2.550781 0.109375 2.550781 L 0.171875 2.550781 C 0.28125 2.488281 0.390625 2.457031 0.515625 2.457031 L 0.578125 2.488281 C 0.640625 2.425781 0.6875 2.394531 0.71875 2.394531 C 0.75 2.394531 0.796875 2.394531 0.84375 2.394531 C 0.890625 2.394531 0.953125 2.378906 1.03125 2.347656 C 1.109375 2.316406 1.21875 2.222656 1.359375 2.082031 C 1.375 2.066406 1.40625 2.035156 1.453125 1.96875 C 1.5 1.90625 1.546875 1.84375 1.59375 1.78125 C 1.640625 1.71875 1.6875 1.65625 1.734375 1.609375 C 1.78125 1.5625 1.8125 1.53125 1.828125 1.53125 C 1.84375 1.53125 1.859375 1.546875 1.875 1.5625 Z M 3.800781 -2.332031 C 3.941406 -2.535156 4.066406 -2.769531 4.175781 -3.035156 C 4.285156 -3.300781 4.394531 -3.550781 4.503906 -3.785156 C 4.488281 -3.738281 4.488281 -3.769531 4.519531 -3.863281 C 4.550781 -3.957031 4.582031 -4.066406 4.628906 -4.191406 C 4.675781 -4.316406 4.722656 -4.441406 4.769531 -4.566406 C 4.816406 -4.691406 4.863281 -4.753906 4.910156 -4.769531 C 4.925781 -4.769531 4.957031 -4.816406 5.003906 -4.910156 C 5.050781 -5.003906 5.097656 -5.113281 5.144531 -5.238281 C 5.191406 -5.363281 5.238281 -5.488281 5.285156 -5.613281 C 5.332031 -5.738281 5.378906 -5.832031 5.425781 -5.894531 C 5.441406 -5.941406 5.488281 -6.019531 5.566406 -6.148438 C 5.644531 -6.273438 5.691406 -6.445312 5.691406 -6.648438 L 5.691406 -6.773438 C 5.707031 -6.820312 5.769531 -6.867188 5.878906 -6.929688 C 5.988281 -6.992188 6.070312 -7.023438 6.101562 -7.023438 C 6.164062 -7.023438 6.226562 -7.007812 6.289062 -6.992188 C 6.351562 -6.976562 6.398438 -6.960938 6.445312 -6.960938 C 6.476562 -6.960938 6.507812 -6.960938 6.539062 -6.960938 C 6.570312 -6.960938 6.601562 -6.960938 6.632812 -6.960938 C 6.679688 -6.960938 6.710938 -6.960938 6.742188 -6.945312 C 6.773438 -6.929688 6.804688 -6.929688 6.851562 -6.929688 L 6.960938 -6.929688 C 7.023438 -6.929688 7.101562 -6.929688 7.195312 -6.914062 C 7.289062 -6.898438 7.382812 -6.882812 7.460938 -6.851562 C 7.539062 -6.820312 7.601562 -6.773438 7.664062 -6.710938 C 7.726562 -6.648438 7.757812 -6.570312 7.757812 -6.476562 C 7.757812 -6.367188 7.726562 -6.273438 7.664062 -6.210938 C 7.601562 -6.148438 7.539062 -6.070312 7.492188 -5.988281 C 7.476562 -5.941406 7.429688 -5.847656 7.351562 -5.722656 C 7.273438 -5.597656 7.164062 -5.441406 7.039062 -5.253906 C 6.914062 -5.066406 6.773438 -4.863281 6.617188 -4.644531 C 6.460938 -4.425781 6.289062 -4.191406 6.117188 -3.957031 C 6.070312 -3.894531 5.988281 -3.785156 5.878906 -3.628906 C 5.769531 -3.472656 5.628906 -3.316406 5.441406 -3.144531 C 5.253906 -2.972656 5.019531 -2.800781 4.738281 -2.628906 C 4.457031 -2.457031 4.128906 -2.316406 3.738281 -2.207031 Z M -0.3125 2.222656 C -0.359375 2.050781 -0.390625 1.875 -0.390625 1.71875 C -0.390625 1.515625 -0.375 1.3125 -0.34375 1.125 C -0.3125 0.9375 -0.265625 0.734375 -0.1875 0.5 C -0.1875 0.484375 -0.1875 0.46875 -0.1875 0.46875 C -0.1875 0.46875 -0.1875 0.453125 -0.1875 0.4375 C -0.1875 0.40625 -0.1875 0.390625 -0.171875 0.375 L -0.171875 0.421875 C -0.15625 0.421875 -0.140625 0.40625 -0.140625 0.375 C -0.140625 0.34375 -0.125 0.3125 -0.109375 0.296875 C -0.125 0.28125 -0.125 0.265625 -0.125 0.25 C -0.125 0.234375 -0.125 0.234375 -0.125 0.234375 C -0.125 0.234375 -0.125 0.234375 -0.125 0.21875 C -0.109375 0.203125 -0.09375 0.171875 -0.09375 0.140625 C -0.09375 0.125 -0.09375 0.109375 -0.09375 0.09375 C -0.09375 0.078125 -0.09375 0.0625 -0.09375 0.046875 C -0.078125 0.03125 -0.0625 0.03125 -0.03125 0.03125 L -0.03125 0.046875 C -0.03125 0.0625 -0.03125 0.0625 -0.03125 0.0625 C -0.03125 0.0625 -0.03125 0.0625 -0.03125 0.078125 C -0.015625 0.03125 0.015625 -0.03125 0.0625 -0.109375 L 0.046875 -0.140625 L 0.046875 -0.15625 C 0.0625 -0.171875 0.078125 -0.1875 0.09375 -0.203125 C 0.078125 -0.203125 0.0625 -0.21875 0.046875 -0.25 L 0.078125 -0.25 C 0.09375 -0.25 0.109375 -0.28125 0.125 -0.34375 C 0.140625 -0.40625 0.171875 -0.46875 0.21875 -0.515625 C 0.21875 -0.5625 0.171875 -0.578125 0.09375 -0.578125 C 0.09375 -0.609375 0.109375 -0.625 0.140625 -0.625 L 0.171875 -0.625 C 0.234375 -0.625 0.28125 -0.671875 0.296875 -0.75 L 0.296875 -0.765625 C 0.3125 -0.765625 0.328125 -0.765625 0.34375 -0.75 C 0.34375 -0.796875 0.359375 -0.828125 0.390625 -0.859375 C 0.421875 -0.890625 0.4375 -0.90625 0.4375 -0.921875 L 0.4375 -0.9375 L 0.40625 -0.953125 C 0.390625 -0.953125 0.390625 -0.953125 0.40625 -0.96875 L 0.421875 -0.984375 C 0.4375 -0.984375 0.453125 -0.984375 0.46875 -0.96875 C 0.546875 -1.046875 0.609375 -1.125 0.65625 -1.203125 C 0.65625 -1.21875 0.65625 -1.21875 0.65625 -1.21875 C 0.65625 -1.21875 0.65625 -1.21875 0.65625 -1.234375 C 0.671875 -1.234375 0.6875 -1.265625 0.71875 -1.3125 L 0.796875 -1.484375 C 0.828125 -1.546875 0.859375 -1.609375 0.875 -1.65625 L 0.90625 -1.734375 L 0.9375 -1.671875 C 1.046875 -1.8125 1.15625 -1.953125 1.265625 -2.097656 C 1.375 -2.238281 1.484375 -2.378906 1.59375 -2.519531 C 1.59375 -2.503906 1.59375 -2.503906 1.609375 -2.503906 C 1.59375 -2.457031 1.578125 -2.410156 1.5625 -2.363281 C 1.546875 -2.316406 1.53125 -2.269531 1.515625 -2.222656 C 1.46875 -2.144531 1.390625 -1.96875 1.28125 -1.71875 C 1.171875 -1.46875 1.046875 -1.171875 0.921875 -0.84375 C 0.796875 -0.515625 0.65625 -0.15625 0.515625 0.234375 C 0.375 0.625 0.25 1 0.140625 1.359375 L 0.078125 1.578125 C 0.046875 1.6875 0.015625 1.796875 -0.015625 1.921875 C -0.046875 2.050781 -0.078125 2.160156 -0.125 2.253906 C -0.171875 2.347656 -0.21875 2.394531 -0.265625 2.410156 Z M 3.269531 -0.921875 C 3.253906 -0.890625 3.238281 -0.875 3.222656 -0.875 C 3.207031 -0.875 3.191406 -0.890625 3.175781 -0.90625 C 3.191406 -0.9375 3.207031 -0.953125 3.238281 -0.953125 C 3.253906 -0.953125 3.269531 -0.9375 3.285156 -0.921875 Z M 3.269531 -0.921875 "/></g></g></g><g fill="#ffffff" fill-opacity="1"><g transform="translate(402.930563, 52.414903)"><g><path d="M 7.851562 -7.226562 C 7.835938 -7.195312 7.820312 -7.179688 7.804688 -7.179688 C 7.789062 -7.179688 7.773438 -7.195312 7.757812 -7.210938 C 7.742188 -7.226562 7.726562 -7.242188 7.710938 -7.242188 L 7.585938 -7.085938 C 7.539062 -7.039062 7.476562 -6.992188 7.398438 -6.960938 L 7.335938 -7.054688 C 7.320312 -7.007812 7.257812 -6.945312 7.164062 -6.867188 C 7.070312 -6.789062 7.023438 -6.726562 7.023438 -6.695312 C 7.023438 -6.617188 6.976562 -6.523438 6.898438 -6.414062 C 6.820312 -6.304688 6.726562 -6.195312 6.617188 -6.085938 C 6.507812 -5.972656 6.367188 -5.847656 6.210938 -5.707031 C 6.019531 -5.488281 5.816406 -5.285156 5.613281 -5.097656 C 5.410156 -4.910156 5.207031 -4.738281 5.003906 -4.566406 C 5.019531 -4.566406 5.035156 -4.566406 5.050781 -4.550781 C 5.035156 -4.535156 5.019531 -4.535156 5.003906 -4.535156 C 4.988281 -4.535156 4.988281 -4.535156 4.988281 -4.519531 C 4.972656 -4.519531 4.972656 -4.519531 4.972656 -4.519531 C 4.972656 -4.519531 4.972656 -4.519531 4.957031 -4.519531 C 4.941406 -4.519531 4.910156 -4.503906 4.863281 -4.457031 C 4.816406 -4.410156 4.753906 -4.363281 4.691406 -4.300781 C 4.628906 -4.238281 4.566406 -4.175781 4.503906 -4.128906 C 4.441406 -4.082031 4.394531 -4.050781 4.378906 -4.035156 C 4.269531 -3.941406 4.160156 -3.847656 4.035156 -3.753906 C 3.910156 -3.660156 3.785156 -3.582031 3.675781 -3.503906 C 3.738281 -3.707031 3.816406 -3.910156 3.910156 -4.097656 C 4.003906 -4.285156 4.082031 -4.457031 4.160156 -4.597656 C 4.238281 -4.738281 4.300781 -4.863281 4.363281 -4.957031 C 4.425781 -5.050781 4.457031 -5.113281 4.472656 -5.144531 C 4.550781 -5.222656 4.613281 -5.316406 4.660156 -5.425781 C 4.707031 -5.535156 4.753906 -5.644531 4.785156 -5.769531 C 4.816406 -5.894531 4.832031 -6.003906 4.847656 -6.101562 C 4.863281 -6.195312 4.863281 -6.257812 4.863281 -6.289062 C 4.878906 -6.382812 4.894531 -6.476562 4.910156 -6.570312 C 4.925781 -6.664062 4.925781 -6.757812 4.925781 -6.851562 C 4.925781 -6.992188 4.910156 -7.101562 4.878906 -7.179688 C 4.847656 -7.257812 4.816406 -7.320312 4.785156 -7.367188 C 4.753906 -7.414062 4.722656 -7.445312 4.707031 -7.460938 C 4.691406 -7.476562 4.691406 -7.476562 4.707031 -7.476562 L 4.691406 -7.476562 C 4.613281 -7.539062 4.535156 -7.632812 4.472656 -7.773438 C 4.410156 -7.914062 4.316406 -8.023438 4.207031 -8.101562 L 4.082031 -8.164062 C 4.003906 -8.210938 3.910156 -8.257812 3.816406 -8.320312 C 3.722656 -8.382812 3.628906 -8.445312 3.535156 -8.492188 C 3.441406 -8.539062 3.394531 -8.570312 3.394531 -8.585938 C 3.347656 -8.632812 3.285156 -8.664062 3.207031 -8.664062 C 3.128906 -8.664062 3.066406 -8.679688 3.003906 -8.695312 C 2.878906 -8.617188 2.769531 -8.507812 2.691406 -8.367188 C 2.613281 -8.226562 2.550781 -8.148438 2.519531 -8.132812 C 2.488281 -8.117188 2.457031 -8.054688 2.425781 -7.960938 C 2.394531 -7.867188 2.363281 -7.757812 2.332031 -7.648438 C 2.300781 -7.539062 2.269531 -7.429688 2.238281 -7.335938 C 2.207031 -7.242188 2.191406 -7.179688 2.191406 -7.164062 C 1.78125 -6.257812 1.421875 -5.394531 1.109375 -4.582031 C 0.796875 -3.769531 0.515625 -3.050781 0.28125 -2.425781 C 0.046875 -1.796875 -0.140625 -1.28125 -0.265625 -0.890625 C -0.390625 -0.5 -0.46875 -0.265625 -0.5 -0.1875 C -0.578125 0.015625 -0.65625 0.21875 -0.734375 0.40625 C -0.8125 0.59375 -0.890625 0.796875 -0.953125 1 C -1.03125 1.21875 -1.078125 1.375 -1.109375 1.46875 C -1.140625 1.5625 -1.15625 1.625 -1.171875 1.65625 C -1.1875 1.6875 -1.1875 1.71875 -1.1875 1.734375 C -1.1875 1.75 -1.1875 1.796875 -1.1875 1.875 C -1.1875 1.890625 -1.1875 1.90625 -1.171875 1.921875 L -1.140625 1.984375 L -1.15625 1.984375 C -1.109375 2.019531 -1.078125 2.050781 -1.0625 2.066406 C -1.046875 2.082031 -1.03125 2.113281 -1.015625 2.144531 C -1 2.175781 -0.96875 2.207031 -0.921875 2.222656 C -0.875 2.238281 -0.8125 2.269531 -0.71875 2.300781 C -0.65625 2.316406 -0.609375 2.363281 -0.578125 2.425781 C -0.453125 2.425781 -0.359375 2.410156 -0.296875 2.363281 C -0.234375 2.316406 -0.1875 2.269531 -0.15625 2.207031 C -0.125 2.144531 -0.09375 2.097656 -0.078125 2.050781 C -0.0625 2 -0.03125 1.984375 0.015625 1.984375 C 0.03125 1.984375 0.046875 1.984375 0.0625 1.984375 C 0.078125 1.984375 0.09375 1.984375 0.109375 1.984375 C 0.1875 1.828125 0.25 1.671875 0.28125 1.5 C 0.3125 1.328125 0.375 1.171875 0.46875 1.015625 C 0.46875 0.984375 0.5 0.953125 0.546875 0.921875 C 0.59375 0.890625 0.65625 0.859375 0.71875 0.828125 C 0.78125 0.796875 0.84375 0.765625 0.90625 0.734375 C 0.96875 0.703125 1 0.671875 1.015625 0.640625 C 1.109375 0.625 1.171875 0.578125 1.203125 0.5 C 1.234375 0.421875 1.28125 0.359375 1.34375 0.296875 L 1.359375 0.328125 C 1.484375 0.203125 1.59375 0.078125 1.6875 -0.046875 C 1.78125 -0.171875 1.828125 -0.234375 1.84375 -0.25 C 2.097656 -0.453125 2.300781 -0.734375 2.457031 -1.09375 C 2.613281 -1.453125 2.800781 -1.875 3.035156 -2.347656 C 3.050781 -2.394531 3.066406 -2.425781 3.082031 -2.457031 C 3.097656 -2.488281 3.113281 -2.535156 3.128906 -2.582031 C 3.144531 -2.566406 3.160156 -2.550781 3.175781 -2.535156 L 3.144531 -2.535156 C 3.144531 -2.488281 3.160156 -2.425781 3.207031 -2.347656 C 3.222656 -2.300781 3.238281 -2.269531 3.253906 -2.238281 L 3.253906 -2.207031 C 3.253906 -2.191406 3.269531 -2.144531 3.300781 -2.082031 C 3.332031 -2.019531 3.378906 -1.9375 3.425781 -1.84375 C 3.472656 -1.75 3.519531 -1.65625 3.566406 -1.5625 C 3.613281 -1.46875 3.644531 -1.390625 3.660156 -1.328125 C 3.863281 -0.828125 4.019531 -0.375 4.144531 0.03125 C 4.269531 0.4375 4.378906 0.796875 4.457031 1.109375 C 4.535156 1.421875 4.597656 1.6875 4.644531 1.90625 L 4.753906 2.457031 C 4.769531 2.503906 4.785156 2.550781 4.800781 2.597656 C 4.816406 2.644531 4.847656 2.675781 4.894531 2.675781 C 4.941406 2.675781 4.972656 2.644531 4.988281 2.597656 C 5.003906 2.550781 5.019531 2.488281 5.019531 2.425781 C 5.019531 2.222656 5.003906 2.066406 4.972656 1.9375 C 4.941406 1.8125 4.910156 1.703125 4.878906 1.609375 C 4.847656 1.515625 4.816406 1.4375 4.785156 1.375 C 4.753906 1.3125 4.738281 1.234375 4.722656 1.15625 C 4.644531 0.890625 4.566406 0.609375 4.488281 0.328125 C 4.410156 0.046875 4.347656 -0.234375 4.300781 -0.5 C 4.175781 -1 4.082031 -1.375 4.019531 -1.625 C 3.957031 -1.875 3.910156 -2.066406 3.878906 -2.207031 C 3.847656 -2.347656 3.816406 -2.457031 3.785156 -2.535156 C 3.753906 -2.613281 3.707031 -2.722656 3.644531 -2.863281 C 3.691406 -2.910156 3.753906 -2.957031 3.816406 -3.003906 C 3.878906 -3.050781 3.941406 -3.097656 4.003906 -3.128906 C 4.066406 -3.160156 4.113281 -3.191406 4.144531 -3.207031 L 4.191406 -3.222656 C 4.269531 -3.269531 4.378906 -3.332031 4.503906 -3.410156 C 4.628906 -3.488281 4.691406 -3.550781 4.691406 -3.597656 L 4.722656 -3.597656 C 4.753906 -3.597656 4.816406 -3.644531 4.925781 -3.722656 C 5.035156 -3.800781 5.097656 -3.878906 5.113281 -3.957031 C 5.113281 -3.941406 5.113281 -3.925781 5.113281 -3.925781 C 5.113281 -3.925781 5.113281 -3.910156 5.113281 -3.894531 C 5.128906 -3.941406 5.144531 -3.972656 5.160156 -3.988281 C 5.160156 -3.972656 5.160156 -3.972656 5.175781 -3.972656 L 5.207031 -3.972656 C 5.207031 -4.019531 5.238281 -4.050781 5.300781 -4.066406 C 5.363281 -4.082031 5.394531 -4.113281 5.394531 -4.175781 C 5.394531 -4.191406 5.394531 -4.207031 5.378906 -4.222656 L 5.425781 -4.175781 C 5.425781 -4.191406 5.457031 -4.238281 5.519531 -4.316406 C 5.582031 -4.394531 5.660156 -4.472656 5.738281 -4.550781 C 5.816406 -4.628906 5.894531 -4.691406 5.957031 -4.738281 C 6.019531 -4.785156 6.054688 -4.800781 6.039062 -4.785156 C 6.148438 -4.941406 6.226562 -5.035156 6.273438 -5.066406 C 6.320312 -5.097656 6.351562 -5.128906 6.382812 -5.144531 C 6.414062 -5.160156 6.445312 -5.191406 6.492188 -5.238281 C 6.539062 -5.285156 6.617188 -5.378906 6.742188 -5.535156 C 6.742188 -5.597656 6.773438 -5.660156 6.820312 -5.738281 C 6.867188 -5.816406 6.914062 -5.878906 6.976562 -5.941406 C 7.039062 -6.003906 7.085938 -6.054688 7.132812 -6.085938 C 7.179688 -6.117188 7.195312 -6.132812 7.179688 -6.117188 C 7.382812 -6.414062 7.507812 -6.632812 7.570312 -6.773438 C 7.632812 -6.914062 7.664062 -6.992188 7.664062 -7.023438 C 7.664062 -7.070312 7.632812 -7.101562 7.570312 -7.117188 Z M 7.851562 -7.226562 "/></g></g></g></svg>