<svg width="543" height="53" viewBox="0 0 543 53" fill="none" xmlns="http://www.w3.org/2000/svg">
<path d="M139.62 48.0102C151.51 48.0102 159.281 41.0206 161.76 28.6768L167.182 1.37476H156.604L151.375 27.432C150.005 34.4893 146.349 38.1456 140.469 38.1456C134.854 38.1456 132.765 34.7498 134.135 27.6977L139.427 1.37476H128.844L123.552 27.8279C121.073 40.1039 127.344 48.0102 139.62 48.0102Z" fill="white"/>
<path d="M180.368 47.0935H190.749L193.952 31.2862L216.874 1.37476H204.139L196.301 11.9529L190.098 20.2498L187.223 11.9529L183.696 1.37476H172.853L183.696 30.6352L180.368 47.0935Z" fill="white"/>
<path d="M229.14 47.0935H239.656L242.661 32.0727L245.275 19.5987L253.046 35.7966H260.229L274.338 19.7914L271.791 32.0727L268.786 47.0935H279.302L288.447 1.37476H278.911L257.942 25.0831L246.447 1.37476H238.286L229.14 47.0935Z" fill="white"/>
<path d="M312.731 48.0102C326.643 48.0102 338.138 38.604 340.877 25.0154C343.69 10.7133 335.195 0.45813 320.435 0.45813C306.523 0.45813 295.028 9.86438 292.284 23.4477C289.476 37.755 297.966 48.0102 312.731 48.0102ZM302.799 24.4321C304.435 16.1352 311.424 10.3227 319.586 10.3227C327.554 10.3227 331.997 15.8748 330.362 24.0363C328.664 32.3331 321.742 38.1456 313.58 38.1456C305.544 38.1456 301.169 32.5935 302.799 24.4321Z" fill="white"/>
<path d="M344.719 47.0935H366.469C375.875 47.0935 382.667 42.3904 384.172 35.0102C385.214 29.9164 383.386 25.8643 379.599 23.8435C383.516 21.8175 386.063 18.4841 386.849 14.3695C388.417 6.72892 383.188 1.37476 373.98 1.37476H353.865L344.719 47.0935ZM356.672 38.8643L358.896 27.8904H368.558C372.542 27.8904 374.438 29.9164 373.787 33.182C373.068 36.7081 370.256 38.8643 366.141 38.8643H356.672ZM360.459 19.9893L362.553 9.60392H371.172C375.089 9.60392 376.792 11.432 376.204 14.6352C375.547 18.031 372.87 19.9893 368.886 19.9893H360.459Z" fill="white"/>
<path d="M389.71 47.0935H400.294L409.434 1.37476H398.856L389.71 47.0935Z" fill="white"/>
<path d="M411.259 47.0935H441.629L443.592 37.3643H423.733L430.983 1.37476H420.405L411.259 47.0935Z" fill="white"/>
<path d="M448.936 47.0935H479.702L481.462 38.2758H461.218L463.244 28.281H481.009L482.77 19.5987H464.942L466.832 10.1248H486.426L488.124 1.37476H458.082L448.936 47.0935Z" fill="white"/>
<mask id="mask0_5_263" style="mask-type:luminance" maskUnits="userSpaceOnUse" x="6" y="0" width="94" height="52">
<path d="M6.53644 0H99.8698V51.8229H6.53644V0Z" fill="white"/>
</mask>
<g mask="url(#mask0_5_263)">
<path fill-rule="evenodd" clip-rule="evenodd" d="M83.4114 24.9375C85.2708 25.599 86.4166 26.9063 86.8541 28.849C87.2916 30.7917 86.6302 33.3021 84.8594 36.3698C83.625 38.5208 82.1562 40.5 80.4479 42.3177C78.7396 44.1302 76.7135 45.7031 74.3698 47.0365C72.0208 48.3646 69.2916 49.4167 66.1771 50.1823C63.0573 50.9479 59.4844 51.3333 55.4583 51.3333H6.97394L36.3073 34.1302L34 38.1354H63.1302C64.8594 38.1354 66.2864 37.8281 67.4062 37.2135C68.5208 36.599 69.4166 35.7031 70.0937 34.5313C70.7448 33.401 70.8541 32.5469 70.4271 31.9583C70 31.3698 68.9219 31.0781 67.1875 31.0781H41.5729L60.5104 20.1042H73.7291C74.901 20.1042 76.0729 19.8594 77.2448 19.375C78.4166 18.8906 79.3854 17.9792 80.151 16.651C80.8854 15.3698 80.9271 14.5 80.276 14.0417C79.625 13.5833 78.7344 13.349 77.6146 13.349H36.7708L52.5677 0H84.6041C87.6666 0 90.2604 0.291666 92.3958 0.880208C94.526 1.46875 96.125 2.36458 97.1927 3.56771C98.2604 4.77083 98.7604 6.25521 98.6875 8.01563C98.6146 9.78125 97.901 11.8438 96.5469 14.1927C95.6614 15.7292 94.6823 17.0833 93.5937 18.2604C92.5104 19.4375 91.3958 20.474 90.2396 21.3698C89.0885 22.2656 87.9219 23.0052 86.7448 23.5938C85.5677 24.1823 84.4531 24.6302 83.4114 24.9375Z" fill="white"/>
</g>
<mask id="mask1_5_263" style="mask-type:luminance" maskUnits="userSpaceOnUse" x="98" y="0" width="67" height="6">
<path d="M98.5364 0H164.844V5.15625H98.5364V0Z" fill="white"/>
</mask>
<g mask="url(#mask1_5_263)">
<path fill-rule="evenodd" clip-rule="evenodd" d="M99.2916 0H164.781L103.26 5.09375C102.917 3.89583 102.318 2.78646 101.453 1.8125C100.818 1.09896 100.089 0.5 99.2916 0Z" fill="white"/>
</g>
<path fill-rule="evenodd" clip-rule="evenodd" d="M103.323 10.1927H150.328L101.828 14.2032C102.464 12.9323 103.01 11.5782 103.323 10.1927Z" fill="white"/>
<path fill-rule="evenodd" clip-rule="evenodd" d="M97.5156 20.3802H139.573L93.0989 24.2292C93.4531 23.9792 93.8021 23.724 94.1458 23.4584C95.3437 22.5209 96.4687 21.4896 97.5156 20.3802Z" fill="white"/>
<path fill-rule="evenodd" clip-rule="evenodd" d="M91.8958 30.5729H127.63L91.3125 33.5781C91.625 32.5937 91.8385 31.5833 91.8958 30.5729Z" fill="white"/>
<path fill-rule="evenodd" clip-rule="evenodd" d="M87.4375 40.7656H111.604L85.75 42.901C86.3438 42.2135 86.9063 41.5 87.4375 40.7656Z" fill="white"/>
<mask id="mask2_5_263" style="mask-type:luminance" maskUnits="userSpaceOnUse" x="0" y="0" width="63" height="53">
<path d="M0 0H62.5365V52.1354H0V0Z" fill="white"/>
</mask>
<g mask="url(#mask2_5_263)">
<path fill-rule="evenodd" clip-rule="evenodd" d="M37.3958 16.2865L56.6667 0H34.0885L15 19.1563H32.8333L-0.03125 52.1406L61.8438 16.2865H37.3958Z" fill="white"/>
</g>
<path d="M481.664 45.4178C481.664 45.4803 481.706 45.5636 481.789 45.6678C481.872 45.7719 481.956 45.8761 482.06 45.9594C482.164 46.0428 482.289 46.1261 482.414 46.1886C482.544 46.2511 482.648 46.2928 482.753 46.2928C482.898 46.2719 483.044 46.2094 483.211 46.1261C483.378 46.0428 483.461 45.8969 483.461 45.6886C483.461 45.5844 483.44 45.5011 483.378 45.4386C483.253 45.3136 483.148 45.2094 483.086 45.1261C483.023 45.0428 482.961 44.9803 482.898 44.9178C482.836 44.8553 482.753 44.8136 482.669 44.7928C482.586 44.7719 482.456 44.7511 482.31 44.7511C482.289 44.7511 482.268 44.7511 482.227 44.7511C482.185 44.7511 482.143 44.7719 482.081 44.8136C482.018 44.8553 481.956 44.9178 481.893 45.0219C481.831 45.1261 481.768 45.2928 481.706 45.5219L481.664 45.4178Z" fill="white"/>
<path d="M494.949 37.3241C494.949 37.2824 494.928 37.2616 494.887 37.2616C494.845 37.2616 494.803 37.2616 494.782 37.2407C494.845 37.1366 494.887 37.0532 494.928 36.9699C494.97 36.8866 495.012 36.8032 495.074 36.7199L495.116 36.7616C495.116 36.7407 495.116 36.7199 495.116 36.6991C495.116 36.6782 495.157 36.6782 495.22 36.6782H495.282L495.199 36.5949C495.178 36.5741 495.157 36.5324 495.157 36.4699C495.157 36.4074 495.178 36.3657 495.241 36.3449C495.303 36.3241 495.324 36.2824 495.324 36.2199C495.324 36.1991 495.324 36.1782 495.303 36.1574C495.282 36.1366 495.282 36.1157 495.282 36.0949C495.282 35.9907 495.303 35.8866 495.366 35.7824C495.428 35.6782 495.449 35.5532 495.449 35.4074C495.47 35.4074 495.491 35.4282 495.512 35.4907C495.512 35.4699 495.512 35.4491 495.512 35.4282C495.512 35.4074 495.512 35.3866 495.512 35.3657C495.512 35.3032 495.532 35.2199 495.595 35.1366C495.595 35.1157 495.574 35.0949 495.553 35.0741C495.532 35.0532 495.512 35.0324 495.512 35.0116C495.512 34.9491 495.532 34.9074 495.574 34.8866C495.574 34.9074 495.574 34.9282 495.574 34.9491L495.595 35.0116C495.595 34.9907 495.595 34.9699 495.595 34.9491C495.595 34.9282 495.595 34.9074 495.595 34.8866C495.595 34.6991 495.532 34.5324 495.407 34.3657C495.282 34.1991 495.116 34.0532 494.928 33.9282C494.741 33.8032 494.532 33.6991 494.303 33.6157C494.074 33.5324 493.866 33.4907 493.678 33.4907C493.595 33.4907 493.512 33.5116 493.428 33.5324C493.345 33.5532 493.262 33.5741 493.178 33.5741C493.137 33.5741 493.095 33.5532 493.053 33.5324C493.012 33.5116 492.949 33.4907 492.887 33.4907C492.907 33.4907 492.887 33.4907 492.824 33.4907C492.762 33.4907 492.678 33.5116 492.574 33.5324C492.47 33.5532 492.366 33.5741 492.262 33.5949C492.157 33.6157 492.095 33.6574 492.074 33.6991C492.053 33.7199 492.032 33.7199 492.012 33.6991C491.991 33.6782 491.97 33.6782 491.949 33.6782C491.715 33.6991 491.465 33.7616 491.194 33.8657C490.923 33.9699 490.694 34.0532 490.486 34.1157C490.423 34.1366 490.319 34.1782 490.194 34.2407C490.069 34.3032 489.944 34.3657 489.819 34.4282C489.694 34.4907 489.569 34.5532 489.444 34.6157C489.319 34.6782 489.215 34.7199 489.152 34.7407C488.944 34.7824 488.777 34.8866 488.673 35.0324C488.569 35.1782 488.444 35.3032 488.298 35.4074C488.194 35.4699 488.069 35.5741 487.902 35.7199C487.736 35.8657 487.569 36.0532 487.381 36.2616C487.194 36.4699 487.006 36.6991 486.84 36.9282C486.673 37.1574 486.527 37.3866 486.423 37.6157C486.23 37.8918 486.085 38.1001 485.98 38.2668C485.876 38.4334 485.772 38.6001 485.689 38.7459C485.605 38.8918 485.501 39.0584 485.397 39.2459C485.293 39.4334 485.147 39.7043 484.98 40.0584C484.939 40.1209 484.876 40.2459 484.793 40.4126C484.71 40.5793 484.626 40.7459 484.543 40.9126C484.46 41.0793 484.376 41.2459 484.314 41.4126C484.251 41.5793 484.21 41.7043 484.21 41.7668C484.23 41.7668 484.251 41.7668 484.251 41.7459C484.251 41.7251 484.251 41.7043 484.272 41.6834V41.7668C484.272 41.7876 484.272 41.8084 484.251 41.8293H484.21C484.189 41.8293 484.168 41.8501 484.168 41.8709C484.168 41.8918 484.147 41.9126 484.126 41.9334L484.168 42.0168C484.126 42.0168 484.085 42.0793 484.022 42.2043C483.96 42.3293 483.918 42.4751 483.876 42.6418C483.835 42.8084 483.793 42.9751 483.751 43.147C483.71 43.3136 483.689 43.4386 483.689 43.522C483.689 43.5428 483.689 43.5636 483.689 43.5636C483.689 43.5636 483.689 43.5845 483.689 43.6053C483.689 43.6261 483.689 43.6261 483.668 43.6261C483.647 43.6261 483.626 43.6261 483.605 43.647C483.605 43.6678 483.605 43.6886 483.605 43.7095C483.605 43.7303 483.605 43.7511 483.605 43.772C483.605 43.7928 483.605 43.8345 483.605 43.8761C483.605 43.9178 483.605 43.9595 483.605 43.9803C483.605 44.0011 483.605 44.0428 483.626 44.0845C483.647 44.1261 483.647 44.1678 483.647 44.1886L483.605 44.3136C483.585 44.3553 483.585 44.397 483.585 44.4386C483.605 44.7928 483.689 45.1261 483.835 45.4178C483.98 45.7095 484.147 45.9595 484.355 46.1886C484.564 46.4178 484.793 46.6053 485.043 46.7511C485.293 46.897 485.543 47.0011 485.793 47.0636C485.793 47.0428 485.793 47.022 485.814 47.0011C485.876 47.0636 485.96 47.1053 486.064 47.1261C486.168 47.147 486.23 47.1678 486.251 47.1678C486.272 47.1678 486.293 47.1678 486.314 47.1678C486.335 47.1678 486.355 47.1678 486.376 47.1678C486.402 47.1678 486.423 47.1678 486.444 47.1678C486.465 47.1678 486.486 47.1678 486.506 47.1678C486.527 47.1678 486.548 47.1678 486.569 47.147C486.59 47.1261 486.611 47.1261 486.631 47.1261C486.652 47.1261 486.652 47.1261 486.652 47.147C486.652 47.1886 486.652 47.2303 486.631 47.2511C486.673 47.2303 486.715 47.2095 486.756 47.2095C486.798 47.2095 486.84 47.2095 486.861 47.1886C486.861 47.2095 486.861 47.2303 486.84 47.2511C486.861 47.2511 486.881 47.2511 486.902 47.272C486.923 47.2928 486.944 47.2928 486.965 47.2928C486.986 47.2928 487.006 47.2928 487.027 47.272C487.048 47.2511 487.069 47.2303 487.09 47.2095C487.09 47.2303 487.111 47.2511 487.173 47.2511C487.236 47.2511 487.298 47.2511 487.361 47.272C487.444 47.272 487.548 47.272 487.673 47.272C487.798 47.272 487.881 47.2511 487.923 47.2095C487.944 47.2095 487.923 47.1886 487.861 47.147C487.798 47.1053 487.756 47.0845 487.736 47.0636C487.798 47.0428 487.881 47.022 487.986 47.022C488.09 47.022 488.173 47.022 488.256 47.022C488.319 47.022 488.361 47.022 488.402 47.0428C488.34 47.1053 488.277 47.147 488.215 47.147C488.152 47.147 488.09 47.1886 488.048 47.2511H488.09C488.131 47.2511 488.173 47.2511 488.215 47.2303C488.256 47.2095 488.298 47.2095 488.361 47.2095H488.402C488.402 47.1886 488.402 47.1678 488.381 47.147H488.548C488.527 47.1678 488.506 47.1678 488.486 47.1678H488.465C488.527 47.1678 488.631 47.147 488.777 47.0845C488.923 47.022 489.09 46.9595 489.277 46.897C489.465 46.8345 489.631 46.772 489.798 46.7095C489.965 46.647 490.111 46.6261 490.215 46.6261L490.173 46.5428C490.194 46.522 490.215 46.522 490.236 46.522C490.256 46.522 490.256 46.5428 490.256 46.6053C490.277 46.5845 490.298 46.5636 490.319 46.5428C490.34 46.522 490.361 46.522 490.381 46.522C490.381 46.5011 490.381 46.4803 490.361 46.4595L490.277 46.5011C490.298 46.4803 490.319 46.4595 490.319 46.4386C490.319 46.4178 490.34 46.4178 490.361 46.4178C490.381 46.4178 490.402 46.4178 490.402 46.4178C490.402 46.4178 490.423 46.4178 490.444 46.4178C490.506 46.4178 490.59 46.3761 490.694 46.2928C490.652 46.3136 490.694 46.2928 490.819 46.2303C490.944 46.1678 491.09 46.0845 491.236 46.0011C491.381 45.9178 491.527 45.8345 491.673 45.7511C491.824 45.6678 491.887 45.6053 491.887 45.5845V45.5428C491.907 45.5428 491.907 45.5428 491.907 45.522C491.907 45.5011 491.907 45.4803 491.928 45.4595C491.887 45.4803 491.887 45.4803 491.949 45.4595C492.012 45.4386 492.095 45.4178 492.199 45.3761C492.303 45.3345 492.387 45.272 492.47 45.1886C492.553 45.1053 492.595 45.0011 492.595 44.8761L492.637 44.9178C492.657 44.9178 492.678 44.897 492.72 44.8553C492.762 44.8136 492.803 44.772 492.866 44.7303C492.928 44.6886 492.97 44.647 493.012 44.5845C493.053 44.522 493.074 44.4803 493.074 44.4595C493.074 44.4386 493.074 44.4386 493.074 44.4386C493.074 44.4386 493.074 44.4386 493.074 44.4178L493.095 44.397C493.116 44.4178 493.137 44.4178 493.157 44.4178C493.157 44.397 493.157 44.3761 493.157 44.3761C493.157 44.3761 493.157 44.3761 493.157 44.3553L493.178 44.3761L493.303 44.1886L493.282 44.1678C493.262 44.1886 493.241 44.1886 493.241 44.1886C493.241 44.1886 493.22 44.1886 493.199 44.2095L493.178 44.1678C493.178 44.1053 493.22 44.0636 493.282 44.0636C493.303 44.0636 493.324 44.0636 493.345 44.0636C493.366 44.0636 493.387 44.0636 493.407 44.0636C493.47 44.0636 493.512 44.0428 493.532 44.0011L493.595 43.8553C493.616 43.7928 493.657 43.7303 493.699 43.6678C493.741 43.6053 493.803 43.5428 493.907 43.4803C493.845 43.4595 493.782 43.4386 493.741 43.4178C493.699 43.397 493.637 43.3761 493.574 43.3553C493.47 43.3553 493.345 43.4178 493.22 43.522C493.095 43.6261 493.032 43.7303 493.032 43.8345L492.803 44.0636C492.657 44.2095 492.47 44.3761 492.241 44.5845C492.012 44.7928 491.762 45.0011 491.486 45.2095C491.215 45.4178 490.965 45.5845 490.736 45.7303C490.631 45.7928 490.486 45.8761 490.319 46.0011C490.152 46.1261 489.944 46.2511 489.694 46.3761C489.444 46.5011 489.173 46.6053 488.881 46.7095C488.59 46.8136 488.277 46.8553 487.944 46.8553C487.673 46.8553 487.402 46.8136 487.152 46.7303C487.111 46.7095 487.027 46.6678 486.881 46.6053C486.736 46.5428 486.59 46.4386 486.444 46.3136C486.293 46.1886 486.168 46.0428 486.043 45.8761C485.918 45.7095 485.855 45.522 485.855 45.2928C485.855 45.272 485.876 45.2511 485.897 45.2095C485.918 45.1678 485.939 45.1261 485.939 45.0636C485.96 45.0636 485.98 45.0845 485.98 45.1261C486.001 45.1053 486.001 45.1053 486.001 45.1053C486.001 45.1053 486.001 45.1053 486.022 45.0845V45.4803C486.043 45.4595 486.064 45.4386 486.064 45.4178C486.064 45.397 486.085 45.3761 486.105 45.3553C486.168 45.4178 486.21 45.4803 486.251 45.5636C486.293 45.647 486.355 45.7095 486.444 45.7303C486.444 45.7095 486.444 45.6886 486.423 45.6886C486.355 45.5845 486.293 45.5011 486.23 45.4386C486.168 45.3761 486.147 45.272 486.147 45.147C486.147 45.0011 486.147 44.8553 486.147 44.7095C486.147 44.5636 486.147 44.4178 486.168 44.272C486.168 44.2095 486.168 44.1678 486.147 44.147C486.168 44.0845 486.189 44.0011 486.23 43.9178C486.272 43.8345 486.293 43.7303 486.293 43.6261C486.293 43.6053 486.293 43.5845 486.293 43.5845C486.293 43.5845 486.293 43.5845 486.293 43.5636C486.293 43.5428 486.293 43.522 486.314 43.5011C486.335 43.4803 486.335 43.4595 486.335 43.4386V43.397L486.402 43.4595C486.402 43.4178 486.402 43.3761 486.402 43.3345C486.402 43.2928 486.402 43.2511 486.402 43.2303C486.465 43.1678 486.527 43.0636 486.59 42.9126C486.652 42.7668 486.715 42.6001 486.798 42.4126C486.881 42.2251 486.965 42.0376 487.069 41.8501C487.173 41.6626 487.298 41.4959 487.444 41.3501C487.506 41.2459 487.548 41.1209 487.59 40.9751C487.631 40.8293 487.756 40.6209 487.986 40.3501C488.006 40.3293 488.048 40.2876 488.111 40.2251C488.173 40.1626 488.236 40.0793 488.319 39.9959C488.402 39.9126 488.465 39.8293 488.527 39.7251C488.59 39.6209 488.611 39.5376 488.611 39.4543V39.4126C488.881 39.1418 489.09 38.8709 489.236 38.6001C489.381 38.3293 489.548 38.0376 489.715 37.7043C489.944 37.4699 490.111 37.2407 490.215 37.0116C490.319 36.7824 490.465 36.5532 490.652 36.3241C490.673 36.3032 490.736 36.1782 490.861 35.9491C490.986 35.7199 491.111 35.5324 491.256 35.3866C491.277 35.3657 491.361 35.3241 491.486 35.2824C491.611 35.2407 491.715 35.1574 491.824 35.0116C491.887 34.9491 491.928 34.9074 491.97 34.8866C492.012 34.8657 492.053 34.8449 492.116 34.8241C492.178 34.8032 492.241 34.7824 492.324 34.7407C492.407 34.6991 492.512 34.6157 492.637 34.4907C492.616 34.5116 492.616 34.5116 492.637 34.4907C492.657 34.4699 492.699 34.4282 492.741 34.3866C492.782 34.3449 492.845 34.3032 492.907 34.2616C492.97 34.2199 493.032 34.1991 493.095 34.1991C493.116 34.1991 493.137 34.1991 493.157 34.1991C493.178 34.1991 493.199 34.1991 493.22 34.1991C493.657 34.3449 493.949 34.5324 494.074 34.7616C494.199 34.9907 494.262 35.3032 494.262 35.7199C494.262 35.9074 494.22 36.0949 494.157 36.2824C494.095 36.4699 494.032 36.6574 493.97 36.8449C493.907 37.0324 493.845 37.2199 493.782 37.3866C493.72 37.5532 493.678 37.7251 493.678 37.8709C493.678 38.0168 493.699 38.1001 493.762 38.1209C493.824 38.1418 493.887 38.1834 493.949 38.2251C493.97 38.2043 493.991 38.1834 494.032 38.1626C494.074 38.1418 494.116 38.1418 494.137 38.1418L494.157 38.1626C494.22 38.1001 494.262 38.0793 494.282 38.0793C494.303 38.0793 494.303 38.0376 494.303 37.9751C494.282 37.9543 494.262 37.9543 494.241 37.9543C494.22 37.9543 494.199 37.9543 494.178 37.9334C494.199 37.9126 494.22 37.8709 494.241 37.8084C494.262 37.7459 494.303 37.7251 494.345 37.7251C494.366 37.7251 494.387 37.7459 494.387 37.7668C494.387 37.7876 494.387 37.8084 494.407 37.8084C494.428 37.8084 494.428 37.8084 494.428 37.8084C494.428 37.8084 494.428 37.8084 494.449 37.8084C494.449 37.7876 494.428 37.7668 494.407 37.7668C494.387 37.7668 494.366 37.7459 494.345 37.7251C494.366 37.7251 494.366 37.7251 494.366 37.7043C494.387 37.7043 494.387 37.7043 494.387 37.7043C494.387 37.7043 494.407 37.7043 494.428 37.7043C494.449 37.7043 494.47 37.7043 494.491 37.6834L494.949 37.3241ZM494.407 37.2199C494.387 37.2824 494.345 37.3032 494.303 37.2824C494.262 37.2616 494.22 37.2824 494.199 37.3449C494.178 37.3449 494.157 37.3449 494.137 37.3241C494.199 37.2616 494.241 37.2407 494.262 37.2616C494.282 37.2824 494.324 37.2824 494.387 37.2616L494.407 37.2199ZM494.47 37.7251V37.8293C494.491 37.8293 494.512 37.8084 494.532 37.7459C494.553 37.6834 494.574 37.6366 494.595 37.5949C494.553 37.5949 494.532 37.5949 494.532 37.5741C494.532 37.5532 494.512 37.5324 494.491 37.5116L494.47 37.7251ZM494.678 37.4907C494.678 37.4699 494.678 37.4491 494.678 37.4282C494.678 37.4074 494.678 37.3866 494.678 37.3657C494.678 37.3449 494.657 37.3241 494.616 37.3032C494.637 37.3241 494.637 37.3449 494.637 37.3657C494.637 37.3866 494.637 37.4074 494.657 37.4282L494.678 37.4907Z" fill="white"/>
<path d="M493.844 45.4595C494.031 45.9803 494.261 46.3345 494.531 46.522C494.802 46.7095 495.136 46.8136 495.552 46.8136C495.656 46.8136 495.761 46.7928 495.886 46.772C496.011 46.7511 496.099 46.7303 496.162 46.7303H496.245C496.391 46.7095 496.474 46.647 496.495 46.5428C496.641 46.4803 496.766 46.4178 496.891 46.3553C496.995 46.2928 497.078 46.2303 497.162 46.1678C497.245 46.1053 497.287 46.0636 497.287 46.022C497.287 46.0011 497.287 45.9803 497.287 45.9803C497.287 45.9803 497.287 45.9595 497.287 45.9386C497.308 45.9595 497.328 45.9803 497.328 46.0011C497.328 46.022 497.328 46.0428 497.349 46.0636C497.37 46.0428 497.37 46.022 497.37 46.0011C497.391 45.9803 497.433 45.9595 497.495 45.9386C497.558 45.9178 497.599 45.897 497.599 45.8761C497.578 45.8761 497.578 45.8761 497.578 45.8553V45.8136C497.599 45.8345 497.62 45.8553 497.641 45.8553C497.683 45.7928 497.745 45.772 497.849 45.7928C497.953 45.8136 498.037 45.772 498.099 45.6678C498.078 45.6678 498.058 45.6678 498.058 45.6678C498.058 45.6678 498.037 45.6678 498.016 45.6678C498.037 45.647 498.058 45.6261 498.078 45.6053C498.099 45.5845 498.12 45.5845 498.141 45.5845H498.162C498.183 45.5845 498.203 45.5845 498.224 45.5636C498.245 45.5428 498.266 45.5428 498.287 45.5428C498.287 45.5636 498.287 45.5636 498.308 45.5636C498.328 45.5845 498.349 45.5845 498.37 45.5845L498.724 45.2303V45.2095L498.683 45.1678C498.828 45.1678 498.995 45.1053 499.183 44.9803C499.37 44.8553 499.474 44.772 499.516 44.7303C499.495 44.7303 499.495 44.7303 499.495 44.7303C499.495 44.7303 499.495 44.7303 499.474 44.7303C499.495 44.7095 499.516 44.6886 499.537 44.6678C499.537 44.6886 499.537 44.7095 499.537 44.7095C499.537 44.7095 499.537 44.7303 499.537 44.7511C499.558 44.772 499.558 44.772 499.558 44.7511C499.558 44.7303 499.558 44.7095 499.558 44.6886C499.537 44.7095 499.558 44.7303 499.62 44.7303C499.683 44.7303 499.724 44.7303 499.745 44.7303C499.766 44.7303 499.808 44.6886 499.87 44.6261C499.891 44.6053 500.016 44.4803 500.245 44.2511C500.474 44.022 500.745 43.7303 501.058 43.3553C501.058 43.3761 501.058 43.397 501.058 43.397C501.058 43.397 501.058 43.4178 501.058 43.4386C501.058 43.5011 501.037 43.5428 500.995 43.5845C500.953 43.6261 500.933 43.6678 500.933 43.6886C500.953 43.6886 500.995 43.647 501.058 43.5636C501.12 43.4803 501.183 43.3761 501.245 43.2511C501.308 43.1261 501.37 43.0168 501.433 42.9126C501.5 42.8084 501.542 42.7251 501.563 42.6834C501.584 42.6834 501.625 42.6834 501.667 42.7043C501.646 42.7251 501.625 42.7459 501.625 42.7668C501.625 42.7876 501.604 42.8084 501.584 42.8293C501.646 42.7876 501.709 42.7043 501.792 42.6001C501.771 42.6418 501.834 42.5376 502 42.2876C502.167 42.0376 502.354 41.7251 502.563 41.3501C502.771 40.9751 502.979 40.5793 503.167 40.1418C503.354 39.7043 503.479 39.3084 503.542 38.9543C503.563 38.7876 503.625 38.6001 503.709 38.3709C503.792 38.1418 503.834 37.9543 503.834 37.7876V37.1782C503.834 37.0949 503.834 37.0116 503.813 36.9491C503.75 36.8241 503.709 36.7199 503.688 36.6574C503.667 36.5949 503.625 36.5116 503.584 36.4074C503.542 36.3032 503.5 36.1782 503.438 36.0324C503.375 35.8866 503.271 35.6782 503.125 35.3866C503 35.0949 502.854 34.8657 502.688 34.6991C502.521 34.5324 502.334 34.4074 502.125 34.3241C501.917 34.2407 501.709 34.1782 501.5 34.1574C501.287 34.1366 501.099 34.1157 500.912 34.0949C500.912 34.1157 500.912 34.1157 500.933 34.1157C500.912 34.1366 500.891 34.1366 500.87 34.1366C500.891 34.1366 500.912 34.1366 500.933 34.1574C500.828 34.1782 500.724 34.1991 500.62 34.2199C500.516 34.2407 500.412 34.2616 500.308 34.2824C500.266 34.2824 500.245 34.2824 500.245 34.2616C500.183 34.1157 500.078 34.0324 499.912 33.9907C499.745 33.9491 499.62 33.8449 499.516 33.6782C499.495 33.6991 499.495 33.7199 499.495 33.7407C499.495 33.7616 499.495 33.7616 499.474 33.7616C499.37 33.7407 499.266 33.7199 499.183 33.6782C499.099 33.6366 499.016 33.6157 498.933 33.6157C498.912 33.6157 498.849 33.6574 498.766 33.7407C498.683 33.8241 498.578 33.9282 498.453 34.0532C498.328 34.1782 498.203 34.3241 498.078 34.4907C497.953 34.6574 497.828 34.8032 497.724 34.9282C497.162 35.6574 496.662 36.3449 496.203 36.9907C495.74 37.6366 495.323 38.3709 494.948 39.1626C494.844 39.3918 494.74 39.6626 494.636 39.9751C494.531 40.2876 494.427 40.6209 494.344 40.9751C494.261 41.3293 494.177 41.6834 494.094 42.0584C494.011 42.4334 493.948 42.7876 493.886 43.1261C493.781 43.4595 493.719 43.7928 493.719 44.147C493.719 44.5011 493.677 44.8553 493.615 45.2095V45.522C493.615 45.647 493.656 45.7095 493.719 45.7095L493.844 45.4595ZM500.412 34.9699C500.391 34.9074 500.37 34.8449 500.328 34.7824C500.287 34.7199 500.266 34.6574 500.266 34.5949C500.266 34.5741 500.308 34.5532 500.391 34.5532C500.474 34.5532 500.537 34.5532 500.599 34.5324C500.683 34.5324 500.808 34.5532 500.953 34.5949C501.099 34.6366 501.245 34.6991 501.391 34.7824C501.542 34.8657 501.667 34.9907 501.771 35.1574C501.875 35.3241 501.917 35.5532 501.917 35.8241C501.917 36.3032 501.813 36.7824 501.604 37.2616C501.391 37.7459 501.162 38.3084 500.912 38.9334C500.912 38.9126 500.891 38.9543 500.87 39.0584C500.849 39.1626 500.808 39.2876 500.745 39.4334C500.683 39.5793 500.599 39.7251 500.516 39.8709C500.433 40.0168 500.349 40.1418 500.266 40.2251C500.058 40.6418 499.828 41.0584 499.599 41.4751C499.37 41.8918 499.162 42.2668 498.974 42.5793C498.912 42.6626 498.828 42.8084 498.724 43.0168C498.62 43.2303 498.495 43.4386 498.37 43.6678C498.245 43.897 498.099 44.1261 497.953 44.3553C497.808 44.5845 497.662 44.772 497.516 44.9178C497.412 45.0845 497.308 45.2303 497.224 45.3553C497.141 45.4803 497.037 45.5845 496.933 45.6886C496.828 45.7928 496.724 45.897 496.599 45.9803C496.474 46.0636 496.328 46.1678 496.162 46.272C496.141 46.2511 496.12 46.2303 496.12 46.1886C496.12 46.147 496.099 46.1261 496.073 46.1053C496.099 46.0845 496.12 46.0636 496.141 46.022C496.162 45.9803 496.162 45.9595 496.162 45.9386V45.897C496.162 45.8345 496.162 45.7928 496.183 45.7511C496.203 45.7095 496.224 45.6678 496.245 45.6053C496.287 45.3345 496.328 45.1261 496.37 44.9803C496.412 44.8345 496.433 44.7095 496.453 44.6053C496.474 44.5011 496.516 44.397 496.558 44.272C496.599 44.147 496.662 43.9803 496.745 43.7511C496.808 43.4803 496.933 43.2095 497.099 42.9126C497.266 42.6209 497.37 42.3293 497.433 42.0584C497.578 41.7459 497.703 41.3918 497.828 40.9751C497.953 40.5584 498.12 40.1834 498.328 39.8293C498.349 39.7876 498.433 39.6418 498.578 39.3918C498.724 39.1418 498.808 38.8293 498.849 38.4543C498.828 38.4751 498.828 38.4751 498.87 38.4334C498.912 38.3918 498.953 38.3501 498.995 38.2876C499.037 38.2251 499.078 38.1418 499.12 38.0584C499.162 37.9751 499.183 37.8918 499.183 37.8084C499.183 37.7876 499.162 37.7668 499.141 37.7668C499.12 37.7668 499.099 37.7459 499.099 37.7251C499.099 37.6157 499.183 37.4907 499.328 37.3449C499.474 37.1991 499.578 37.0324 499.641 36.8449C499.703 36.8032 499.787 36.7407 499.891 36.6574C499.995 36.5741 500.099 36.4907 500.203 36.3866C500.308 36.2824 500.391 36.1782 500.453 36.0532C500.516 35.9282 500.558 35.8032 500.558 35.6991C500.578 35.7616 500.578 35.7616 500.578 35.6991C500.578 35.6366 500.578 35.5532 500.558 35.4491C500.537 35.3449 500.516 35.2616 500.474 35.1782C500.433 35.0949 500.391 35.0532 500.349 35.0532L500.412 34.9699Z" fill="white"/>
<path d="M515.91 45.2928C515.863 45.2928 515.842 45.2928 515.842 45.272C515.842 45.2303 515.842 45.1886 515.863 45.1261C515.884 45.0636 515.91 45.022 515.931 44.9803C515.973 45.0011 515.993 45.022 515.993 45.0428C515.993 45.0636 515.993 45.1053 515.973 45.147C515.952 45.1886 515.931 45.2303 515.91 45.2511C515.91 45.2303 515.931 45.2095 515.952 45.2095C515.973 45.2095 515.993 45.1886 515.993 45.1678V45.1053C516.056 45.0845 516.098 45.0428 516.139 45.0011C516.181 44.9595 516.202 44.897 516.202 44.8345V44.7928C516.202 44.8136 516.243 44.772 516.306 44.6678C516.368 44.5636 516.452 44.4386 516.535 44.272C516.618 44.1053 516.702 43.9386 516.806 43.7511C516.91 43.5636 516.993 43.4178 517.056 43.3136L517.264 42.8918C517.368 42.7043 517.473 42.4751 517.577 42.2043C517.681 41.9334 517.764 41.6418 517.848 41.3293C517.931 41.0168 517.973 40.7043 517.973 40.3918C517.973 40.2459 517.952 40.1001 517.91 39.9751C517.91 39.9959 517.889 39.9751 517.848 39.9126C517.806 39.8501 517.764 39.7876 517.723 39.7251C517.681 39.6626 517.639 39.6001 517.598 39.5376C517.556 39.4751 517.514 39.4543 517.493 39.4543C517.514 39.4543 517.493 39.4334 517.431 39.3918C517.368 39.3501 517.306 39.3084 517.223 39.2459C517.139 39.1834 517.056 39.1418 516.952 39.1001C516.848 39.0584 516.764 39.0376 516.702 39.0376H516.681C516.618 39.0168 516.556 38.9959 516.514 38.9959C516.473 38.9959 516.431 38.9959 516.41 38.9959H516.056C515.993 38.9959 515.91 39.0168 515.822 39.0376C515.738 39.0584 515.655 39.1209 515.572 39.2043C515.572 39.2251 515.572 39.2459 515.592 39.2668C515.592 39.2876 515.551 39.3293 515.467 39.3918C515.384 39.4543 515.301 39.5376 515.197 39.6209L514.884 39.8709C514.78 39.9543 514.697 40.0168 514.634 40.0584C514.572 40.1209 514.467 40.2043 514.342 40.3084C514.217 40.4126 514.072 40.5376 513.926 40.6626C513.78 40.7876 513.634 40.9334 513.488 41.0793C513.342 41.2251 513.238 41.3709 513.176 41.4959C513.176 41.4751 513.176 41.4751 513.176 41.4751C513.176 41.4751 513.176 41.4543 513.176 41.4334C513.134 41.5376 513.092 41.6209 513.051 41.6834C513.03 41.7459 512.988 41.7876 512.947 41.8293C512.905 41.8709 512.863 41.8918 512.842 41.8918C512.78 41.9126 512.697 41.9751 512.592 42.0793C512.488 42.1834 512.363 42.3084 512.238 42.4334C512.113 42.5584 511.988 42.6626 511.884 42.7668C511.78 42.8709 511.697 42.9126 511.634 42.9126C511.613 42.9126 511.592 42.9126 511.572 42.8918C511.717 42.6626 511.842 42.4126 511.967 42.1418C512.092 41.8709 512.197 41.6001 512.301 41.3293C512.322 41.2251 512.384 41.0793 512.509 40.8918C512.634 40.7043 512.759 40.4959 512.884 40.2459C513.009 39.9959 513.113 39.7251 513.217 39.4126C513.322 39.1001 513.363 38.7668 513.363 38.4126C513.342 38.4543 513.322 38.4959 513.322 38.5376C513.322 38.5793 513.301 38.6209 513.28 38.6626C513.259 38.6418 513.238 38.6418 513.197 38.6418C513.217 38.6209 513.217 38.5793 513.217 38.5168C513.217 38.4543 513.217 38.3918 513.217 38.3293V38.2459C513.238 38.1834 513.238 38.1418 513.238 38.1001C513.238 38.0584 513.238 38.0168 513.238 37.9543V37.8709C513.217 37.8918 513.217 37.9126 513.217 37.9334C513.197 37.9126 513.176 37.8501 513.155 37.7251C513.134 37.5949 513.113 37.5116 513.113 37.4907C513.113 37.4491 513.113 37.4074 513.134 37.3866C513.113 37.3866 513.113 37.3866 513.113 37.3657V37.3241C513.092 37.3449 513.072 37.3866 513.051 37.4491L513.009 37.3866C513.009 37.3657 513.009 37.3449 513.009 37.3241C513.009 37.3449 513.009 37.3449 512.988 37.3032C512.967 37.2616 512.926 37.2199 512.863 37.1574C512.801 37.0949 512.717 37.0324 512.613 36.9699C512.509 36.9074 512.363 36.8866 512.176 36.8866C511.78 36.8866 511.426 36.9907 511.113 37.1991C510.801 37.4074 510.462 37.6366 510.108 37.8709C509.796 38.1834 509.525 38.4543 509.296 38.6626C509.066 38.8709 508.796 39.1209 508.483 39.3918C508.504 39.3709 508.504 39.3501 508.504 39.3293C508.504 39.3084 508.504 39.2876 508.525 39.2668C508.629 38.9959 508.733 38.6834 508.858 38.3293C508.983 37.9751 509.129 37.5741 509.275 37.1366C509.296 37.0532 509.358 36.8866 509.441 36.6574C509.525 36.4282 509.566 36.1991 509.566 35.9699C509.566 35.9282 509.566 35.8866 509.566 35.8449C509.566 35.8032 509.566 35.7616 509.566 35.7199C509.566 35.6991 509.566 35.6782 509.566 35.6366C509.566 35.5949 509.566 35.5532 509.566 35.5116V35.1366C509.566 35.1157 509.566 35.0741 509.566 35.0116C509.566 34.9491 509.546 34.8657 509.525 34.7824C509.504 34.6991 509.462 34.6157 509.421 34.5324C509.379 34.4491 509.316 34.3866 509.254 34.3241V34.3032C509.254 34.2407 509.212 34.1574 509.129 34.0532C509.046 33.9491 508.983 33.8657 508.921 33.8032C508.816 33.6991 508.712 33.5949 508.608 33.5116C508.504 33.4491 508.4 33.3866 508.296 33.3241C508.191 33.2616 508.108 33.2407 508.025 33.2407C507.837 33.2407 507.671 33.3032 507.546 33.4074C507.421 33.5116 507.296 33.6782 507.171 33.9074C507.046 34.1366 506.9 34.4282 506.754 34.7824C506.608 35.1366 506.441 35.5532 506.254 36.0324C505.941 36.8241 505.608 37.6366 505.275 38.4751L504.27 40.9751C504.165 41.2043 504.04 41.4751 503.895 41.7876C503.79 42.0584 503.665 42.3918 503.52 42.7876C503.374 43.1886 503.228 43.6261 503.082 44.1053C503.061 44.1678 503.02 44.272 502.978 44.397C502.936 44.522 502.895 44.647 502.853 44.7928C502.811 44.9386 502.77 45.0845 502.728 45.2095C502.686 45.3345 502.665 45.4386 502.665 45.5011C502.665 45.5845 502.707 45.6678 502.811 45.7303C502.915 45.7928 502.999 45.8553 503.061 45.9178C503.082 45.9178 503.103 45.9178 503.124 45.897C503.145 45.897 503.165 45.9178 503.165 45.9386C503.165 45.9595 503.165 45.9803 503.186 46.0011C503.207 46.022 503.207 46.022 503.207 46.0011V45.9803C503.311 46.0845 503.395 46.147 503.457 46.1678C503.52 46.1886 503.603 46.1886 503.707 46.1886C503.832 46.147 503.915 46.1261 503.936 46.1261C503.957 46.1261 503.978 46.1261 503.999 46.1261C504.02 46.1261 504.061 46.1053 504.124 46.0636C504.186 46.022 504.311 45.9386 504.499 45.8136C504.52 45.8345 504.54 45.8553 504.561 45.8761C504.582 45.897 504.603 45.9178 504.624 45.9386C504.707 45.7511 504.77 45.6261 504.811 45.5636C504.853 45.5011 504.895 45.4595 504.936 45.4386L505.145 45.3136C505.254 45.2511 505.4 45.147 505.587 45.0011C505.608 45.022 505.608 45.0428 505.608 45.0428C505.608 45.0428 505.608 45.0636 505.629 45.0845C505.629 45.1053 505.629 45.1053 505.65 45.1053C505.671 45.0845 505.691 45.0845 505.712 45.0845C505.733 45.0845 505.754 45.0845 505.775 45.0636C505.816 45.0636 505.879 45.0428 505.962 44.9803C506.046 44.9178 506.129 44.8553 506.212 44.772C506.296 44.6886 506.379 44.6053 506.441 44.5011C506.504 44.397 506.546 44.2928 506.546 44.1886V44.147L506.608 44.0845C506.796 43.7303 506.962 43.3553 507.108 42.9543C507.254 42.5584 507.462 42.1418 507.754 41.7043C507.733 41.7251 507.775 41.6834 507.858 41.5793C507.941 41.4751 508.046 41.3293 508.171 41.1626C508.296 40.9959 508.421 40.8084 508.566 40.5793C508.712 40.3501 508.837 40.1209 508.941 39.8918C509.087 39.6834 509.275 39.4959 509.525 39.3293C509.775 39.1626 509.941 38.9959 510.046 38.8084V38.8293C510.233 38.7251 510.421 38.6209 510.592 38.5168C510.759 38.4126 510.926 38.3084 511.113 38.2043C511.113 38.2251 511.113 38.2251 511.134 38.2251C511.092 38.3084 511.051 38.3918 511.009 38.4959C510.967 38.6001 510.926 38.6834 510.884 38.7668C510.863 38.8084 510.801 38.8918 510.717 39.0168C510.634 39.1418 510.551 39.2876 510.441 39.4543C510.337 39.6209 510.233 39.8084 510.15 39.9959C510.066 40.1834 510.004 40.3709 509.962 40.5584C509.796 40.8293 509.65 41.1209 509.525 41.4126C509.4 41.7043 509.275 42.0168 509.171 42.3293C509.15 42.4126 509.087 42.5376 509.004 42.7251C508.921 42.9126 508.816 43.1261 508.712 43.3553C508.608 43.5845 508.525 43.8345 508.441 44.1053C508.358 44.3761 508.316 44.647 508.316 44.9178C508.316 44.9803 508.337 45.0636 508.358 45.1678C508.379 45.2095 508.4 45.272 508.421 45.3553C508.441 45.4386 508.462 45.522 508.483 45.6053C508.504 45.6886 508.546 45.7511 508.587 45.8136C508.629 45.8761 508.671 45.897 508.733 45.897L508.691 45.9803C508.671 45.9595 508.671 45.9595 508.671 45.9595C508.671 45.9595 508.671 45.9595 508.65 45.9386C508.629 45.9595 508.629 45.9803 508.629 46.0011C508.629 46.0428 508.671 46.0845 508.754 46.1053C508.837 46.1261 508.921 46.147 509.025 46.147C509.129 46.147 509.233 46.147 509.337 46.147H509.566C509.546 46.147 509.566 46.1261 509.629 46.1053C509.691 46.0845 509.754 46.0636 509.816 46.022C509.879 45.9803 509.941 45.9595 510.004 45.9386L510.087 45.897H510.129C510.15 45.8345 510.191 45.7928 510.254 45.7928C510.316 45.7928 510.358 45.772 510.4 45.7511C510.421 45.8136 510.441 45.8761 510.462 45.9178C510.483 45.9595 510.504 45.9803 510.525 45.9803C510.504 45.9595 510.483 45.9386 510.462 45.897C510.441 45.8553 510.441 45.8345 510.441 45.8136C510.441 45.7928 510.462 45.772 510.483 45.7511C510.551 45.7095 510.592 45.6678 510.613 45.647C510.634 45.6261 510.676 45.5845 510.738 45.5011L510.988 45.1678C511.092 45.022 511.259 44.7928 511.488 44.4803C511.551 44.3761 511.634 44.1886 511.717 43.9386C511.801 43.6886 511.947 43.5011 512.176 43.397C512.155 43.3761 512.134 43.3761 512.134 43.3761C512.134 43.3761 512.134 43.3761 512.134 43.3553H512.155C512.176 43.3553 512.197 43.3553 512.217 43.3345C512.238 43.3136 512.259 43.3136 512.28 43.3136H512.322C512.342 43.3136 512.363 43.2928 512.363 43.2511V43.2095C512.363 43.1886 512.405 43.1678 512.488 43.1678C512.467 43.147 512.467 43.1261 512.467 43.0845C512.467 43.1053 512.467 43.1053 512.488 43.1053C512.676 42.9126 512.842 42.7251 513.009 42.5376C513.176 42.3501 513.405 42.1001 513.697 41.8084C513.717 41.7876 513.738 41.7668 513.78 41.7251C513.822 41.6834 513.863 41.6209 513.905 41.5584C513.947 41.4959 513.988 41.4334 514.051 41.3918C514.113 41.3501 514.155 41.3293 514.176 41.3293C514.155 41.3501 514.155 41.3293 514.197 41.2876C514.238 41.2459 514.28 41.2043 514.322 41.1418C514.363 41.0793 514.405 41.0376 514.447 40.9959C514.488 40.9543 514.509 40.9334 514.53 40.9334L514.551 40.9543C514.509 40.9543 514.551 40.8918 514.697 40.7459C514.842 40.6001 515.051 40.4334 515.322 40.2459C515.342 40.2251 515.363 40.2459 515.405 40.2876C515.447 40.3293 515.467 40.3918 515.467 40.4543V40.4959C515.301 41.0168 515.03 41.6418 514.676 42.3501C514.322 43.0636 513.947 43.9178 513.551 44.9178C513.53 44.9386 513.509 45.0011 513.467 45.0845C513.426 45.1678 513.384 45.2511 513.363 45.3345C513.342 45.4178 513.322 45.5011 513.301 45.5636L513.259 45.6678C513.072 45.9178 512.947 46.2303 512.884 46.6053C512.822 46.9803 512.78 47.3761 512.78 47.772C512.78 48.1678 512.905 48.4438 513.155 48.5897C513.405 48.7355 513.676 48.8188 513.988 48.8188C514.238 48.798 514.447 48.7772 514.634 48.7355C514.822 48.6938 515.03 48.6105 515.259 48.4647C515.363 48.4022 515.488 48.3136 515.634 48.1886C515.78 48.0636 516.035 47.8345 516.368 47.5011C516.327 47.522 516.285 47.5428 516.243 47.5845L516.223 47.5636C516.243 47.5428 516.264 47.522 516.264 47.4803C516.264 47.4386 516.285 47.4178 516.306 47.397C516.306 47.4178 516.306 47.4386 516.327 47.4595C516.389 47.4595 516.431 47.4595 516.452 47.4386C516.452 47.4178 516.431 47.397 516.389 47.3553C516.41 47.3345 516.452 47.3136 516.514 47.272C516.577 47.2303 516.598 47.1678 516.598 47.0636L516.577 47.0428C516.473 47.0636 516.389 47.0845 516.327 47.1053C516.223 47.147 516.118 47.2303 516.035 47.3345C515.952 47.4386 515.842 47.5428 515.738 47.647C515.634 47.7511 515.53 47.8345 515.405 47.9178C515.28 48.0011 515.155 48.0428 515.03 48.0428C514.842 48.0428 514.717 48.022 514.676 48.0011C514.634 47.9803 514.592 47.9178 514.551 47.8345V47.9178C514.488 47.897 514.447 47.8761 514.426 47.8553C514.467 47.8136 514.509 47.7303 514.551 47.6261C514.613 47.7095 514.655 47.772 514.676 47.7928C514.697 47.8136 514.78 47.8345 514.926 47.8553C514.822 47.7928 514.738 47.7303 514.676 47.6678C514.613 47.6053 514.592 47.522 514.592 47.4178C514.592 47.3761 514.592 47.3345 514.613 47.3136H514.572C514.551 47.3136 514.551 47.3136 514.551 47.2928C514.551 47.272 514.572 47.2511 514.592 47.2303C514.613 47.2511 514.634 47.272 514.655 47.2928C514.655 47.272 514.655 47.2511 514.655 47.2511C514.655 47.2511 514.655 47.2511 514.655 47.2303C514.676 47.2928 514.697 47.3345 514.697 47.3553C514.717 47.3345 514.717 47.3136 514.717 47.2928C514.697 47.272 514.676 47.2511 514.676 47.2303C514.676 47.2095 514.697 47.1678 514.738 47.1053C514.78 47.0428 514.801 46.9803 514.822 46.9178C514.801 46.9386 514.78 46.9803 514.759 47.022C514.738 47.0636 514.717 47.1053 514.697 47.1261C514.676 47.147 514.655 47.147 514.655 47.1261C514.655 47.1053 514.655 47.0845 514.655 47.0636C514.655 47.0011 514.655 46.9386 514.676 46.8761C514.697 46.8136 514.717 46.772 514.738 46.7511V46.647C514.738 46.5845 514.759 46.5011 514.801 46.3761C514.842 46.2511 514.863 46.147 514.863 46.0428C514.863 46.022 514.863 46.0011 514.863 45.9803C514.863 45.9595 514.863 45.9386 514.863 45.9178C514.863 45.8761 514.884 45.8553 514.926 45.8345C514.967 45.8136 514.988 45.772 514.988 45.6886C515.051 45.7095 515.113 45.7303 515.176 45.772C515.155 45.8136 515.134 45.8553 515.113 45.9178C515.092 45.9803 515.092 46.0011 515.092 45.9803V46.1261C515.092 46.1678 515.072 46.2095 515.009 46.2303C514.947 46.2511 514.926 46.3553 514.926 46.5428C514.926 46.6053 514.926 46.647 514.947 46.6678C514.947 46.7303 514.926 46.772 514.863 46.772C514.884 46.7928 514.905 46.8136 514.926 46.8345C514.947 46.7511 514.988 46.647 515.051 46.522C515.113 46.397 515.155 46.3136 515.155 46.2928C515.134 46.272 515.113 46.272 515.092 46.272C515.113 46.2511 515.134 46.2303 515.155 46.2095C515.176 46.1886 515.176 46.1678 515.176 46.147C515.155 46.1261 515.134 46.1053 515.134 46.0845C515.134 46.0636 515.155 46.0428 515.217 46.022L515.259 46.0636C515.28 46.0636 515.301 46.0428 515.301 46.022L515.91 45.2928ZM515.801 45.1053C515.78 45.0845 515.759 45.0845 515.759 45.0845C515.759 45.0845 515.738 45.0845 515.717 45.0636C515.738 45.0428 515.78 44.9803 515.842 44.897C515.863 44.897 515.884 44.897 515.91 44.9178C515.842 44.9803 515.822 45.0428 515.842 45.1053C515.863 45.1678 515.842 45.2303 515.78 45.2928L515.738 45.2511V45.1678C515.738 45.147 515.759 45.1261 515.78 45.1261L515.801 45.1053ZM515.155 45.3553C515.155 45.397 515.155 45.4595 515.176 45.522C515.197 45.5845 515.217 45.6261 515.238 45.647C515.217 45.6678 515.197 45.6886 515.176 45.7095C515.155 45.7303 515.134 45.7511 515.113 45.7511C515.092 45.7511 515.092 45.7303 515.092 45.7095C515.072 45.6886 515.072 45.6261 515.072 45.522C515.072 45.5011 515.072 45.4595 515.092 45.4178C515.113 45.3761 515.134 45.3553 515.155 45.3761V45.3553ZM515.28 45.3136C515.238 45.2928 515.217 45.272 515.217 45.2303C515.217 45.1886 515.217 45.147 515.217 45.1053C515.217 45.0636 515.217 45.022 515.238 44.9803C515.259 45.0011 515.301 45.022 515.363 45.0428C515.342 45.0845 515.322 45.1053 515.301 45.1261C515.28 45.147 515.28 45.1678 515.28 45.1886C515.28 45.2095 515.28 45.2303 515.301 45.2511C515.301 45.272 515.301 45.272 515.301 45.272C515.301 45.272 515.301 45.272 515.301 45.2928L515.28 45.3136ZM516.035 44.6886C516.014 44.7303 516.014 44.772 516.014 44.8136C516.014 44.8553 515.993 44.8761 515.931 44.8761C515.91 44.8553 515.91 44.8345 515.91 44.8136C515.91 44.7928 515.91 44.772 515.931 44.7303C515.952 44.6886 515.973 44.6886 515.993 44.7095L516.035 44.6886ZM516.577 43.2303C516.556 43.272 516.535 43.3136 516.535 43.3553C516.535 43.397 516.514 43.4386 516.493 43.5011C516.473 43.4803 516.473 43.4595 516.473 43.4178C516.473 43.3761 516.493 43.3345 516.535 43.2928C516.556 43.272 516.577 43.2511 516.598 43.2303H516.577ZM515.717 44.272C515.655 44.2511 515.613 44.2303 515.613 44.2095L515.655 44.1261C515.676 44.1886 515.697 44.2303 515.717 44.272ZM516.014 43.4178C516.035 43.4386 516.035 43.4595 516.035 43.4803C516.035 43.522 516.014 43.5428 515.973 43.5428C515.973 43.5011 515.993 43.4595 516.014 43.397V43.4178ZM515.363 44.7928C515.384 44.8136 515.405 44.8136 515.426 44.8136C515.447 44.8136 515.467 44.8136 515.488 44.8345L515.447 44.8761L515.363 44.7928ZM516.473 47.0428C516.493 47.0428 516.514 47.0428 516.535 47.0428C516.556 47.0428 516.577 47.0428 516.598 47.0428C516.598 47.022 516.598 47.022 516.598 47.022C516.598 47.022 516.618 47.022 516.681 47.0011C516.66 46.9803 516.618 46.9803 516.556 46.9803C516.493 46.9803 516.452 47.0011 516.452 47.022L516.473 47.0428Z" fill="white"/>
<path d="M520.097 45.4178C520.097 45.4803 520.139 45.5636 520.222 45.6678C520.306 45.7719 520.389 45.8761 520.493 45.9594C520.597 46.0428 520.722 46.1261 520.847 46.1886C520.978 46.2511 521.082 46.2928 521.186 46.2928C521.332 46.2719 521.478 46.2094 521.644 46.1261C521.811 46.0428 521.894 45.8969 521.894 45.6886C521.894 45.5844 521.873 45.5011 521.811 45.4386C521.686 45.3136 521.582 45.2094 521.519 45.1261C521.457 45.0428 521.394 44.9803 521.332 44.9178C521.269 44.8553 521.186 44.8136 521.103 44.7928C521.019 44.7719 520.889 44.7511 520.743 44.7511C520.722 44.7511 520.702 44.7511 520.66 44.7511C520.618 44.7511 520.577 44.7719 520.514 44.8136C520.452 44.8553 520.389 44.9178 520.327 45.0219C520.264 45.1261 520.202 45.2928 520.139 45.5219L520.097 45.4178Z" fill="white"/>
<path d="M524.809 47.5636C524.835 47.397 524.919 47.1886 525.044 46.9595C525.169 46.7303 525.315 46.4803 525.502 46.2095H525.44C525.44 46.1678 525.44 46.147 525.46 46.1261C525.481 46.147 525.502 46.147 525.523 46.147C525.544 46.147 525.565 46.147 525.585 46.1678C525.585 46.1261 525.606 46.0845 525.648 46.022C525.69 45.9595 525.731 45.897 525.794 45.8345C525.856 45.772 525.898 45.7095 525.94 45.647C525.981 45.5845 526.002 45.522 526.002 45.4595C526.002 45.4386 526.002 45.4178 525.981 45.3761C525.96 45.3345 525.96 45.3136 525.96 45.2928C525.96 45.2511 525.981 45.2095 526.023 45.1678V45.2303C526.044 45.2303 526.065 45.2303 526.085 45.2303C526.106 45.2303 526.127 45.2303 526.148 45.2303C526.148 45.2511 526.148 45.272 526.148 45.272C526.148 45.272 526.148 45.2928 526.148 45.3136C526.19 45.2511 526.231 45.1678 526.252 45.0845C526.273 45.0011 526.294 44.9178 526.315 44.8553C526.315 44.8345 526.294 44.8136 526.273 44.7928C526.294 44.7928 526.315 44.7928 526.335 44.8136C526.377 44.7095 526.419 44.6053 526.46 44.522C526.502 44.4386 526.544 44.3553 526.585 44.2511C526.544 44.2303 526.523 44.2095 526.523 44.1886C526.523 44.1261 526.523 44.0845 526.544 44.0428C526.565 44.0428 526.585 44.0636 526.606 44.0845C526.585 44.0845 526.585 44.1261 526.585 44.2303C526.648 44.1261 526.69 44.022 526.731 43.9178C526.773 43.8136 526.815 43.7095 526.877 43.6053C526.898 43.5428 526.94 43.5011 527.002 43.4803C527.065 43.4595 527.148 43.4386 527.231 43.4178C527.315 43.397 527.398 43.3761 527.481 43.3553C527.565 43.3345 527.648 43.272 527.731 43.1886C527.794 43.1886 527.877 43.1678 527.981 43.1261C528.085 43.0845 528.19 43.0428 528.294 42.9959L528.627 42.8709C528.731 42.8293 528.815 42.8084 528.877 42.8084C528.919 42.8084 528.96 42.8293 529.023 42.8501C529.169 42.7876 529.315 42.6834 529.481 42.5584C529.648 42.4334 529.815 42.3084 529.981 42.2043C530.002 42.2043 530.023 42.1834 530.065 42.1418C530.106 42.1001 530.169 42.0584 530.236 41.9959C530.299 41.9334 530.361 41.8918 530.445 41.8501C530.528 41.8084 530.591 41.7876 530.632 41.7876H530.653C530.799 41.7251 530.924 41.6834 531.049 41.6834C531.174 41.6834 531.299 41.6418 531.445 41.5584C531.736 41.4126 531.966 41.2668 532.132 41.1001C532.299 40.9334 532.445 40.7668 532.57 40.5793C532.695 40.3918 532.82 40.2043 532.945 40.0168C533.07 39.8293 533.216 39.6418 533.403 39.4543C533.424 39.4334 533.466 39.3709 533.528 39.2876C533.591 39.2043 533.653 39.1001 533.716 38.9751C533.778 38.8501 533.82 38.7043 533.861 38.5584C533.903 38.4126 533.924 38.2668 533.924 38.1209V37.9543C533.945 37.8084 533.945 37.6834 533.945 37.5532V37.1782C533.632 36.5741 533.299 36.1782 532.966 35.9699C532.632 35.7616 532.174 35.6574 531.611 35.6574C531.445 35.6574 531.278 35.6782 531.111 35.7199C530.945 35.7616 530.778 35.8032 530.632 35.8657L530.341 36.0116C530.236 36.0741 530.127 36.0949 530.023 36.0949V35.7407C530.023 35.6991 530.002 35.6574 529.981 35.6157C529.96 35.5741 529.94 35.5324 529.94 35.4907V35.4491C529.94 35.3866 529.919 35.3032 529.898 35.1991C529.877 35.0949 529.856 35.0116 529.835 34.9491C529.794 34.8866 529.731 34.8032 529.648 34.6991C529.565 34.5949 529.44 34.4907 529.294 34.3866C529.148 34.2824 529.002 34.1991 528.856 34.1157C528.71 34.0324 528.544 33.9907 528.377 33.9907V34.0532C528.377 34.1782 528.335 34.2407 528.252 34.2407C528.231 34.2407 528.21 34.2407 528.19 34.2407C528.169 34.2407 528.148 34.2407 528.127 34.2407C528.023 34.3032 527.898 34.4491 527.773 34.6574C527.648 34.8657 527.523 35.0949 527.398 35.3241C527.398 35.3032 527.377 35.3032 527.356 35.3241C527.335 35.3449 527.273 35.4491 527.19 35.6157C527.106 35.7824 526.981 36.0532 526.835 36.4074C526.69 36.7616 526.481 37.2616 526.231 37.9126C525.981 38.4126 525.773 38.8709 525.606 39.3084C525.44 39.7459 525.231 40.2043 524.981 40.6834C524.96 40.7876 524.877 40.9334 524.747 41.1001C524.622 41.2668 524.476 41.4543 524.309 41.6418C524.143 41.8293 523.955 42.0376 523.768 42.2459C523.58 42.4543 523.393 42.6626 523.226 42.8501C523.247 42.8293 523.226 42.8501 523.163 42.9126C523.101 42.9751 523.018 43.0636 522.934 43.1678C522.851 43.272 522.768 43.397 522.684 43.522C522.601 43.647 522.559 43.7511 522.559 43.8553C522.559 43.8761 522.559 43.8761 522.559 43.8761C522.559 43.8761 522.559 43.8761 522.559 43.897C522.518 43.9178 522.476 43.9595 522.413 44.0428C522.351 44.1261 522.309 44.2095 522.268 44.3136C522.226 44.4178 522.184 44.5011 522.143 44.5845L522.08 44.7095C522.08 44.7511 522.08 44.772 522.101 44.7928C521.997 44.897 521.913 45.022 521.872 45.147C521.83 45.272 521.768 45.397 521.684 45.522L521.663 45.5011C521.684 45.4178 521.705 45.3553 521.726 45.2928C521.663 45.3553 521.58 45.4803 521.497 45.6678C521.413 45.8553 521.351 46.0845 521.288 46.3553C521.226 46.6261 521.163 46.9178 521.122 47.2303C521.08 47.5428 521.059 47.8345 521.059 48.1261C521.059 48.1886 521.059 48.272 521.059 48.3761C521.059 48.4855 521.08 48.5897 521.101 48.6938C521.122 48.798 521.163 48.9022 521.226 48.9855C521.288 49.0688 521.351 49.1105 521.434 49.1105C521.497 49.1105 521.559 49.1105 521.643 49.1105C521.726 49.1105 521.788 49.1105 521.851 49.1105H522.018C522.059 49.1105 522.101 49.1105 522.143 49.1105C522.184 49.1105 522.226 49.1105 522.288 49.1105H522.372C522.518 49.0272 522.663 48.9855 522.83 48.9855L522.913 49.0272C522.997 48.9438 523.059 48.9022 523.101 48.9022C523.143 48.9022 523.205 48.9022 523.268 48.9022C523.33 48.9022 523.413 48.8813 523.518 48.8397C523.622 48.798 523.768 48.673 523.955 48.4855C523.976 48.4647 524.018 48.423 524.08 48.3345C524.143 48.2511 524.205 48.1678 524.268 48.0845C524.33 48.0011 524.393 47.9178 524.455 47.8553C524.518 47.7928 524.559 47.7511 524.58 47.7511C524.601 47.7511 524.622 47.772 524.643 47.7928L524.809 47.5636ZM527.21 42.6001C527.398 42.3293 527.565 42.0168 527.71 41.6626C527.856 41.3084 528.002 40.9751 528.148 40.6626C528.127 40.7251 528.127 40.6834 528.169 40.5584C528.21 40.4334 528.252 40.2876 528.315 40.1209C528.377 39.9543 528.44 39.7876 528.502 39.6209C528.565 39.4543 528.627 39.3709 528.69 39.3501C528.71 39.3501 528.752 39.2876 528.815 39.1626C528.877 39.0376 528.94 38.8918 529.002 38.7251C529.065 38.5584 529.127 38.3918 529.19 38.2251C529.252 38.0584 529.315 37.9334 529.377 37.8501C529.398 37.7876 529.46 37.6834 529.565 37.5116C529.669 37.3449 529.731 37.1157 529.731 36.8449V36.6782C529.752 36.6157 529.835 36.5532 529.981 36.4699C530.127 36.3866 530.236 36.3449 530.278 36.3449C530.361 36.3449 530.445 36.3657 530.528 36.3866C530.611 36.4074 530.674 36.4282 530.736 36.4282C530.778 36.4282 530.82 36.4282 530.861 36.4282C530.903 36.4282 530.945 36.4282 530.986 36.4282C531.049 36.4282 531.091 36.4282 531.132 36.4491C531.174 36.4699 531.216 36.4699 531.278 36.4699H531.424C531.507 36.4699 531.611 36.4699 531.736 36.4907C531.861 36.5116 531.986 36.5324 532.091 36.5741C532.195 36.6157 532.278 36.6782 532.361 36.7616C532.445 36.8449 532.486 36.9491 532.486 37.0741C532.486 37.2199 532.445 37.3449 532.361 37.4282C532.278 37.5116 532.195 37.6157 532.132 37.7251C532.111 37.7876 532.049 37.9126 531.945 38.0793C531.841 38.2459 531.695 38.4543 531.528 38.7043C531.361 38.9543 531.174 39.2251 530.966 39.5168C530.757 39.8084 530.528 40.1209 530.299 40.4334C530.236 40.5168 530.127 40.6626 529.981 40.8709C529.835 41.0793 529.648 41.2876 529.398 41.5168C529.148 41.7459 528.835 41.9751 528.46 42.2043C528.085 42.4334 527.648 42.6209 527.127 42.7668L527.21 42.6001ZM521.726 48.673C521.663 48.4438 521.622 48.2095 521.622 48.0011C521.622 47.7303 521.643 47.4595 521.684 47.2095C521.726 46.9595 521.788 46.6886 521.893 46.3761C521.893 46.3553 521.893 46.3345 521.893 46.3345C521.893 46.3345 521.893 46.3136 521.893 46.2928C521.893 46.2511 521.893 46.2303 521.913 46.2095V46.272C521.934 46.272 521.955 46.2511 521.955 46.2095C521.955 46.1678 521.976 46.1261 521.997 46.1053C521.976 46.0845 521.976 46.0636 521.976 46.0428C521.976 46.022 521.976 46.022 521.976 46.022C521.976 46.022 521.976 46.022 521.976 46.0011C521.997 45.9803 522.018 45.9386 522.018 45.897C522.018 45.8761 522.018 45.8553 522.018 45.8345C522.018 45.8136 522.018 45.7928 522.018 45.772C522.038 45.7511 522.059 45.7511 522.101 45.7511V45.772C522.101 45.7928 522.101 45.7928 522.101 45.7928C522.101 45.7928 522.101 45.7928 522.101 45.8136C522.122 45.7511 522.163 45.6678 522.226 45.5636L522.205 45.522V45.5011C522.226 45.4803 522.247 45.4595 522.268 45.4386C522.247 45.4386 522.226 45.4178 522.205 45.3761H522.247C522.268 45.3761 522.288 45.3345 522.309 45.2511C522.33 45.1678 522.372 45.0845 522.434 45.022C522.434 44.9595 522.372 44.9386 522.268 44.9386C522.268 44.897 522.288 44.8761 522.33 44.8761H522.372C522.455 44.8761 522.518 44.8136 522.538 44.7095V44.6886C522.559 44.6886 522.58 44.6886 522.601 44.7095C522.601 44.647 522.622 44.6053 522.663 44.5636C522.705 44.522 522.726 44.5011 522.726 44.4803V44.4595L522.684 44.4386C522.663 44.4386 522.663 44.4386 522.684 44.4178L522.705 44.397C522.726 44.397 522.747 44.397 522.768 44.4178C522.872 44.3136 522.955 44.2095 523.018 44.1053C523.018 44.0845 523.018 44.0845 523.018 44.0845C523.018 44.0845 523.018 44.0845 523.018 44.0636C523.038 44.0636 523.059 44.022 523.101 43.9595L523.205 43.7303C523.247 43.647 523.288 43.5636 523.309 43.5011L523.351 43.397L523.393 43.4803C523.538 43.2928 523.684 43.1053 523.83 42.9126C523.976 42.7251 524.122 42.5376 524.268 42.3501C524.268 42.3709 524.268 42.3709 524.288 42.3709C524.268 42.4334 524.247 42.4959 524.226 42.5584C524.205 42.6209 524.184 42.6834 524.163 42.7459C524.101 42.8501 523.997 43.0845 523.851 43.4178C523.705 43.7511 523.538 44.147 523.372 44.5845C523.205 45.022 523.018 45.5011 522.83 46.022C522.643 46.5428 522.476 47.0428 522.33 47.522L522.247 47.8136C522.205 47.9595 522.163 48.1053 522.122 48.272C522.08 48.4438 522.038 48.5897 521.976 48.7147C521.913 48.8397 521.851 48.9022 521.788 48.923L521.726 48.673ZM526.502 44.4803C526.481 44.522 526.46 44.5428 526.44 44.5428C526.419 44.5428 526.398 44.522 526.377 44.5011C526.398 44.4595 526.419 44.4386 526.46 44.4386C526.481 44.4386 526.502 44.4595 526.523 44.4803H526.502Z" fill="white"/>
<path d="M542.246 36.0741C542.225 36.1157 542.204 36.1366 542.183 36.1366C542.163 36.1366 542.142 36.1157 542.121 36.0949C542.1 36.0741 542.079 36.0532 542.058 36.0532L541.892 36.2616C541.829 36.3241 541.746 36.3866 541.642 36.4282L541.558 36.3032C541.538 36.3657 541.454 36.4491 541.329 36.5532C541.204 36.6574 541.142 36.7407 541.142 36.7824C541.142 36.8866 541.079 37.0116 540.975 37.1574C540.871 37.3032 540.746 37.4491 540.6 37.5949C540.454 37.7459 540.267 37.9126 540.058 38.1001C539.803 38.3918 539.532 38.6626 539.262 38.9126C538.991 39.1626 538.72 39.3918 538.449 39.6209C538.47 39.6209 538.491 39.6209 538.512 39.6418C538.491 39.6626 538.47 39.6626 538.449 39.6626C538.428 39.6626 538.428 39.6626 538.428 39.6834C538.407 39.6834 538.407 39.6834 538.407 39.6834C538.407 39.6834 538.407 39.6834 538.387 39.6834C538.366 39.6834 538.324 39.7043 538.262 39.7668C538.199 39.8293 538.116 39.8918 538.032 39.9751C537.949 40.0584 537.866 40.1418 537.782 40.2043C537.699 40.2668 537.637 40.3084 537.616 40.3293C537.47 40.4543 537.324 40.5793 537.157 40.7043C536.991 40.8293 536.824 40.9334 536.678 41.0376C536.762 40.7668 536.866 40.4959 536.991 40.2459C537.116 39.9959 537.22 39.7668 537.324 39.5793C537.428 39.3918 537.512 39.2251 537.595 39.1001C537.678 38.9751 537.72 38.8918 537.741 38.8501C537.845 38.7459 537.928 38.6209 537.991 38.4751C538.053 38.3293 538.116 38.1834 538.157 38.0168C538.199 37.8501 538.22 37.7043 538.241 37.5741C538.262 37.4491 538.262 37.3657 538.262 37.3241C538.282 37.1991 538.303 37.0741 538.324 36.9491C538.345 36.8241 538.345 36.6991 538.345 36.5741C538.345 36.3866 538.324 36.2407 538.282 36.1366C538.241 36.0324 538.199 35.9491 538.157 35.8866C538.116 35.8241 538.074 35.7824 538.053 35.7616C538.032 35.7407 538.032 35.7407 538.053 35.7407H538.032C537.928 35.6574 537.824 35.5324 537.741 35.3449C537.657 35.1574 537.532 35.0116 537.387 34.9074L537.22 34.8241C537.116 34.7616 536.991 34.6991 536.866 34.6157C536.741 34.5324 536.616 34.4491 536.491 34.3866C536.366 34.3241 536.303 34.2824 536.303 34.2616C536.241 34.1991 536.157 34.1574 536.053 34.1574C535.949 34.1574 535.866 34.1366 535.782 34.1157C535.616 34.2199 535.47 34.3657 535.366 34.5532C535.262 34.7407 535.178 34.8449 535.137 34.8657C535.095 34.8866 535.053 34.9699 535.012 35.0949C534.97 35.2199 534.928 35.3657 534.887 35.5116C534.845 35.6574 534.803 35.8032 534.762 35.9282C534.72 36.0532 534.699 36.1366 534.699 36.1574C534.152 37.3657 533.673 38.5168 533.256 39.6001C532.84 40.6834 532.465 41.6418 532.152 42.4751C531.84 43.3136 531.59 44.0011 531.423 44.522C531.256 45.0428 531.152 45.3553 531.111 45.4595C531.006 45.7303 530.902 46.0011 530.798 46.2511C530.694 46.5011 530.59 46.772 530.506 47.0428C530.402 47.3345 530.34 47.5428 530.298 47.6678C530.256 47.7928 530.236 47.8761 530.215 47.9178C530.194 47.9595 530.194 48.0011 530.194 48.022C530.194 48.0428 530.194 48.1053 530.194 48.2095C530.194 48.2303 530.194 48.2511 530.215 48.272L530.256 48.3553H530.236C530.298 48.4022 530.34 48.4438 530.361 48.4647C530.381 48.4855 530.402 48.5272 530.423 48.5688C530.444 48.6105 530.486 48.6522 530.548 48.673C530.611 48.6938 530.694 48.7355 530.819 48.7772C530.902 48.798 530.965 48.8605 531.006 48.9438C531.173 48.9438 531.298 48.923 531.381 48.8605C531.465 48.798 531.527 48.7355 531.569 48.6522C531.611 48.5688 531.652 48.5063 531.673 48.4438C531.694 48.3761 531.736 48.3553 531.798 48.3553C531.819 48.3553 531.84 48.3553 531.861 48.3553C531.881 48.3553 531.902 48.3553 531.923 48.3553C532.027 48.147 532.111 47.9386 532.152 47.7095C532.194 47.4803 532.277 47.272 532.402 47.0636C532.402 47.022 532.444 46.9803 532.506 46.9386C532.569 46.897 532.652 46.8553 532.736 46.8136C532.819 46.772 532.902 46.7303 532.986 46.6886C533.069 46.647 533.111 46.6053 533.131 46.5636C533.256 46.5428 533.34 46.4803 533.381 46.3761C533.423 46.272 533.486 46.1886 533.569 46.1053L533.59 46.147C533.756 45.9803 533.902 45.8136 534.027 45.647C534.152 45.4803 534.215 45.397 534.236 45.3761C534.574 45.1053 534.845 44.7303 535.053 44.2511C535.262 43.772 535.512 43.2095 535.824 42.5793C535.845 42.5168 535.866 42.4751 535.887 42.4334C535.907 42.3918 535.928 42.3293 535.949 42.2668C535.97 42.2876 535.991 42.3084 536.012 42.3293H535.97C535.97 42.3918 535.991 42.4751 536.053 42.5793C536.074 42.6418 536.095 42.6834 536.116 42.7251V42.7668C536.116 42.7876 536.137 42.8501 536.178 42.9334C536.22 43.0168 536.282 43.1261 536.345 43.2511C536.407 43.3761 536.47 43.5011 536.532 43.6261C536.595 43.7511 536.637 43.8553 536.657 43.9386C536.928 44.6053 537.137 45.2095 537.303 45.7511C537.47 46.2928 537.616 46.772 537.72 47.1886C537.824 47.6053 537.907 47.9595 537.97 48.2511L538.116 48.9855C538.137 49.048 538.157 49.1105 538.178 49.173C538.199 49.2355 538.241 49.2772 538.303 49.2772C538.366 49.2772 538.407 49.2355 538.428 49.173C538.449 49.1105 538.47 49.0272 538.47 48.9438C538.47 48.673 538.449 48.4647 538.407 48.2928C538.366 48.1261 538.324 47.9803 538.282 47.8553C538.241 47.7303 538.199 47.6261 538.157 47.5428C538.116 47.4595 538.095 47.3553 538.074 47.2511C537.97 46.897 537.866 46.522 537.762 46.147C537.657 45.772 537.574 45.397 537.512 45.0428C537.345 44.3761 537.22 43.8761 537.137 43.5428C537.053 43.2095 536.991 42.9543 536.949 42.7668C536.907 42.5793 536.866 42.4334 536.824 42.3293C536.782 42.2251 536.72 42.0793 536.637 41.8918C536.699 41.8293 536.782 41.7668 536.866 41.7043C536.949 41.6418 537.032 41.5793 537.116 41.5376C537.199 41.4959 537.262 41.4543 537.303 41.4334L537.366 41.4126C537.47 41.3501 537.616 41.2668 537.782 41.1626C537.949 41.0584 538.032 40.9751 538.032 40.9126H538.074C538.116 40.9126 538.199 40.8501 538.345 40.7459C538.491 40.6418 538.574 40.5376 538.595 40.4334C538.595 40.4543 538.595 40.4751 538.595 40.4751C538.595 40.4751 538.595 40.4959 538.595 40.5168C538.616 40.4543 538.637 40.4126 538.657 40.3918C538.657 40.4126 538.657 40.4126 538.678 40.4126H538.72C538.72 40.3501 538.762 40.3084 538.845 40.2876C538.928 40.2668 538.97 40.2251 538.97 40.1418C538.97 40.1209 538.97 40.1001 538.949 40.0793L539.012 40.1418C539.012 40.1209 539.053 40.0584 539.137 39.9543C539.22 39.8501 539.324 39.7459 539.428 39.6418C539.532 39.5376 539.637 39.4543 539.72 39.3918C539.803 39.3293 539.85 39.3084 539.829 39.3293C539.975 39.1209 540.079 38.9959 540.142 38.9543C540.204 38.9126 540.246 38.8709 540.288 38.8501C540.329 38.8293 540.371 38.7876 540.433 38.7251C540.496 38.6626 540.6 38.5376 540.767 38.3293C540.767 38.2459 540.808 38.1626 540.871 38.0584C540.933 37.9543 540.996 37.8709 541.079 37.7876C541.163 37.7043 541.225 37.6366 541.288 37.5949C541.35 37.5532 541.371 37.5324 541.35 37.5532C541.621 37.1574 541.788 36.8657 541.871 36.6782C541.954 36.4907 541.996 36.3866 541.996 36.3449C541.996 36.2824 541.954 36.2407 541.871 36.2199L542.246 36.0741Z" fill="white"/>
</svg>
