<svg width="80" height="104" viewBox="0 0 80 104" fill="none" xmlns="http://www.w3.org/2000/svg">
<path d="M25.3068 90.8826V101.064H24.1136L18.5653 93.0701H18.4659V101.064H17.233V90.8826H18.4261L23.9943 98.8968H24.0938V90.8826H25.3068ZM30.7172 101.224C30.0278 101.224 29.4229 101.059 28.9025 100.731C28.3855 100.403 27.9811 99.9442 27.6895 99.3542C27.4011 98.7643 27.2569 98.0749 27.2569 97.286C27.2569 96.4906 27.4011 95.7962 27.6895 95.2029C27.9811 94.6097 28.3855 94.149 28.9025 93.8208C29.4229 93.4927 30.0278 93.3287 30.7172 93.3287C31.4065 93.3287 32.0098 93.4927 32.5268 93.8208C33.0472 94.149 33.4515 94.6097 33.7399 95.2029C34.0315 95.7962 34.1774 96.4906 34.1774 97.286C34.1774 98.0749 34.0315 98.7643 33.7399 99.3542C33.4515 99.9442 33.0472 100.403 32.5268 100.731C32.0098 101.059 31.4065 101.224 30.7172 101.224ZM30.7172 100.17C31.2408 100.17 31.6717 100.035 32.0098 99.7669C32.3478 99.4984 32.5981 99.1454 32.7605 98.7079C32.9229 98.2704 33.0041 97.7965 33.0041 97.286C33.0041 96.7756 32.9229 96.3 32.7605 95.8592C32.5981 95.4184 32.3478 95.0621 32.0098 94.7903C31.6717 94.5185 31.2408 94.3826 30.7172 94.3826C30.1935 94.3826 29.7626 94.5185 29.4245 94.7903C29.0865 95.0621 28.8362 95.4184 28.6738 95.8592C28.5114 96.3 28.4302 96.7756 28.4302 97.286C28.4302 97.7965 28.5114 98.2704 28.6738 98.7079C28.8362 99.1454 29.0865 99.4984 29.4245 99.7669C29.7626 100.035 30.1935 100.17 30.7172 100.17ZM37.0621 98.2804L37.0423 96.8287H37.2809L40.6218 93.4281H42.0735L38.5138 97.0275H38.4144L37.0621 98.2804ZM35.9684 101.064V90.8826H37.1417V101.064H35.9684ZM40.8207 101.064L37.8377 97.286L38.6729 96.4707L42.3121 101.064H40.8207ZM43.5836 101.064V93.4281H44.7569V101.064H43.5836ZM44.1802 92.1554C43.9515 92.1554 43.7543 92.0775 43.5886 91.9217C43.4262 91.7659 43.345 91.5787 43.345 91.3599C43.345 91.1412 43.4262 90.9539 43.5886 90.7981C43.7543 90.6423 43.9515 90.5645 44.1802 90.5645C44.4089 90.5645 44.6045 90.6423 44.7669 90.7981C44.9326 90.9539 45.0154 91.1412 45.0154 91.3599C45.0154 91.5787 44.9326 91.7659 44.7669 91.9217C44.6045 92.0775 44.4089 92.1554 44.1802 92.1554ZM49.1531 101.243C48.6692 101.243 48.23 101.152 47.8356 100.97C47.4412 100.784 47.128 100.518 46.896 100.17C46.6639 99.8182 46.5479 99.394 46.5479 98.8968C46.5479 98.4593 46.6341 98.1047 46.8065 97.8329C46.9788 97.5578 47.2092 97.3424 47.4975 97.1866C47.7859 97.0308 48.104 96.9148 48.4521 96.8386C48.8034 96.7591 49.1564 96.6961 49.511 96.6497C49.975 96.59 50.3512 96.5453 50.6396 96.5154C50.9312 96.4823 51.1433 96.4276 51.2759 96.3514C51.4118 96.2752 51.4798 96.1426 51.4798 95.9537V95.9139C51.4798 95.4234 51.3455 95.0422 51.0771 94.7704C50.8119 94.4986 50.4092 94.3627 49.869 94.3627C49.3088 94.3627 48.8697 94.4854 48.5515 94.7306C48.2333 94.9759 48.0096 95.2377 47.8803 95.5162L46.7667 95.1184C46.9656 94.6544 47.2307 94.2931 47.5621 94.0346C47.8969 93.7728 48.2615 93.5905 48.6559 93.4877C49.0536 93.3817 49.4447 93.3287 49.8292 93.3287C50.0745 93.3287 50.3562 93.3585 50.6744 93.4181C50.9959 93.4745 51.3058 93.5922 51.604 93.7711C51.9057 93.9501 52.1559 94.2202 52.3548 94.5815C52.5536 94.9428 52.6531 95.4267 52.6531 96.0332V101.064H51.4798V100.03H51.4201C51.3406 100.196 51.208 100.373 51.0224 100.562C50.8368 100.751 50.5898 100.912 50.2816 101.045C49.9734 101.177 49.5972 101.243 49.1531 101.243ZM49.332 100.189C49.796 100.189 50.1871 100.098 50.5053 99.916C50.8268 99.7337 51.0688 99.4984 51.2312 99.21C51.3969 98.9217 51.4798 98.6184 51.4798 98.3002V97.2264C51.43 97.286 51.3207 97.3407 51.1516 97.3904C50.9859 97.4368 50.7937 97.4783 50.5749 97.5147C50.3595 97.5479 50.149 97.5777 49.9435 97.6042C49.7414 97.6274 49.5773 97.6473 49.4513 97.6639C49.1464 97.7037 48.8614 97.7683 48.5962 97.8578C48.3344 97.944 48.1223 98.0749 47.9599 98.2505C47.8008 98.4229 47.7212 98.6582 47.7212 98.9565C47.7212 99.3642 47.872 99.6724 48.1737 99.8812C48.4786 100.087 48.8647 100.189 49.332 100.189Z" fill="#004F22"/>
<g clip-path="url(#clip0_2_158)">
<path d="M13.8528 41.4467C6.23701 32.0309 6.73669 32.5756 6.54732 32.5756H0.272811C0.122187 32.5756 0 32.6978 0 32.8484V44.9899C0 45.1406 0.122187 45.2627 0.272811 45.2627H3.58467C3.7353 45.2627 3.85748 45.1406 3.85748 44.9899V36.3992C3.85748 36.1422 4.18045 36.0278 4.34233 36.2276C12.059 45.7598 11.5948 45.2627 11.7867 45.2627H17.9276C18.0782 45.2627 18.2004 45.1406 18.2004 44.9899V32.8484C18.2004 32.6978 18.0782 32.5756 17.9276 32.5756H14.6104C14.4598 32.5756 14.3376 32.6978 14.3376 32.8484V41.2753C14.3376 41.5323 14.0145 41.6467 13.8528 41.4467Z" fill="#0A0A0A"/>
<path d="M24.9179 32.3651C21.5013 32.3651 19.7505 32.968 19.7505 36.4517C19.7505 42.2359 19.5451 43.1195 20.608 44.2943C21.9305 45.7049 23.8351 45.431 31.5136 45.431C34.9433 45.431 36.6783 44.8221 36.6783 41.3424C36.6783 35.3917 36.8567 34.6417 35.8255 33.4992C34.4939 32.0911 32.5546 32.3651 24.9179 32.3651ZM33.0389 40.8334C33.0389 41.5737 32.9586 41.8021 32.755 41.9781C32.4102 42.282 32.1722 42.2085 25.0805 42.2085C24.198 42.2085 23.8885 42.1592 23.6712 41.9781C23.3154 41.6506 23.3938 41.3931 23.3938 36.9603C23.3938 35.6436 23.7037 35.5831 25.0805 35.5831C32.2342 35.5831 32.4207 35.509 32.755 35.8189C33.1219 36.1322 33.0389 36.3675 33.0389 40.8334Z" fill="#0A0A0A"/>
<path d="M38.2561 32.8483V44.9899C38.2561 45.1405 38.3783 45.2627 38.5289 45.2627H42.018C42.1686 45.2627 42.2908 45.1405 42.2908 44.9899C42.2908 44.606 42.2908 32.6861 42.2908 32.8483C42.2908 32.6976 42.1686 32.5754 42.018 32.5754H38.5289C38.3781 32.5754 38.2561 32.6975 38.2561 32.8483Z" fill="#0A0A0A"/>
<path d="M53.666 32.5754C48.9265 32.5754 49.1511 32.5368 49.0301 32.6445L42.5183 38.4456C42.3969 38.5537 42.3964 38.7434 42.5173 38.8521L49.5739 45.1927C49.6239 45.2377 49.6889 45.2626 49.7562 45.2626H54.6014C54.8565 45.2626 54.972 44.9435 54.7759 44.7802L47.4965 38.7179C47.3653 38.6085 47.3656 38.4068 47.4973 38.2981L53.8396 33.0586C54.037 32.8956 53.9218 32.5754 53.666 32.5754Z" fill="#0A0A0A"/>
<path d="M56.3663 45.2627H59.8626C60.0132 45.2627 60.1354 45.1405 60.1354 44.9899V32.8483C60.1354 32.6976 60.0132 32.5754 59.8626 32.5754H56.3663C56.2157 32.5754 56.0935 32.6976 56.0935 32.8483V44.9899C56.0935 45.1407 56.2157 45.2627 56.3663 45.2627Z" fill="#0A0A0A"/>
<path d="M72.8892 32.5756C67.8052 32.5756 68.0591 32.5231 67.9513 32.7145L61.1116 44.8562C61.0091 45.0381 61.1405 45.2629 61.3493 45.2629H65.1704C65.2708 45.2629 65.363 45.2077 65.4107 45.1193L66.4424 43.2009C66.4899 43.1124 66.5822 43.0573 66.6827 43.0573H74.162C74.2622 43.0573 74.3544 43.1121 74.402 43.2003L75.4402 45.1198C75.4878 45.2079 75.5799 45.2627 75.6802 45.2627H79.7269C79.9356 45.2627 80.0669 45.0379 79.9645 44.8562L73.1272 32.7145C73.0786 32.6287 72.9878 32.5756 72.8892 32.5756ZM68.1389 39.8989L70.1864 36.1442C70.2899 35.9545 70.5622 35.9547 70.6655 36.1443L72.7088 39.899C72.8077 40.0807 72.6761 40.3021 72.4692 40.3021H68.3785C68.1714 40.3021 68.0399 40.0806 68.1389 39.8989Z" fill="#0A0A0A"/>
<path d="M13.8528 41.4467C6.23701 32.0309 6.73669 32.5756 6.54732 32.5756H0.272811C0.122187 32.5756 0 32.6978 0 32.8484V44.9899C0 45.1406 0.122187 45.2627 0.272811 45.2627H3.58467C3.7353 45.2627 3.85748 45.1406 3.85748 44.9899V36.3992C3.85748 36.1422 4.18045 36.0278 4.34233 36.2276C12.059 45.7598 11.5948 45.2627 11.7867 45.2627H17.9276C18.0782 45.2627 18.2004 45.1406 18.2004 44.9899V32.8484C18.2004 32.6978 18.0782 32.5756 17.9276 32.5756H14.6104C14.4598 32.5756 14.3376 32.6978 14.3376 32.8484V41.2753C14.3376 41.5323 14.0145 41.6467 13.8528 41.4467Z" fill="#0A0A0A"/>
<path d="M24.9179 32.3651C21.5013 32.3651 19.7505 32.968 19.7505 36.4517C19.7505 42.2359 19.5451 43.1195 20.608 44.2943C21.9305 45.7049 23.8351 45.431 31.5136 45.431C34.9433 45.431 36.6783 44.8221 36.6783 41.3424C36.6783 35.3917 36.8567 34.6417 35.8255 33.4992C34.4939 32.0911 32.5546 32.3651 24.9179 32.3651ZM33.0389 40.8334C33.0389 41.5737 32.9586 41.8021 32.755 41.9781C32.4102 42.282 32.1722 42.2085 25.0805 42.2085C24.198 42.2085 23.8885 42.1592 23.6712 41.9781C23.3154 41.6506 23.3938 41.3931 23.3938 36.9603C23.3938 35.6436 23.7037 35.5831 25.0805 35.5831C32.2342 35.5831 32.4207 35.509 32.755 35.8189C33.1219 36.1322 33.0389 36.3675 33.0389 40.8334Z" fill="#0A0A0A"/>
<path d="M32.755 35.8189C33.1217 36.1321 33.0389 36.3675 33.0389 40.8334C33.0389 41.5737 32.9586 41.8021 32.755 41.9781C32.5574 42.1523 32.3942 42.2024 30.9555 42.2137C34.7231 42.2229 34.9325 42.2226 35.2099 41.9781C35.4135 41.8023 35.4938 41.5737 35.4938 40.8334C35.4938 36.3675 35.5766 36.1321 35.2099 35.8189C34.9403 35.5692 34.766 35.5689 30.9628 35.5781C32.4185 35.5893 32.5624 35.6404 32.755 35.8189Z" fill="black"/>
<path d="M23.0629 44.2943C21.9999 43.1195 22.2054 42.236 22.2054 36.4517C22.2054 32.9678 23.9562 32.3651 27.3727 32.3651C28.8064 32.3651 30.0393 32.3555 31.105 32.349C29.6043 32.3311 27.6186 32.3651 24.9179 32.3651C21.5013 32.3651 19.7505 32.9679 19.7505 36.4517C19.7505 42.2359 19.5451 43.1193 20.608 44.2943C21.6826 45.4404 23.1413 45.4745 27.7691 45.447C25.0201 45.4142 23.9185 45.207 23.0629 44.2943Z" fill="black"/>
<path d="M45.4297 38.8521C45.3087 38.7434 45.3092 38.5537 45.4306 38.4456L51.9425 32.6445C51.99 32.6022 51.9854 32.5826 52.2473 32.5742C48.9759 32.5686 49.1375 32.549 49.0301 32.6445L42.5183 38.4456C42.3969 38.5537 42.3964 38.7434 42.5173 38.8521L49.5739 45.1927C49.6239 45.2377 49.6889 45.2626 49.7562 45.2626H52.6684C52.601 45.2626 52.5362 45.2377 52.486 45.1927L45.4297 38.8521Z" fill="black"/>
<path d="M58.7548 44.9899V32.8483C58.7548 32.6976 58.8768 32.5754 59.0276 32.5754H56.3663C56.2157 32.5754 56.0935 32.6976 56.0935 32.8483V44.9899C56.0935 45.1405 56.2156 45.2627 56.3663 45.2627H59.0276C58.877 45.2627 58.7548 45.1405 58.7548 44.9899Z" fill="black"/>
<path d="M63.9287 44.856L70.7683 32.7144C70.8213 32.6205 70.7885 32.5853 71.3411 32.5739C67.8618 32.5667 68.0468 32.545 67.9513 32.7144L61.1116 44.856C61.0093 45.0379 61.1405 45.2628 61.3493 45.2628H64.1663C63.9576 45.2628 63.8263 45.0379 63.9287 44.856Z" fill="black"/>
<path d="M2.7903 44.99V32.8484C2.7903 32.6978 2.91233 32.5756 3.06311 32.5756H0.272811C0.122187 32.5756 0 32.6977 0 32.8484V44.99C0 45.1406 0.122031 45.2628 0.272811 45.2628H3.06311C2.91233 45.2628 2.7903 45.1406 2.7903 44.99Z" fill="black"/>
<path d="M40.8464 44.9898V32.8481C40.8464 32.6975 40.9684 32.5753 41.1192 32.5753H38.5289C38.3783 32.5753 38.2561 32.6975 38.2561 32.8481V44.9898C38.2561 45.1404 38.3783 45.2626 38.5289 45.2626H41.1192C40.9684 45.2626 40.8464 45.1404 40.8464 44.9898Z" fill="black"/>
</g>
<defs>
<clipPath id="clip0_2_158">
<rect width="80" height="80" fill="white"/>
</clipPath>
</defs>
</svg>
