<svg width="81" height="15" viewBox="0 0 81 15" fill="none" xmlns="http://www.w3.org/2000/svg">
<path d="M14.1236 10.0357C6.50788 0.619987 7.00757 1.16467 6.81819 1.16467H0.543685C0.393061 1.16467 0.270874 1.28686 0.270874 1.43748V13.579C0.270874 13.7296 0.393061 13.8518 0.543685 13.8518H3.85555C4.00617 13.8518 4.12836 13.7296 4.12836 13.579V4.98825C4.12836 4.73122 4.45133 4.61684 4.6132 4.81669C12.3299 14.3488 11.8657 13.8518 12.0575 13.8518H18.1985C18.3491 13.8518 18.4713 13.7296 18.4713 13.579V1.43748C18.4713 1.28686 18.3491 1.16467 18.1985 1.16467H14.8813C14.7307 1.16467 14.6085 1.28686 14.6085 1.43748V9.86432C14.6085 10.1214 14.2853 10.2357 14.1236 10.0357Z" fill="#0A0A0A"/>
<path d="M25.1887 0.954225C21.7722 0.954225 20.0214 1.55703 20.0214 5.04077C20.0214 10.825 19.8159 11.7086 20.8789 12.8834C22.2014 14.294 24.1059 14.0201 31.7845 14.0201C35.2142 14.0201 36.9492 13.4112 36.9492 9.93153C36.9492 3.98077 37.1276 3.23078 36.0963 2.08828C34.7648 0.680163 32.8254 0.954225 25.1887 0.954225ZM33.3098 9.42247C33.3098 10.1628 33.2295 10.3912 33.0259 10.5672C32.681 10.8711 32.4431 10.7976 25.3514 10.7976C24.4689 10.7976 24.1594 10.7482 23.942 10.5672C23.5862 10.2397 23.6647 9.98216 23.6647 5.54936C23.6647 4.23265 23.9745 4.17218 25.3514 4.17218C32.5051 4.17218 32.6915 4.09812 33.0259 4.40796C33.3928 4.72124 33.3098 4.95655 33.3098 9.42247Z" fill="#0A0A0A"/>
<path d="M38.527 1.43733V13.579C38.527 13.7296 38.6492 13.8518 38.7998 13.8518H42.2888C42.4395 13.8518 42.5616 13.7296 42.5616 13.579C42.5616 13.1951 42.5616 1.27515 42.5616 1.43733C42.5616 1.28671 42.4395 1.16452 42.2888 1.16452H38.7998C38.649 1.16452 38.527 1.28655 38.527 1.43733Z" fill="#0A0A0A"/>
<path d="M53.9369 1.16454C49.1974 1.16454 49.422 1.12594 49.301 1.2336L42.7892 7.03467C42.6678 7.14279 42.6673 7.33248 42.7882 7.44123L49.8448 13.7818C49.8948 13.8268 49.9598 13.8517 50.0271 13.8517H54.8722C55.1274 13.8517 55.2429 13.5326 55.0468 13.3693L47.7674 7.30701C47.6362 7.19764 47.6365 6.99592 47.7682 6.88717L54.1105 1.64766C54.3079 1.48469 54.1927 1.16454 53.9369 1.16454Z" fill="#0A0A0A"/>
<path d="M56.6372 13.8518H60.1334C60.2841 13.8518 60.4062 13.7296 60.4062 13.579V1.43733C60.4062 1.28671 60.2841 1.16452 60.1334 1.16452H56.6372C56.4866 1.16452 56.3644 1.28671 56.3644 1.43733V13.579C56.3644 13.7298 56.4866 13.8518 56.6372 13.8518Z" fill="#0A0A0A"/>
<path d="M73.1601 1.16467C68.0761 1.16467 68.33 1.11217 68.2222 1.30357L61.3825 13.4452C61.28 13.6271 61.4114 13.852 61.6202 13.852H65.4413C65.5417 13.852 65.6339 13.7968 65.6816 13.7084L66.7133 11.7899C66.7608 11.7015 66.8531 11.6463 66.9536 11.6463H74.433C74.5331 11.6463 74.6253 11.7012 74.6729 11.7893L75.7111 13.7088C75.7587 13.797 75.8508 13.8518 75.9511 13.8518H79.9978C80.2065 13.8518 80.3378 13.627 80.2354 13.4452L73.3981 1.30357C73.3495 1.21779 73.2587 1.16467 73.1601 1.16467ZM68.4098 8.48792L70.4573 4.73325C70.5608 4.54356 70.8331 4.54372 70.9364 4.7334L72.9797 8.48808C73.0786 8.6698 72.947 8.8912 72.7401 8.8912H68.6494C68.4423 8.8912 68.3108 8.66964 68.4098 8.48792Z" fill="#0A0A0A"/>
<path d="M14.1236 10.0357C6.50788 0.619987 7.00757 1.16467 6.81819 1.16467H0.543685C0.393061 1.16467 0.270874 1.28686 0.270874 1.43748V13.579C0.270874 13.7296 0.393061 13.8518 0.543685 13.8518H3.85555C4.00617 13.8518 4.12836 13.7296 4.12836 13.579V4.98825C4.12836 4.73122 4.45133 4.61684 4.6132 4.81669C12.3299 14.3488 11.8657 13.8518 12.0575 13.8518H18.1985C18.3491 13.8518 18.4713 13.7296 18.4713 13.579V1.43748C18.4713 1.28686 18.3491 1.16467 18.1985 1.16467H14.8813C14.7307 1.16467 14.6085 1.28686 14.6085 1.43748V9.86432C14.6085 10.1214 14.2853 10.2357 14.1236 10.0357Z" fill="#0A0A0A"/>
<path d="M25.1887 0.954225C21.7722 0.954225 20.0214 1.55703 20.0214 5.04077C20.0214 10.825 19.8159 11.7086 20.8789 12.8834C22.2014 14.294 24.1059 14.0201 31.7845 14.0201C35.2142 14.0201 36.9492 13.4112 36.9492 9.93153C36.9492 3.98077 37.1276 3.23078 36.0963 2.08828C34.7648 0.680163 32.8254 0.954225 25.1887 0.954225ZM33.3098 9.42247C33.3098 10.1628 33.2295 10.3912 33.0259 10.5672C32.681 10.8711 32.4431 10.7976 25.3514 10.7976C24.4689 10.7976 24.1594 10.7482 23.942 10.5672C23.5862 10.2397 23.6647 9.98216 23.6647 5.54936C23.6647 4.23265 23.9745 4.17218 25.3514 4.17218C32.5051 4.17218 32.6915 4.09812 33.0259 4.40796C33.3928 4.72124 33.3098 4.95655 33.3098 9.42247Z" fill="#0A0A0A"/>
<path d="M33.0259 4.40795C33.3926 4.72123 33.3098 4.95654 33.3098 9.42246C33.3098 10.1628 33.2295 10.3912 33.0259 10.5671C32.8282 10.7414 32.6651 10.7915 31.2264 10.8028C34.994 10.812 35.2034 10.8117 35.4807 10.5671C35.6843 10.3914 35.7646 10.1628 35.7646 9.42246C35.7646 4.95654 35.8475 4.72123 35.4807 4.40795C35.2112 4.15826 35.0368 4.15795 31.2337 4.16717C32.6893 4.17842 32.8332 4.22951 33.0259 4.40795Z" fill="black"/>
<path d="M23.3337 12.8834C22.2708 11.7086 22.4762 10.8251 22.4762 5.04076C22.4762 1.55687 24.227 0.954219 27.6436 0.954219C29.0773 0.954219 30.3101 0.944532 31.3759 0.938126C29.8751 0.920157 27.8895 0.954219 25.1887 0.954219C21.7722 0.954219 20.0214 1.55703 20.0214 5.04076C20.0214 10.825 19.8159 11.7084 20.8789 12.8834C21.9534 14.0295 23.4122 14.0635 28.04 14.036C25.2909 14.0032 24.1894 13.796 23.3337 12.8834Z" fill="black"/>
<path d="M45.7006 7.44125C45.5796 7.3325 45.5801 7.14281 45.7015 7.03468L52.2133 1.23361C52.2608 1.19127 52.2563 1.17174 52.5182 1.1633C49.2468 1.15768 49.4084 1.13814 49.301 1.23361L42.7892 7.03468C42.6678 7.14281 42.6673 7.3325 42.7882 7.44125L49.8448 13.7818C49.8948 13.8268 49.9598 13.8517 50.0271 13.8517H52.9393C52.8719 13.8517 52.8071 13.8268 52.7569 13.7818L45.7006 7.44125Z" fill="black"/>
<path d="M59.0256 13.579V1.43733C59.0256 1.28671 59.1477 1.16452 59.2984 1.16452H56.6372C56.4866 1.16452 56.3644 1.28671 56.3644 1.43733V13.579C56.3644 13.7296 56.4864 13.8518 56.6372 13.8518H59.2984C59.1478 13.8518 59.0256 13.7296 59.0256 13.579Z" fill="black"/>
<path d="M64.1995 13.4451L71.0392 1.30344C71.0922 1.20954 71.0594 1.17438 71.612 1.16297C68.1327 1.15579 68.3177 1.13407 68.2222 1.30344L61.3825 13.4451C61.2802 13.627 61.4114 13.8518 61.6202 13.8518H64.4372C64.2285 13.8518 64.0972 13.627 64.1995 13.4451Z" fill="black"/>
<path d="M3.06118 13.579V1.43752C3.06118 1.28689 3.18321 1.1647 3.33399 1.1647H0.543685C0.393061 1.1647 0.270874 1.28673 0.270874 1.43752V13.579C0.270874 13.7297 0.392905 13.8518 0.543685 13.8518H3.33399C3.18321 13.8518 3.06118 13.7297 3.06118 13.579Z" fill="black"/>
<path d="M41.1173 13.5788V1.43718C41.1173 1.28656 41.2393 1.16437 41.3901 1.16437H38.7998C38.6492 1.16437 38.527 1.28656 38.527 1.43718V13.5788C38.527 13.7295 38.6492 13.8517 38.7998 13.8517H41.3901C41.2393 13.8517 41.1173 13.7295 41.1173 13.5788Z" fill="black"/>
</svg>
