<svg width="15" height="15" viewBox="0 0 15 15" fill="none" xmlns="http://www.w3.org/2000/svg">
<path d="M3 12.4245L0.6375 14.8706C0.5125 15 0.375 15.0324 0.225 14.9676C0.075 14.9029 0 14.78 0 14.5988V1.55306C0 1.12597 0.147 0.760225 0.441 0.455825C0.735 0.151425 1.088 -0.000516369 1.5 1.31839e-06H13.5C13.9125 1.31839e-06 14.2657 0.152202 14.5597 0.456602C14.8537 0.761002 15.0005 1.12649 15 1.55306V10.8714C15 11.2985 14.853 11.6643 14.559 11.9687C14.265 12.2731 13.912 12.425 13.5 12.4245H3ZM1.5 10.8714H13.5V1.55306H1.5V10.8714ZM7.5 8.13417L8.925 9.02718C9.0625 9.11777 9.2 9.11441 9.3375 9.01709C9.475 8.91976 9.525 8.78723 9.4875 8.6195L9.1125 6.93054L10.3875 5.78516C10.5125 5.66868 10.55 5.52968 10.5 5.36816C10.45 5.20665 10.3375 5.11916 10.1625 5.1057L8.49375 4.9698L7.8375 3.37791C7.775 3.22261 7.6625 3.14495 7.5 3.14495C7.3375 3.14495 7.225 3.22261 7.1625 3.37791L6.50625 4.9698L4.8375 5.1057C4.6625 5.11864 4.55 5.20613 4.5 5.36816C4.45 5.5302 4.4875 5.6692 4.6125 5.78516L5.8875 6.93054L5.5125 8.6195C5.475 8.78775 5.525 8.92054 5.6625 9.01786C5.8 9.11519 5.9375 9.11829 6.075 9.02718L7.5 8.13417Z" fill="#262626"/>
</svg>
