<svg width="100" height="63" viewBox="0 0 100 63" fill="none" xmlns="http://www.w3.org/2000/svg">
<path d="M36.8239 54.9091C36.8239 55.983 36.63 56.911 36.2422 57.6932C35.8544 58.4754 35.3224 59.0786 34.6463 59.5028C33.9702 59.9271 33.1979 60.1392 32.3295 60.1392C31.4612 60.1392 30.6889 59.9271 30.0128 59.5028C29.3366 59.0786 28.8047 58.4754 28.4169 57.6932C28.0291 56.911 27.8352 55.983 27.8352 54.9091C27.8352 53.8352 28.0291 52.9072 28.4169 52.125C28.8047 51.3428 29.3366 50.7396 30.0128 50.3153C30.6889 49.8911 31.4612 49.679 32.3295 49.679C33.1979 49.679 33.9702 49.8911 34.6463 50.3153C35.3224 50.7396 35.8544 51.3428 36.2422 52.125C36.63 52.9072 36.8239 53.8352 36.8239 54.9091ZM35.6307 54.9091C35.6307 54.0275 35.4832 53.2834 35.1882 52.6768C34.8965 52.0703 34.5005 51.6113 34 51.2997C33.5028 50.9882 32.946 50.8324 32.3295 50.8324C31.7131 50.8324 31.1546 50.9882 30.6541 51.2997C30.157 51.6113 29.7609 52.0703 29.4659 52.6768C29.1742 53.2834 29.0284 54.0275 29.0284 54.9091C29.0284 55.7907 29.1742 56.5348 29.4659 57.1413C29.7609 57.7479 30.157 58.2069 30.6541 58.5185C31.1546 58.83 31.7131 58.9858 32.3295 58.9858C32.946 58.9858 33.5028 58.83 34 58.5185C34.5005 58.2069 34.8965 57.7479 35.1882 57.1413C35.4832 56.5348 35.6307 55.7907 35.6307 54.9091ZM38.7379 62.8636V52.3636H39.8714V53.5767H40.0107C40.0968 53.4441 40.2161 53.2751 40.3686 53.0696C40.5244 52.8608 40.7464 52.6752 41.0348 52.5128C41.3265 52.3471 41.7209 52.2642 42.218 52.2642C42.861 52.2642 43.4278 52.425 43.9183 52.7464C44.4089 53.0679 44.7917 53.5237 45.0668 54.1136C45.3419 54.7036 45.4794 55.3996 45.4794 56.2017C45.4794 57.0104 45.3419 57.7114 45.0668 58.3047C44.7917 58.8946 44.4105 59.352 43.9233 59.6768C43.4361 59.9983 42.8743 60.1591 42.2379 60.1591C41.7474 60.1591 41.3546 60.0779 41.0597 59.9155C40.7647 59.7498 40.5376 59.5625 40.3786 59.3537C40.2195 59.1416 40.0968 58.9659 40.0107 58.8267H39.9112V62.8636H38.7379ZM39.8913 56.1818C39.8913 56.7585 39.9759 57.2673 40.1449 57.7081C40.3139 58.1456 40.5608 58.4886 40.8857 58.7372C41.2105 58.9825 41.6082 59.1051 42.0788 59.1051C42.5694 59.1051 42.9787 58.9759 43.3068 58.7173C43.6383 58.4555 43.8868 58.1042 44.0526 57.6634C44.2216 57.2192 44.3061 56.7254 44.3061 56.1818C44.3061 55.6449 44.2232 55.161 44.0575 54.7301C43.8951 54.2959 43.6482 53.9529 43.3168 53.701C42.9886 53.4458 42.576 53.3182 42.0788 53.3182C41.6016 53.3182 41.2005 53.4392 40.8757 53.6811C40.5509 53.9197 40.3056 54.2545 40.1399 54.6854C39.9742 55.1129 39.8913 55.6117 39.8913 56.1818ZM47.2692 62.8636V52.3636H48.4027V53.5767H48.5419C48.6281 53.4441 48.7474 53.2751 48.8999 53.0696C49.0556 52.8608 49.2777 52.6752 49.5661 52.5128C49.8577 52.3471 50.2521 52.2642 50.7493 52.2642C51.3923 52.2642 51.959 52.425 52.4496 52.7464C52.9401 53.0679 53.3229 53.5237 53.598 54.1136C53.8731 54.7036 54.0107 55.3996 54.0107 56.2017C54.0107 57.0104 53.8731 57.7114 53.598 58.3047C53.3229 58.8946 52.9418 59.352 52.4545 59.6768C51.9673 59.9983 51.4055 60.1591 50.7692 60.1591C50.2786 60.1591 49.8859 60.0779 49.5909 59.9155C49.2959 59.7498 49.0689 59.5625 48.9098 59.3537C48.7507 59.1416 48.6281 58.9659 48.5419 58.8267H48.4425V62.8636H47.2692ZM48.4226 56.1818C48.4226 56.7585 48.5071 57.2673 48.6761 57.7081C48.8452 58.1456 49.0921 58.4886 49.4169 58.7372C49.7417 58.9825 50.1394 59.1051 50.6101 59.1051C51.1006 59.1051 51.5099 58.9759 51.8381 58.7173C52.1695 58.4555 52.4181 58.1042 52.5838 57.6634C52.7528 57.2192 52.8374 56.7254 52.8374 56.1818C52.8374 55.6449 52.7545 55.161 52.5888 54.7301C52.4264 54.2959 52.1795 53.9529 51.848 53.701C51.5199 53.4458 51.1072 53.3182 50.6101 53.3182C50.1328 53.3182 49.7318 53.4392 49.407 53.6811C49.0821 53.9197 48.8369 54.2545 48.6712 54.6854C48.5054 55.1129 48.4226 55.6117 48.4226 56.1818ZM58.9027 60.1591C58.2133 60.1591 57.6084 59.995 57.0881 59.6669C56.571 59.3388 56.1667 58.8797 55.875 58.2898C55.5866 57.6998 55.4425 57.0104 55.4425 56.2216C55.4425 55.4261 55.5866 54.7318 55.875 54.1385C56.1667 53.5452 56.571 53.0845 57.0881 52.7564C57.6084 52.4283 58.2133 52.2642 58.9027 52.2642C59.5921 52.2642 60.1953 52.4283 60.7124 52.7564C61.2327 53.0845 61.6371 53.5452 61.9254 54.1385C62.2171 54.7318 62.3629 55.4261 62.3629 56.2216C62.3629 57.0104 62.2171 57.6998 61.9254 58.2898C61.6371 58.8797 61.2327 59.3388 60.7124 59.6669C60.1953 59.995 59.5921 60.1591 58.9027 60.1591ZM58.9027 59.1051C59.4264 59.1051 59.8572 58.9709 60.1953 58.7024C60.5334 58.4339 60.7836 58.081 60.946 57.6435C61.1084 57.206 61.1896 56.732 61.1896 56.2216C61.1896 55.7112 61.1084 55.2356 60.946 54.7947C60.7836 54.3539 60.5334 53.9976 60.1953 53.7259C59.8572 53.4541 59.4264 53.3182 58.9027 53.3182C58.379 53.3182 57.9482 53.4541 57.6101 53.7259C57.272 53.9976 57.0218 54.3539 56.8594 54.7947C56.697 55.2356 56.6158 55.7112 56.6158 56.2216C56.6158 56.732 56.697 57.206 56.8594 57.6435C57.0218 58.081 57.272 58.4339 57.6101 58.7024C57.9482 58.9709 58.379 59.1051 58.9027 59.1051Z" fill="#004F22"/>
<path d="M11.5035 0C5.14902 0 0 2.29844 0 5.12938C0 7.96656 5.14902 10.2623 11.5035 10.2623C17.852 10.2623 23.0029 7.96656 23.0029 5.12938C23.0027 2.29844 17.852 0 11.5035 0ZM10.3371 8.81687C8.16289 8.81687 2.5877 8.03437 2.5877 5.05344C2.5877 2.97125 6.0582 1.29031 10.3371 1.29031C14.616 1.29031 18.0822 2.97125 18.0822 5.05344C18.0822 7.12922 14.616 8.81687 10.3371 8.81687Z" fill="black"/>
<path d="M37.4375 0C35.5732 0 33.8149 0.199062 32.2574 0.549843C32.1854 0.566093 32.1356 0.624532 32.1356 0.691094V1.67234C32.1356 1.77031 32.2404 1.83859 32.3447 1.80875C33.4969 1.47969 34.8385 1.29016 36.2711 1.29016C40.5498 1.29016 44.0162 2.97109 44.0162 5.05328C44.0162 7.12906 40.5498 8.81672 36.2711 8.81672C33.3613 8.81672 30.8256 8.03594 29.5006 6.8839C29.4686 6.85609 29.4516 6.81797 29.4516 6.77813V0.448124C29.4516 0.368281 29.3793 0.303593 29.2902 0.303593H25.5514C25.4623 0.303593 25.39 0.368281 25.39 0.448124V13.8105C25.39 13.8903 25.4623 13.955 25.5514 13.955H29.2902C29.3793 13.955 29.4516 13.8903 29.4516 13.8105V9.04828C29.4516 8.94297 29.5711 8.87422 29.6781 8.91797C31.7236 9.75234 34.4459 10.2622 37.4373 10.2622C43.7859 10.2622 48.9365 7.96641 48.9365 5.12922C48.9367 2.29844 43.7861 0 37.4375 0Z" fill="black"/>
<path d="M63.3717 0C61.5074 0 59.749 0.199062 58.1916 0.549843C58.1195 0.566093 58.0697 0.624532 58.0697 0.691094V1.67234C58.0697 1.77031 58.1746 1.83859 58.2789 1.80875C59.4311 1.47969 60.7727 1.29016 62.2053 1.29016C66.484 1.29016 69.9504 2.97109 69.9504 5.05328C69.9504 7.12906 66.484 8.81672 62.2053 8.81672C59.2955 8.81672 56.7598 8.03594 55.4348 6.8839C55.4027 6.85609 55.3857 6.81797 55.3857 6.77813V0.448124C55.3857 0.368281 55.3135 0.303593 55.2244 0.303593H51.4855C51.3965 0.303593 51.3242 0.368281 51.3242 0.448124V13.8105C51.3242 13.8903 51.3965 13.955 51.4855 13.955H55.2244C55.3135 13.955 55.3857 13.8903 55.3857 13.8105V9.04828C55.3857 8.94297 55.5053 8.87422 55.6123 8.91797C57.6578 9.75234 60.3801 10.2622 63.3715 10.2622C69.7201 10.2622 74.8707 7.96641 74.8707 5.12922C74.8709 2.29844 69.7203 0 63.3717 0Z" fill="black"/>
<path d="M88.5006 0C82.1463 0 76.9971 2.29844 76.9971 5.12938C76.9971 7.96656 82.1461 10.2623 88.5006 10.2623C94.849 10.2623 100 7.96656 100 5.12938C100 2.29844 94.8492 0 88.5006 0ZM87.3342 8.81687C85.16 8.81687 79.5848 8.03437 79.5848 5.05344C79.5848 2.97125 83.0553 1.29031 87.3342 1.29031C91.6131 1.29031 95.0793 2.97125 95.0793 5.05344C95.0795 7.12922 91.6131 8.81687 87.3342 8.81687Z" fill="black"/>
</svg>
