<svg width="100" height="14" viewBox="0 0 100 14" fill="none" xmlns="http://www.w3.org/2000/svg">
<path d="M11.5035 0C5.14902 0 0 2.29844 0 5.12938C0 7.96656 5.14902 10.2623 11.5035 10.2623C17.852 10.2623 23.0029 7.96656 23.0029 5.12938C23.0027 2.29844 17.852 0 11.5035 0ZM10.3371 8.81687C8.16289 8.81687 2.5877 8.03437 2.5877 5.05344C2.5877 2.97125 6.0582 1.29031 10.3371 1.29031C14.616 1.29031 18.0822 2.97125 18.0822 5.05344C18.0822 7.12922 14.616 8.81687 10.3371 8.81687Z" fill="black"/>
<path d="M37.4375 0C35.5732 0 33.8149 0.199062 32.2574 0.549843C32.1854 0.566093 32.1356 0.624532 32.1356 0.691094V1.67234C32.1356 1.77031 32.2404 1.83859 32.3447 1.80875C33.4969 1.47969 34.8385 1.29016 36.2711 1.29016C40.5498 1.29016 44.0162 2.97109 44.0162 5.05328C44.0162 7.12906 40.5498 8.81672 36.2711 8.81672C33.3613 8.81672 30.8256 8.03594 29.5006 6.8839C29.4686 6.85609 29.4516 6.81797 29.4516 6.77813V0.448124C29.4516 0.368281 29.3793 0.303593 29.2902 0.303593H25.5514C25.4623 0.303593 25.39 0.368281 25.39 0.448124V13.8105C25.39 13.8903 25.4623 13.955 25.5514 13.955H29.2902C29.3793 13.955 29.4516 13.8903 29.4516 13.8105V9.04828C29.4516 8.94297 29.5711 8.87422 29.6781 8.91797C31.7236 9.75234 34.4459 10.2622 37.4373 10.2622C43.7859 10.2622 48.9365 7.96641 48.9365 5.12922C48.9367 2.29844 43.7861 0 37.4375 0Z" fill="black"/>
<path d="M63.3717 0C61.5074 0 59.749 0.199062 58.1916 0.549843C58.1195 0.566093 58.0697 0.624532 58.0697 0.691094V1.67234C58.0697 1.77031 58.1746 1.83859 58.2789 1.80875C59.4311 1.47969 60.7727 1.29016 62.2053 1.29016C66.484 1.29016 69.9504 2.97109 69.9504 5.05328C69.9504 7.12906 66.484 8.81672 62.2053 8.81672C59.2955 8.81672 56.7598 8.03594 55.4348 6.8839C55.4027 6.85609 55.3857 6.81797 55.3857 6.77813V0.448124C55.3857 0.368281 55.3135 0.303593 55.2244 0.303593H51.4855C51.3965 0.303593 51.3242 0.368281 51.3242 0.448124V13.8105C51.3242 13.8903 51.3965 13.955 51.4855 13.955H55.2244C55.3135 13.955 55.3857 13.8903 55.3857 13.8105V9.04828C55.3857 8.94297 55.5053 8.87422 55.6123 8.91797C57.6578 9.75234 60.3801 10.2622 63.3715 10.2622C69.7201 10.2622 74.8707 7.96641 74.8707 5.12922C74.8709 2.29844 69.7203 0 63.3717 0Z" fill="black"/>
<path d="M88.5006 0C82.1463 0 76.9971 2.29844 76.9971 5.12938C76.9971 7.96656 82.1461 10.2623 88.5006 10.2623C94.849 10.2623 100 7.96656 100 5.12938C100 2.29844 94.8492 0 88.5006 0ZM87.3342 8.81687C85.16 8.81687 79.5848 8.03437 79.5848 5.05344C79.5848 2.97125 83.0553 1.29031 87.3342 1.29031C91.6131 1.29031 95.0793 2.97125 95.0793 5.05344C95.0795 7.12922 91.6131 8.81687 87.3342 8.81687Z" fill="black"/>
</svg>
