<svg width="17" height="17" viewBox="0 0 17 17" fill="none" xmlns="http://www.w3.org/2000/svg">
<path fill-rule="evenodd" clip-rule="evenodd" d="M3.14286 1H13.8571C14.4255 1 14.9705 1.22576 15.3724 1.62763C15.7742 2.02949 16 2.57454 16 3.14286V13.8571C16 14.4255 15.7742 14.9705 15.3724 15.3724C14.9705 15.7742 14.4255 16 13.8571 16H3.14286C2.57454 16 2.02949 15.7742 1.62763 15.3724C1.22576 14.9705 1 14.4255 1 13.8571V3.14286C1 2.57454 1.22576 2.02949 1.62763 1.62763C2.02949 1.22576 2.57454 1 3.14286 1Z" stroke="#262626" stroke-linecap="round" stroke-linejoin="round"/>
<path d="M16 11.7141L12.7857 8.49979L9.57143 11.698M13.8571 15.9998L4.21429 6.35693L1 9.57122" stroke="#262626" stroke-linecap="round" stroke-linejoin="round"/>
<path d="M12.25 5.82157C12.8418 5.82157 13.3214 5.34187 13.3214 4.75014C13.3214 4.15841 12.8418 3.67871 12.25 3.67871C11.6583 3.67871 11.1786 4.15841 11.1786 4.75014C11.1786 5.34187 11.6583 5.82157 12.25 5.82157Z" fill="#262626"/>
</svg>
