<svg width="30" height="30" viewBox="0 0 30 30" fill="none" xmlns="http://www.w3.org/2000/svg">
<circle cx="15" cy="15" r="15" fill="#D2E0F8"/>
<path d="M22.0952 14.619H20.9524V11.5714C20.9524 11.1673 20.7918 10.7797 20.5061 10.4939C20.2203 10.2082 19.8327 10.0476 19.4286 10.0476H16.381V8.90476C16.381 8.39959 16.1803 7.9151 15.8231 7.55789C15.4658 7.20068 14.9814 7 14.4762 7C13.971 7 13.4865 7.20068 13.1293 7.55789C12.7721 7.9151 12.5714 8.39959 12.5714 8.90476V10.0476H9.52381C9.11967 10.0476 8.73208 10.2082 8.44631 10.4939C8.16054 10.7797 8 11.1673 8 11.5714V14.4667H9.14286C10.2857 14.4667 11.2 15.381 11.2 16.5238C11.2 17.6667 10.2857 18.581 9.14286 18.581H8V21.4762C8 21.8803 8.16054 22.2679 8.44631 22.5537C8.73208 22.8395 9.11967 23 9.52381 23H12.419V21.8571C12.419 20.7143 13.3333 19.8 14.4762 19.8C15.619 19.8 16.5333 20.7143 16.5333 21.8571V23H19.4286C19.8327 23 20.2203 22.8395 20.5061 22.5537C20.7918 22.2679 20.9524 21.8803 20.9524 21.4762V18.4286H22.0952C22.6004 18.4286 23.0849 18.2279 23.4421 17.8707C23.7993 17.5135 24 17.029 24 16.5238C24 16.0186 23.7993 15.5342 23.4421 15.1769C23.0849 14.8197 22.6004 14.619 22.0952 14.619Z" fill="#7969E5"/>
</svg>
