<svg width="72" height="15" viewBox="0 0 72 15" fill="none" xmlns="http://www.w3.org/2000/svg">
<path d="M71.8692 6.15676L68.519 9.59178L69.3066 14.4534C69.3759 14.8413 68.9553 15.1254 68.619 14.9414L64.5001 12.6576V0C64.6751 0 64.8501 0.0813393 64.9251 0.250275L66.9939 4.66137L71.6004 5.36214C71.9855 5.43096 72.1273 5.88459 71.8692 6.15676Z" fill="#DCDCDC"/>
<path d="M64.5001 0V12.6576L60.3811 14.9414C60.0505 15.1272 59.6236 14.8457 59.6936 14.4534L60.4811 9.59178L57.1309 6.15676C56.8728 5.88459 57.014 5.43096 57.3997 5.36214L62.0062 4.66137L64.0751 0.250275C64.1501 0.0813393 64.3251 0 64.5001 0Z" fill="#FFC107"/>
<path d="M20.825 1.79268C20.8937 1.67466 20.9923 1.57673 21.1107 1.50867C21.2291 1.4406 21.3634 1.40479 21.5 1.40479C21.6366 1.40479 21.7708 1.4406 21.8892 1.50867C22.0077 1.57673 22.1062 1.67466 22.175 1.79268L23.9218 4.79143L27.3143 5.52643C27.4478 5.55543 27.5713 5.6189 27.6726 5.71052C27.7738 5.80213 27.8493 5.91869 27.8915 6.04857C27.9337 6.17845 27.9411 6.31712 27.9129 6.45076C27.8848 6.58439 27.8222 6.70832 27.7312 6.81018L25.4187 9.39831L25.7687 12.8514C25.7825 12.9874 25.7604 13.1246 25.7046 13.2494C25.6488 13.3741 25.5612 13.4821 25.4507 13.5624C25.3401 13.6427 25.2104 13.6927 25.0745 13.7072C24.9386 13.7217 24.8013 13.7003 24.6762 13.6452L21.5 12.2452L18.3237 13.6452C18.1987 13.7003 18.0613 13.7217 17.9254 13.7072C17.7895 13.6927 17.6598 13.6427 17.5493 13.5624C17.4387 13.4821 17.3511 13.3741 17.2953 13.2494C17.2395 13.1246 17.2174 12.9874 17.2312 12.8514L17.5812 9.39831L15.2687 6.81081C15.1776 6.70895 15.1148 6.58497 15.0866 6.45126C15.0584 6.31754 15.0657 6.17876 15.1079 6.04878C15.1501 5.91879 15.2257 5.80215 15.327 5.71049C15.4284 5.61884 15.552 5.55537 15.6856 5.52643L19.0781 4.79143L20.825 1.79268Z" fill="#FFC107"/>
<path d="M6.82496 1.79268C6.89374 1.67466 6.99226 1.57673 7.1107 1.50867C7.22914 1.4406 7.36336 1.40479 7.49996 1.40479C7.63656 1.40479 7.77078 1.4406 7.88922 1.50867C8.00766 1.57673 8.10618 1.67466 8.17496 1.79268L9.92183 4.79143L13.3143 5.52643C13.4478 5.55543 13.5713 5.6189 13.6726 5.71052C13.7738 5.80213 13.8493 5.91869 13.8915 6.04857C13.9337 6.17845 13.9411 6.31712 13.9129 6.45076C13.8848 6.58439 13.8222 6.70832 13.7312 6.81018L11.4187 9.39831L11.7687 12.8514C11.7825 12.9874 11.7604 13.1246 11.7046 13.2494C11.6488 13.3741 11.5612 13.4821 11.4507 13.5624C11.3401 13.6427 11.2104 13.6927 11.0745 13.7072C10.9386 13.7217 10.8013 13.7003 10.6762 13.6452L7.49996 12.2452L4.32371 13.6452C4.19866 13.7003 4.06133 13.7217 3.92543 13.7072C3.78953 13.6927 3.65982 13.6427 3.54925 13.5624C3.43869 13.4821 3.35112 13.3741 3.29532 13.2494C3.23951 13.1246 3.2174 12.9874 3.23121 12.8514L3.58121 9.39831L1.26871 6.81081C1.1776 6.70895 1.11481 6.58497 1.08659 6.45126C1.05838 6.31754 1.06574 6.17876 1.10792 6.04878C1.15011 5.91879 1.22566 5.80215 1.32703 5.71049C1.42839 5.61884 1.55202 5.55537 1.68559 5.52643L5.07809 4.79143L6.82496 1.79268Z" fill="#FFC107"/>
<path d="M48.825 1.79268C48.8937 1.67466 48.9923 1.57673 49.1107 1.50867C49.2291 1.4406 49.3634 1.40479 49.5 1.40479C49.6366 1.40479 49.7708 1.4406 49.8892 1.50867C50.0077 1.57673 50.1062 1.67466 50.175 1.79268L51.9218 4.79143L55.3143 5.52643C55.4478 5.55543 55.5713 5.6189 55.6726 5.71052C55.7738 5.80213 55.8493 5.91869 55.8915 6.04857C55.9337 6.17845 55.9411 6.31712 55.9129 6.45076C55.8848 6.58439 55.8222 6.70832 55.7312 6.81018L53.4187 9.39831L53.7687 12.8514C53.7825 12.9874 53.7604 13.1246 53.7046 13.2494C53.6488 13.3741 53.5612 13.4821 53.4507 13.5624C53.3401 13.6427 53.2104 13.6927 53.0745 13.7072C52.9386 13.7217 52.8013 13.7003 52.6762 13.6452L49.5 12.2452L46.3237 13.6452C46.1987 13.7003 46.0613 13.7217 45.9254 13.7072C45.7895 13.6927 45.6598 13.6427 45.5493 13.5624C45.4387 13.4821 45.3511 13.3741 45.2953 13.2494C45.2395 13.1246 45.2174 12.9874 45.2312 12.8514L45.5812 9.39831L43.2687 6.81081C43.1776 6.70895 43.1148 6.58497 43.0866 6.45126C43.0584 6.31754 43.0657 6.17876 43.1079 6.04878C43.1501 5.91879 43.2257 5.80215 43.327 5.71049C43.4284 5.61884 43.552 5.55537 43.6856 5.52643L47.0781 4.79143L48.825 1.79268Z" fill="#FFC107"/>
<path d="M34.825 1.79268C34.8937 1.67466 34.9923 1.57673 35.1107 1.50867C35.2291 1.4406 35.3634 1.40479 35.5 1.40479C35.6366 1.40479 35.7708 1.4406 35.8892 1.50867C36.0077 1.57673 36.1062 1.67466 36.175 1.79268L37.9218 4.79143L41.3143 5.52643C41.4478 5.55543 41.5713 5.6189 41.6726 5.71052C41.7738 5.80213 41.8493 5.91869 41.8915 6.04857C41.9337 6.17845 41.9411 6.31712 41.9129 6.45076C41.8848 6.58439 41.8222 6.70832 41.7312 6.81018L39.4187 9.39831L39.7687 12.8514C39.7825 12.9874 39.7604 13.1246 39.7046 13.2494C39.6488 13.3741 39.5612 13.4821 39.4507 13.5624C39.3401 13.6427 39.2104 13.6927 39.0745 13.7072C38.9386 13.7217 38.8013 13.7003 38.6762 13.6452L35.5 12.2452L32.3237 13.6452C32.1987 13.7003 32.0613 13.7217 31.9254 13.7072C31.7895 13.6927 31.6598 13.6427 31.5493 13.5624C31.4387 13.4821 31.3511 13.3741 31.2953 13.2494C31.2395 13.1246 31.2174 12.9874 31.2312 12.8514L31.5812 9.39831L29.2687 6.81081C29.1776 6.70895 29.1148 6.58497 29.0866 6.45126C29.0584 6.31754 29.0657 6.17876 29.1079 6.04878C29.1501 5.91879 29.2257 5.80215 29.327 5.71049C29.4284 5.61884 29.552 5.55537 29.6856 5.52643L33.0781 4.79143L34.825 1.79268Z" fill="#FFC107"/>
</svg>
