<svg width="245" height="265" viewBox="0 0 245 265" fill="none" xmlns="http://www.w3.org/2000/svg">
<g filter="url(#filter0_d_4_10)">
<path d="M112.8 8.93334C83.2 41.6 49.3333 63.7333 17.6 71.6L4 75.0667L4.4 82.5333C8.26667 137.467 26.9333 183.333 58.8 215.067C73.8667 230.267 96 245.333 115.067 253.333L122.133 256.267L129.067 253.333C153.333 243.067 178.667 224.667 194.133 206C221.6 172.933 235.333 135.333 239.867 81.0667L240.4 74.9333L234.667 73.4667C226.133 71.3333 225.2 71.6 221.6 76.9333C218 82.1333 218.133 84 222.267 84C226.267 84 226.533 86.6667 224.133 102.267C217.2 148.267 201.467 181.067 173.333 208C160.267 220.533 148.133 229.067 132.4 236.8L122 242L109.333 235.467C78 219.6 53.6 195.067 38.2667 164.267C29.7333 147.2 21.3333 116.667 18.8 93.8667L17.8667 85.7333L29.2 82.1333C58 73.2 80.4 59.0667 110.133 30.9333L122.933 18.9333L134 28.8L145.067 38.5333L148.267 32.4C150.133 29.0667 151.333 26.2667 151.2 26.1333C150.933 25.8667 144.4 20 136.533 12.9333C128.667 5.86668 122 1.12057e-05 121.733 1.12057e-05C121.333 1.12057e-05 117.333 4.00001 112.8 8.93334Z" fill="black"/>
<path d="M171.733 24.8C148.933 36.1333 148.933 69.2 171.733 80.5333C190.533 89.8667 212.4 79.6 216.933 59.3333C221.333 39.7333 206.4 21.3333 186.133 21.3333C180.8 21.3333 176.667 22.2667 171.733 24.8ZM202.667 36.8C203.867 37.8667 204.8 39.8667 204.8 41.2C204.8 42.5333 200.267 49.7333 194.8 57.0667C186.267 68.6667 184.267 70.6667 181.067 70.6667C178.133 70.6667 176.267 69.2 172.4 64C166.533 56.2667 166.267 52.9333 170.933 49.8667C174.133 47.7333 174.4 47.7333 178 50.4L181.733 53.0667L188.667 43.8667C195.733 34.4 198.8 32.8 202.667 36.8Z" fill="black"/>
<path d="M112.667 77.7333C97.8667 82 88.8 93.6 88.8 108.667C88.8 112.667 88.2667 116 87.6 116C87.0667 116 84.9333 117.6 82.9333 119.467C79.6 122.933 79.4667 123.467 79.4667 140C79.4667 162.8 81.3333 168.667 91.3333 178.8C97.7333 185.067 100.533 186.933 108 189.2C119.467 192.667 124.8 192.667 136.267 189.2C143.733 186.933 146.533 185.067 152.933 178.8C162.933 168.667 164.8 162.8 164.8 140C164.8 123.467 164.667 122.933 161.333 119.467C159.333 117.6 157.2 116 156.667 116C156 116 155.467 112.533 155.467 108.267C155.467 98.8 152.133 91.4667 145.6 85.6C136.533 77.6 123.867 74.6667 112.667 77.7333ZM134.4 90.2667C140.267 93.8667 143.467 99.8667 143.467 107.867V114.667H122.133H100.8V107.6C100.8 97.7333 105.733 90.9333 115.2 87.8667C120.133 86.2667 129.6 87.4667 134.4 90.2667ZM131.6 137.2C137.067 142.8 137.067 150.8 131.467 156C128.533 158.8 127.467 160.933 127.467 164.4C127.467 171.333 126.267 173.333 122.133 173.333C118 173.333 116.8 171.333 116.8 164.4C116.8 160.933 115.733 158.8 112.8 156C109.6 153.067 108.8 151.2 108.8 146.667C108.8 134.533 122.933 128.667 131.6 137.2Z" fill="#8624E1"/>
</g>
<defs>
<filter id="filter0_d_4_10" x="0" y="7.62939e-06" width="244.4" height="264.267" filterUnits="userSpaceOnUse" color-interpolation-filters="sRGB">
<feFlood flood-opacity="0" result="BackgroundImageFix"/>
<feColorMatrix in="SourceAlpha" type="matrix" values="0 0 0 0 0 0 0 0 0 0 0 0 0 0 0 0 0 0 127 0" result="hardAlpha"/>
<feOffset dy="4"/>
<feGaussianBlur stdDeviation="2"/>
<feComposite in2="hardAlpha" operator="out"/>
<feColorMatrix type="matrix" values="0 0 0 0 0 0 0 0 0 0 0 0 0 0 0 0 0 0 0.25 0"/>
<feBlend mode="normal" in2="BackgroundImageFix" result="effect1_dropShadow_4_10"/>
<feBlend mode="normal" in="SourceGraphic" in2="effect1_dropShadow_4_10" result="shape"/>
</filter>
</defs>
</svg>
