<svg width="118" height="119" viewBox="0 0 118 119" fill="none" xmlns="http://www.w3.org/2000/svg">
<rect x="3" y="3" width="52" height="52" rx="6" stroke="black" stroke-width="6"/>
<rect x="63" y="64" width="52" height="52" rx="6" stroke="black" stroke-width="6"/>
<path d="M102.352 38.5326C106.601 34.4852 110 30.577 110 29.9489C110 28.6231 95.6962 14.3866 93.9968 14.0375C92.6513 13.6884 90.173 15.8522 90.173 17.3177C90.173 17.8756 92.014 20.1786 94.2092 22.4119L98.2454 26.4594L84.7914 26.4594C72.6119 26.4594 71.1249 26.5991 70.1335 27.7155C68.5759 29.3904 68.6465 30.8559 70.2042 32.2518C71.3373 33.2986 73.4616 33.4384 84.8622 33.4384L98.2454 33.4384L94.2092 37.4858C92.014 39.7192 90.173 42.0222 90.173 42.5801C90.173 43.9064 92.3681 46 93.7844 46C94.3508 46 98.1746 42.6502 102.352 38.5326Z" fill="black"/>
<path d="M15.6476 81.4674C11.3989 85.5148 8 89.423 8 90.0511C8 91.3769 22.3038 105.613 24.0032 105.962C25.3487 106.312 27.827 104.148 27.827 102.682C27.827 102.124 25.986 99.8214 23.7908 97.5881L19.7546 93.5406H33.2086C45.3881 93.5406 46.8751 93.4009 47.8665 92.2845C49.4241 90.6096 49.3535 89.1441 47.7958 87.7482C46.6627 86.7014 44.5384 86.5616 33.1378 86.5616H19.7546L23.7908 82.5142C25.986 80.2808 27.827 77.9778 27.827 77.4199C27.827 76.0936 25.6319 74 24.2156 74C23.6492 74 19.8254 77.3498 15.6476 81.4674Z" fill="black"/>
<path d="M27.5028 12.6013C26.1524 13.3949 25.6613 14.4327 18.4183 30.4883C12.0346 44.6513 11.8505 45.506 14.981 46.6659C16.9452 47.3985 18.357 46.4219 19.8301 43.3083L21.1805 40.6222H28.9146H36.71L37.8148 43.1251C39.3494 46.4828 41.1294 47.6425 43.2778 46.6659C44.751 45.9944 45.1806 45.1397 44.9351 43.1862C44.6282 41.1716 31.7995 13.9444 30.6946 12.9676C29.2215 11.7466 28.9759 11.7466 27.5028 12.6013ZM31.5539 28.5347L33.7637 33.6017L31.3084 33.7849C30.0194 33.9069 27.8097 33.9069 26.5207 33.7849L24.0654 33.6017L26.2752 28.5347C27.4414 25.7876 28.669 23.5289 28.9146 23.5289C29.0987 23.5289 30.3263 25.7876 31.5539 28.5347Z" fill="#8624E1"/>
<path d="M85.7465 72.431C84.7785 73.3863 84.3637 74.6824 84.3637 76.8658V79.936H79.2479C74.6854 79.936 73.9253 80.1407 73.0262 81.4368C71.5056 83.5521 71.644 84.5069 73.6484 86.4176C75.2386 88.055 75.7918 88.123 82.9809 88.123H90.6543L89.6174 89.9651C88.0278 93.0353 82.912 97.6062 79.0405 99.3802C77.1051 100.336 75.1696 101.086 74.7548 101.086C74.3401 101.086 73.5105 101.836 72.8883 102.792C71.5745 104.77 72.1277 106.885 74.2706 108.249C76.2066 109.546 79.2479 108.727 84.7095 105.452L88.8573 103.064L91.2765 104.497C92.5903 105.316 95.3553 106.749 97.3603 107.704C100.747 109.273 101.093 109.341 102.683 108.318C106.693 105.725 105.448 102.723 99.2268 99.653C96.7381 98.4249 94.8021 97.2654 94.8716 97.0607C98.2588 89.9651 99.3647 88.3277 101.301 87.7137C102.407 87.3724 103.789 86.281 104.342 85.3256C105.241 83.6882 105.241 83.3474 104.204 81.71C103.098 80.0726 102.614 79.936 97.913 79.936H92.8667L92.5208 76.3884C91.9682 71.3396 88.7878 69.4294 85.7465 72.431Z" fill="#8624E1"/>
</svg>
