<svg width="81" height="21" viewBox="0 0 81 21" fill="none" xmlns="http://www.w3.org/2000/svg">
<path d="M31.9215 7.69888C32.0123 8.18018 32.8649 9.19424 33.1737 9.59803C37.6604 15.468 38.8076 17.1454 39.918 18.5206C40.7412 19.5386 42.1565 20.6527 44.3152 20.5634C46.3444 20.4811 47.4721 19.3274 48.343 18.1943C48.364 18.167 56.0096 8.04262 55.7694 8.364C56.7221 7.08932 55.5244 5.69552 54.1369 5.93982C53.2651 6.09228 52.8866 6.79242 52.4382 7.40789C52.4154 7.43925 45.6726 16.377 45.7027 16.3374C45.3284 16.8298 44.7223 17.7312 43.7065 17.5094C42.9485 17.344 42.4262 16.4965 42.0521 15.9927C41.9474 15.852 36.2457 8.28214 35.316 7.06654C34.8919 6.5152 34.4245 5.74854 33.2762 5.93546C32.4555 6.06781 31.744 6.78286 31.9215 7.69888Z" fill="black"/>
<path d="M0.454936 7.65733C0.535717 8.18293 1.39322 9.1593 1.69572 9.56253L7.08509 16.7002C8.42087 18.5037 9.72259 20.6666 12.7885 20.5673C15.6173 20.4757 16.7846 18.34 18.2295 16.4183C24.6721 7.84875 24.7793 8.04355 24.6501 7.22541C24.5301 6.46395 23.7513 5.79743 22.7416 5.92753C21.5173 6.08519 21.7181 6.67549 15.6237 14.5089C13.8982 16.7349 13.5002 17.7145 12.3126 17.5199C11.5021 17.3887 11.0437 16.5607 10.6121 16.0054C3.08915 6.35495 3.49462 5.70432 1.84056 5.92879C1.02587 6.03906 0.318686 6.75101 0.454936 7.65733Z" fill="black"/>
<path d="M28.0601 0.616342C27.7742 0.718873 27.595 0.945172 27.3992 1.12028L26.1876 2.20325C25.3998 2.92013 26.0464 3.20142 27.0323 4.09298C27.2453 4.28637 27.4225 4.44094 27.6376 4.63362C28.4264 5.34529 28.7129 4.82279 29.7525 3.89256C31.1853 2.60677 31.1425 2.87287 28.9096 0.881037C28.7221 0.712261 28.4704 0.468382 28.0601 0.616342Z" fill="black"/>
<path d="M28.334 20.567H28.234C27.3246 20.567 26.5805 19.8972 26.5805 19.0787V7.40237C26.5805 6.58381 27.3246 5.91405 28.234 5.91405H28.334C29.2433 5.91405 29.9874 6.58381 29.9874 7.40237V19.0787C29.9873 19.8972 29.2433 20.567 28.334 20.567Z" fill="black"/>
<path d="M72.1948 5.6649H64.2265C59.6738 5.6649 55.9832 8.98697 55.9832 13.085C55.9832 17.183 59.6738 20.5051 64.2265 20.5051H72.1948C76.7474 20.5051 80.438 17.183 80.438 13.085C80.438 8.98697 76.7474 5.6649 72.1948 5.6649ZM72.1693 17.6821H64.2521C61.4315 17.6821 59.1448 15.6239 59.1448 13.0848C59.1448 10.5459 61.4313 8.48753 64.2521 8.48753H72.1693C74.9899 8.48753 77.2766 10.5458 77.2766 13.0848C77.2766 15.6239 74.9899 17.6821 72.1693 17.6821Z" fill="black"/>
</svg>
