<svg width="80" height="83" viewBox="0 0 80 83" fill="none" xmlns="http://www.w3.org/2000/svg">
<path d="M27.7034 20.1193V8.53319C27.7034 7.96905 28.0475 7.47468 28.5552 7.20844C28.3041 7.07679 28.0136 7 27.7034 7C26.7666 7 26 7.69001 26 8.53333V20.1195C26 20.9628 26.7666 21.6528 27.7034 21.6528C28.0136 21.6528 28.3041 21.576 28.5552 21.4444C28.0473 21.1779 27.7034 20.6835 27.7034 20.1193Z" fill="black"/>
<path d="M25.6504 69.8182L28.6731 78.3892H28.7925L31.8152 69.8182H33.1078L29.3692 80H28.0964L24.3578 69.8182H25.6504ZM34.5346 80V72.3636H35.7079V80H34.5346ZM35.1312 71.0909C34.9025 71.0909 34.7053 71.013 34.5396 70.8572C34.3772 70.7015 34.296 70.5142 34.296 70.2955C34.296 70.0767 34.3772 69.8894 34.5396 69.7337C34.7053 69.5779 34.9025 69.5 35.1312 69.5C35.3599 69.5 35.5555 69.5779 35.7179 69.7337C35.8836 69.8894 35.9665 70.0767 35.9665 70.2955C35.9665 70.5142 35.8836 70.7015 35.7179 70.8572C35.5555 71.013 35.3599 71.0909 35.1312 71.0909ZM44.1012 72.3636L41.2774 80H40.0842L37.2603 72.3636H38.5331L40.641 78.4489H40.7206L42.8285 72.3636H44.1012ZM48.4787 80.1591C47.7893 80.1591 47.1844 79.995 46.6641 79.6669C46.147 79.3388 45.7427 78.8797 45.451 78.2898C45.1627 77.6998 45.0185 77.0104 45.0185 76.2216C45.0185 75.4261 45.1627 74.7318 45.451 74.1385C45.7427 73.5452 46.147 73.0845 46.6641 72.7564C47.1844 72.4283 47.7893 72.2642 48.4787 72.2642C49.1681 72.2642 49.7713 72.4283 50.2884 72.7564C50.8087 73.0845 51.2131 73.5452 51.5014 74.1385C51.7931 74.7318 51.9389 75.4261 51.9389 76.2216C51.9389 77.0104 51.7931 77.6998 51.5014 78.2898C51.2131 78.8797 50.8087 79.3388 50.2884 79.6669C49.7713 79.995 49.1681 80.1591 48.4787 80.1591ZM48.4787 79.1051C49.0024 79.1051 49.4333 78.9709 49.7713 78.7024C50.1094 78.4339 50.3596 78.081 50.522 77.6435C50.6844 77.206 50.7657 76.732 50.7657 76.2216C50.7657 75.7112 50.6844 75.2356 50.522 74.7947C50.3596 74.3539 50.1094 73.9976 49.7713 73.7259C49.4333 73.4541 49.0024 73.3182 48.4787 73.3182C47.955 73.3182 47.5242 73.4541 47.1861 73.7259C46.848 73.9976 46.5978 74.3539 46.4354 74.7947C46.273 75.2356 46.1918 75.7112 46.1918 76.2216C46.1918 76.732 46.273 77.206 46.4354 77.6435C46.5978 78.081 46.848 78.4339 47.1861 78.7024C47.5242 78.9709 47.955 79.1051 48.4787 79.1051Z" fill="#004F22"/>
<path d="M45.1464 16.9388C46.1622 17.1605 46.7681 16.2592 47.1427 15.7667C54.8117 5.68134 54.3758 5.97698 54.9549 5.60947C54.6064 5.38978 54.1635 5.28725 53.6988 5.3691C52.8269 5.52156 52.4485 6.2217 52 6.83731C51.9702 6.87697 45.2391 15.8004 45.2646 15.7668C45.0775 16.0127 44.8328 16.3606 44.5081 16.6197C44.7 16.771 44.9119 16.8876 45.1464 16.9388Z" fill="black"/>
<path d="M41.358 17.95C40.5431 16.9409 39.4528 15.4316 38.6625 14.38C33.631 7.72854 33.4471 7.58171 33.3614 7.12827C33.2341 6.47089 33.5655 5.91857 34.0655 5.60929C33.7613 5.39958 33.3746 5.27764 32.8382 5.36498C32.0175 5.49733 31.306 6.21238 31.4835 7.12841C31.5722 7.59929 31.835 7.83698 36.7846 14.3801C37.5749 15.4317 38.6652 16.941 39.48 17.9502C40.3031 18.9682 41.7185 20.0822 43.8772 19.9929C44.1241 19.9829 44.3572 19.9565 44.5785 19.9167C43.0685 19.6507 42.0208 18.7697 41.358 17.95Z" fill="black"/>
<path d="M13.7526 16.9493C14.916 17.14 15.0043 16.6982 19.7611 10.368C23.2071 5.76101 23.1063 5.85623 23.4927 5.6063C23.1699 5.40363 22.761 5.29814 22.3036 5.35707C21.4229 5.47043 21.0457 6.14961 20.5727 6.79532C20.4657 6.94019 13.5369 16.2354 13.0511 16.6235C13.2544 16.7847 13.4838 16.9058 13.7526 16.9493Z" fill="black"/>
<path d="M8.52507 16.1294C2.01461 7.50697 1.97055 7.57912 1.89492 7.08672C1.79898 6.44889 2.12148 5.90853 2.60445 5.60515C2.30367 5.40262 1.92539 5.28715 1.40258 5.35804C0.587734 5.46845 -0.119453 6.18026 0.0169534 7.08672C0.0925783 7.57941 0.141484 7.51344 6.64711 16.1294C7.98289 17.9329 9.28461 20.0958 12.3505 19.9965C12.6115 19.9881 12.8579 19.9619 13.0921 19.9206C10.8155 19.5239 9.68257 17.6923 8.52507 16.1294Z" fill="black"/>
<path d="M28.3111 3.52238C27.3252 2.63082 26.6785 2.34938 27.4664 1.63265L28.6782 0.549674C28.6885 0.540391 28.6986 0.530546 28.7089 0.521123C28.6325 0.453612 28.5539 0.383992 28.4714 0.310434C28.2839 0.141659 28.0322 -0.102221 27.6221 0.0457394C27.3361 0.148271 27.1569 0.374569 26.9611 0.549674L25.7496 1.63265C24.9618 2.34938 25.6083 2.63082 26.5942 3.52238C26.8072 3.71576 26.9844 3.87033 27.1996 4.06302C27.8097 4.61365 28.1207 4.42392 28.711 3.87976C28.5791 3.76288 28.4528 3.65107 28.3111 3.52238Z" fill="black"/>
<path d="M71.7566 5.09448H63.7883C59.2356 5.09448 55.545 8.41655 55.545 12.5146C55.545 16.6126 59.2356 19.9346 63.7883 19.9346H71.7566C76.3092 19.9346 79.9998 16.6126 79.9998 12.5146C79.9998 8.41655 76.3092 5.09448 71.7566 5.09448ZM71.7311 17.1117H63.8139C60.9933 17.1117 58.7066 15.0535 58.7066 12.5144C58.7066 9.97547 60.9931 7.91711 63.8139 7.91711H71.7311C74.5517 7.91711 76.8384 9.97533 76.8384 12.5144C76.8384 15.0535 74.5517 17.1117 71.7311 17.1117Z" fill="black"/>
</svg>
