<svg width="30" height="30" viewBox="0 0 30 30" fill="none" xmlns="http://www.w3.org/2000/svg">
<circle cx="15" cy="15" r="15" fill="#FEECCA"/>
<path d="M19.6422 16.6493C19.6422 16.6493 19.6006 16.3323 19.1661 16.3323H17.7576C18.0598 17.3439 18.3246 18.2771 18.3246 18.3317C18.3246 19.2357 17.0365 19.6167 14.9474 19.6167C12.8586 19.6167 11.6709 19.2607 11.6709 18.357C11.6709 18.2938 12.0489 17.3375 12.3492 16.3323H10.8104C10.5051 16.3323 10.4555 16.616 10.4555 16.616L9 21.2506L9.24845 21.6347H20.8576L21 21.2506L19.6422 16.6493Z" fill="#FDBC79"/>
<path d="M15 8C14.6103 8 14.294 8.06779 14.294 8.15074C14.1077 8.71241 11.2179 18.0521 11.2179 18.2911C11.2179 19.1956 12.9113 19.7406 14.9996 19.7406C17.088 19.7406 18.7817 19.1956 18.7817 18.2911C18.7817 18.0832 15.898 8.72112 15.7056 8.15074C15.706 8.06779 15.3901 8 15 8Z" fill="#E0E0E0"/>
<path d="M18.4825 17.2591C18.0417 17.9351 16.6437 18.6047 15.017 18.6047C13.3733 18.6047 11.928 17.9624 11.502 17.2753C11.313 17.837 11.1641 18.2779 11.1641 18.5176C11.1641 19.4213 12.8809 20.1193 15 20.1193C17.119 20.1193 18.837 19.4209 18.837 18.5176C18.837 18.3101 18.6783 17.8302 18.4825 17.2591ZM17.7974 14.9362L17.0119 12.3631C17.0119 12.3631 16.3085 12.9232 15.0004 12.9232C13.6926 12.9232 12.987 12.3631 12.987 12.3631L12.1988 14.9408C12.1988 14.9408 12.9821 15.9535 15.0004 15.9535C17.0353 15.9535 17.7974 14.9362 17.7974 14.9362ZM16.2271 9.82136L15.706 8.15112C15.706 8.15112 15.6745 8.00038 15 8.00038C14.3016 8.00038 14.294 8.15112 14.294 8.15112L13.7729 9.82023C13.7729 9.82023 14.1081 10.2724 14.9996 10.2724C15.8916 10.2724 16.2271 9.82136 16.2271 9.82136Z" fill="#FDBC79"/>
</svg>
