<svg width="682" height="649" viewBox="0 0 682 649" fill="none" xmlns="http://www.w3.org/2000/svg">
<path d="M508.937 2.2001C478.27 8.06676 451.203 22.4668 429.47 44.8668L418.403 56.0668L252.937 56.4668L87.3367 56.8668L76.9367 59.8001C48.0033 68.0668 23.6033 88.0668 10.8033 114.067C0.00333658 136.067 0.803337 122.733 0.403337 290.867C-0.129997 454.067 -0.26333 451.133 7.33667 469.933C17.47 495.267 39.47 517.267 64.5367 527.4C78.5367 533 93.2033 534.867 122.137 534.867H148.003V582.6C148.003 629.4 148.003 630.467 151.07 636.2C156.537 647.133 170.137 651.4 181.07 645.533C183.737 644.067 214.137 618.6 248.67 588.867L311.337 534.867H426.67C550.537 534.733 552.403 534.733 570.937 527.8C584.67 522.867 594.137 516.6 606.137 504.867C622.67 488.467 632.403 469.8 635.87 447.133C636.803 441 637.337 405.667 637.337 346.2V254.733L645.737 245.133C661.47 227 671.87 207.133 678.27 183C681.203 171.933 681.737 167.267 681.87 148.2C681.87 129.667 681.47 124.333 678.937 114.467C664.803 58.2001 622.137 15.9334 566.803 3.26676C554.003 0.33343 521.87 -0.199904 508.937 2.2001ZM559.337 25.4001C606.803 35.1334 643.47 70.2001 656.137 117.533C660.403 133.267 660.403 162.6 656.27 177.667C644.27 221.8 613.603 254.067 571.203 267.267C522.937 282.467 468.537 265.533 436.937 225.533C398.537 177 401.203 107.667 443.203 63.1334C462.937 42.3334 484.403 30.3334 511.47 25.0001C524.937 22.3334 545.203 22.4668 559.337 25.4001ZM402.27 81.8001C392.403 105.267 388.403 120.333 387.203 139.267C385.737 162.067 390.537 188.2 399.87 208.867C414.137 240.333 444.003 269.8 474.937 283.133C516.537 300.867 559.737 299.8 600.403 279.8L614.803 272.733L614.403 359.4L614.003 446.2L610.27 456.733C605.603 469.933 601.47 477.133 593.07 486.2C584.403 495.8 572.403 503.4 559.337 507.933L548.67 511.533L426.003 512.2C315.203 512.867 302.937 513.133 300.003 515C298.137 516.2 268.537 541.533 234.003 571.267L171.337 625.133L170.67 576.333C169.737 509 172.67 512.867 120.67 511.933C90.5367 511.4 86.5367 511 78.67 508.333C50.8033 498.733 30.27 475.933 24.67 448.467C22.9367 440.067 22.67 418.733 23.07 291.133C23.3367 158.867 23.6033 142.867 25.6033 137.533C34.4033 113 46.9367 98.2001 67.2033 88.2001C83.7367 80.0668 74.8033 80.4668 245.87 80.3334C371.07 80.2001 402.803 80.6001 402.27 81.8001Z" fill="black"/>
<path d="M523.337 60.0672C517.07 63.9339 514.537 67.4005 506.004 83.9339L498.004 99.5339L481.87 101.667C459.47 104.734 457.737 105.267 452.404 109.934C444.537 116.867 441.87 127.534 445.737 136.601C446.67 138.734 453.604 146.601 461.204 154.201L475.204 167.934L472.004 185.934C468.537 206.467 468.937 211.534 474.937 218.334C480.537 224.601 485.204 226.867 493.337 226.867C498.937 226.867 502.937 225.401 517.337 218.201L534.67 209.534L552.004 218.201C566.67 225.534 570.404 226.867 576.137 226.867C585.604 226.867 593.47 222.201 597.204 214.467C600.67 207.267 600.67 203.801 597.204 183.667L594.404 167.534L607.07 155.534C614.004 148.867 620.937 141.401 622.537 138.867C628.937 128.201 624.27 112.467 613.07 107.134C609.87 105.534 600.404 103.401 592.004 102.201C583.604 101.134 575.47 99.9339 574.004 99.5339C572.137 99.1339 568.537 93.6672 562.137 81.5339C554.137 66.4672 552.137 63.6672 547.337 60.7339C540.27 56.7339 529.337 56.3339 523.337 60.0672ZM543.337 94.7339C551.204 110.601 556.537 117.667 562.27 120.067C564.404 120.867 574.004 122.734 583.737 124.067C593.604 125.534 601.87 127.001 602.137 127.267C602.404 127.534 596.67 133.801 589.204 141.001C581.87 148.201 574.937 155.801 573.87 157.801C571.337 162.601 571.47 171.267 574.537 188.867C575.87 196.867 576.804 203.801 576.537 204.067C576.27 204.467 567.737 200.734 557.604 195.801C545.737 189.934 537.737 186.867 534.67 186.867C531.604 186.867 523.604 189.934 511.737 195.801C501.604 200.734 493.07 204.334 492.67 204.067C492.27 203.667 493.204 196.734 494.67 188.734C497.604 172.334 498.004 162.734 495.87 158.467C495.07 156.867 488.004 149.134 480.404 141.401C464.137 125.001 463.07 127.134 489.337 123.401C497.737 122.201 506.27 120.467 508.137 119.401C513.737 116.601 518.27 110.201 526.137 94.6005C530.137 86.7339 534.004 80.2005 534.67 80.2005C535.337 80.2005 539.337 86.7339 543.337 94.7339Z" fill="#8624E1"/>
<path d="M84.263 105.402C65.3296 111.935 51.063 128.202 46.7963 147.935C44.663 158.335 44.9296 162.335 48.3963 166.068C52.7963 171.268 58.663 171.802 63.5963 167.668C66.9296 164.868 67.7296 163.002 68.3963 157.002C69.5963 144.602 76.7963 134.068 87.863 128.335C89.463 127.402 94.5296 126.068 98.9296 125.535C112.263 123.668 117.463 115.135 110.53 106.335C108.13 103.268 106.93 102.868 99.5963 102.868C95.063 103.002 88.1296 104.068 84.263 105.402Z" fill="#8624E1"/>
<path d="M95.2021 196.736C92.4021 199.136 91.4688 201.003 91.4688 204.87C91.4688 208.736 92.4021 210.603 95.2021 213.003L98.8021 216.203H175.469C256.402 216.203 258.269 216.07 260.535 210.203C262.269 205.536 261.335 200.07 258.002 196.87L254.802 193.536H176.802H98.8021L95.2021 196.736Z" fill="#8624E1"/>
<path d="M288.53 196.736C285.73 199.136 284.797 201.003 284.797 204.87C284.797 208.736 285.73 210.603 288.53 213.003C291.997 216.07 292.93 216.203 312.797 216.203H333.597L337.464 212.336C341.597 208.203 342.264 204.47 339.73 199.803C336.664 194.07 334.93 193.67 313.064 193.536C292.93 193.536 291.997 193.67 288.53 196.736Z" fill="#8624E1"/>
<path d="M95.4687 287.134C90.1354 291.801 89.6021 297.534 94.0021 302.601L97.6021 306.867H244.002H390.535L394.135 303.667C398.935 299.667 399.335 292.201 394.935 287.801L391.869 284.867L245.335 284.467L98.8021 284.201L95.4687 287.134Z" fill="#8624E1"/>
<path d="M97.8657 376.731C92.2657 379.131 89.7324 385.398 91.9991 390.865C92.9324 393.131 94.7991 395.531 96.1324 396.198C97.4657 396.998 116.932 397.531 142.666 397.531H186.799L189.999 394.198C194.266 390.065 194.266 384.198 190.132 379.265L186.932 375.531L144.399 375.265C110.932 374.998 101.066 375.265 97.8657 376.731Z" fill="#8624E1"/>
<path d="M222.937 376.865C218.003 378.999 215.47 384.199 216.67 389.799C218.537 398.065 208.137 397.532 381.337 397.532H539.603L542.27 394.465C546.27 390.065 546.803 387.265 544.803 382.332C543.603 379.265 541.603 377.399 538.67 376.332C535.47 375.265 492.003 374.865 380.803 374.865C251.47 374.999 226.67 375.265 222.937 376.865Z" fill="#8624E1"/>
<path d="M572.4 424.47C570.667 426.47 569.333 430.337 568.8 435.003C566.8 451.403 553.867 464.337 537.467 466.337C528.267 467.403 524 470.737 524 477.137C524 487.403 529.867 490.603 543.6 488.203C568 484.07 586.533 465.403 590.8 441.003C593.067 427.403 589.867 421.537 579.6 421.537C576.667 421.537 574.267 422.603 572.4 424.47Z" fill="#8624E1"/>
</svg>
