<svg width="621" height="683" viewBox="0 0 621 683" fill="none" xmlns="http://www.w3.org/2000/svg">
<path d="M280.333 1.33382C273.8 2.00049 260.2 4.00049 250.333 6.00049C156.066 24.4005 74.3331 87.0672 31.7997 173.734C-0.733602 240.134 -8.46693 314.401 9.6664 386.667C29.9331 467.067 82.8664 536.801 155.4 578.801C171.266 588.001 188.6 595.867 193 595.867C197.666 595.867 203.133 591.601 203.933 587.334C205.4 579.734 202.2 576.534 183.8 567.201C154.466 552.267 133.8 537.734 111.8 516.534C66.9997 473.467 38.5997 420.001 27.5331 357.867C24.7331 342.934 24.3331 336.267 24.4664 309.867C24.4664 284.267 24.9997 276.534 27.3997 262.934C38.4664 201.601 64.7331 151.2 108.2 107.6C140.066 75.6005 178.2 52.0005 221 38.0005C251.666 28.0005 277.4 23.8672 310.333 23.8672C343.266 23.8672 369 28.0005 399.666 38.0005C442.466 52.0005 480.6 75.6005 512.466 107.6C555.933 151.2 582.2 201.601 593.266 262.934C595.666 276.534 596.2 284.267 596.2 309.867C596.333 336.267 595.933 342.934 593.133 357.867C582.066 420.001 553.666 473.467 508.866 516.534C486.866 537.734 466.2 552.267 436.866 567.201C422.6 574.401 419.133 576.801 417.8 580.134C415.533 585.334 416.6 590.001 420.733 593.201C425.533 597.067 429.933 596.534 442.466 590.667C495.133 566.267 542.6 524.001 574.333 473.201C583.8 458.134 597 430.534 602.866 413.334C630.6 333.334 625.666 248.667 588.866 173.734C566.866 129.067 533.533 89.3338 493 59.6005C432.866 15.4672 355.8 -5.73284 280.333 1.33382Z" fill="black"/>
<path d="M295 47.3321C255.8 51.1988 228.066 58.3988 196.6 73.0655C153.933 93.0655 113 129.732 87.3997 170.932C62.733 210.532 48.0664 258.265 47.5331 301.065C47.3997 313.999 47.5331 315.065 50.5997 318.132C54.4664 321.999 60.7331 322.532 65.5331 319.332C69.6664 316.665 69.7997 315.865 71.6664 293.465C76.1997 233.599 99.9331 182.132 142.066 140.265C173.266 109.332 209.8 88.6655 252.333 77.9988C273.4 72.6655 285.4 71.3321 310.333 71.3321C335.266 71.3321 347.266 72.6655 368.333 77.9988C410.866 88.6655 447.4 109.332 478.6 140.265C520.733 182.132 544.466 233.599 549 293.465C550.866 315.865 551 316.665 555.133 319.332C559.933 322.532 566.2 321.999 570.066 318.132C573.133 315.065 573.266 313.999 573.133 301.065C572.6 266.932 563 228.265 546.733 195.199C533 167.465 518.2 146.665 496.466 124.799C456.2 84.3988 404.866 58.3988 348.333 49.8655C335.266 47.8655 304.2 46.3988 295 47.3321Z" fill="black"/>
<path d="M283.133 169.998L261.666 192.131L234.866 187.331C200.599 181.198 196.599 181.198 193.133 187.731C192.199 189.465 183.666 244.398 183.666 248.665C183.666 248.931 171.399 255.065 156.466 262.265C127.533 276.398 123.933 279.198 125.399 286.265C125.799 288.265 132.199 301.198 139.533 314.931C146.999 328.665 152.999 340.398 152.999 341.198C152.999 341.998 146.999 353.731 139.533 367.465C132.199 381.198 125.799 394.131 125.399 396.131C123.933 403.198 127.533 405.998 156.466 420.131C171.399 427.331 183.666 433.465 183.666 433.731C183.666 437.998 192.199 492.931 193.133 494.665C196.066 500.131 202.866 501.065 218.599 497.998L227.666 496.265L227.933 586.131L228.333 676.131L232.066 679.331C234.066 681.065 237.399 682.531 239.399 682.531C241.799 682.531 253.666 675.331 275.933 660.531C294.066 648.398 309.533 638.531 310.333 638.531C311.133 638.531 326.599 648.398 344.733 660.531C366.999 675.331 378.866 682.531 381.266 682.531C383.266 682.531 386.599 681.065 388.599 679.331L392.333 676.131L392.733 586.131L392.999 496.265L402.066 497.998C417.799 501.065 424.599 500.131 427.533 494.665C428.466 492.931 436.999 437.998 436.999 433.731C436.999 433.465 449.266 427.331 464.199 420.131C493.133 405.998 496.733 403.198 495.266 396.131C494.866 394.131 488.466 381.198 481.133 367.465C473.666 353.731 467.666 341.998 467.666 341.198C467.666 340.398 473.666 328.665 481.133 314.931C488.466 301.198 494.866 288.265 495.266 286.265C496.733 279.198 493.133 276.398 464.199 262.265C449.266 255.065 436.999 248.931 436.999 248.665C436.999 244.398 428.466 189.465 427.533 187.731C424.066 181.198 420.066 181.198 385.799 187.331L358.999 192.131L337.533 169.998C316.333 148.131 315.933 147.865 310.333 147.865C304.733 147.865 304.333 148.131 283.133 169.998ZM328.333 194.665C337.933 204.665 347.533 213.731 349.666 214.931C353.399 216.798 355.266 216.665 380.066 212.265C394.599 209.731 406.733 207.865 407.133 208.131C407.399 208.531 409.266 219.865 411.133 233.331C412.866 246.798 415.133 259.598 415.933 261.731C417.266 264.931 421.266 267.465 441.266 277.331C454.466 283.731 465.799 289.198 466.466 289.465C467.133 289.731 462.066 300.531 454.999 313.598C447.266 328.131 442.333 338.798 442.333 341.198C442.333 343.598 447.266 354.265 454.999 368.798C462.066 381.865 467.133 392.665 466.466 392.931C465.799 393.198 454.466 398.665 441.266 405.065C421.266 414.931 417.266 417.465 415.933 420.665C415.133 422.798 412.866 435.598 411.133 449.065C409.266 462.531 407.399 473.865 407.133 474.265C406.733 474.531 394.599 472.798 380.199 470.131C363.666 467.198 352.866 465.865 351.133 466.531C348.599 467.465 317.133 498.265 312.333 504.531L310.333 507.198L308.333 504.531C302.466 496.931 271.133 466.665 268.599 466.265C266.999 465.998 254.066 467.731 239.933 470.265C225.799 472.798 213.933 474.531 213.533 474.265C213.266 473.865 211.399 462.531 209.533 449.065C207.799 435.598 205.533 422.798 204.733 420.665C203.399 417.465 199.399 414.931 179.399 405.065C166.199 398.665 154.866 393.198 154.199 392.931C153.533 392.665 158.599 381.865 165.666 368.798C173.399 354.265 178.333 343.598 178.333 341.198C178.333 338.798 173.399 328.131 165.666 313.598C158.599 300.531 153.533 289.731 154.199 289.465C154.866 289.198 166.199 283.731 179.399 277.331C199.399 267.465 203.399 264.931 204.733 261.731C205.533 259.598 207.799 246.798 209.533 233.331C211.399 219.865 213.266 208.531 213.533 208.131C213.933 207.865 226.066 209.731 240.599 212.265C265.266 216.665 267.266 216.798 270.999 214.931C273.266 213.731 282.866 204.531 292.333 194.531C301.933 184.398 309.933 176.265 310.333 176.398C310.733 176.398 318.866 184.665 328.333 194.665ZM282.599 511.731C293.799 523.465 304.599 533.598 306.733 534.398C309.266 535.331 311.399 535.331 313.933 534.398C316.066 533.598 326.999 523.331 338.333 511.598L358.999 490.265L364.066 491.198L368.999 492.131V570.131C368.999 614.531 368.466 647.865 367.799 647.598C367.133 647.331 356.733 640.531 344.599 632.531L322.466 617.865L322.066 594.931C321.666 572.798 321.533 571.998 318.466 568.665C313.933 563.865 306.733 563.865 302.199 568.665C299.133 571.998 298.999 572.798 298.599 594.931L298.199 617.865L276.066 632.531C263.933 640.531 253.533 647.331 252.866 647.598C252.199 647.865 251.666 614.531 251.666 570.131V491.998L254.733 491.465C256.333 491.198 258.599 490.798 259.933 490.665C261.133 490.665 270.866 499.731 282.599 511.731Z" fill="#8624E1"/>
<path d="M297.666 230C265.666 234.667 237.399 251.2 220.199 275.467C206.066 295.067 199.133 317.067 199.133 341.2C199.133 370.667 209.533 396.933 229.666 418.4C242.999 432.667 264.599 444.933 284.999 450C298.599 453.333 322.066 453.333 335.666 450C377.133 439.733 408.866 408 419.133 366.533C420.866 359.733 421.533 351.6 421.533 341.2C421.533 317.067 414.599 295.067 400.466 275.467C385.933 255.067 361.533 238.8 336.466 232.667C327.266 230.4 305.133 228.933 297.666 230ZM329.533 255.2C354.066 260.4 377.666 278.8 388.733 301.333C401.533 327.333 401.533 355.067 388.733 381.067C380.866 397.067 366.199 411.733 350.199 419.6C324.199 432.4 296.466 432.4 270.466 419.6C254.466 411.733 239.799 397.067 231.933 381.067C219.133 355.067 219.133 327.333 231.933 301.333C242.866 279.067 266.599 260.4 290.466 255.2C301.799 252.8 318.199 252.8 329.533 255.2Z" fill="#8624E1"/>
</svg>
