<svg width="577" height="568" viewBox="0 0 577 568" fill="none" xmlns="http://www.w3.org/2000/svg">
<path d="M124.963 1.45336C122.787 2.57474 121.6 3.76209 120.545 5.93888C119.094 8.70935 119.028 9.63284 119.028 22.5617V36.2161L85.9251 36.414L52.7561 36.6779L46.4257 38.3929C25.6538 44.0658 9.43202 59.3033 3.10156 79.1584C-0.195556 89.3827 0.00227097 77.5093 0.00227097 301.785C0.00227097 526.061 -0.195556 514.188 3.10156 524.412C10.2233 546.642 30.072 563.33 53.4156 566.563C60.5373 567.552 516.463 567.552 523.584 566.563C546.928 563.33 566.777 546.642 573.898 524.412C577.195 514.188 576.998 526.061 576.998 301.785C576.998 77.5093 577.195 89.3827 573.898 79.1584C568.03 60.8865 553.258 45.9128 534.597 39.5143C526.42 36.6779 520.683 36.2821 488.503 36.2821H457.972V22.5617C457.972 10.5563 457.774 8.57742 456.653 6.13677C453.422 -1.11921 443.399 -1.84481 438.98 4.8175C437.2 7.45604 437.2 7.52201 437.002 21.902L436.804 36.2821H367.96H299.117L298.919 21.902C298.721 8.9732 298.589 7.39008 297.402 5.27925C295.951 2.77263 291.27 0.00216717 288.5 0.00216717C285.73 0.00216717 281.049 2.77263 279.598 5.27925C278.411 7.39008 278.279 8.9732 278.081 21.902L277.883 36.2821H209.039H140.196L139.998 21.902C139.8 8.11568 139.734 7.52201 138.217 5.01539C136.569 2.37685 132.546 0.0681307 129.579 0.00216717C128.656 0.00216717 126.546 0.661802 124.963 1.45336ZM119.16 61.5461C119.49 66.7572 120.677 69.3958 123.446 71.5066C127.403 74.409 133.338 73.9472 136.701 70.3852C139.141 67.7467 140.13 64.7783 140.13 60.2928V56.7308H209.039H277.949V60.5567C277.949 67.9446 282.301 73.2216 288.5 73.2216C294.699 73.2216 299.051 67.9446 299.051 60.5567V56.7308H367.895H436.672L437.002 61.744C437.398 67.219 438.387 69.1979 442.146 71.7045C443.662 72.7599 445.311 73.2216 447.553 73.2216C454.081 73.2216 457.312 69.5277 457.84 61.5461L458.17 56.6648L490.218 56.8627L522.266 57.0606L527.541 58.9076C540.729 63.591 549.368 72.1003 554.445 85.5568C555.83 89.2508 555.896 90.3062 556.094 124.145L556.292 158.974H288.5H20.7741V125.795C20.7741 89.5146 20.84 89.0529 24.7306 80.6096C30.4676 68.3403 42.7988 59.1714 56.0533 57.3904C58.2293 57.1266 73.2642 56.8627 89.4201 56.7967L118.83 56.7308L119.16 61.5461ZM556.226 345.123C556.226 530.415 556.621 514.517 551.412 524.61C546.664 533.911 538.421 540.837 527.541 544.663L522.266 546.51H288.5H54.7344L49.459 544.663C38.3807 540.705 30.006 533.581 25.3901 524.148C20.3785 513.924 20.7741 529.491 20.7741 345.189V179.423H288.5H556.226V345.123Z" fill="black"/>
<path d="M221.215 267.463V449.281H171.854V312.918H170.789L131.016 336.71V294.807L175.761 267.463H221.215ZM337.737 454.253C321.224 454.194 306.96 450.376 294.946 442.8C282.931 435.225 273.668 424.305 267.158 410.041C260.648 395.777 257.422 378.673 257.481 358.727C257.54 338.723 260.796 321.736 267.247 307.768C273.757 293.801 282.99 283.177 294.946 275.897C306.96 268.617 321.224 264.977 337.737 264.977C354.25 264.977 368.513 268.647 380.528 275.986C392.543 283.266 401.805 293.889 408.316 307.857C414.826 321.825 418.052 338.782 417.993 358.727C417.993 378.791 414.737 395.955 408.227 410.219C401.717 424.482 392.454 435.402 380.439 442.978C368.484 450.495 354.25 454.253 337.737 454.253ZM337.737 414.125C346.26 414.125 353.243 409.686 358.689 400.808C364.193 391.871 366.915 377.844 366.856 358.727C366.856 346.239 365.613 336.03 363.127 328.099C360.642 320.168 357.209 314.308 352.829 310.521C348.449 306.674 343.419 304.75 337.737 304.75C329.214 304.75 322.26 309.071 316.874 317.712C311.488 326.353 308.736 340.025 308.618 358.727C308.558 371.452 309.772 381.928 312.257 390.155C314.743 398.322 318.176 404.359 322.556 408.266C326.995 412.172 332.055 414.125 337.737 414.125Z" fill="#8624E1"/>
</svg>
