<svg width="682" height="682" viewBox="0 0 682 682" fill="none" xmlns="http://www.w3.org/2000/svg">
<path d="M271.267 1.87477C251.533 5.47477 245 10.6748 235.667 30.1414C226.333 49.7414 216.467 57.4748 189.667 66.5414C173.267 72.0081 164.067 71.8748 147.933 66.4081C124.067 58.2748 113.8 62.0081 87.1333 88.5414C72.7333 102.808 68.8667 107.608 64.8667 115.741C58.4667 128.675 58.3333 134.808 64.6 152.541C67.1333 159.875 69.2667 168.275 69.2667 171.341C69.2667 185.608 57.5333 215.475 47.2667 227.475C43.9333 231.475 38.6 235.075 29.6667 239.475C10.0667 249.208 4.73333 255.875 1.4 274.675C-0.466667 285.608 -0.466667 311.075 1.4 322.541C4.33333 341.208 10.6 349.341 28.8667 358.008C37.8 362.408 42.6 365.608 47 370.541C57.2667 382.008 67.4 406.008 68.8667 422.541C69.5333 430.141 69 432.808 64.7333 445.075C59.8 459.475 59 466.408 61.2667 474.675C65.6667 490.408 97.4 524.141 115.133 532.008C125.933 536.675 132.333 536.675 146.6 531.875C167.667 524.675 182.467 526.408 207 538.675C222.467 546.541 228.467 552.675 236.067 568.808C243.4 584.008 248.067 588.941 259.8 593.341C279 600.541 328.333 599.341 343.667 591.341C350.6 587.741 356.467 580.541 362.067 568.541C365.267 561.875 368.867 555.208 370.2 553.608C373 550.275 382.467 542.541 383.933 542.541C384.467 542.541 385.267 546.541 385.8 551.475C387 564.275 392.467 583.741 398.6 596.675C417 636.275 450.867 665.075 493.933 678.141C505.267 681.475 507.4 681.741 533.267 681.741C563.933 681.875 571.4 680.541 593.133 671.208C626.6 656.941 657 626.541 671.267 593.075C680.6 571.341 681.933 563.875 681.8 533.208C681.8 507.341 681.533 505.208 678.2 493.875C663.4 445.208 628.067 408.008 582.067 392.541C570.333 388.675 554.2 385.208 547.133 385.208C541.4 385.208 541.4 383.341 546.733 375.741C552.733 367.341 556.467 364.408 570.2 357.741C583.933 351.075 590.467 344.808 593.8 334.808C597.267 324.941 599 305.875 598.067 289.875C596.2 259.341 591.133 250.408 569.267 240.008C562.867 236.941 555.667 232.408 553 229.608C541.533 217.741 530.867 193.208 529.667 175.741C529 166.541 529.4 164.408 533.8 151.608C539.133 136.141 539.533 132.541 536.733 123.208C533.667 113.341 526.2 103.075 510.067 87.0748C498.333 75.4748 493 71.2081 485.4 67.4748C472.867 61.2081 466.2 61.0748 449.933 66.5414C430.2 73.2081 416.867 71.6081 392.467 59.8748C375.8 51.7414 367.667 43.7414 362.2 29.6081C353.267 6.67477 337.667 -0.258564 296.867 0.00810247C287.933 0.00810247 276.467 0.941436 271.267 1.87477ZM328.6 23.8748C336.2 26.1414 338.2 28.4081 344.6 41.8748C351.533 56.5414 357.133 63.0748 369.8 71.6081C388.067 83.8748 412.333 91.8748 431 91.8748C439.4 91.8748 444.067 91.0748 453.667 87.7414C468.067 82.8081 472.067 83.0748 481.133 89.7414C491 97.0748 511.133 118.808 514.6 125.875C518.067 132.941 518.067 132.808 511.4 151.208C503.533 173.075 510.333 205.741 528.467 233.075C536.733 245.475 543.267 250.941 558.333 258.141C573.133 265.341 574.333 266.941 576.2 285.608C577.8 300.275 576.067 323.075 573 329.875C571.8 332.541 567.933 335.075 557.8 339.875C546.467 345.341 543 347.741 536.2 355.208C531.8 360.008 525.667 368.808 522.733 374.541C517.533 384.275 516.867 385.208 512.2 385.875C445.8 397.208 396.467 446.941 385.933 513.475C385.533 516.275 384.467 518.541 383.667 518.541C380.2 518.541 362.333 531.208 356.067 538.008C352.333 542.008 347.533 549.341 345.267 554.275C338.467 569.208 338.067 569.741 333.133 572.275C325.667 575.875 301.933 577.741 284.6 576.008C263.8 573.875 261.933 572.808 254.2 556.675C245.267 538.141 236.067 529.208 215.667 519.341C186.2 504.941 165.533 502.408 144.067 510.408C130.733 515.341 129.533 515.341 122.333 511.741C115 508.008 93.1333 486.675 86.6 476.808C80.3333 467.475 80.0667 464.141 84.4667 453.208C94.2 429.208 91.6667 406.808 75.5333 375.341C66.2 356.941 57 347.741 39.2667 339.075C26.8667 333.075 25.8 332.141 24.0667 327.208C19.6667 314.275 21 274.675 26.0667 266.808C27.1333 265.208 33 261.475 39 258.675C58.0667 249.741 67.6667 239.741 78.0667 217.875C86.6 199.875 89.8 187.208 89.8 171.208C89.8 159.341 89.4 156.675 85.5333 147.208C83.2667 141.341 81.2667 135.208 81.2667 133.475C81.2667 121.208 117.4 83.8748 129.4 83.8748C131.4 83.8748 138.733 85.7414 145.533 88.0081C157 91.8748 159 92.1414 171.267 91.6081C185.8 90.8081 198.2 87.3414 215.4 79.2081C235.533 69.4748 247.4 57.4748 255.133 38.9414C260.067 27.2081 262.867 24.9414 275.933 22.6748C285.267 20.9414 321.533 21.8748 328.6 23.8748ZM562.6 409.075C610.067 420.275 647.133 457.075 658.867 504.808C663.133 522.275 662.867 547.741 658.067 565.875C646.2 611.208 611.267 646.141 565.933 658.008C547.8 662.808 522.333 663.075 504.867 658.808C474.867 651.341 447.267 632.941 429.8 608.541C419.8 594.541 411.267 574.141 407.8 556.275C405.133 542.275 406.867 512.275 411.133 498.141C417.8 475.741 429.4 456.941 446.467 440.808C462.2 426.008 477.8 417.075 498.2 411.208C516.867 405.741 544.733 404.808 562.6 409.075Z" fill="black"/>
<path d="M283.134 119.078C262.334 123.878 242.201 139.478 232.867 158.011C228.867 165.878 227.001 168.144 221.667 171.211C206.734 179.878 188.467 196.944 177.001 212.678C166.201 227.611 157.134 248.544 152.334 269.611C149.667 281.611 149.267 314.411 151.801 325.878C164.201 384.411 204.467 427.878 260.734 443.478C272.867 446.944 275.801 447.211 298.601 447.211C320.334 447.211 324.734 446.811 335.267 444.011C398.067 427.478 443.401 373.878 447.667 311.078C450.867 264.144 434.601 221.478 401.134 190.011C393.534 182.678 376.201 170.011 370.867 167.611C370.334 167.344 367.801 163.078 365.267 157.878C356.867 141.211 339.001 126.278 320.334 120.411C311.001 117.611 292.867 116.944 283.134 119.078ZM320.867 143.744C332.201 149.078 341.667 158.278 347.001 169.078C351.001 177.211 351.267 178.678 351.267 191.878C351.267 204.811 351.001 206.544 347.001 214.811C341.667 226.144 332.867 234.944 321.534 240.278C313.267 244.278 311.534 244.544 298.601 244.544C285.934 244.544 283.801 244.144 277.001 240.811C260.334 232.678 249.401 218.011 246.334 199.611C242.734 178.011 255.001 154.678 275.534 144.011C288.201 137.478 307.134 137.344 320.867 143.744ZM225.667 204.144C226.601 213.478 232.067 226.944 238.334 235.078C241.001 238.678 244.067 242.678 245.001 244.011C246.601 246.144 246.334 246.678 241.667 248.944C233.534 253.078 218.467 265.478 211.401 273.878C196.867 290.811 185.001 316.944 183.134 336.144C181.801 348.944 180.601 349.744 177.534 339.744C172.601 323.744 171.401 315.344 171.534 297.878C171.534 283.611 172.201 278.144 175.001 267.344C179.534 250.678 187.001 234.944 197.401 221.344C205.401 210.678 221.801 195.211 223.801 196.544C224.467 196.811 225.267 200.278 225.667 204.144ZM386.734 206.144C405.667 224.144 417.001 243.611 423.267 268.544C429.134 291.611 427.667 321.478 419.534 342.411C416.601 349.878 416.601 349.878 416.334 345.211C414.734 323.744 406.467 300.944 393.934 283.211C386.601 272.811 370.601 257.611 360.201 251.211C355.667 248.411 351.934 245.878 351.934 245.611C351.934 245.211 354.067 242.411 356.734 239.478C363.801 231.078 370.601 216.278 372.334 205.344C373.134 200.144 374.334 195.878 374.867 195.878C375.534 195.878 380.867 200.544 386.734 206.144ZM274.601 262.811C285.267 267.078 311.667 267.211 323.134 262.944L331.134 260.144L341.134 265.211C360.467 275.078 373.534 288.144 383.801 307.878C392.467 324.411 394.601 335.211 394.601 361.878V384.811L387.001 392.144C372.067 406.144 353.267 416.811 332.467 422.811C323.267 425.478 319.134 425.878 298.601 425.744C277.134 425.744 274.334 425.478 263.534 422.144C242.467 415.611 226.601 406.544 211.667 392.011L202.601 383.478V365.878C202.601 329.211 211.001 305.078 231.001 284.144C238.201 276.544 251.134 267.344 260.067 263.344C264.067 261.478 267.267 260.011 267.267 260.011C267.267 259.878 270.601 261.211 274.601 262.811Z" fill="#8624E1"/>
<path d="M569.8 440.406C567.933 441.872 567.133 444.406 566.6 450.806L565.933 459.206L509.533 459.872C455.533 460.539 453 460.672 451.133 463.072C449 466.139 448.733 472.272 450.6 475.872C453.267 480.672 458.733 481.206 513.4 481.206H566.6V488.539C566.6 498.672 570.067 502.139 579.267 501.206C584.067 500.806 587 496.539 587.667 488.806L588.2 481.472L600.733 480.939C615.533 480.272 619.133 478.139 619.133 469.739C619.133 461.872 615.533 459.872 600.6 459.872H588.2L587.667 451.872C587 442.139 584.2 438.539 577.267 438.539C574.6 438.539 571.267 439.339 569.8 440.406Z" fill="#8624E1"/>
<path d="M484.466 504.409C482.599 505.876 481.799 508.409 481.266 514.809L480.599 523.209L466.866 523.876C451.666 524.542 449.266 525.876 449.266 533.342C449.266 542.542 453.932 545.209 469.932 545.209H481.266V552.409C481.266 561.742 484.199 565.742 491.132 565.742C498.066 565.742 501.266 562.009 502.199 552.809L502.999 545.342L558.066 544.942C612.999 544.542 613.266 544.542 616.199 541.609C620.332 537.476 620.199 529.742 616.066 526.409C613.132 524.009 609.666 523.876 557.799 523.876H502.599V518.676C502.599 512.009 500.199 505.476 497.266 503.876C493.666 502.009 487.532 502.276 484.466 504.409Z" fill="#8624E1"/>
<path d="M569.535 569.473C567.535 571.74 566.602 574.673 566.335 579.873L565.935 587.206L510.735 587.606C456.068 587.873 455.402 587.873 452.335 590.806C448.468 594.406 448.335 601.073 451.802 605.34L454.335 608.54L510.468 608.94L566.602 609.34V616.406C566.602 624.806 569.135 628.806 575.402 630.006C578.602 630.54 580.335 630.006 583.268 627.606C586.335 624.94 587.135 622.94 587.668 616.806L588.202 609.206H599.935C609.535 609.206 612.202 608.806 615.002 606.54C619.402 603.073 620.468 598.14 618.068 593.34C615.402 588.273 613.935 587.873 599.802 587.873H587.935V581.873C587.935 575.073 585.268 568.673 581.935 567.34C577.535 565.74 572.335 566.54 569.535 569.473Z" fill="#8624E1"/>
</svg>
